<?xml version="1.0" standalone="no"?>
<!DOCTYPE svg PUBLIC "-//W3C//DTD SVG 20010904//EN"
 "http://www.w3.org/TR/2001/REC-SVG-20010904/DTD/svg10.dtd">
<svg version="1.0" xmlns="http://www.w3.org/2000/svg"
 width="144.000000pt" height="144.000000pt" viewBox="0 0 144.000000 144.000000"
 preserveAspectRatio="xMidYMid meet">
<metadata>
Created by potrace 1.14, written by Peter Selinger 2001-2017
</metadata>
<g transform="translate(0.000000,144.000000) scale(0.100000,-0.100000)"
fill="#000000" stroke="none">
<path d="M560 1355 c-230 -62 -419 -254 -476 -484 -22 -89 -15 -272 14 -361
125 -380 561 -559 925 -378 167 84 301 257 343 444 36 163 1 355 -90 497 -76
120 -211 224 -346 269 -85 28 -288 35 -370 13z m568 -637 l-3 -373 -65 0 c-60
0 -65 2 -68 23 l-3 22 -44 -25 c-161 -95 -358 25 -373 225 -7 101 17 170 81
234 84 84 194 99 293 41 l44 -26 0 126 0 125 70 0 70 0 -2 -372z m-670 -10 l2
-358 -70 0 -70 0 0 360 0 361 68 -3 67 -3 3 -357z"/>
<path d="M778 755 c-44 -25 -68 -75 -68 -141 0 -94 54 -154 138 -154 80 0 136
48 148 127 9 58 -8 111 -46 148 -25 24 -40 29 -87 32 -39 2 -67 -2 -85 -12z"/>
</g>
</svg>
