<svg width="80" height="81" viewBox="0 0 80 81" fill="none" xmlns="http://www.w3.org/2000/svg">
<rect y="0.347656" width="80" height="80" rx="40" fill="#4B50C8"/>
<g clip-path="url(#clip0_1293_6725)">
<rect width="24.2498" height="12.7733" transform="matrix(-0.0392771 -0.990542 -1.00828 0.00983015 44.7787 42.8378)" fill="#1F2272"/>
<path fill-rule="evenodd" clip-rule="evenodd" d="M41.9554 22.909C41.4763 22.9045 41.0121 22.7226 40.6583 22.401C40.3045 22.0793 40.0882 21.6423 40.0537 21.1799L34.9722 21.2295C34.9818 21.4771 34.9401 21.7226 34.8495 21.9517C34.759 22.1807 34.6214 22.3887 34.445 22.5634C34.2685 22.7381 34.0566 22.876 33.8219 22.969C33.5871 23.0619 33.3341 23.1081 33.0778 23.1048L33.7081 39.002C34.2024 38.99 34.6874 39.1654 35.0593 39.4908C35.4313 39.8163 35.6607 40.2658 35.6985 40.7433L40.78 40.6937C40.7553 40.2063 40.9315 39.7348 41.2701 39.3825C41.6087 39.0303 42.082 38.8262 42.5861 38.8149L41.9554 22.909Z" fill="white"/>
<path fill-rule="evenodd" clip-rule="evenodd" d="M39.7033 34.1678C40.3509 33.821 40.872 33.2936 41.2007 32.6523C41.5294 32.0109 41.651 31.2844 41.55 30.5646C41.4491 29.8448 41.1301 29.1641 40.6336 28.6085C40.137 28.0529 39.485 27.6475 38.7602 27.4434C38.0354 27.2393 37.2702 27.2458 36.5614 27.462C35.8527 27.6782 35.2322 28.0945 34.7785 28.6581C34.3247 29.2217 34.0581 29.9074 34.0123 30.6284C33.9665 31.3494 34.1436 32.0734 34.5212 32.7088C34.7717 33.1308 35.1044 33.5034 35.5005 33.8051C35.8965 34.1069 36.3481 34.3319 36.8293 34.4674C37.3106 34.6029 37.8121 34.6462 38.3053 34.5948C38.7984 34.5434 39.2735 34.3983 39.7033 34.1678Z" fill="#1F2272"/>
<rect width="24.6475" height="12.5672" transform="matrix(-0.437871 -0.889661 -0.92399 0.404434 39.4225 41.0938)" fill="#1F2272"/>
<path fill-rule="evenodd" clip-rule="evenodd" d="M28.6226 23.6834C28.1868 23.8639 27.6912 23.8741 27.2379 23.712C26.7845 23.5499 26.4079 23.2277 26.1856 22.8118L21.6039 24.8172C21.715 25.0433 21.7787 25.2873 21.7914 25.5348C21.8041 25.7823 21.7655 26.0284 21.6779 26.2586C21.5903 26.4888 21.4554 26.6985 21.2812 26.8753C21.107 27.0521 20.897 27.1926 20.6635 27.2883L27.8061 41.8006C28.2488 41.5988 28.7606 41.5747 29.232 41.7333C29.7033 41.892 30.0969 42.2207 30.3285 42.6494L34.9102 40.644C34.6862 40.2011 34.6509 39.6955 34.812 39.238C34.973 38.7805 35.3173 38.4085 35.7692 38.2037L28.6226 23.6834Z" fill="white"/>
<path fill-rule="evenodd" clip-rule="evenodd" d="M31.2422 35.0017C31.6853 34.4302 31.9392 33.7397 31.9718 33.0176C32.0044 32.2956 31.8141 31.5744 31.4251 30.9452C31.0362 30.316 30.4659 29.8072 29.7865 29.483C29.1071 29.1588 28.3491 29.0339 27.6083 29.1239C26.8675 29.214 26.1772 29.5151 25.6247 29.989C25.0722 30.463 24.6823 31.0886 24.5044 31.7867C24.3264 32.4848 24.3684 33.224 24.625 33.9109C24.8816 34.5978 25.3413 35.2015 25.9459 35.6457C26.3472 35.9408 26.8026 36.1583 27.286 36.2857C27.7694 36.413 28.2714 36.4478 28.7633 36.388C29.2552 36.3282 29.7273 36.175 30.1526 35.9371C30.5779 35.6993 30.9482 35.3814 31.2422 35.0017Z" fill="#1F2272"/>
<rect width="23.9873" height="12.9056" transform="matrix(0.346628 -0.933999 -0.941216 -0.347943 48.6782 46.6558)" fill="#1F2272"/>
<path fill-rule="evenodd" clip-rule="evenodd" d="M53.6635 27.3401C53.2152 27.1646 52.8488 26.8315 52.6398 26.4096C52.4307 25.9876 52.395 25.5088 52.5399 25.0718L47.7472 23.3001C47.6613 23.5309 47.528 23.7415 47.3551 23.9195C47.1822 24.0976 46.9732 24.2394 46.7405 24.3368C46.5077 24.4341 46.2558 24.485 45.9996 24.4865C45.7434 24.4879 45.4881 24.4398 45.2485 24.3451L39.7457 39.1726C40.2147 39.3383 40.603 39.6729 40.8277 40.1048C41.0523 40.5368 41.0955 41.0317 40.9479 41.4838L45.7406 43.2556C45.9043 42.799 46.2506 42.4289 46.7038 42.2264C47.1569 42.024 47.6798 42.0058 48.1577 42.1757L53.6635 27.3401Z" fill="white"/>
<path fill-rule="evenodd" clip-rule="evenodd" d="M47.2362 36.8752C47.9775 36.7882 48.6692 36.4902 49.224 36.0186C49.7787 35.547 50.1714 34.9232 50.3526 34.2259C50.5337 33.5287 50.4951 32.7893 50.2416 32.1015C49.9881 31.4136 49.5311 30.808 48.9284 30.3613C48.3257 29.9147 47.6044 29.647 46.8557 29.5921C46.107 29.5373 45.3645 29.6977 44.7221 30.0531C44.0798 30.4086 43.5664 30.943 43.247 31.5889C42.9275 32.2348 42.8163 32.9632 42.9274 33.6818C43.0009 34.1591 43.1707 34.6202 43.427 35.039C43.6834 35.4578 44.0213 35.8261 44.4215 36.1226C44.8216 36.4192 45.2762 36.6383 45.7592 36.7674C46.2421 36.8966 46.744 36.9332 47.2362 36.8752Z" fill="#1F2272"/>
<path opacity="0.2" d="M65 86.5998V89.0115C65 91.0559 63.4046 92.7195 61.4418 92.7195H41.2296C40.4529 92.7195 39.7274 92.9498 39.1115 93.3477L25.7414 79.4218C24.9446 78.5919 24.7893 77.3413 25.2791 76.3477C25.396 76.5856 25.5496 76.8102 25.7414 77.0101L39.1115 90.9359C39.7473 90.5246 40.4811 90.307 41.2296 90.3078H61.4418C63.4046 90.3078 65 88.6441 65 86.5998Z" fill="#2B478B"/>
<path d="M95.9999 40.1813L70.6183 40.1813L70.6183 58.7288L95.9999 58.7288L95.9999 40.1813Z" fill="#EA3790"/>
<path d="M76.454 53.1759L73.3336 53.1759L73.3336 56.527L76.454 56.527L76.454 53.1759Z" fill="#F2F2F2"/>
<path fill-rule="evenodd" clip-rule="evenodd" d="M70.213 42.781L65.764 42.781C65.764 42.781 58.4638 35.1614 52.3281 34.4171C47.2676 33.8033 39.634 37.4584 39.634 37.4584L54.9078 51.6723L59.3518 56.0685L70.213 56.0685L70.213 42.781Z" fill="#F4C496"/>
<path d="M70.6167 41.7419L68.1903 41.7419L68.1903 57.4575L70.6167 57.4575L70.6167 41.7419Z" fill="#F2F2F2"/>
<path fill-rule="evenodd" clip-rule="evenodd" d="M51.876 37.4582L23.7054 37.4582C22.1938 37.4582 20.9575 38.6945 20.9575 40.206L20.9575 56.6963C20.9575 58.2079 22.1938 59.4458 23.7054 59.4458L51.876 59.4458C53.3876 59.4458 54.6239 58.2079 54.6239 56.6963L54.6239 40.206C54.6239 38.6945 53.3876 37.4582 51.876 37.4582Z" fill="#1F2272"/>
<path d="M54.6255 41.9537L20.9575 41.9537L20.9575 46.3911L54.6255 46.3911L54.6255 41.9537Z" fill="#1A1A1A"/>
<path opacity="0.23" fill-rule="evenodd" clip-rule="evenodd" d="M44.4847 59.4458L23.7054 59.4458C22.1938 59.4458 20.9575 58.2079 20.9575 56.6963L20.9575 40.206C20.9575 38.6928 22.1938 37.4582 23.7054 37.4582L32.1186 37.4582L44.4847 59.4458Z" fill="white"/>
<path d="M55.5479 39.1976V57.9515C55.5479 59.2219 54.4673 60.2464 53.1273 60.2464H22.4206C21.0895 60.2464 20 59.2219 20 57.9515V39.1976C20 37.9353 21.0895 36.9023 22.4206 36.9023H53.1273C54.4673 36.9023 55.5479 37.9353 55.5479 39.1976Z" fill="url(#paint0_linear_1293_6725)"/>
<path d="M55.5525 42.1697H20.0022V47.2677H55.5525V42.1697Z" fill="white"/>
<path d="M27.274 53.1594C27.274 53.3437 27.195 53.5101 27.0682 53.6313C26.9404 53.7515 26.7648 53.8264 26.5705 53.8264H24.265C23.8763 53.8264 23.5615 53.5279 23.5615 53.1594C23.5615 52.9752 23.6405 52.8087 23.7673 52.6875C23.8951 52.5673 24.0707 52.4924 24.265 52.4924H26.5705C26.9591 52.4924 27.274 52.791 27.274 53.1594Z" fill="#E5E8EF"/>
<path d="M42.1272 53.1594C42.1272 53.3437 42.0483 53.5101 41.9215 53.6313C41.7937 53.7515 41.6181 53.8264 41.4238 53.8264H29.3785C28.9899 53.8264 28.675 53.5279 28.675 53.1594C28.675 52.9752 28.754 52.8087 28.8808 52.6875C29.0086 52.5673 29.1842 52.4924 29.3785 52.4924H41.4238C41.8124 52.4924 42.1272 52.791 42.1272 53.1594Z" fill="#E5E8EF"/>
<path d="M36.0328 56.634C36.0328 56.8183 35.9538 56.9848 35.8271 57.1059C35.6993 57.2261 35.5237 57.301 35.3294 57.301H24.3182C23.9296 57.301 23.6147 57.0025 23.6147 56.634C23.6147 56.4498 23.6937 56.2833 23.8205 56.1621C23.9483 56.0419 24.1239 55.967 24.3182 55.967H35.3294C35.718 55.967 36.0328 56.2656 36.0328 56.634Z" fill="#E5E8EF"/>
<path fill-rule="evenodd" clip-rule="evenodd" d="M60.2184 44.7446L45.3418 44.7446C43.1973 44.7446 41.4418 46.4985 41.4418 48.6447L41.4418 48.6463C41.4418 50.7909 43.1956 52.5447 45.3418 52.5447L60.2184 52.5447L60.2184 44.7446Z" fill="#F4C496"/>
<path d="M43.0873 75.1512C42.5704 75.3128 42.0092 75.1074 41.6019 74.6682L43.2284 74.1596L43.0047 73.4444L41.1892 74.012C41.1666 73.9556 41.146 73.8984 41.1275 73.8392C41.1092 73.7805 41.0932 73.7211 41.0799 73.6626L42.8955 73.0949L42.6718 72.3795L41.0453 72.8881C41.1299 72.2951 41.4742 71.8067 41.9911 71.6451C42.4851 71.4906 43.0534 71.675 43.474 72.1259L44.0247 71.615C43.405 70.9504 42.5402 70.6879 41.7673 70.9296C41.1864 71.1112 40.7269 71.5455 40.4737 72.1532C40.3464 72.4588 40.2796 72.7899 40.2738 73.1293L39.4936 73.3732L39.7173 74.0886L40.3608 73.8875C40.3753 73.946 40.3918 74.0052 40.41 74.0635C40.4284 74.1223 40.4483 74.1797 40.47 74.2369L39.8266 74.438L40.0502 75.1533L40.8303 74.9094C41.0285 75.185 41.2719 75.4188 41.5505 75.5972C42.1048 75.9524 42.73 76.0481 43.311 75.8665C44.0838 75.6248 44.6451 74.9165 44.7758 74.0173L44.032 73.9106C43.9433 74.5214 43.5813 74.9967 43.0873 75.1512Z" fill="url(#paint1_linear_1293_6725)"/>
<path d="M72.6515 35.1379C72.2157 34.908 71.9883 34.4141 72.0106 33.8695L73.382 34.5931L73.7002 33.99L72.1694 33.1823C72.1913 33.1315 72.215 33.0815 72.2414 33.0316C72.2675 32.9822 72.2956 32.9338 72.3248 32.8877L73.8556 33.6954L74.1739 33.0922L72.8025 32.3686C73.2395 32.0428 73.7755 31.9518 74.2113 32.1818C74.6278 32.4016 74.8733 32.8866 74.8521 33.4472L75.535 33.475C75.5665 32.6488 75.1812 31.9223 74.5296 31.5785C74.0398 31.32 73.4648 31.302 72.9102 31.5283C72.6313 31.6422 72.3748 31.8114 72.152 32.0253L71.4942 31.6783L71.1759 32.2815L71.7185 32.5677C71.69 32.6146 71.6624 32.6633 71.6364 32.7124C71.6103 32.762 71.586 32.8117 71.563 32.8623L71.0205 32.5761L70.7023 33.1792L71.3601 33.5262C71.3092 33.8309 71.3145 34.1379 71.378 34.4322C71.5042 35.0177 71.8435 35.4826 72.3333 35.7411C72.985 36.0849 73.8021 35.9929 74.4663 35.5005L74.0581 34.952C73.607 35.2866 73.068 35.3577 72.6515 35.1379Z" fill="url(#paint2_linear_1293_6725)"/>
<path d="M28.936 7.58733C28.4106 7.72487 27.8581 7.49275 27.4708 7.03361L29.124 6.60078L28.9336 5.87378L27.0883 6.35691C27.0683 6.2993 27.0504 6.24105 27.0347 6.18088C27.0191 6.12128 27.0059 6.06101 26.9953 6.00178L28.8407 5.51864L28.6503 4.7915L26.9971 5.22433C27.1097 4.63434 27.4777 4.16136 28.003 4.02381C28.5051 3.89236 29.0656 4.10377 29.4657 4.57519L30.0414 4.08942C29.452 3.39452 28.5981 3.09092 27.8126 3.29658C27.2221 3.45118 26.7414 3.86458 26.4592 4.46128C26.3172 4.76145 26.2348 5.08992 26.2129 5.42964L25.42 5.63724L25.6104 6.36437L26.2644 6.19315C26.2762 6.25247 26.29 6.31259 26.3055 6.37179C26.3211 6.4316 26.3383 6.49001 26.3574 6.54827L25.7034 6.71949L25.8937 7.44649L26.6866 7.23889C26.8721 7.5243 27.1049 7.76989 27.3757 7.96177C27.9141 8.34365 28.5358 8.46894 29.1263 8.31434C29.9118 8.10867 30.5074 7.42563 30.6807 6.53107L29.9406 6.38916C29.8231 6.99685 29.4381 7.45587 28.936 7.58733Z" fill="url(#paint3_linear_1293_6725)"/>
<path d="M8.01676 48.3723C7.48701 48.2421 7.11028 47.7724 6.98823 47.1814L8.65536 47.5912L8.83555 46.858L6.97467 46.4007C6.98461 46.3402 6.99671 46.2802 7.01162 46.2195C7.02639 46.1594 7.04365 46.0999 7.06269 46.0425L8.9236 46.4999L9.10383 45.7666L7.43668 45.3569C7.81876 44.8898 8.37023 44.6484 8.9 44.7786C9.40634 44.9031 9.80005 45.3583 9.92749 45.9662L10.6686 45.8131C10.481 44.9171 9.87238 44.2399 9.08023 44.0452C8.48474 43.8989 7.86223 44.0337 7.32719 44.4254C7.05808 44.6224 6.82789 44.873 6.64588 45.1625L5.84627 44.966L5.66605 45.6993L6.32555 45.8613C6.30753 45.9194 6.29092 45.9791 6.27625 46.0388C6.26142 46.0991 6.24866 46.1589 6.23753 46.2195L5.57803 46.0574L5.39784 46.7905L6.19746 46.9871C6.22452 47.3279 6.31243 47.6563 6.4596 47.9555C6.7521 48.5506 7.24109 48.9591 7.83658 49.1054C8.62875 49.3001 9.48187 48.9823 10.0634 48.2754L9.4779 47.7955C9.08297 48.2758 8.5231 48.4967 8.01676 48.3723Z" fill="url(#paint4_linear_1293_6725)"/>
</g>
<g clip-path="url(#clip1_1293_6725)">
<rect x="56" y="0.347656" width="24" height="24" rx="12" fill="#58C27D"/>
<path d="M62 12.3477L66 16.3477L74 8.34766" stroke="#FCFCFD" stroke-width="2" stroke-miterlimit="10" stroke-linecap="round" stroke-linejoin="round"/>
</g>
<defs>
<linearGradient id="paint0_linear_1293_6725" x1="37.774" y1="36.9023" x2="37.774" y2="60.2464" gradientUnits="userSpaceOnUse">
<stop stop-color="#FF4EA3"/>
<stop offset="1" stop-color="#B8008F"/>
</linearGradient>
<linearGradient id="paint1_linear_1293_6725" x1="41.3143" y1="71.0712" x2="42.8579" y2="76.0081" gradientUnits="userSpaceOnUse">
<stop stop-color="#FFD836"/>
<stop offset="1" stop-color="#EBB11D"/>
</linearGradient>
<linearGradient id="paint2_linear_1293_6725" x1="74.1476" y1="31.3769" x2="71.9513" y2="35.5395" gradientUnits="userSpaceOnUse">
<stop stop-color="#FFD836"/>
<stop offset="1" stop-color="#EBB11D"/>
</linearGradient>
<linearGradient id="paint3_linear_1293_6725" x1="27.3521" y1="3.41714" x2="28.6658" y2="8.43491" gradientUnits="userSpaceOnUse">
<stop stop-color="#FFD836"/>
<stop offset="1" stop-color="#EBB11D"/>
</linearGradient>
<linearGradient id="paint4_linear_1293_6725" x1="8.61586" y1="43.9311" x2="7.37219" y2="48.9913" gradientUnits="userSpaceOnUse">
<stop stop-color="#FFD836"/>
<stop offset="1" stop-color="#EBB11D"/>
</linearGradient>
<clipPath id="clip0_1293_6725">
<rect y="0.347656" width="80" height="80" rx="40" fill="white"/>
</clipPath>
<clipPath id="clip1_1293_6725">
<rect x="56" y="0.347656" width="24" height="24" rx="12" fill="white"/>
</clipPath>
</defs>
</svg>
