<svg width="80" height="81" viewBox="0 0 80 81" fill="none" xmlns="http://www.w3.org/2000/svg">
<rect y="0.347656" width="80" height="80" rx="40" fill="#4B50C8"/>
<g clip-path="url(#clip0_1293_6836)">
<path opacity="0.2" d="M65 86.5998V89.0115C65 91.0559 63.4046 92.7195 61.4418 92.7195H41.2296C40.4529 92.7195 39.7274 92.9498 39.1115 93.3477L25.7414 79.4218C24.9446 78.5919 24.7893 77.3413 25.2791 76.3477C25.396 76.5856 25.5496 76.8102 25.7414 77.0101L39.1115 90.9359C39.7473 90.5246 40.4811 90.307 41.2296 90.3078H61.4418C63.4046 90.3078 65 88.6441 65 86.5998Z" fill="#2B478B"/>
<path d="M47.6245 31.8139V29.9063L46.2583 31.8139H47.6245Z" fill="#E4E5ED"/>
<path d="M67.6939 21.3477H35.0809C34.3598 21.3477 33.7753 21.9322 33.7753 22.6533V38.2483C33.7753 38.9695 34.3598 39.554 35.0809 39.554H42.746V44.6599C42.746 45.218 43.3827 45.537 43.83 45.2032L51.3874 39.554H67.6939C68.415 39.554 68.9995 38.9695 68.9995 38.2483V22.6533C68.9995 21.9322 68.415 21.3477 67.6939 21.3477ZM42.3355 35.0892H38.7813C38.4192 35.0892 38.0879 34.8875 37.9223 34.5653C37.7567 34.2437 37.7837 33.8564 37.9938 33.5619L41.2354 29.0044C41.4687 28.6763 41.3392 28.3477 41.2941 28.2549C41.2406 28.1447 41.0762 27.8856 40.7186 27.8695H40.7166C40.163 27.8695 39.748 28.2851 39.748 28.7962C39.748 29.3304 39.3156 29.7629 38.7813 29.7629C38.2471 29.7629 37.8147 29.3304 37.8147 28.7962C37.8147 27.2186 39.0978 25.9355 40.6754 25.9355L40.8049 25.9381C41.7722 25.9819 42.6049 26.531 43.0321 27.4074C43.4613 28.2884 43.3769 29.3292 42.8111 30.125L40.6548 33.1552H42.3348C42.8684 33.1552 43.3015 33.5877 43.3015 34.1219C43.3015 34.6562 42.8691 35.0892 42.3355 35.0892ZM49.9413 33.7475H49.5578V34.1226C49.5578 34.6568 49.1248 35.0892 48.5911 35.0892C48.0575 35.0892 47.6245 34.6568 47.6245 34.1226V33.7475H44.3745C44.0117 33.7475 43.6804 33.5451 43.5148 33.2223C43.3492 32.8994 43.3776 32.5114 43.5889 32.2169L47.8056 26.3383C48.0505 25.9967 48.488 25.8543 48.8869 25.9812C49.2865 26.1101 49.5578 26.482 49.5578 26.9015V31.8135H49.9413C50.4749 31.8135 50.9079 32.2459 50.9079 32.7802C50.9079 33.3144 50.4749 33.7475 49.9413 33.7475ZM58.7638 25.8472L52.7169 36.1552C52.5371 36.4619 52.2142 36.6327 51.8823 36.6327C51.7161 36.6327 51.5472 36.5902 51.3939 36.4999C50.9331 36.2299 50.779 35.6377 51.0491 35.1769L57.0959 24.8689C57.366 24.4088 57.9589 24.2554 58.419 24.5241C58.8798 24.7948 59.0338 25.3871 58.7638 25.8472ZM65.5518 27.3913L61.3164 34.6117C61.1366 34.9185 60.8138 35.0892 60.4819 35.0892C60.3156 35.0892 60.1468 35.0467 59.9934 34.9565C59.5326 34.6865 59.3786 34.0942 59.6486 33.6334L63.03 27.8688H60.4825C59.9489 27.8688 59.5158 27.4364 59.5158 26.9022C59.5158 26.3679 59.9489 25.9355 60.4825 25.9355H64.7178C65.0645 25.9355 65.3842 26.1211 65.5569 26.4214C65.7296 26.7224 65.727 27.0923 65.5518 27.3913Z" fill="#E4E5ED"/>
<path d="M27.6075 48.2519L32.2643 52.9088C32.6813 53.3257 33.322 53.4196 33.8419 53.1416L39.4228 50.1453C39.8362 49.9233 40.3344 49.9342 40.7369 50.1742L48.8791 55.0061C49.4603 55.3509 49.6931 56.0711 49.4224 56.6902C48.7275 58.2731 47.4604 61.1755 46.9568 62.4589C46.8503 62.7296 46.6933 62.9769 46.4749 63.1664C41.0473 67.8702 30.2518 62.1394 21.9868 53.8744C13.7218 45.6094 7.99106 34.8121 12.6948 29.3864C12.8843 29.1661 13.1316 29.0091 13.4024 28.9026C14.6839 28.4008 17.5881 27.1337 19.1711 26.437C19.7902 26.1645 20.5103 26.3991 20.8551 26.9803L25.687 35.1226C25.9253 35.5251 25.9361 36.025 25.7159 36.4366L22.7196 42.0175C22.4417 42.5374 22.5355 43.1781 22.9525 43.5951L27.6075 48.2519Z" fill="#E4E5ED"/>
<path d="M25.6923 19.0033C28.9359 17.3964 30.2626 13.4642 28.6557 10.2207C27.0487 6.97708 23.1166 5.65034 19.873 7.25729C16.6294 8.86424 15.3027 12.7964 16.9096 16.0399C18.5166 19.2835 22.4487 20.6103 25.6923 19.0033Z" fill="#FF1A5E"/>
<path d="M24.8731 17.3502C27.2037 16.1956 28.157 13.3702 27.0024 11.0396C25.8477 8.70906 23.0224 7.75576 20.6918 8.91039C18.3612 10.065 17.4079 12.8904 18.5626 15.2209C19.7172 17.5515 22.5425 18.5048 24.8731 17.3502Z" fill="#E5E8EF"/>
<path d="M24.8566 8.90119C23.8735 8.70708 22.8198 8.82234 21.8526 9.30149C19.5218 10.4562 18.5698 13.2821 19.7246 15.6129C20.2038 16.5801 20.9705 17.3111 21.8702 17.7522C20.4853 17.476 19.2392 16.5848 18.5637 15.2212C17.4089 12.8904 18.3609 10.0645 20.6917 8.9098C22.0553 8.23422 23.5866 8.28014 24.8566 8.90119Z" fill="#CDD4DF"/>
<path d="M25.0934 12.2574L24.6359 15.6063C24.6058 15.8132 24.3783 15.926 24.1954 15.8245L21.2539 14.1595C21.1488 14.0996 21.0906 13.9821 21.1066 13.8622L21.5641 10.5132C21.5932 10.3045 21.8208 10.1917 22.0046 10.295L24.946 11.9601C25.0511 12.02 25.1093 12.1374 25.0934 12.2574Z" fill="#CDD4DF"/>
<path d="M24.7761 12.3284L24.3186 15.6773C24.2886 15.8842 24.061 15.997 23.8782 15.8955L20.9367 14.2305C20.8316 14.1705 20.7734 14.0531 20.7894 13.9332L21.2468 10.5842C21.276 10.3755 21.5035 10.2627 21.6873 10.366L24.6288 12.031C24.7339 12.0909 24.7921 12.2084 24.7761 12.3284Z" fill="url(#paint0_linear_1293_6836)"/>
<path d="M15.9042 14.6687L16.5299 13.7882L16.928 14.7899L17.8085 15.4156L16.8068 15.8137L16.1859 16.6947L15.783 15.6925L14.9019 15.0716L15.9042 14.6687Z" fill="white"/>
<path d="M17.2584 0.300722C18.2981 -1.45991 17.7137 -3.73004 15.9531 -4.76976C14.1924 -5.80948 11.9223 -5.22507 10.8826 -3.46445C9.84286 -1.70382 10.4273 0.566311 12.1879 1.60603C13.9485 2.64576 16.2187 2.06135 17.2584 0.300722Z" fill="#1F2272"/>
<path d="M16.3615 -0.22896C17.1085 -1.49399 16.6886 -3.12512 15.4236 -3.87217C14.1586 -4.61923 12.5275 -4.19932 11.7804 -2.93429C11.0333 -1.66925 11.4532 -0.0381302 12.7183 0.708925C13.9833 1.45598 15.6144 1.03607 16.3615 -0.22896Z" fill="#E5E8EF"/>
<path d="M13.7488 -4.22217C13.2237 -4.01094 12.7605 -3.63149 12.4504 -3.10652C11.7033 -1.84136 12.124 -0.21035 13.3892 0.536791C13.9142 0.846822 14.5025 0.956396 15.0643 0.887784C14.3237 1.18403 13.4591 1.14641 12.719 0.709332C11.4538 -0.0378096 11.0331 -1.66882 11.7802 -2.93395C12.2173 -3.67414 12.9562 -4.12455 13.7488 -4.22217Z" fill="#CDD4DF"/>
<path d="M15.3211 -2.79008C15.6758 -2.58059 15.7935 -2.12353 15.584 -1.76882C15.4776 -1.5887 15.3068 -1.46894 15.1189 -1.42409C15.3718 -1.37492 15.6109 -1.36533 15.8308 -1.40798C15.9011 -1.42019 15.9419 -1.33867 15.8933 -1.28761C15.6673 -1.05572 15.5068 -0.787077 15.4128 -0.477249C15.3917 -0.409976 15.3005 -0.406351 15.2773 -0.473822C15.2071 -0.687752 15.0846 -0.891736 14.9195 -1.08941C14.9722 -0.902458 14.9499 -0.695001 14.8427 -0.513502C14.634 -0.160171 14.177 -0.0424849 13.8222 -0.251974C13.4675 -0.461463 13.3499 -0.918519 13.5585 -1.27185C13.5902 -1.32549 13.6271 -1.3723 13.6687 -1.41452C13.4942 -1.37659 13.3043 -1.40346 13.1379 -1.5017C12.7845 -1.7104 12.6669 -2.16746 12.8764 -2.52216C13.0851 -2.87553 13.5421 -2.99318 13.8955 -2.78449C14.0618 -2.68624 14.1771 -2.53289 14.2281 -2.36183C14.245 -2.41863 14.2682 -2.47356 14.2998 -2.52717C14.5093 -2.88188 14.9664 -2.99957 15.3211 -2.79008Z" fill="#CDD4DF"/>
<path d="M15.1258 -2.67094C15.4805 -2.46145 15.5982 -2.00439 15.3887 -1.64968C15.2823 -1.46956 15.1115 -1.3498 14.9236 -1.30494C15.1764 -1.25578 15.4156 -1.24619 15.6355 -1.28884C15.7058 -1.30105 15.7466 -1.21953 15.698 -1.16847C15.472 -0.936583 15.3115 -0.667936 15.2175 -0.358108C15.1963 -0.290835 15.1052 -0.28721 15.082 -0.354682C15.0118 -0.568611 14.8893 -0.772596 14.7242 -0.970265C14.7769 -0.783317 14.7546 -0.575861 14.6474 -0.394362C14.4387 -0.0410307 13.9817 0.0766562 13.6269 -0.132833C13.2722 -0.342322 13.1546 -0.799378 13.3632 -1.15271C13.3949 -1.20635 13.4318 -1.25316 13.4734 -1.29538C13.2989 -1.25745 13.109 -1.28432 12.9426 -1.38256C12.5892 -1.59126 12.4716 -2.04832 12.6811 -2.40302C12.8897 -2.75639 13.3468 -2.87404 13.7002 -2.66534C13.8665 -2.5671 13.9818 -2.41375 14.0328 -2.24269C14.0497 -2.29949 14.0729 -2.35442 14.1045 -2.40803C14.314 -2.76274 14.771 -2.88042 15.1258 -2.67094Z" fill="#1F2272"/>
<path d="M19.8425 77.8112C23.0693 79.3457 26.9291 77.9738 28.4635 74.7471C29.998 71.5203 28.6261 67.6605 25.3993 66.1261C22.1726 64.5916 18.3128 65.9635 16.7784 69.1902C15.2439 72.417 16.6158 76.2768 19.8425 77.8112Z" fill="#1F2272"/>
<path d="M20.6254 76.1657C22.9439 77.2683 25.7171 76.2825 26.8197 73.9641C27.9222 71.6456 26.9365 68.8723 24.618 67.7698C22.2995 66.6672 19.5263 67.6529 18.4237 69.9714C17.3212 72.2899 18.3069 75.0632 20.6254 76.1657Z" fill="#E5E8EF"/>
<path d="M27.1671 70.9944C26.7174 70.1135 25.9846 69.3666 25.0225 68.909C22.7038 67.8064 19.9308 68.7935 18.8282 71.1122C18.3706 72.0744 18.2718 73.1154 18.479 74.0825C17.8477 72.8398 17.7781 71.3292 18.4231 69.9727C19.5258 67.6539 22.2988 66.6668 24.6174 67.7695C25.974 68.4146 26.8734 69.6303 27.1671 70.9944Z" fill="#CDD4DF"/>
<path d="M24.9184 73.9578C24.6092 74.6079 23.8321 74.8841 23.1821 74.5749C22.8519 74.418 22.6168 74.1393 22.5094 73.8194C22.4633 74.2671 22.484 74.6849 22.5926 75.0609C22.6248 75.1814 22.4893 75.2651 22.3928 75.1884C21.9539 74.8314 21.4613 74.5939 20.9074 74.4788C20.787 74.4525 20.7664 74.2944 20.8802 74.2435C21.2416 74.0879 21.5775 73.8428 21.8957 73.5245C21.5786 73.6456 21.214 73.639 20.8814 73.4809C20.2338 73.1729 19.9576 72.3958 20.2667 71.7457C20.5759 71.0956 21.353 70.8194 22.0006 71.1273C22.0989 71.1741 22.1861 71.231 22.2661 71.2968C22.1728 70.9991 22.1899 70.6643 22.3349 70.3594C22.6429 69.7117 23.42 69.4356 24.0701 69.7447C24.7177 70.0527 24.9939 70.8297 24.6859 71.4774C24.5409 71.7823 24.292 72.0069 24.0023 72.1224C24.1038 72.1429 24.203 72.1747 24.3013 72.2214C24.9513 72.5306 25.2276 73.3076 24.9184 73.9578Z" fill="#CDD4DF"/>
<path d="M24.6801 73.6355C24.371 74.2857 23.5939 74.5618 22.9438 74.2527C22.6137 74.0957 22.3785 73.817 22.2711 73.4971C22.225 73.9448 22.2457 74.3626 22.3543 74.7386C22.3866 74.8591 22.251 74.9428 22.1546 74.8661C21.7157 74.5091 21.223 74.2717 20.6691 74.1566C20.5487 74.1302 20.5281 73.9722 20.6419 73.9213C21.0033 73.7656 21.3392 73.5206 21.6574 73.2022C21.3403 73.3233 20.9757 73.3168 20.6431 73.1586C19.9955 72.8507 19.7193 72.0736 20.0285 71.4234C20.3376 70.7733 21.1147 70.4971 21.7623 70.8051C21.8606 70.8518 21.9478 70.9087 22.0278 70.9745C21.9345 70.6768 21.9516 70.342 22.0966 70.0371C22.4046 69.3895 23.1817 69.1133 23.8318 69.4224C24.4794 69.7304 24.7556 70.5075 24.4476 71.1552C24.3026 71.46 24.0537 71.6846 23.764 71.8001C23.8655 71.8206 23.9647 71.8524 24.063 71.8991C24.7131 72.2083 24.9893 72.9854 24.6801 73.6355Z" fill="#1F2272"/>
<path d="M29.9359 71.5735L30.2716 72.8814L28.9941 72.4532L27.6863 72.7889L28.1144 71.5115L27.7743 70.2078L29.0562 70.6318L30.3599 70.2916L29.9359 71.5735Z" fill="white"/>
<path d="M76.5236 58.4827C79.3798 56.3359 79.9549 52.2802 77.8081 49.424C75.6614 46.5678 71.6056 45.9926 68.7494 48.1394C65.8932 50.2862 65.3181 54.3419 67.4648 57.1981C69.6116 60.0544 73.6673 60.6295 76.5236 58.4827Z" fill="#1F2272"/>
<path d="M75.4289 57.0259C77.4812 55.4834 77.8944 52.5693 76.3519 50.517C74.8094 48.4648 71.8953 48.0516 69.8431 49.594C67.7909 51.1365 67.3776 54.0506 68.9201 56.1029C70.4626 58.1551 73.3767 58.5683 75.4289 57.0259Z" fill="#E5E8EF"/>
<path d="M73.8823 48.8317C72.8933 48.8214 71.8917 49.1241 71.04 49.7642C68.9876 51.3069 68.5757 54.2213 70.1184 56.2738C70.7585 57.1255 71.6349 57.6959 72.5878 57.9609C71.194 57.9438 69.8234 57.3047 68.921 56.104C67.3783 54.0515 67.7902 51.1371 69.8426 49.5944C71.0433 48.6919 72.5376 48.4591 73.8823 48.8317Z" fill="#CDD4DF"/>
<path d="M75.4644 52.1984C75.8969 52.7739 75.7811 53.5905 75.2057 54.023C74.9135 54.2426 74.5575 54.3216 74.2243 54.2684C74.5995 54.5169 74.9792 54.6924 75.3627 54.7706C75.4844 54.7979 75.4957 54.9568 75.383 55.0067C74.8632 55.2299 74.4243 55.5562 74.0653 55.9935C73.9862 56.088 73.8366 56.0328 73.8443 55.9084C73.874 55.5161 73.8128 55.1048 73.6784 54.6753C73.6385 55.0124 73.4636 55.3323 73.1692 55.5536C72.596 55.9844 71.7794 55.8687 71.3469 55.2932C70.9143 54.7177 71.0302 53.9012 71.6034 53.4703C71.6904 53.4049 71.7813 53.354 71.8766 53.3137C71.5697 53.2583 71.281 53.0878 71.0782 52.8179C70.6473 52.2446 70.7631 51.4281 71.3385 50.9956C71.9118 50.5647 72.7283 50.6805 73.1592 51.2538C73.362 51.5237 73.4455 51.8484 73.4134 52.1586C73.4787 52.0782 73.5529 52.0051 73.6399 51.9397C74.2153 51.5072 75.0319 51.6229 75.4644 52.1984Z" fill="#CDD4DF"/>
<path d="M75.0684 52.2601C75.5009 52.8356 75.3851 53.6521 74.8097 54.0846C74.5175 54.3042 74.1615 54.3833 73.8283 54.33C74.2035 54.5785 74.5832 54.754 74.9667 54.8322C75.0884 54.8596 75.0997 55.0184 74.987 55.0683C74.4672 55.2915 74.0283 55.6178 73.6694 56.0552C73.5902 56.1496 73.4406 56.0945 73.4483 55.9701C73.478 55.5777 73.4168 55.1665 73.2824 54.7369C73.2425 55.074 73.0676 55.3939 72.7732 55.6153C72.2 56.0461 71.3834 55.9303 70.9509 55.3548C70.5184 54.7794 70.6342 53.9628 71.2074 53.532C71.2944 53.4666 71.3853 53.4157 71.4806 53.3754C71.1737 53.3199 70.885 53.1495 70.6822 52.8796C70.2513 52.3063 70.3671 51.4897 70.9425 51.0572C71.5158 50.6264 72.3323 50.7421 72.7632 51.3155C72.9661 51.5853 73.0495 51.91 73.0174 52.2203C73.0827 52.1399 73.1569 52.0667 73.2439 52.0013C73.8193 51.5688 74.6359 51.6846 75.0684 52.2601Z" fill="#1F2272"/>
<path d="M75.6797 46.6475L76.994 46.9567L76.0221 47.8899L75.7128 49.2042L74.7797 48.2323L73.467 47.9289L74.4373 46.9899L74.7406 45.6772L75.6797 46.6475Z" fill="white"/>
</g>
<g clip-path="url(#clip1_1293_6836)">
<rect x="56" y="0.347656" width="24" height="24" rx="12" fill="#58C27D"/>
<path d="M62 12.3477L66 16.3477L74 8.34766" stroke="#FCFCFD" stroke-width="2" stroke-miterlimit="10" stroke-linecap="round" stroke-linejoin="round"/>
</g>
<defs>
<linearGradient id="paint0_linear_1293_6836" x1="21.4091" y1="10.3581" x2="24.1557" y2="15.902" gradientUnits="userSpaceOnUse">
<stop stop-color="#FF4EA3"/>
<stop offset="1" stop-color="#B8008F"/>
</linearGradient>
<clipPath id="clip0_1293_6836">
<rect y="0.347656" width="80" height="80" rx="40" fill="white"/>
</clipPath>
<clipPath id="clip1_1293_6836">
<rect x="56" y="0.347656" width="24" height="24" rx="12" fill="white"/>
</clipPath>
</defs>
</svg>
