<svg width="80" height="81" viewBox="0 0 80 81" fill="none" xmlns="http://www.w3.org/2000/svg">
<rect y="0.347656" width="80" height="80" rx="40" fill="#4B50C8"/>
<g clip-path="url(#clip0_1293_7070)">
<path opacity="0.2" d="M65 86.5998V89.0115C65 91.0559 63.4046 92.7195 61.4418 92.7195H41.2296C40.4529 92.7195 39.7274 92.9498 39.1115 93.3477L25.7414 79.4218C24.9446 78.5919 24.7893 77.3413 25.2791 76.3477C25.396 76.5856 25.5496 76.8102 25.7414 77.0101L39.1115 90.9359C39.7473 90.5246 40.4811 90.307 41.2296 90.3078H61.4418C63.4046 90.3078 65 88.6441 65 86.5998Z" fill="#2B478B"/>
<path d="M55.3692 59.5088C54.9946 59.6399 54.6958 59.6656 54.6958 59.6656C54.6958 59.6656 54.8751 59.7729 55.1129 59.9586C55.5029 60.2631 56.0535 60.7778 56.2424 61.378C56.5464 62.345 56.3253 63.5877 55.9938 63.7535C55.8588 63.8209 55.65 63.9083 55.3551 64.1159C54.922 64.4198 54.3039 64.982 53.4666 66.1148C53.1646 66.5113 51.9676 68.5642 50.865 70.5716C49.9236 72.2846 49.0594 73.9719 48.7844 74.4847C48.5466 74.928 48.2813 75.3753 47.9973 75.8205C46.4455 78.2519 44.327 80.639 43.0663 82.0398C42.5253 82.6405 42.0209 83.1983 41.5711 83.7438C40.7802 84.7025 40.1588 85.6239 39.8067 86.6803C39.4411 87.7777 38.4702 92.05 37.4787 93.8363C36.3883 95.7999 32.1385 96.6153 27.6375 95.3508C23.1371 94.0863 23.0278 89.0904 23.0278 89.0904L24.2551 85.5744C24.2551 85.5744 25.8017 79.6906 26.7135 78.1992C27.6253 76.7079 27.7082 74.4423 27.6529 72.4812C27.5976 70.5202 26.6319 66.5524 25.999 64.3658C25.3661 62.1792 25.5961 61.4307 25.7689 60.107C25.9418 58.7834 26.2868 55.676 26.229 53.7766C26.1712 51.8773 26.344 51.4172 26.8047 50.4386C26.9056 50.2246 27.0116 50.0441 27.1177 49.8674C27.2892 49.5808 27.3438 49.0526 27.4871 48.6645C27.5578 48.4724 27.5147 48.3074 27.6419 48.1249C27.6843 47.9193 27.9554 45.9978 27.9837 45.7324L29.0202 46.8879C29.0202 47.2194 27.446 50.6172 27.5289 51.9428C27.6118 53.2684 27.854 58.5167 27.5263 60.0775C27.198 61.6382 28.5088 63.3371 29.5934 64.3311C30.678 65.3258 31.9625 71.6652 31.7556 73.6121C31.5487 75.5532 37.0643 76.8769 38.8236 75.8186C38.8294 75.8154 38.8352 75.8115 38.8409 75.8083C38.9001 75.7717 38.9547 75.7402 39.0048 75.7152C40.3664 74.6961 39.4372 68.5347 39.1783 65.3669C38.8943 61.8862 35.1951 60.0775 35.1951 60.0775C35.1951 60.0775 36.4989 58.6825 38.386 56.6764C38.6032 56.4458 38.8281 56.2067 39.0594 55.9613C43.8984 50.8228 51.6341 42.6721 52.2381 42.4267C53.1222 42.0675 55.5806 42.0122 55.7188 44.2772C55.8569 46.5422 52.6525 47.7855 52.6525 47.7855L52.6249 49.1387C52.6249 49.1387 54.7241 48.7795 55.8569 50.4097C56.8908 51.8978 55.9212 54.1924 55.7445 54.5798V54.5805C55.7284 54.6164 55.7188 54.6364 55.7188 54.6364C55.7991 54.716 55.8762 54.7938 55.9475 54.869C57.2288 56.2151 57.1337 56.9984 56.7411 58.2276C56.5027 58.9716 55.8685 59.3347 55.3692 59.5088Z" fill="white"/>
<path d="M50.489 63.6777H34.1882C32.7434 63.6777 31.5725 62.5098 31.5725 61.0687V25.9566C31.5725 24.5154 32.7434 23.3475 34.1882 23.3475H50.489C51.9338 23.3475 53.1047 24.5154 53.1047 25.9566V61.0693C53.1041 62.5098 51.9332 63.6777 50.489 63.6777Z" fill="#190B2B"/>
<path d="M52.2603 26.6608H32.5977V61.0095H52.2603V26.6608Z" fill="white"/>
<path d="M39.004 75.7196C38.9539 75.7447 38.8993 75.7762 38.8401 75.8128C38.8337 75.8154 38.8279 75.8186 38.8228 75.8231C37.0635 76.8814 31.5485 75.5577 31.7548 73.6166C31.9617 71.669 30.6772 65.3296 29.5926 64.3356C28.508 63.3409 27.1972 61.6427 27.5255 60.0819C27.8532 58.5212 27.611 53.2729 27.5281 51.9473C27.4452 50.6217 29.0194 47.2239 29.0194 46.8923L27.9001 47.5445C27.9245 47.3274 27.9432 47.089 27.956 46.8236C28.071 44.4642 27.8924 43.7451 29.0888 43.7574C30.2846 43.7696 30.5249 44.2271 31.5748 45.6632C32.5027 46.9335 32.2868 50.4694 32.0902 52.0167V52.0173C32.0645 52.2204 32.0388 52.3893 32.0163 52.514C31.9758 52.7376 31.9527 53.0666 31.943 53.4528C31.907 54.9223 32.0735 57.2329 32.2926 57.8452C32.3793 58.0881 32.6974 58.3985 33.0925 58.7101C33.399 58.953 33.7524 59.1959 34.0814 59.4085C34.679 59.7954 35.193 60.0826 35.193 60.0826C35.193 60.0826 38.8922 61.892 39.1762 65.372C39.4364 68.5392 40.3656 74.7006 39.004 75.7196Z" fill="white"/>
<path d="M55.3557 64.119C54.9226 64.4229 54.4805 64.7506 53.6433 65.8834C53.3612 66.1378 52.8761 66.3634 52.6531 66.4688C52.4302 66.5741 51.8782 66.6821 51.5023 66.5247C50.5642 66.1301 49.7282 64.8772 49.6826 63.3826C49.6486 62.2729 51.3964 60.4312 51.3964 60.4312C51.3964 60.4312 53.5392 63.0562 55.3557 64.119Z" fill="#CDD4DF"/>
<path d="M47.9972 75.823C46.4455 78.2544 44.327 80.6415 43.0663 82.0422C42.5253 82.643 42.0209 83.2007 41.5711 83.7463C40.827 83.1153 40.0971 82.4342 39.4385 82.1116C36.1422 80.4956 36.644 79.0871 36.644 79.0871C36.644 79.0871 40.455 81.9748 42.177 80.8888C43.9267 79.7843 45.6506 78.016 47.9972 75.823Z" fill="#CDD4DF"/>
<path d="M55.9945 63.7563C55.9945 63.7563 53.0112 65.966 51.5751 65.6344C50.139 65.3029 49.8646 63.9754 50.0959 63.0379C50.2489 62.4165 51.0103 61.9218 51.48 61.3943C51.7357 61.107 51.5879 60.5975 51.8154 60.5422C52.4592 60.3855 54.6966 59.6677 54.6966 59.6677L55.9945 63.7563Z" fill="white"/>
<path d="M54.6941 59.6691C54.6941 59.6691 54.8733 59.7764 55.1111 59.9621C54.3021 60.0835 52.5891 60.6522 51.4003 61.4791C51.4003 61.4791 50.9808 60.8154 51.4003 60.4209C52.0885 59.7732 53.7951 59.2527 54.1415 59.1583C54.5598 59.0439 54.6941 59.6691 54.6941 59.6691Z" fill="#CDD4DF"/>
<path d="M55.609 55.1729L54.6953 59.6676C54.6953 59.665 54.6703 59.6341 53.0498 60.1842C50.9962 61.0253 50.3382 59.3636 50.2553 59.0115C50.1724 58.6594 49.668 57.9275 51.0219 56.4632C51.3573 56.1001 51.8154 55.8046 52.3147 55.5668C53.8279 54.8433 55.7183 54.6403 55.7183 54.6403L55.609 55.1729Z" fill="white"/>
<path d="M55.9475 54.8729C55.862 54.9583 55.7496 55.0605 55.6108 55.1729C55.3069 55.4177 54.8751 55.705 54.3103 55.9388C53.5848 56.2396 52.8247 55.9029 52.3158 55.5668C53.829 54.8433 55.7194 54.6403 55.7194 54.6403C55.7997 54.7199 55.8762 54.7977 55.9475 54.8729Z" fill="#CDD4DF"/>
<path d="M53.1035 50.0066L52.6236 50.4349C52.6236 50.4349 51.5601 52.1338 51.7259 53.6669C51.8917 55.2001 52.8864 55.842 54.1085 55.6145C55.3306 55.3864 55.7174 54.641 55.7174 54.641L53.1035 50.0066Z" fill="white"/>
<path d="M47.2198 81.8654L47.2842 88.1244C47.2972 89.3835 46.3266 90.1222 45.1165 89.7742L28.1622 84.8994C26.9521 84.5514 25.9606 83.2487 25.9476 81.9895L25.8832 75.7305C25.8703 74.4714 26.8408 73.7328 28.0509 74.0807L45.0052 78.9556C46.2153 79.3035 47.2069 80.6063 47.2198 81.8654Z" fill="#5CBEFF"/>
<path d="M20.6501 34.6966C23.6046 33.2329 24.8132 29.6512 23.3494 26.6966C21.8857 23.7421 18.3039 22.5336 15.3494 23.9974C12.3949 25.4611 11.1864 29.0428 12.6501 31.9974C14.1139 34.9519 17.6956 36.1604 20.6501 34.6966Z" fill="#FF1A5E"/>
<path d="M19.9045 33.1922C22.0274 32.1404 22.8957 29.5669 21.844 27.444C20.7923 25.3211 18.2187 24.4527 16.0958 25.5045C13.9729 26.5562 13.1046 29.1298 14.1563 31.2527C15.208 33.3756 17.7816 34.2439 19.9045 33.1922Z" fill="#E5E8EF"/>
<path d="M19.889 25.4949C18.9935 25.318 18.0337 25.423 17.1527 25.8595C15.0296 26.9113 14.1625 29.4854 15.2143 31.6085C15.6508 32.4895 16.3492 33.1553 17.1687 33.5571C15.9073 33.3056 14.7722 32.4937 14.1568 31.2517C13.105 29.1286 13.9722 26.5545 16.0952 25.5027C17.3373 24.8873 18.7322 24.9291 19.889 25.4949Z" fill="#CDD4DF"/>
<path d="M20.1038 28.5518L19.6871 31.6023C19.6597 31.7908 19.4524 31.8935 19.2859 31.801L16.6065 30.2845C16.5108 30.2298 16.4578 30.1228 16.4723 30.0136L16.889 26.9631C16.9156 26.7729 17.1229 26.6702 17.2902 26.7643L19.9696 28.281C20.0653 28.3355 20.1183 28.4425 20.1038 28.5518Z" fill="#CDD4DF"/>
<path d="M19.8167 28.6183L19.4 31.6688C19.3726 31.8573 19.1653 31.96 18.9988 31.8675L16.3194 30.351C16.2237 30.2963 16.1707 30.1893 16.1852 30.0801L16.6019 27.0296C16.6285 26.8395 16.8357 26.7368 17.0031 26.8308L19.6825 28.3475C19.7782 28.4021 19.8312 28.5091 19.8167 28.6183Z" fill="url(#paint0_linear_1293_7070)"/>
<path d="M11.7165 30.792L12.2865 29.99L12.6491 30.9024L13.4511 31.4724L12.5388 31.835L11.9732 32.6375L11.6062 31.7246L10.8036 31.159L11.7165 30.792Z" fill="white"/>
<path d="M4.95393 67.0399C3.15262 69.8016 3.93118 73.5007 6.6929 75.302C9.45462 77.1033 13.1537 76.3248 14.955 73.563C16.7563 70.8013 15.9777 67.1022 13.216 65.3009C10.4543 63.4996 6.75524 64.2782 4.95393 67.0399Z" fill="#FF1A5E"/>
<path d="M6.36038 67.957C5.0661 69.9414 5.62552 72.5992 7.60988 73.8935C9.59424 75.1878 12.2521 74.6284 13.5464 72.644C14.8407 70.6597 14.2813 68.0018 12.2969 66.7075C10.3125 65.4132 7.65467 65.9727 6.36038 67.957Z" fill="#E5E8EF"/>
<path d="M10.2839 74.5793C11.145 74.2767 11.9185 73.6987 12.4556 72.8752C13.75 70.8907 13.1893 68.233 11.2047 66.9385C10.3812 66.4014 9.4414 66.1827 8.53139 66.2529C9.74574 65.8288 11.1358 65.9514 12.2968 66.7087C14.2814 68.0031 14.8421 70.6608 13.5477 72.6453C12.7904 73.8063 11.5677 74.4789 10.2839 74.5793Z" fill="#CDD4DF"/>
<path d="M8.54614 72.0553L7.35543 69.2161C7.28324 69.0398 7.40962 68.8461 7.60003 68.8411L10.6783 68.7863C10.7886 68.7847 10.8886 68.85 10.9315 68.9514L12.1223 71.7907C12.196 71.9679 12.0696 72.1617 11.8777 72.1657L8.7993 72.2204C8.68916 72.2221 8.58913 72.1568 8.54614 72.0553Z" fill="#CDD4DF"/>
<path d="M8.75952 71.8522L7.56881 69.013C7.49662 68.8367 7.623 68.6429 7.81341 68.638L10.8917 68.5832C11.0019 68.5816 11.102 68.6468 11.1449 68.7483L12.3356 71.5876C12.4094 71.7648 12.283 71.9586 12.091 71.9626L9.01268 72.0173C8.90253 72.0189 8.8025 71.9537 8.75952 71.8522Z" fill="url(#paint1_linear_1293_7070)"/>
<path d="M14.6325 65.8649L14.549 66.8452L13.7732 66.2436L12.7928 66.16L13.3945 65.3842L13.474 64.4056L14.2539 65.0055L15.2324 65.085L14.6325 65.8649Z" fill="white"/>
<path d="M64.0827 49.9295C66.8899 51.2645 70.2478 50.071 71.5827 47.2638C72.9177 44.4566 71.7242 41.0988 68.917 39.7638C66.1098 38.4289 62.7519 39.6224 61.417 42.4295C60.082 45.2367 61.2755 48.5946 64.0827 49.9295Z" fill="#1F2272"/>
<path d="M64.7632 48.4986C66.7802 49.4578 69.1929 48.6002 70.1521 46.5832C71.1113 44.5662 70.2537 42.1536 68.2367 41.1944C66.2197 40.2352 63.807 41.0927 62.8479 43.1098C61.8887 45.1268 62.7462 47.5394 64.7632 48.4986Z" fill="#E5E8EF"/>
<path d="M70.4543 43.9998C70.0631 43.2334 69.4256 42.5836 68.5886 42.1855C66.5714 41.2263 64.159 42.085 63.1997 44.1022C62.8016 44.9393 62.7157 45.8449 62.896 46.6863C62.3467 45.6052 62.2861 44.2909 62.8473 43.1109C63.8066 41.0936 66.219 40.2349 68.2362 41.1941C69.4163 41.7554 70.1988 42.813 70.4543 43.9998Z" fill="#CDD4DF"/>
<path d="M68.5003 46.5758C68.2313 47.1414 67.5553 47.3817 66.9897 47.1127C66.7025 46.9762 66.498 46.7337 66.4045 46.4554C66.3644 46.8449 66.3824 47.2084 66.4769 47.5355C66.505 47.6403 66.3871 47.7131 66.3031 47.6464C65.9213 47.3358 65.4927 47.1293 65.0108 47.0291C64.9061 47.0062 64.8882 46.8687 64.9872 46.8244C65.3016 46.689 65.5938 46.4758 65.8706 46.1989C65.5948 46.3042 65.2776 46.2985 64.9882 46.1609C64.4248 45.893 64.1845 45.217 64.4535 44.6514C64.7225 44.0858 65.3985 43.8455 65.9619 44.1134C66.0474 44.1541 66.1233 44.2036 66.1929 44.2608C66.1117 44.0019 66.1266 43.7106 66.2527 43.4454C66.5207 42.8819 67.1967 42.6416 67.7623 42.9106C68.3257 43.1785 68.566 43.8545 68.298 44.418C68.1719 44.6832 67.9554 44.8786 67.7033 44.9791C67.7916 44.9969 67.8779 45.0246 67.9634 45.0652C68.529 45.3342 68.7693 46.0102 68.5003 46.5758Z" fill="#CDD4DF"/>
<path d="M68.294 46.2947C68.025 46.8603 67.349 47.1006 66.7834 46.8316C66.4962 46.695 66.2917 46.4526 66.1982 46.1743C66.1581 46.5638 66.1761 46.9272 66.2706 47.2544C66.2987 47.3592 66.1808 47.432 66.0968 47.3653C65.715 47.0547 65.2864 46.8481 64.8045 46.748C64.6998 46.7251 64.6819 46.5876 64.7809 46.5433C65.0953 46.4079 65.3875 46.1947 65.6643 45.9178C65.3885 46.0231 65.0713 46.0174 64.7819 45.8798C64.2185 45.6119 63.9782 44.9359 64.2472 44.3703C64.5162 43.8046 65.1922 43.5644 65.7556 43.8323C65.8411 43.873 65.917 43.9224 65.9866 43.9797C65.9054 43.7207 65.9203 43.4295 66.0464 43.1642C66.3144 42.6008 66.9904 42.3605 67.556 42.6295C68.1194 42.8974 68.3597 43.5734 68.0917 44.1369C67.9656 44.4021 67.7491 44.5975 67.497 44.698C67.5853 44.7158 67.6716 44.7435 67.7571 44.7841C68.3227 45.0531 68.563 45.7291 68.294 46.2947Z" fill="#1F2272"/>
<path d="M72.8798 44.5009L73.1719 45.6387L72.0605 45.2662L70.9227 45.5582L71.2952 44.4469L70.9993 43.3127L72.1145 43.6816L73.2487 43.3856L72.8798 44.5009Z" fill="white"/>
<path d="M29.373 2.03681C30.528 4.92272 33.8038 6.32592 36.6897 5.17095C39.5756 4.01598 40.9788 0.740204 39.8238 -2.1457C38.6688 -5.03161 35.3931 -6.43481 32.5072 -5.27984C29.6212 -4.12487 28.218 -0.849093 29.373 2.03681Z" fill="#1F2272"/>
<path d="M30.8441 1.44819C31.674 3.52175 34.0277 4.52997 36.1013 3.70011C38.1748 2.87025 39.183 0.516557 38.3532 -1.55701C37.5233 -3.63057 35.1696 -4.63879 33.0961 -3.80893C31.0225 -2.97907 30.0143 -0.625375 30.8441 1.44819Z" fill="#E5E8EF"/>
<path d="M38.077 2.00835C38.3101 1.18003 38.2831 0.27012 37.9387 -0.590376C37.1088 -2.66414 34.7545 -3.67129 32.6807 -2.84134C31.8201 -2.49694 31.1422 -1.89033 30.7034 -1.15018C31.0341 -2.31685 31.8818 -3.32295 33.0949 -3.80848C35.1687 -4.63843 37.523 -3.63127 38.353 -1.55755C38.8385 -0.344288 38.6951 0.963467 38.077 2.00835Z" fill="#CDD4DF"/>
<path d="M34.8934 2.57318C34.3119 2.80589 33.6524 2.52334 33.4197 1.94193C33.3016 1.64669 33.316 1.3298 33.4363 1.06199C33.1424 1.3208 32.9089 1.59988 32.7562 1.9042C32.7056 2.00021 32.5696 1.97364 32.5533 1.8677C32.4838 1.38044 32.3093 0.937805 32.0235 0.537128C31.9621 0.449209 32.0423 0.336094 32.1451 0.370807C32.4679 0.484773 32.8271 0.526616 33.2184 0.511226C32.9443 0.401257 32.7153 0.18179 32.5962 -0.115712C32.3645 -0.694868 32.6469 -1.3544 33.2284 -1.58711C33.8099 -1.81982 34.4694 -1.53727 34.7011 -0.958117C34.7363 -0.870192 34.7585 -0.782341 34.7707 -0.693082C34.8869 -0.938308 35.0956 -1.14207 35.3682 -1.25121C35.9475 -1.48303 36.607 -1.20049 36.8397 -0.619072C37.0715 -0.0398614 36.789 0.619616 36.2097 0.851445C35.9371 0.960578 35.6454 0.95702 35.3921 0.859682C35.4449 0.932736 35.4895 1.01166 35.5246 1.09953C35.7573 1.68094 35.4749 2.34047 34.8934 2.57318Z" fill="#CDD4DF"/>
<path d="M34.9328 2.22675C34.3513 2.45946 33.6918 2.17691 33.4592 1.5955C33.341 1.30025 33.3554 0.983366 33.4757 0.715557C33.1818 0.974363 32.9483 1.25345 32.7956 1.55777C32.7451 1.65378 32.6091 1.6272 32.5927 1.52127C32.5232 1.03401 32.3487 0.591371 32.0629 0.190693C32.0015 0.102773 32.0818 -0.0103413 32.1845 0.0243728C32.5073 0.138338 32.8666 0.18018 33.2578 0.16479C32.9838 0.0548215 32.7547 -0.164645 32.6357 -0.462146C32.4039 -1.0413 32.6864 -1.70084 33.2678 -1.93355C33.8493 -2.16626 34.5088 -1.88371 34.7406 -1.30455C34.7758 -1.21663 34.7979 -1.12878 34.8101 -1.03952C34.9263 -1.28474 35.135 -1.48851 35.4077 -1.59764C35.9869 -1.82947 36.6464 -1.54692 36.8791 -0.965508C37.1109 -0.386296 36.8284 0.273182 36.2492 0.505011C35.9765 0.614143 35.6849 0.610586 35.4316 0.513247C35.4843 0.5863 35.5289 0.665221 35.5641 0.753091C35.7968 1.3345 35.5143 1.99404 34.9328 2.22675Z" fill="#1F2272"/>
<path d="M39.5178 4.0227L38.9598 5.05637L38.3966 4.02843L37.363 3.47046L38.3909 2.90729L38.9436 1.87363L39.5121 2.90156L40.5457 3.45419L39.5178 4.0227Z" fill="white"/>
<rect x="34" y="27.3477" width="17" height="10" rx="1" fill="#ECECEC"/>
<rect x="34" y="39.3477" width="17" height="3" rx="1" fill="#EA3790"/>
<path d="M39.9564 39.8931V41.3477H39.6489V39.8931H39.9564ZM40.5063 40.717V41.3477H40.2037V40.2567H40.4921V40.4492H40.5049C40.529 40.3858 40.5695 40.3356 40.6263 40.2987C40.6831 40.2612 40.752 40.2425 40.833 40.2425C40.9088 40.2425 40.9748 40.2591 41.0312 40.2923C41.0875 40.3254 41.1313 40.3728 41.1626 40.4343C41.1938 40.4954 41.2094 40.5683 41.2094 40.6531V41.3477H40.9069V40.707C40.9073 40.6403 40.8903 40.5882 40.8557 40.5508C40.8212 40.5129 40.7736 40.494 40.713 40.494C40.6723 40.494 40.6363 40.5027 40.605 40.5202C40.5742 40.5378 40.5501 40.5633 40.5326 40.5969C40.5155 40.6301 40.5068 40.6701 40.5063 40.717ZM42.3556 40.5678L42.0786 40.5849C42.0738 40.5612 42.0637 40.5399 42.048 40.521C42.0324 40.5015 42.0118 40.4862 41.9862 40.4748C41.9611 40.4629 41.9311 40.457 41.896 40.457C41.8492 40.457 41.8096 40.467 41.7774 40.4869C41.7452 40.5063 41.7291 40.5323 41.7291 40.565C41.7291 40.591 41.7396 40.613 41.7604 40.631C41.7812 40.649 41.817 40.6635 41.8676 40.6744L42.0651 40.7141C42.1711 40.7359 42.2502 40.771 42.3023 40.8192C42.3544 40.8675 42.3804 40.931 42.3804 41.0096C42.3804 41.0811 42.3593 41.1438 42.3172 41.1978C42.2755 41.2518 42.2182 41.2939 42.1453 41.3242C42.0729 41.354 41.9893 41.369 41.8946 41.369C41.7502 41.369 41.6352 41.3389 41.5494 41.2788C41.4642 41.2182 41.4143 41.1358 41.3996 41.0316L41.6972 41.016C41.7062 41.06 41.728 41.0936 41.7625 41.1168C41.7971 41.1396 41.8414 41.1509 41.8953 41.1509C41.9484 41.1509 41.991 41.1407 42.0232 41.1204C42.0558 41.0996 42.0724 41.0728 42.0729 41.0401C42.0724 41.0127 42.0608 40.9902 42.0381 40.9727C42.0154 40.9547 41.9803 40.9409 41.933 40.9315L41.7441 40.8938C41.6375 40.8725 41.5582 40.8356 41.5061 40.783C41.4545 40.7305 41.4287 40.6635 41.4287 40.582C41.4287 40.512 41.4477 40.4516 41.4855 40.4009C41.5239 40.3503 41.5776 40.3112 41.6468 40.2837C41.7164 40.2563 41.7978 40.2425 41.8911 40.2425C42.0289 40.2425 42.1373 40.2717 42.2164 40.3299C42.2959 40.3881 42.3423 40.4674 42.3556 40.5678ZM43.1512 40.2567V40.484H42.4942V40.2567H43.1512ZM42.6434 39.9954H42.9459V41.0124C42.9459 41.0404 42.9502 41.0621 42.9587 41.0778C42.9672 41.0929 42.9791 41.1036 42.9942 41.1097C43.0099 41.1159 43.0278 41.119 43.0482 41.119C43.0624 41.119 43.0766 41.1178 43.0908 41.1154C43.105 41.1126 43.1159 41.1104 43.1235 41.109L43.1711 41.3342C43.1559 41.3389 43.1346 41.3443 43.1072 41.3505C43.0797 41.3571 43.0463 41.3612 43.007 41.3626C42.9341 41.3654 42.8702 41.3557 42.8153 41.3335C42.7608 41.3112 42.7184 41.2766 42.6881 41.2298C42.6578 41.1829 42.6429 41.1237 42.6434 41.0522V39.9954ZM43.6594 41.3683C43.5898 41.3683 43.5277 41.3562 43.4733 41.332C43.4188 41.3074 43.3757 41.2712 43.344 41.2234C43.3128 41.1751 43.2971 41.1149 43.2971 41.043C43.2971 40.9824 43.3083 40.9315 43.3305 40.8903C43.3528 40.8491 43.3831 40.8159 43.4214 40.7908C43.4598 40.7657 43.5033 40.7468 43.5521 40.734C43.6014 40.7212 43.653 40.7122 43.7069 40.707C43.7704 40.7004 43.8215 40.6942 43.8604 40.6886C43.8992 40.6824 43.9273 40.6734 43.9449 40.6616C43.9624 40.6497 43.9711 40.6322 43.9711 40.609V40.6048C43.9711 40.5598 43.9569 40.525 43.9285 40.5004C43.9006 40.4757 43.8608 40.4634 43.8092 40.4634C43.7548 40.4634 43.7114 40.4755 43.6792 40.4996C43.647 40.5233 43.6257 40.5531 43.6153 40.5891L43.3355 40.5664C43.3497 40.5001 43.3776 40.4428 43.4193 40.3945C43.461 40.3458 43.5147 40.3084 43.5805 40.2823C43.6468 40.2558 43.7235 40.2425 43.8106 40.2425C43.8712 40.2425 43.9292 40.2496 43.9846 40.2638C44.0405 40.2781 44.09 40.3001 44.1331 40.3299C44.1766 40.3597 44.211 40.3981 44.2361 40.445C44.2612 40.4914 44.2737 40.547 44.2737 40.6119V41.3477H43.9868V41.1964H43.9782C43.9607 41.2305 43.9373 41.2605 43.9079 41.2866C43.8786 41.3121 43.8433 41.3323 43.8021 41.3469C43.7609 41.3612 43.7133 41.3683 43.6594 41.3683ZM43.746 41.1594C43.7905 41.1594 43.8298 41.1507 43.8639 41.1332C43.898 41.1152 43.9247 41.091 43.9442 41.0607C43.9636 41.0304 43.9733 40.9961 43.9733 40.9577V40.842C43.9638 40.8481 43.9508 40.8538 43.9342 40.859C43.9181 40.8638 43.8999 40.8683 43.8795 40.8725C43.8592 40.8763 43.8388 40.8799 43.8184 40.8832C43.7981 40.886 43.7796 40.8886 43.7631 40.891C43.7275 40.8962 43.6965 40.9045 43.67 40.9158C43.6435 40.9272 43.6229 40.9426 43.6082 40.962C43.5935 40.9809 43.5862 41.0046 43.5862 41.033C43.5862 41.0742 43.6011 41.1057 43.6309 41.1275C43.6613 41.1488 43.6996 41.1594 43.746 41.1594ZM44.811 39.8931V41.3477H44.5084V39.8931H44.811ZM45.3559 39.8931V41.3477H45.0534V39.8931H45.3559Z" fill="white"/>
<circle cx="42.5" cy="50.8477" r="6.5" fill="#1F2272"/>
<path d="M39.839 52.4728C39.839 52.3952 39.8102 52.3279 39.7527 52.2712C39.6952 52.2144 39.6271 52.1861 39.5484 52.1861C39.4667 52.1861 39.3978 52.2144 39.3418 52.2712C39.2858 52.3279 39.2578 52.3952 39.2578 52.4728C39.2578 52.5535 39.2858 52.6214 39.3418 52.6767C39.3978 52.732 39.4667 52.7596 39.5484 52.7596C39.6271 52.7596 39.6952 52.732 39.7527 52.6767C39.8102 52.6214 39.839 52.5535 39.839 52.4728ZM40.5655 50.1787V53.0464C40.5655 53.124 40.5367 53.1912 40.4792 53.248C40.4217 53.3047 40.3536 53.3331 40.2749 53.3331H38.9672C38.8885 53.3331 38.8204 53.3047 38.7629 53.248C38.7054 53.1912 38.6766 53.124 38.6766 53.0464V50.1787C38.6766 50.101 38.7054 50.0338 38.7629 49.9771C38.8204 49.9203 38.8885 49.8919 38.9672 49.8919H40.2749C40.3536 49.8919 40.4217 49.9203 40.4792 49.9771C40.5367 50.0338 40.5655 50.101 40.5655 50.1787ZM45.9413 50.1787C45.9413 50.4356 45.8581 50.6581 45.6916 50.8463C45.737 50.9778 45.7597 51.0913 45.7597 51.1869C45.7688 51.4139 45.7037 51.6185 45.5645 51.8007C45.6159 51.968 45.6159 52.1427 45.5645 52.325C45.5191 52.4952 45.4374 52.6356 45.3193 52.7461C45.3465 53.0807 45.2724 53.351 45.0968 53.5572C44.9031 53.7842 44.6049 53.9007 44.2024 53.9066H43.6166C43.4169 53.9066 43.1989 53.8835 42.9628 53.8372C42.7267 53.7909 42.5428 53.7476 42.4111 53.7073C42.2795 53.6669 42.0971 53.6079 41.864 53.5303C41.4917 53.4018 41.2526 53.3361 41.1466 53.3331C41.0679 53.3301 40.9998 53.301 40.9423 53.2457C40.8848 53.1905 40.856 53.124 40.856 53.0464V50.1742C40.856 50.0995 40.8833 50.0346 40.9378 49.9793C40.9923 49.9241 41.0573 49.8934 41.133 49.8875C41.2057 49.8815 41.3207 49.7934 41.4781 49.6231C41.6355 49.4528 41.7884 49.2721 41.9367 49.0809C42.1425 48.8211 42.2954 48.6418 42.3953 48.5432C42.4497 48.4895 42.4967 48.4178 42.536 48.3282C42.5754 48.2386 42.6018 48.1661 42.6155 48.1109C42.6291 48.0556 42.6495 47.9652 42.6768 47.8398C42.698 47.7233 42.7169 47.6322 42.7335 47.5665C42.7502 47.5007 42.7797 47.4231 42.8221 47.3335C42.8644 47.2438 42.9159 47.1692 42.9764 47.1094C43.0339 47.0527 43.1021 47.0243 43.1808 47.0243C43.32 47.0243 43.4449 47.04 43.5553 47.0713C43.6658 47.1027 43.7566 47.1415 43.8278 47.1878C43.8989 47.2341 43.9594 47.2946 44.0094 47.3693C44.0593 47.444 44.0957 47.5112 44.1184 47.5709C44.1411 47.6307 44.1592 47.7054 44.1728 47.795C44.1865 47.8846 44.194 47.9518 44.1955 47.9966C44.1971 48.0414 44.1978 48.0997 44.1978 48.1714C44.1978 48.2849 44.1834 48.3984 44.1547 48.5119C44.1259 48.6254 44.0972 48.715 44.0684 48.7807C44.0397 48.8464 43.998 48.9301 43.9435 49.0316C43.9345 49.0496 43.9193 49.0765 43.8981 49.1123C43.877 49.1481 43.8603 49.181 43.8482 49.2109C43.8361 49.2407 43.824 49.2766 43.8119 49.3184H45.0696C45.3057 49.3184 45.51 49.4035 45.6825 49.5738C45.8551 49.7441 45.9413 49.9457 45.9413 50.1787Z" fill="white"/>
<path d="M48.9997 30.0603V34.861C48.9997 35.3344 48.5798 35.7203 48.0604 35.7203H37.9394C37.42 35.7203 37 35.3344 37 34.861V30.0603C37 29.5869 37.42 29.2028 37.9394 29.2028H48.0604C48.5798 29.2028 48.9997 29.5869 48.9997 30.0603Z" fill="#FF1A5E"/>
<path d="M48.9997 30.062V34.8627C48.9997 35.3361 48.5798 35.722 48.0604 35.722H37.9395C37.6545 35.722 37.3994 35.6054 37.2307 35.4235C40.2869 33.8817 46.5286 30.7275 48.816 29.5543C48.9323 29.6966 48.9997 29.8716 48.9997 30.062Z" fill="url(#paint2_linear_1293_7070)"/>
<path d="M45.165 27.8047C45.165 27.8539 45.1435 27.9047 45.1005 27.9441L44.4176 28.5687C44.3746 28.6081 44.319 28.6278 44.2652 28.6278C44.1881 28.6278 44.1111 28.5901 44.0716 28.5179C44.0304 28.4392 44.0546 28.3449 44.1218 28.2834L44.7886 27.6736C44.8558 27.6121 44.9589 27.5899 45.0449 27.6276C45.1238 27.6637 45.165 27.7342 45.165 27.8047Z" fill="#435E88"/>
<path d="M43.1539 27.4057C43.1919 27.4405 43.2159 27.4903 43.2159 27.546V28.4294C43.2159 28.485 43.1919 28.5349 43.1539 28.5697C43.0993 28.6195 43.0157 28.6427 42.932 28.6172C42.842 28.5882 42.7863 28.5059 42.7863 28.4189V27.5564C42.7863 27.4694 42.842 27.3871 42.932 27.3581C43.0157 27.3326 43.0993 27.3558 43.1539 27.4057Z" fill="#435E88"/>
<path d="M41.0535 27.6091C41.1072 27.6092 41.1628 27.6288 41.2058 27.6682L41.8886 28.2928C41.9317 28.3321 41.9532 28.383 41.9532 28.4321C41.9532 28.5027 41.912 28.5732 41.8331 28.6093C41.747 28.647 41.644 28.6248 41.5767 28.5633L40.91 27.9535C40.8428 27.892 40.8186 27.7977 40.8598 27.719C40.8993 27.6468 40.9764 27.6091 41.0535 27.6091Z" fill="#435E88"/>
<path d="M40.8441 37.1194C40.8441 37.0702 40.8657 37.0194 40.9087 36.98L41.5916 36.3554C41.6346 36.3161 41.6902 36.2964 41.7439 36.2964C41.821 36.2964 41.8981 36.3341 41.9375 36.4062C41.9788 36.4849 41.9545 36.5792 41.8873 36.6407L41.2206 37.2506C41.1533 37.3121 41.0503 37.3342 40.9642 37.2965C40.8853 37.2604 40.8441 37.1899 40.8441 37.1194Z" fill="#435E88"/>
<path d="M42.855 37.5184C42.817 37.4836 42.793 37.4338 42.793 37.3781V36.4947C42.793 36.4391 42.817 36.3892 42.855 36.3544C42.9096 36.3045 42.9932 36.2813 43.0769 36.3068C43.1669 36.3358 43.2226 36.4182 43.2226 36.5051L43.2226 37.3677C43.2226 37.4546 43.1669 37.537 43.0769 37.5659C42.9932 37.5915 42.9096 37.5683 42.855 37.5184Z" fill="#435E88"/>
<path d="M44.953 37.315C44.8992 37.315 44.8436 37.2953 44.8006 37.256L44.1178 36.6314C44.0748 36.592 44.0532 36.5412 44.0532 36.492C44.0532 36.4215 44.0944 36.351 44.1733 36.3149C44.2594 36.2772 44.3624 36.2993 44.4297 36.3608L45.0964 36.9707C45.1636 37.0322 45.1878 37.1265 45.1466 37.2052C45.1071 37.2773 45.03 37.315 44.953 37.315Z" fill="#435E88"/>
<path d="M48.0685 34.5198C48.0685 34.7085 47.8997 34.8629 47.6935 34.8629H38.3206C38.1144 34.8629 37.9456 34.7085 37.9456 34.5198L37.9437 30.4035C37.9437 30.2148 38.1125 30.0604 38.3187 30.0604H47.6916C47.8979 30.0604 48.0666 30.2148 48.0666 30.4035L48.0685 34.5198Z" fill="white"/>
<path d="M41.4761 30.0577H40.9839V34.8602H41.4761V30.0577Z" fill="#FF1A5E"/>
<path d="M45.0187 30.0505H44.5265V34.853H45.0187V30.0505Z" fill="#FF1A5E"/>
<path d="M39.8085 32.0402C39.6242 32.0105 39.472 31.9727 39.3179 31.9649C39.1743 31.9576 39.0532 32.0165 38.98 32.1426C38.917 32.2509 38.8023 32.2119 38.7127 32.1932C38.6835 32.1871 38.6602 32.0953 38.6609 32.0429C38.6625 31.9138 38.6736 31.784 38.6932 31.6561C38.702 31.5986 38.7292 31.507 38.7673 31.4979C38.8314 31.4824 38.9109 31.5203 38.9811 31.5531C39.1893 31.5141 39.4006 31.4486 39.6245 31.5059C39.7163 31.5294 39.8061 31.5597 39.8959 31.5894C40.0108 31.6275 40.1202 31.6304 40.2329 31.5757C40.3459 31.5209 40.4136 31.5497 40.5104 31.6727C40.5709 31.7496 40.5167 31.7978 40.4653 31.8506C40.0584 32.2679 39.8222 32.7525 39.7824 33.313C39.776 33.403 39.73 33.4422 39.6316 33.4404C39.4858 33.4376 39.3399 33.4399 39.1941 33.4396C39.0292 33.4392 39.0042 33.422 39.0189 33.2762C39.0662 32.8076 39.2673 32.4115 39.6882 32.1233C39.7197 32.1017 39.751 32.0799 39.8085 32.0402Z" fill="#435E88"/>
<path d="M43.3281 32.0402C43.1439 32.0105 42.9916 31.9727 42.8375 31.9649C42.6939 31.9576 42.5729 32.0165 42.4996 32.1426C42.4367 32.2509 42.3219 32.2119 42.2324 32.1932C42.2031 32.1871 42.1799 32.0953 42.1806 32.0429C42.1822 31.9138 42.1933 31.784 42.2128 31.6561C42.2216 31.5986 42.2488 31.507 42.2869 31.4979C42.3511 31.4824 42.4306 31.5203 42.5007 31.5531C42.709 31.5141 42.9203 31.4486 43.1441 31.5059C43.2359 31.5294 43.3258 31.5597 43.4155 31.5894C43.5304 31.6275 43.6398 31.6304 43.7525 31.5757C43.8655 31.5209 43.9332 31.5497 44.03 31.6727C44.0906 31.7496 44.0364 31.7978 43.9849 31.8506C43.578 32.2679 43.3419 32.7525 43.3021 33.313C43.2957 33.403 43.2497 33.4422 43.1513 33.4404C43.0055 33.4376 42.8596 33.4399 42.7137 33.4396C42.5488 33.4392 42.5238 33.422 42.5385 33.2762C42.5858 32.8076 42.7869 32.4115 43.2078 32.1233C43.2393 32.1017 43.2706 32.0799 43.3281 32.0402Z" fill="#435E88"/>
<path d="M46.8419 32.0402C46.6577 32.0105 46.5054 31.9727 46.3513 31.9649C46.2077 31.9576 46.0867 32.0165 46.0134 32.1426C45.9505 32.2509 45.8357 32.2119 45.7462 32.1932C45.7169 32.1871 45.6937 32.0953 45.6943 32.0429C45.696 31.9138 45.7071 31.784 45.7266 31.6561C45.7354 31.5986 45.7626 31.507 45.8007 31.4979C45.8649 31.4824 45.9444 31.5203 46.0145 31.5531C46.2228 31.5141 46.434 31.4486 46.6579 31.5059C46.7497 31.5294 46.8396 31.5597 46.9293 31.5894C47.0442 31.6275 47.1536 31.6304 47.2663 31.5757C47.3793 31.5209 47.447 31.5497 47.5438 31.6727C47.6043 31.7496 47.5502 31.7978 47.4987 31.8506C47.0918 32.2679 46.8557 32.7525 46.8159 33.313C46.8095 33.403 46.7635 33.4422 46.6651 33.4404C46.5193 33.4376 46.3734 33.4399 46.2275 33.4396C46.0626 33.4392 46.0376 33.422 46.0523 33.2762C46.0996 32.8076 46.3007 32.4115 46.7216 32.1233C46.7531 32.1017 46.7844 32.0799 46.8419 32.0402Z" fill="#435E88"/>
</g>
<g clip-path="url(#clip1_1293_7070)">
<rect x="56" y="0.347656" width="24" height="24" rx="12" fill="#58C27D"/>
<path d="M62 12.3477L66 16.3477L74 8.34766" stroke="#FCFCFD" stroke-width="2" stroke-miterlimit="10" stroke-linecap="round" stroke-linejoin="round"/>
</g>
<defs>
<linearGradient id="paint0_linear_1293_7070" x1="16.7497" y1="26.8236" x2="19.2516" y2="31.8735" gradientUnits="userSpaceOnUse">
<stop stop-color="#FF4EA3"/>
<stop offset="1" stop-color="#B8008F"/>
</linearGradient>
<linearGradient id="paint1_linear_1293_7070" x1="12.313" y1="71.84" x2="7.59264" y2="68.7612" gradientUnits="userSpaceOnUse">
<stop stop-color="#FF4EA3"/>
<stop offset="1" stop-color="#B8008F"/>
</linearGradient>
<linearGradient id="paint2_linear_1293_7070" x1="43.1152" y1="29.5543" x2="43.1152" y2="35.722" gradientUnits="userSpaceOnUse">
<stop stop-color="#FF4EA3"/>
<stop offset="1" stop-color="#B8008F"/>
</linearGradient>
<clipPath id="clip0_1293_7070">
<rect y="0.347656" width="80" height="80" rx="40" fill="white"/>
</clipPath>
<clipPath id="clip1_1293_7070">
<rect x="56" y="0.347656" width="24" height="24" rx="12" fill="white"/>
</clipPath>
</defs>
</svg>
