<svg width="80" height="81" viewBox="0 0 80 81" fill="none" xmlns="http://www.w3.org/2000/svg">
<rect y="0.347656" width="80" height="80" rx="40" fill="#4B50C8"/>
<g clip-path="url(#clip0_1293_7207)">
<path opacity="0.2" d="M65 86.5998V89.0115C65 91.0559 63.4046 92.7195 61.4418 92.7195H41.2296C40.4529 92.7195 39.7274 92.9498 39.1115 93.3477L25.7414 79.4218C24.9446 78.5919 24.7893 77.3413 25.2791 76.3477C25.396 76.5856 25.5496 76.8102 25.7414 77.0101L39.1115 90.9359C39.7473 90.5246 40.4811 90.307 41.2296 90.3078H61.4418C63.4046 90.3078 65 88.6441 65 86.5998Z" fill="#2B478B"/>
<path d="M41.1645 9.94223C40.8385 9.28172 40.2704 8.7862 39.5707 8.54942C38.1278 8.06039 36.5576 8.84177 36.0687 10.2848C35.7652 11.1756 36.054 13.4376 36.2882 14.9065C35.0041 14.1469 33.0198 13.0666 32.0856 13.0217C30.561 12.9484 29.2631 14.1272 29.1899 15.6519C29.1168 17.1723 30.2956 18.4699 31.8203 18.5432C33.1202 18.6057 36.6311 16.8709 37.3234 16.5242C37.4142 16.4755 37.4881 16.4085 37.5404 16.3315C37.545 16.3274 37.5452 16.3228 37.5498 16.3188C38.344 15.6014 40.9147 13.2075 41.3061 12.0514C41.5429 11.3517 41.495 10.603 41.1645 9.94223ZM31.8732 17.4415C30.9566 17.3975 30.2475 16.6215 30.2915 15.7049C30.3356 14.7883 31.1161 14.0793 32.0327 14.1234C32.6761 14.1543 34.5063 15.13 35.9277 15.9757C34.4318 16.6811 32.5166 17.4724 31.8732 17.4415ZM40.2628 11.701C40.057 12.3094 38.6159 13.8038 37.4128 14.9429C37.1467 13.3092 36.9057 11.2481 37.1116 10.6397C37.3539 9.91805 38.0466 9.47428 38.7693 9.50901C38.9191 9.51621 39.0679 9.54558 39.2201 9.59258C40.0894 9.88603 40.5564 10.8317 40.2628 11.701Z" fill="white"/>
<path d="M46.0294 13.9966L31.5013 23.6418C31.1951 23.8451 30.782 23.7621 30.5781 23.4562L29.5757 21.9527C29.0753 21.1939 29.2778 20.171 30.0366 19.6652L42.9362 11.1045C43.695 10.6045 44.7179 10.8125 45.2182 11.5656L46.2165 13.0733C46.4195 13.38 46.3358 13.7932 46.0294 13.9966Z" fill="#C175FF"/>
<path d="M46.0294 13.9966L31.5013 23.6418C31.1951 23.8451 30.782 23.7621 30.5781 23.4562L29.5757 21.9527C29.0753 21.1939 29.2778 20.171 30.0366 19.6652L42.9362 11.1045C43.695 10.6045 44.7179 10.8125 45.2182 11.5656L46.2165 13.0733C46.4195 13.38 46.3358 13.7932 46.0294 13.9966Z" fill="#FF1A5E"/>
<path d="M46.0288 13.998L44.6348 14.92C44.9391 14.7171 45.0229 14.3069 44.82 13.998L43.8229 12.4892C43.3201 11.7391 42.3009 11.5319 41.542 12.0304L42.9362 11.1038C43.695 10.6054 44.7185 10.8128 45.217 11.5672L46.2185 13.0715C46.4214 13.3804 46.3376 13.7951 46.0288 13.998Z" fill="url(#paint0_linear_1293_7207)"/>
<path d="M48.3961 22.3693C48.7642 22.3693 49.0626 22.6677 49.0626 23.0358V32.0977C49.0626 33.2763 48.1072 34.2317 46.9287 34.2317H34.4749C33.2963 34.2317 32.3409 33.2763 32.3409 32.0977V23.0358C32.3409 22.6677 32.6394 22.3693 33.0075 22.3693H48.3961Z" fill="#FF1A5E"/>
<path d="M49.0642 23.0378V32.0996C49.0642 33.2775 48.1068 34.2303 46.9289 34.2303H45.1289C46.3068 34.2303 47.2598 33.2775 47.2598 32.0996V23.0378C47.2598 22.667 46.9642 22.3672 46.5936 22.3672H48.398C48.7642 22.3672 49.0642 22.667 49.0642 23.0378Z" fill="url(#paint1_linear_1293_7207)"/>
<path d="M38.3582 14.1415L34.759 16.5322L37.0395 19.9653L40.6387 17.5746L38.3582 14.1415Z" fill="white"/>
<path d="M49.0508 25.9183H32.3302V30.2419H49.0508V25.9183Z" fill="white"/>
<path d="M53.2494 14.8046C53.3288 14.8838 53.2847 15.0206 53.1744 15.0383L52.3493 15.1617C52.3053 15.1708 52.27 15.1971 52.2479 15.2369L51.8862 15.9868C51.8376 16.0882 51.6921 16.0882 51.6391 15.9868L51.2685 15.2457C51.2464 15.2059 51.2068 15.1751 51.1626 15.1708L50.3377 15.056C50.2274 15.0383 50.1832 14.9015 50.2626 14.8222L50.8538 14.2397C50.8891 14.2089 50.9024 14.1605 50.8935 14.1163L50.7479 13.3001C50.7258 13.1855 50.845 13.1015 50.942 13.1545L51.6833 13.5383C51.7229 13.556 51.7715 13.556 51.8112 13.5338L52.5435 13.1413C52.645 13.0883 52.7597 13.1764 52.742 13.2867L52.6097 14.1075C52.6008 14.1514 52.6141 14.1956 52.6494 14.2266L53.2494 14.8046Z" fill="#FFD80C"/>
<path d="M47.657 17.8814L46.9952 18.3842C46.9599 18.4152 46.9422 18.4549 46.9422 18.5034L46.982 19.3327C46.9864 19.4475 46.8629 19.5137 46.7701 19.4518L46.082 18.9753C46.0466 18.9491 45.9981 18.9445 45.9584 18.9622L45.182 19.2577C45.0761 19.2976 44.9702 19.1959 45.0011 19.0902L45.2394 18.2916C45.2525 18.2474 45.2437 18.2033 45.2173 18.1682L44.6967 17.5195C44.6261 17.4312 44.6879 17.299 44.7982 17.2946L45.632 17.277C45.676 17.277 45.7158 17.2548 45.7423 17.2152L46.2011 16.5226C46.2628 16.4254 46.404 16.4431 46.4438 16.5489L46.7172 17.3386C46.7305 17.3784 46.7658 17.4092 46.8099 17.4226L47.6128 17.6432C47.7187 17.674 47.7496 17.8151 47.657 17.8814Z" fill="#FFD80C"/>
<path d="M43.7439 25.9183H37.66V30.2419H43.7439V25.9183Z" fill="white"/>
<path d="M42.8624 22.3691H38.5415V34.2315H42.8624V22.3691Z" fill="white"/>
<path d="M49.0512 25.9183H47.26V30.2419H49.0512V25.9183Z" fill="white"/>
<path d="M49.8186 22.0619C49.6816 22.1047 49.5328 22.0503 49.4249 21.9339L49.856 21.7991L49.7967 21.6095L49.3155 21.76C49.3095 21.745 49.3041 21.7299 49.2992 21.7142C49.2943 21.6986 49.2901 21.6829 49.2866 21.6674L49.7678 21.5169L49.7085 21.3273L49.2774 21.4621C49.2998 21.305 49.3911 21.1755 49.5281 21.1327C49.659 21.0918 49.8096 21.1406 49.9211 21.2601L50.067 21.1247C49.9028 20.9486 49.6736 20.879 49.4688 20.9431C49.3148 20.9912 49.193 21.1063 49.1259 21.2673C49.0922 21.3483 49.0745 21.4361 49.0729 21.5261L48.8661 21.5907L48.9254 21.7803L49.096 21.727C49.0998 21.7425 49.1042 21.7582 49.109 21.7736C49.1139 21.7892 49.1192 21.8044 49.1249 21.8196L48.9544 21.8729L49.0137 22.0625L49.2204 21.9978C49.2729 22.0709 49.3374 22.1328 49.4113 22.1801C49.5582 22.2743 49.7239 22.2996 49.8779 22.2515C50.0827 22.1874 50.2315 21.9997 50.2661 21.7614L50.069 21.7331C50.0455 21.895 49.9495 22.021 49.8186 22.0619Z" fill="url(#paint2_linear_1293_7207)"/>
<path d="M53.8497 18.0879C53.7342 18.0269 53.674 17.896 53.6799 17.7517L54.0433 17.9435L54.1277 17.7836L53.722 17.5696C53.7278 17.5561 53.7341 17.5429 53.741 17.5296C53.748 17.5165 53.7554 17.5037 53.7632 17.4915L54.1689 17.7056L54.2532 17.5457L53.8898 17.3539C54.0056 17.2676 54.1476 17.2435 54.2631 17.3044C54.3735 17.3627 54.4386 17.4912 54.433 17.6398L54.614 17.6472C54.6223 17.4282 54.5202 17.2356 54.3475 17.1445C54.2177 17.076 54.0653 17.0712 53.9183 17.1312C53.8444 17.1614 53.7764 17.2062 53.7173 17.2629L53.543 17.171L53.4587 17.3308L53.6025 17.4067C53.5949 17.4191 53.5876 17.432 53.5807 17.445C53.5738 17.4582 53.5673 17.4714 53.5613 17.4848L53.4175 17.4089L53.3331 17.5687L53.5075 17.6607C53.494 17.7415 53.4954 17.8228 53.5122 17.9008C53.5457 18.056 53.6356 18.1792 53.7654 18.2477C53.9381 18.3389 54.1547 18.3145 54.3307 18.184L54.2225 18.0386C54.103 18.1273 53.9601 18.1461 53.8497 18.0879Z" fill="url(#paint3_linear_1293_7207)"/>
<path d="M47.5349 11.5182C47.3418 11.5687 47.1387 11.4834 46.9964 11.3146L47.604 11.1556L47.534 10.8884L46.8558 11.0659C46.8484 11.0448 46.8419 11.0233 46.8361 11.0012C46.8303 10.9793 46.8255 10.9572 46.8216 10.9354L47.4998 10.7578L47.4299 10.4906L46.8223 10.6497C46.8637 10.4328 46.9989 10.259 47.192 10.2084C47.3765 10.1601 47.5825 10.2378 47.7296 10.4111L47.9412 10.2325C47.7245 9.97714 47.4107 9.86556 47.122 9.94114C46.9049 9.99797 46.7283 10.1499 46.6245 10.3692C46.5724 10.4795 46.5421 10.6003 46.5341 10.7251L46.2426 10.8014L46.3126 11.0687L46.553 11.0057C46.5573 11.0275 46.5624 11.0496 46.5681 11.0714C46.5738 11.0934 46.5801 11.1148 46.5871 11.1363L46.3468 11.1992L46.4167 11.4664L46.7082 11.3901C46.7763 11.495 46.8619 11.5853 46.9614 11.6558C47.1593 11.7961 47.3878 11.8422 47.6048 11.7854C47.8935 11.7098 48.1124 11.4587 48.1761 11.1299L47.9041 11.0778C47.8609 11.3011 47.7194 11.4698 47.5349 11.5182Z" fill="url(#paint4_linear_1293_7207)"/>
<path d="M40.7112 20.7969C40.5708 20.7624 40.471 20.6379 40.4386 20.4813L40.8805 20.5899L40.9282 20.3956L40.435 20.2744C40.4376 20.2583 40.4409 20.2424 40.4448 20.2263C40.4487 20.2104 40.4533 20.1946 40.4583 20.1794L40.9515 20.3007L40.9993 20.1063L40.5575 19.9977C40.6587 19.8739 40.8049 19.81 40.9453 19.8445C41.0795 19.8774 41.1838 19.9981 41.2176 20.1592L41.414 20.1186C41.3643 19.8812 41.203 19.7017 40.9931 19.6501C40.8352 19.6113 40.6702 19.647 40.5284 19.7508C40.4571 19.8031 40.3961 19.8695 40.3479 19.9462L40.1359 19.8941L40.0882 20.0885L40.263 20.1314C40.2582 20.1468 40.2538 20.1626 40.2499 20.1784C40.246 20.1944 40.2426 20.2103 40.2396 20.2263L40.0649 20.1834L40.0171 20.3777L40.229 20.4298C40.2362 20.5201 40.2595 20.6071 40.2985 20.6864C40.376 20.8442 40.5056 20.9524 40.6634 20.9912C40.8734 21.0428 41.0995 20.9586 41.2536 20.7712L41.0984 20.644C40.9938 20.7713 40.8454 20.8299 40.7112 20.7969Z" fill="url(#paint5_linear_1293_7207)"/>
<path d="M36.7002 44.5699C37.7057 43.56 37.7057 41.9278 36.7002 40.9223L34.872 39.1029C33.8622 38.093 32.2343 38.0974 31.2245 39.1072L22.7541 47.6037C21.7486 48.6092 21.7486 50.2414 22.7541 51.2513L24.5822 53.0707C25.5877 54.0805 27.2243 54.0805 28.2255 53.0707L36.7002 44.5699ZM54.4026 58.6248C54.1937 58.8337 53.9151 58.9468 53.6279 58.9468C53.3406 58.9468 53.0577 58.8337 52.8531 58.6248L49.8497 55.6344L49.8236 55.604L48.113 53.8934L45.5014 51.2861C44.0171 50.8247 42.1193 50.3633 40.9615 50.3633C40.6089 50.359 40.4392 50.4068 40.3869 50.4286L37.9973 52.8182C37.4445 53.371 36.7089 53.6757 35.921 53.6757C35.1419 53.6757 34.4063 53.371 33.8535 52.8226L33.0874 52.0783C32.5999 51.5908 32.3214 50.9814 32.2474 50.3503L28.8827 53.7323C27.9774 54.6377 27.8903 56.0479 28.6172 57.0578L30.4889 55.1861C31.0199 54.6551 31.7337 54.3591 32.4868 54.3591C33.2398 54.3591 33.9406 54.6507 34.4716 55.173L34.7197 55.4037C35.2986 55.9827 35.5685 56.7531 35.5424 57.5148C35.5772 57.5148 35.6077 57.5105 35.6468 57.5105C36.3955 57.5105 37.1006 57.8021 37.6317 58.3244L37.8798 58.5551C38.4587 59.134 38.7285 59.9044 38.7024 60.6662C38.7372 60.6662 38.7677 60.6618 38.8069 60.6618C39.5556 60.6618 40.2607 60.9534 40.7874 61.4758L41.0355 61.7065C41.6144 62.2854 41.8886 63.0558 41.8581 63.8175C41.8886 63.8175 41.9234 63.8132 41.9583 63.8132C42.7069 63.8132 43.4121 64.1048 43.9431 64.6271L44.1868 64.8578C44.818 65.489 45.0879 66.3465 44.9921 67.1691L45.6276 67.8046C46.3066 68.4836 47.3948 68.4836 48.0738 67.8046L48.2958 67.5739C48.9748 66.8949 48.9748 65.798 48.2958 65.1233L46.1586 62.9862L46.6331 62.503L48.7789 64.6489C49.458 65.3279 50.5549 65.3279 51.2252 64.6489L51.4428 64.4182C52.1218 63.7392 52.1218 62.6423 51.4428 61.9676L49.3013 59.8261L49.7757 59.3429L51.926 61.4932C52.605 62.1722 53.7019 62.1722 54.3722 61.4932L54.5898 61.2625C55.2688 60.5835 55.2688 59.4866 54.5898 58.8119L54.4026 58.6248Z" fill="#1F2272"/>
<path d="M33.849 51.2854L34.6194 52.0427C35.3333 52.7566 36.4954 52.7566 37.218 52.0427L39.6555 49.6096C40.6175 48.6476 45.0006 49.9665 46.0975 50.3147L50.6287 54.8459L53.632 57.8492L54.1326 57.3487C55.1424 56.3389 55.1381 54.7109 54.1283 53.7011L45.7449 45.3439C45.7449 45.3439 44.9527 44.3776 44.0169 44.3776C43.5947 44.3776 41.1267 44.382 39.1941 44.382C38.2583 44.382 37.9492 44.5909 37.6489 44.8869L33.849 48.6955C33.1351 49.4093 33.1351 50.5715 33.849 51.2854ZM60.2438 47.5769L51.7473 39.1065C50.7375 38.0967 49.1096 38.0967 48.0998 39.1065L46.2803 40.939C45.2748 41.9445 45.2705 43.5767 46.2803 44.5822L54.7768 53.0526C55.7866 54.058 57.4189 54.058 58.4244 53.0526L60.2438 51.2244C61.2536 50.2146 61.2493 48.5823 60.2438 47.5769ZM33.9404 58.6197C34.6194 57.9407 34.6107 56.8438 33.9404 56.1691L33.7097 55.9515C33.5495 55.7901 33.359 55.662 33.149 55.5746C32.9391 55.4872 32.714 55.4422 32.4866 55.4422C32.2592 55.4422 32.0341 55.4872 31.8241 55.5746C31.6142 55.662 31.4237 55.7901 31.2635 55.9515L28.3994 58.8155C27.7204 59.4946 27.7204 60.5915 28.3994 61.2618L28.6301 61.4794C29.3091 62.1584 30.406 62.1584 31.0807 61.4794L33.9404 58.6197ZM37.1005 61.771C37.7795 61.092 37.7708 59.9951 37.1005 59.3205L36.8654 59.1072C36.7052 58.9458 36.5147 58.8177 36.3048 58.7303C36.0948 58.6429 35.8697 58.5979 35.6423 58.5979C35.4149 58.5979 35.1898 58.6429 34.9799 58.7303C34.7699 58.8177 34.5794 58.9458 34.4192 59.1072L31.5551 61.9713C31.3937 62.1315 31.2657 62.322 31.1783 62.5319C31.0908 62.7418 31.0458 62.967 31.0458 63.1944C31.0458 63.4218 31.0908 63.6469 31.1783 63.8568C31.2657 64.0667 31.3937 64.2573 31.5551 64.4175L31.7858 64.6351C32.4648 65.3141 33.5617 65.3141 34.2364 64.6351L37.1005 61.771ZM40.2431 64.9268C40.9221 64.2477 40.9134 63.1509 40.2431 62.4762L40.0124 62.2585C39.3378 61.5839 38.2452 61.5839 37.5706 62.2629L34.6978 65.127C34.0187 65.806 34.0187 66.9029 34.6978 67.5732L34.9285 67.7908C35.6075 68.4699 36.7044 68.4699 37.379 67.7908L40.2431 64.9268ZM43.3988 65.6232L43.1681 65.4056C42.4935 64.7396 41.3966 64.7352 40.7176 65.4099L37.8535 68.274C37.1745 68.953 37.1745 70.0499 37.8535 70.7202L38.0842 70.9378C38.7632 71.6082 39.8601 71.6169 40.5348 70.9378L43.3988 68.0738C44.0779 67.3947 44.0779 66.2979 43.3988 65.6232ZM44.7917 67.9345C44.6568 68.2653 44.4478 68.583 44.1736 68.8572L42.2715 70.7594L42.4674 70.9553C43.1464 71.6343 44.2433 71.6343 44.9136 70.9553L45.1312 70.7246C45.8102 70.0455 45.8102 68.9487 45.1312 68.274L44.7917 67.9345Z" fill="#1F2272"/>
</g>
<g clip-path="url(#clip1_1293_7207)">
<rect x="56" y="0.347656" width="24" height="24" rx="12" fill="#58C27D"/>
<path d="M62 12.3477L66 16.3477L74 8.34766" stroke="#FCFCFD" stroke-width="2" stroke-miterlimit="10" stroke-linecap="round" stroke-linejoin="round"/>
</g>
<defs>
<linearGradient id="paint0_linear_1293_7207" x1="43.9356" y1="10.8324" x2="43.9356" y2="14.92" gradientUnits="userSpaceOnUse">
<stop stop-color="#FF4EA3"/>
<stop offset="1" stop-color="#B8008F"/>
</linearGradient>
<linearGradient id="paint1_linear_1293_7207" x1="47.0965" y1="22.3672" x2="47.0965" y2="34.2303" gradientUnits="userSpaceOnUse">
<stop stop-color="#FF4EA3"/>
<stop offset="1" stop-color="#B8008F"/>
</linearGradient>
<linearGradient id="paint2_linear_1293_7207" x1="49.3487" y1="20.9806" x2="49.7578" y2="22.289" gradientUnits="userSpaceOnUse">
<stop stop-color="#FFD836"/>
<stop offset="1" stop-color="#EBB11D"/>
</linearGradient>
<linearGradient id="paint3_linear_1293_7207" x1="54.2463" y1="17.0911" x2="53.6642" y2="18.1943" gradientUnits="userSpaceOnUse">
<stop stop-color="#FFD836"/>
<stop offset="1" stop-color="#EBB11D"/>
</linearGradient>
<linearGradient id="paint4_linear_1293_7207" x1="46.9527" y1="9.98546" x2="47.4356" y2="11.8297" gradientUnits="userSpaceOnUse">
<stop stop-color="#FFD836"/>
<stop offset="1" stop-color="#EBB11D"/>
</linearGradient>
<linearGradient id="paint5_linear_1293_7207" x1="40.87" y1="19.6198" x2="40.5404" y2="20.961" gradientUnits="userSpaceOnUse">
<stop stop-color="#FFD836"/>
<stop offset="1" stop-color="#EBB11D"/>
</linearGradient>
<clipPath id="clip0_1293_7207">
<rect y="0.347656" width="80" height="80" rx="40" fill="white"/>
</clipPath>
<clipPath id="clip1_1293_7207">
<rect x="56" y="0.347656" width="24" height="24" rx="12" fill="white"/>
</clipPath>
</defs>
</svg>
