<svg width="26" height="13" viewBox="0 0 26 13" fill="none" xmlns="http://www.w3.org/2000/svg">
<path d="M5.56823 0.928467C5.15495 0.949585 4.64542 1.23029 4.3534 1.6245C4.08612 1.96503 3.85741 2.5172 3.91516 3.03547C4.38207 3.07859 4.85007 2.77636 5.14127 2.39271C5.42834 1.99763 5.61691 1.46874 5.56823 0.928467ZM9.53659 1.98369V9.90299H10.7111V7.26323H12.3207C13.7973 7.26323 14.8567 6.16772 14.8567 4.62346C14.8567 3.07919 13.8162 1.98369 12.3594 1.98369H9.53659ZM10.7111 3.03891H12.0726C13.0856 3.03891 13.6806 3.62298 13.6806 4.62346C13.6806 5.62393 13.0906 6.20629 12.0726 6.20629H10.7111V3.03891ZM5.51507 3.30357C4.8345 3.30357 4.34715 3.69885 4.02955 3.69885C3.707 3.69885 3.22492 3.30701 2.6681 3.30701C1.98753 3.30701 1.32133 3.76319 0.969906 4.42754C0.248095 5.75534 0.782764 7.72166 1.48065 8.80309C1.823 9.33808 2.23533 9.90299 2.79216 9.90299C3.30279 9.88276 3.47455 9.57302 4.09078 9.57302C4.71112 9.57302 4.8954 9.90299 5.45223 9.90299C6.00906 9.90299 6.34649 9.35871 6.68801 8.82371C7.0782 8.21657 7.23719 7.62399 7.24709 7.5932C7.23802 7.58352 6.16783 7.14544 6.15793 5.82819C6.14885 4.72653 7.00048 4.20138 7.03925 4.17146C6.55832 3.40945 5.7619 3.30357 5.57629 3.30357H5.51507ZM17.5539 4.09585C16.3222 4.09585 15.4126 4.83259 15.3788 5.84538H16.4228C16.5086 5.36406 16.9368 5.04795 17.5216 5.04795C18.2311 5.04795 18.6317 5.39392 18.6317 6.03099V6.47095L17.1817 6.55344C15.8346 6.6388 15.1065 7.21394 15.1065 8.21705C15.1065 9.22984 15.8586 9.90299 16.9368 9.90299C17.6652 9.90299 18.3418 9.51603 18.6479 8.90449H18.672V9.84284H19.7451V5.95193C19.7442 4.82211 18.8812 4.09585 17.5539 4.09585ZM20.1769 4.09585L22.1618 9.8755L22.0555 10.2278C21.8765 10.8235 21.5851 11.0527 21.0679 11.0527C20.9796 11.0527 20.8127 11.0435 20.736 11.0338V11.9859C20.8135 12.0044 21.0852 12.0152 21.1694 12.0152C22.3111 12.0152 22.8485 11.5562 23.3187 10.1659L25.3746 4.09585H24.1839L22.8047 8.7859H22.7805L21.4014 4.09585H20.1769ZM18.6317 7.26323L18.6269 7.72209C18.6269 8.45419 18.0331 8.97495 17.2477 8.97495C16.6299 8.97495 16.2359 8.66475 16.2359 8.18783C16.2359 7.69595 16.6153 7.41038 17.3396 7.36462L18.6317 7.26323Z" fill="#3A3F50"/>
</svg>
