<svg width="65" height="29" viewBox="0 0 65 29" fill="none" xmlns="http://www.w3.org/2000/svg">
<g clip-path="url(#clip0_3156_9159)">
<path d="M54.724 17.0493H56.9389L55.8154 13.3306L54.724 17.0493Z" fill="white"/>
<path d="M15.7538 13.0044H14.9834V18.6477H15.7538C16.3958 18.6477 16.8774 18.5824 17.1663 18.4193C17.4552 18.2562 17.6478 18.0279 17.8083 17.6365C17.9688 17.2776 18.033 16.6578 18.033 15.8423C18.033 14.7332 17.8724 13.983 17.5194 13.5915C17.1663 13.2001 16.5884 13.0044 15.7538 13.0044Z" fill="white"/>
<path d="M61.273 4.03418H6.9581C7.95326 4.84968 8.59527 6.08925 8.62735 7.68767H6.63709C6.57289 5.82828 5.22465 4.36038 3.5875 4.36038C2.07875 4.36038 0.794714 5.63256 0.570007 7.32882V8.76409H9.46196C10.0077 8.76409 10.425 9.18818 10.425 9.74273V21.7796C10.425 22.3014 10.0077 22.7581 9.46196 22.7581H0.602108V24.9437C0.602108 26.7378 2.04665 28.2057 3.81221 28.2057H61.273C63.0385 28.2057 64.4831 26.7378 64.4831 24.9437V7.26358C64.4831 5.50208 63.0385 4.03418 61.273 4.03418ZM20.8257 18.3545C20.5689 18.9742 20.2479 19.4635 19.7985 19.8876C19.3491 20.3116 18.8997 20.5726 18.386 20.7031C17.7119 20.8988 17.0699 20.9966 16.5242 20.9966H11.8374V10.6561H16.5242C17.4551 10.6561 18.1934 10.7866 18.7712 11.0475C19.3491 11.3085 19.7985 11.6673 20.1837 12.1566C20.5689 12.6459 20.8257 13.1678 20.9863 13.8202C21.1467 14.44 21.243 15.125 21.243 15.81C21.2109 16.8865 21.0826 17.7672 20.8257 18.3545ZM33.5377 20.9966H30.9696V13.1026L28.9793 20.9966H26.636L24.6778 13.1026V20.9966H22.1098V10.6561H26.2508L27.8558 16.9518L29.4288 10.6561H33.5698V20.9966H33.5377ZM46.5386 22.8234C45.3188 23.5411 43.9705 23.8999 42.5581 23.8999C41.1456 23.8999 39.7974 23.5411 38.5776 22.8234C37.3577 22.1057 36.3626 21.1272 35.6564 19.855C34.9502 18.6154 34.597 17.2454 34.597 15.81C34.597 14.3748 34.9502 13.0047 35.6564 11.7652C36.3626 10.493 37.3577 9.51435 38.5776 8.79676C39.7974 8.0791 41.1456 7.72026 42.5581 7.72026C43.9705 7.72026 45.3188 8.0791 46.5386 8.79676C47.7584 9.51435 48.7535 10.493 49.4598 11.7652C50.166 13.0373 50.5191 14.3748 50.5191 15.81C50.5191 17.2454 50.166 18.6154 49.4598 19.855C48.7535 21.0945 47.7906 22.1057 46.5386 22.8234ZM58.127 20.9966L57.6135 19.3004H54.0503L53.5687 20.9966H50.3586L54.1786 10.6561H57.6135L61.4335 20.9966H58.127Z" fill="white"/>
<path d="M42.5576 9.25342C40.7921 9.25342 39.2513 9.90582 37.9993 11.178C36.7474 12.4502 36.1054 13.9833 36.1054 15.81C36.1054 17.6042 36.7474 19.1699 37.9993 20.4421C39.2513 21.7143 40.76 22.3667 42.5576 22.3667C44.3553 22.3667 45.8641 21.7143 47.116 20.4421C48.3679 19.1699 49.01 17.6368 49.01 15.81C49.01 14.0159 48.3679 12.4502 47.116 11.178C45.8641 9.90582 44.3232 9.25342 42.5576 9.25342ZM45.4789 19.3004C44.7405 20.0181 43.7775 20.3769 42.6219 20.3769C41.3378 20.3769 40.3106 19.9528 39.476 19.1047C38.6735 18.2566 38.2561 17.1475 38.2561 15.7774C38.2561 14.4726 38.6735 13.3961 39.5081 12.548C40.3427 11.6999 41.3699 11.2758 42.6219 11.2758C43.617 11.2758 44.4838 11.5368 45.1579 12.0913C45.8319 12.6459 46.2814 13.3309 46.474 14.2116L44.4195 14.5379C44.2911 13.9507 44.0664 13.5266 43.7454 13.2657C43.4244 13.0047 43.0071 12.8416 42.5256 12.8416C41.9799 12.8416 41.5304 13.07 41.1452 13.5592C40.76 14.0159 40.5995 14.7662 40.5995 15.7774C40.5995 16.7886 40.7279 17.5063 40.9847 17.9303C41.3378 18.5501 41.8836 18.8764 42.5576 18.8764C42.975 18.8764 43.3602 18.7133 43.7133 18.387C44.0664 18.0609 44.2912 17.5389 44.4516 16.8212L46.6024 17.3432C46.3135 18.1587 45.9283 18.8437 45.4789 19.3004Z" fill="white"/>
<path d="M3.33099 0.282715H4.74344C5.06444 0.282715 5.28915 0.347955 5.44966 0.511056C5.61016 0.674157 5.67436 0.869878 5.67436 1.16346C5.67436 1.45704 5.57806 1.65276 5.41756 1.81586C5.25705 1.97896 5.00024 2.0442 4.64714 2.0442H4.16562V3.08805H3.33099V0.282715ZM4.19772 1.48966H4.42243C4.58293 1.48966 4.71134 1.45704 4.77554 1.3918C4.83974 1.32656 4.87184 1.26132 4.87184 1.16346C4.87184 1.0656 4.83974 1.00036 4.77554 0.935118C4.71134 0.869878 4.61503 0.837258 4.45453 0.837258H4.19772V1.48966Z" fill="white"/>
<path d="M6.18762 3.08805V0.282715H7.60005C7.85687 0.282715 8.04947 0.315335 8.20999 0.347955C8.37051 0.380575 8.46681 0.478436 8.53096 0.608916C8.59519 0.739397 8.65941 0.869878 8.65941 1.0656C8.65941 1.2287 8.62733 1.35918 8.56311 1.45704C8.49889 1.5549 8.40259 1.65276 8.30629 1.718C8.24207 1.75062 8.14577 1.78324 8.01739 1.81586C8.11369 1.84848 8.17791 1.8811 8.24207 1.91372C8.27421 1.94634 8.30629 1.97896 8.37051 2.07682C8.43466 2.14206 8.46681 2.2073 8.49889 2.23993L8.91623 3.05543H7.95317L7.50375 2.2073C7.43953 2.10945 7.40745 2.01158 7.34323 1.97896C7.27908 1.94634 7.21486 1.91372 7.11856 1.91372H7.02225V3.05543H6.18762V3.08805ZM7.02225 1.42442H7.37538C7.40745 1.42442 7.50375 1.42442 7.60005 1.3918C7.66427 1.3918 7.69635 1.35918 7.7285 1.29394C7.76057 1.2287 7.79265 1.19608 7.79265 1.13084C7.79265 1.03298 7.76057 0.967738 7.69635 0.935118C7.6322 0.902498 7.5359 0.869878 7.37538 0.869878H7.02225V1.42442Z" fill="white"/>
<path d="M9.04529 1.68529C9.04529 1.22861 9.17373 0.869783 9.43048 0.608822C9.6873 0.347861 10.0083 0.25 10.4578 0.25C10.9072 0.25 11.2602 0.380481 11.5171 0.641442C11.7739 0.902404 11.9023 1.22861 11.9023 1.68529C11.9023 2.01149 11.8381 2.27245 11.7418 2.50079C11.6455 2.72913 11.4529 2.85961 11.2602 2.95747C11.0676 3.05533 10.8108 3.12057 10.4898 3.12057C10.1688 3.12057 9.91205 3.05533 9.71945 2.95747C9.52678 2.85961 9.36633 2.72913 9.23789 2.53341C9.10951 2.33769 9.04529 2.04411 9.04529 1.68529ZM9.8799 1.71791C9.8799 2.01149 9.94412 2.20721 10.0404 2.33769C10.1367 2.46817 10.2972 2.53341 10.4578 2.53341C10.6504 2.53341 10.7787 2.46817 10.875 2.33769C10.9713 2.20721 11.0356 2.01149 11.0356 1.68529C11.0356 1.42433 10.9713 1.22861 10.875 1.09813C10.7787 0.967643 10.6504 0.902404 10.4578 0.902404C10.2972 0.902404 10.1367 0.967643 10.0404 1.09813C9.94412 1.22861 9.8799 1.42433 9.8799 1.71791Z" fill="white"/>
<path d="M12.0947 0.282715H14.6949V0.967738H13.8282V3.08805H12.9615V1.00036H12.0947V0.282715Z" fill="white"/>
<path d="M15.1442 0.282715H17.4233V0.902498H15.9788V1.35918H17.295V1.94634H15.9788V2.50089H17.4555V3.12067H15.1442V0.282715Z" fill="white"/>
<path d="M19.7987 1.94625L20.5371 2.17459C20.4728 2.40293 20.4086 2.56603 20.3123 2.69651C20.216 2.82699 20.0555 2.95747 19.895 3.02271C19.7345 3.08795 19.5419 3.1532 19.2851 3.1532C18.9962 3.1532 18.7394 3.12057 18.5468 3.02271C18.3542 2.92485 18.1937 2.79437 18.0652 2.56603C17.9368 2.33769 17.8726 2.04411 17.8726 1.71791C17.8726 1.26122 18.0011 0.902404 18.2257 0.641442C18.4826 0.380481 18.8036 0.25 19.253 0.25C19.6061 0.25 19.8629 0.31524 20.0876 0.478341C20.3123 0.641442 20.4407 0.837163 20.5371 1.13074L19.7987 1.29385C19.7666 1.19598 19.7345 1.13074 19.7024 1.09813C19.6703 1.03289 19.6061 0.967644 19.5419 0.935024C19.4777 0.902403 19.3814 0.902404 19.2851 0.902404C19.0925 0.902404 18.932 0.967644 18.8357 1.13074C18.7715 1.26122 18.7072 1.42433 18.7072 1.68529C18.7072 2.01149 18.7394 2.20721 18.8357 2.33769C18.932 2.46817 19.0604 2.50079 19.2209 2.50079C19.3814 2.50079 19.5098 2.46817 19.6061 2.37031C19.7024 2.27245 19.7666 2.14197 19.7987 1.94625Z" fill="white"/>
<path d="M20.8262 0.282715H23.3943V0.967738H22.5275V3.08805H21.6608V1.00036H20.8262V0.282715Z" fill="white"/>
<path d="M23.8433 0.282715H26.1224V0.902498H24.6779V1.35918H25.9941V1.94634H24.6779V2.50089H26.1546V3.12067H23.8433V0.282715Z" fill="white"/>
<path d="M26.701 0.282715H27.9529C28.2097 0.282715 28.4023 0.315335 28.5628 0.380575C28.7233 0.445815 28.8517 0.576296 28.948 0.706777C29.0443 0.837258 29.1085 1.00036 29.1728 1.16346C29.237 1.32656 29.237 1.52228 29.237 1.718C29.237 2.01158 29.2048 2.23993 29.1407 2.40302C29.0765 2.56613 28.9802 2.69661 28.8517 2.79446C28.7233 2.89233 28.595 2.99019 28.4665 3.02281C28.2739 3.08805 28.1134 3.08805 27.9529 3.08805H26.701V0.282715ZM27.5356 0.935118V2.46826H27.7603C27.9529 2.46826 28.0492 2.43565 28.1455 2.40302C28.2418 2.37041 28.2739 2.30517 28.3381 2.2073C28.4023 2.10945 28.4023 1.94634 28.4023 1.718C28.4023 1.42442 28.3702 1.2287 28.2739 1.09822C28.1776 0.967738 28.0171 0.935118 27.7924 0.935118H27.5356Z" fill="white"/>
<path d="M33.2496 1.75053L33.8595 1.88101C33.8274 1.97887 33.7954 2.07673 33.7632 2.14197C33.7311 2.20721 33.6991 2.30507 33.6348 2.37031L33.9237 2.56603C33.9558 2.59865 33.988 2.63127 34.0521 2.66389L33.6348 3.1532C33.5706 3.12057 33.4743 3.05533 33.4101 3.02271C33.3459 2.99009 33.2496 2.92485 33.1854 2.89223C33.057 2.99009 32.9286 3.05533 32.8002 3.08795C32.6076 3.1532 32.415 3.18581 32.1582 3.18581C31.8051 3.18581 31.5162 3.12057 31.3236 2.95747C31.1309 2.79437 31.0668 2.59865 31.0668 2.40293C31.0668 2.23983 31.1309 2.07673 31.2273 1.94625C31.3236 1.81577 31.5162 1.68529 31.7409 1.58742C31.6446 1.45694 31.5803 1.35909 31.5483 1.26122C31.5162 1.16337 31.484 1.0655 31.484 0.967644C31.484 0.771923 31.5483 0.608821 31.7088 0.478341C31.8693 0.347861 32.0619 0.25 32.3829 0.25C32.7039 0.25 32.9286 0.31524 33.057 0.445721C33.1854 0.576201 33.2817 0.706682 33.2817 0.869783C33.2817 0.967644 33.2496 1.0655 33.2175 1.13074C33.1854 1.19598 33.1212 1.29385 33.057 1.35909C32.9928 1.42433 32.8965 1.48957 32.736 1.62005C32.8644 1.75053 33.0249 1.88101 33.1533 2.01149C33.1854 1.91363 33.2175 1.81577 33.2496 1.75053ZM32.094 1.91363C31.9977 1.97887 31.9335 2.04411 31.8693 2.10935C31.8051 2.17459 31.8051 2.20721 31.8051 2.27245C31.8051 2.37031 31.8372 2.43555 31.9335 2.53341C32.0298 2.63127 32.1261 2.63127 32.2545 2.63127C32.3829 2.63127 32.5434 2.56603 32.7039 2.46817C32.5434 2.37031 32.3508 2.17459 32.094 1.91363ZM32.3508 1.26122C32.4471 1.19598 32.5113 1.13074 32.5755 1.09813C32.6397 1.0655 32.6718 0.967644 32.6718 0.902404C32.6718 0.837163 32.6397 0.804543 32.6076 0.739302C32.5755 0.674062 32.5113 0.674062 32.415 0.674062C32.3508 0.674062 32.2866 0.706682 32.2224 0.739302C32.1582 0.771923 32.1582 0.837163 32.1582 0.902404C32.1582 0.967644 32.2224 1.09813 32.3508 1.26122Z" fill="white"/>
<path d="M35.8492 0.282715H36.9728L37.3901 1.97896L37.8074 0.282715H38.9309V3.08805H38.2247V0.967738L37.679 3.12067H37.037L36.5555 0.967738V3.12067H35.8492V0.282715Z" fill="white"/>
<path d="M39.4448 1.68529C39.4448 1.22861 39.5732 0.869783 39.83 0.608822C40.0868 0.347861 40.4078 0.25 40.8572 0.25C41.3067 0.25 41.6598 0.380481 41.9166 0.641442C42.1734 0.902404 42.3018 1.22861 42.3018 1.68529C42.3018 2.01149 42.2376 2.27245 42.1413 2.50079C42.045 2.72913 41.8845 2.85961 41.6598 2.99009C41.4351 3.12057 41.2103 3.1532 40.8894 3.1532C40.5683 3.1532 40.3115 3.08795 40.1189 2.99009C39.9263 2.89223 39.7658 2.72913 39.6374 2.53341C39.509 2.33769 39.4448 2.04411 39.4448 1.68529ZM40.3115 1.71791C40.3115 2.01149 40.3757 2.20721 40.472 2.33769C40.5683 2.46817 40.7289 2.53341 40.8894 2.53341C41.082 2.53341 41.2104 2.46817 41.3067 2.33769C41.4029 2.20721 41.4672 2.01149 41.4672 1.68529C41.4672 1.42433 41.4029 1.22861 41.3067 1.09813C41.2104 0.967644 41.0499 0.902404 40.8572 0.902404C40.6968 0.902404 40.5363 0.967644 40.44 1.09813C40.3437 1.22861 40.3115 1.42433 40.3115 1.71791Z" fill="white"/>
<path d="M42.8152 0.282715H43.6178L44.645 1.84848V0.282715H45.4475V3.08805H44.645L43.6178 1.5549V3.08805H42.8152V0.282715Z" fill="white"/>
<path d="M46.1221 0.282715H46.9888V3.08805H46.1221V0.282715Z" fill="white"/>
<path d="M47.4384 0.282715H50.0386V0.967738H49.1719V3.08805H48.3052V1.00036H47.4384V0.282715Z" fill="white"/>
<path d="M50.2303 1.68529C50.2303 1.22861 50.3587 0.869783 50.6155 0.608822C50.8724 0.347861 51.1933 0.25 51.6428 0.25C52.0922 0.25 52.4453 0.380481 52.7021 0.641442C52.9589 0.902404 53.0873 1.22861 53.0873 1.68529C53.0873 2.01149 53.0231 2.27245 52.9268 2.50079C52.8305 2.72913 52.67 2.85961 52.4453 2.99009C52.2206 3.12057 51.9959 3.1532 51.6749 3.1532C51.3539 3.1532 51.097 3.08795 50.9044 2.99009C50.7118 2.89223 50.5513 2.72913 50.4229 2.50079C50.2945 2.27245 50.2303 2.04411 50.2303 1.68529ZM51.065 1.71791C51.065 2.01149 51.1292 2.20721 51.2255 2.33769C51.3218 2.46817 51.4822 2.53341 51.6428 2.53341C51.8354 2.53341 51.9638 2.46817 52.0601 2.33769C52.1564 2.20721 52.2206 2.01149 52.2206 1.68529C52.2206 1.42433 52.1564 1.22861 52.0601 1.09813C51.9638 0.967644 51.8033 0.902404 51.6428 0.902404C51.4822 0.902404 51.3218 0.967644 51.2255 1.09813C51.1292 1.22861 51.065 1.42433 51.065 1.71791Z" fill="white"/>
<path d="M53.6008 3.08805V0.282715H55.0132C55.2701 0.282715 55.4627 0.315335 55.6231 0.347955C55.7836 0.380575 55.8799 0.478436 55.9442 0.608916C56.0084 0.739397 56.0725 0.869878 56.0725 1.0656C56.0725 1.2287 56.0405 1.35918 55.9762 1.45704C55.9121 1.5549 55.8157 1.65276 55.7194 1.718C55.6553 1.75062 55.559 1.78324 55.4305 1.81586C55.5268 1.84848 55.591 1.8811 55.6553 1.91372C55.6873 1.94634 55.7194 1.97896 55.7836 2.07682C55.8479 2.14206 55.8799 2.2073 55.9121 2.23993L56.3294 3.05543H55.3664L54.9169 2.2073C54.8527 2.10945 54.8207 2.01158 54.7564 1.97896C54.6922 1.94634 54.628 1.91372 54.5317 1.91372H54.4675V3.05543H53.6008V3.08805ZM54.4354 1.42442H54.7885C54.8206 1.42442 54.9169 1.42442 55.0132 1.3918C55.0774 1.3918 55.1095 1.35918 55.1416 1.29394C55.1737 1.2287 55.2058 1.19608 55.2058 1.13084C55.2058 1.03298 55.1737 0.967738 55.1095 0.935118C55.0453 0.902498 54.949 0.869878 54.7885 0.869878H54.4033V1.42442H54.4354Z" fill="white"/>
<path d="M56.619 0.282715H58.8982V0.902498H57.4536V1.35918H58.7698V1.94634H57.4536V2.50089H58.9303V3.12067H56.619V0.282715Z" fill="white"/>
<path d="M59.4756 0.282715H60.7275C60.9844 0.282715 61.177 0.315335 61.3375 0.380575C61.498 0.445815 61.6264 0.543676 61.7227 0.674157C61.819 0.804637 61.8832 0.967738 61.9474 1.13084C62.0116 1.29394 62.0116 1.48966 62.0116 1.68538C62.0116 1.97896 61.9795 2.2073 61.9153 2.37041C61.8511 2.5335 61.7548 2.66398 61.6264 2.79446C61.498 2.92495 61.3696 2.99019 61.2412 3.02281C61.0486 3.08805 60.8881 3.08805 60.7275 3.08805H59.4756V0.282715ZM60.3103 0.935118V2.46826H60.5349C60.7275 2.46826 60.8238 2.43565 60.9201 2.40302C61.0164 2.37041 61.0486 2.30517 61.1127 2.2073C61.177 2.10945 61.177 1.94634 61.177 1.718C61.177 1.42442 61.1449 1.2287 61.0486 1.09822C60.9523 0.967738 60.7918 0.935118 60.567 0.935118H60.3103Z" fill="white"/>
<path d="M5.64188 19.4307L4.19734 15.4836C4.77516 15.19 5.16037 14.5702 5.16037 13.8526C5.16037 12.8414 4.35784 12.0259 3.36272 12.0259C2.36758 12.0259 1.56506 12.8414 1.56506 13.8526C1.56506 14.6355 2.04657 15.2879 2.72069 15.5489L1.53296 19.4307H5.64188Z" fill="white"/>
</g>
<defs>
<clipPath id="clip0_3156_9159">
<rect width="65" height="28" fill="white" transform="translate(0 0.25)"/>
</clipPath>
</defs>
</svg>
