<svg width="121" height="17" viewBox="0 0 121 17" fill="none" xmlns="http://www.w3.org/2000/svg">
<path d="M22.4425 4.37012V11.8309H26.6156V12.6309H21.5598V4.37012H22.4425Z" fill="white"/>
<path d="M35.4323 8.49203C35.4383 9.08528 35.3551 9.67609 35.1853 10.2448C35.037 10.7465 34.791 11.2142 34.4615 11.6216C34.1454 12.0054 33.7452 12.3123 33.2916 12.5188C32.7896 12.7299 32.2502 12.8387 31.7052 12.8387C31.1602 12.8387 30.6207 12.7299 30.1187 12.5188C29.6659 12.3127 29.2669 12.0057 28.9525 11.6216C28.6248 11.2136 28.3802 10.7459 28.2322 10.2448C27.9026 9.10228 27.9026 7.89058 28.2322 6.74803C28.3802 6.24878 28.6249 5.78311 28.9525 5.37723C29.2676 4.99467 29.6665 4.68887 30.1187 4.48323C30.6207 4.27227 31.1602 4.16357 31.7052 4.16357C32.2502 4.16357 32.7896 4.27227 33.2916 4.48323C33.7446 4.68929 34.1446 4.99498 34.4615 5.37723C34.7909 5.78244 35.0369 6.24824 35.1853 6.74803C35.355 7.31379 35.4382 7.90168 35.4323 8.49203ZM34.5451 8.49203C34.5526 7.98511 34.4782 7.48028 34.3247 6.99683C34.1961 6.58917 33.9914 6.20923 33.7215 5.87683C33.4779 5.58005 33.1703 5.3416 32.8215 5.17916C32.4727 5.01671 32.0915 4.93444 31.7064 4.93843C31.3201 4.93528 30.9379 5.01724 30.5872 5.17843C30.2386 5.34095 29.9313 5.57968 29.6884 5.87683C29.4201 6.20948 29.2172 6.58944 29.0904 6.99683C28.8006 7.97374 28.8006 9.01312 29.0904 9.99003C29.2168 10.3982 29.4197 10.7789 29.6884 11.112C30.0596 11.556 30.5679 11.8655 31.1342 11.9924C31.7006 12.1193 32.2932 12.0564 32.8199 11.8136C33.169 11.6489 33.4771 11.4093 33.7219 11.112C33.9922 10.7791 34.1969 10.3985 34.3252 9.99003C34.4784 9.50556 34.5526 8.99984 34.5451 8.49203Z" fill="white"/>
<path d="M38.2183 4.37012V8.59812L42.4529 4.37012H43.6135L40.3332 7.62092L43.8158 12.6305H42.6942L39.7183 8.25012L38.2179 9.71852V12.6321H37.3368V4.37012H38.2183Z" fill="white"/>
<path d="M51.1545 4.37012V5.17012H46.4993V7.96492H50.8827V8.76492H46.4993V11.8321H51.3628V12.6321H45.6182V4.37012H51.1545Z" fill="white"/>
<path d="M59.2626 4.37012V5.17012H56.5123V12.6313H55.6312V5.17012H52.887V4.37012H59.2626Z" fill="white"/>
<path d="M60.8334 4.42725H62.181V8.65765H62.2079L65.8727 4.42725H67.4732L64.6208 7.66725L67.7724 12.6408H66.1715L63.7457 8.62485L62.1814 10.14V12.6408H60.8338L60.8334 4.42725Z" fill="white"/>
<path d="M73.5267 10.8028H70.1507L69.467 12.6396H68.0382L71.2739 4.42725H72.4035L75.6392 12.6396H74.2184L73.5267 10.8028ZM73.1422 9.70005L71.8554 6.10725H71.8308L70.544 9.70005H73.1422Z" fill="white"/>
<path d="M76.838 4.42725H78.1084L82.1399 10.2672H82.1644V4.42725H83.512V12.6396H82.2356L78.2101 6.80165H78.1856V12.6396H76.838V4.42725Z" fill="white"/>
<path d="M85.7789 10.6499C86.5072 11.1948 87.3972 11.4829 88.3084 11.4687C89.4655 11.4535 90.0521 11.0721 90.0682 10.3243C90.0765 9.71102 89.6896 9.34275 88.9076 9.21955C88.5494 9.17448 88.1565 9.12368 87.7289 9.06715C87.0763 9.00285 86.4628 8.72761 85.9824 8.28355C85.7817 8.0843 85.6237 7.84676 85.5177 7.58521C85.4116 7.32366 85.3599 7.0435 85.3655 6.76155C85.3543 6.43276 85.4183 6.10573 85.5526 5.8051C85.6869 5.50446 85.888 5.23806 86.1408 5.02595C86.746 4.55502 87.5025 4.31865 88.2698 4.36075C89.294 4.35897 90.2966 4.65376 91.1552 5.20915L90.404 6.23155C89.7399 5.82634 88.9777 5.60791 88.1986 5.59955C87.8309 5.58597 87.468 5.68648 87.1603 5.88715C87.017 5.98672 86.9011 6.12043 86.8232 6.27605C86.7453 6.43166 86.7078 6.60422 86.7143 6.77795C86.7165 6.89984 86.7442 7.01994 86.7957 7.13055C86.8472 7.24117 86.9214 7.33987 87.0135 7.42035C87.285 7.64777 87.6188 7.78905 87.9718 7.82595C88.216 7.86355 88.5499 7.90675 88.9735 7.95555C89.6713 7.99746 90.3295 8.29233 90.8234 8.78435C91.2097 9.20188 91.4215 9.75015 91.4158 10.3175C91.371 11.8887 90.3297 12.6855 88.2919 12.7079C87.0629 12.7377 85.8617 12.3418 84.8938 11.5879L85.7789 10.6499Z" fill="white"/>
<path d="M93.1852 10.65C93.9136 11.1949 94.8038 11.483 95.7151 11.4688C96.8719 11.4536 97.4585 11.0721 97.4749 10.3244C97.4832 9.71102 97.0963 9.34276 96.3143 9.21956C95.9561 9.17449 95.5632 9.12369 95.1356 9.06716C94.483 9.00286 93.8695 8.72762 93.3891 8.28356C93.1885 8.08431 93.0304 7.84677 92.9244 7.58522C92.8184 7.32367 92.7666 7.04351 92.7722 6.76156C92.761 6.4328 92.8249 6.10579 92.9591 5.80516C93.0933 5.50453 93.2944 5.23811 93.5471 5.02596C94.1523 4.555 94.9089 4.31862 95.6761 4.36076C96.7003 4.359 97.7029 4.65379 98.5615 5.20916L97.8103 6.23156C97.1462 5.82633 96.384 5.6079 95.6049 5.59956C95.2371 5.58592 94.874 5.68643 94.5662 5.88716C94.4229 5.98673 94.307 6.12044 94.2291 6.27606C94.1512 6.43167 94.1138 6.60423 94.1202 6.77796C94.1224 6.89985 94.1501 7.01994 94.2016 7.13056C94.2532 7.24118 94.3273 7.33988 94.4194 7.42036C94.6911 7.64793 95.0252 7.78921 95.3785 7.82596C95.6227 7.86356 95.9565 7.90676 96.3798 7.95556C97.0776 7.99747 97.7358 8.29233 98.2297 8.78436C98.616 9.20189 98.8279 9.75015 98.8221 10.3176C98.7773 11.8888 97.736 12.6856 95.6982 12.708C94.4692 12.7377 93.268 12.3418 92.3001 11.588L93.1852 10.65Z" fill="white"/>
<path d="M100.482 4.42726H103.709C104.049 4.42638 104.388 4.45651 104.723 4.51726C105.082 4.61212 105.419 4.77675 105.713 5.00166C106.007 5.20018 106.243 5.4721 106.397 5.79007C106.634 6.24665 106.721 6.76584 106.645 7.27421C106.569 7.78257 106.335 8.25437 105.975 8.62286C105.704 8.89753 105.377 9.11187 105.017 9.25171C104.656 9.39154 104.27 9.4537 103.883 9.43406H101.83V12.6393H100.482L100.482 4.42726ZM101.829 8.26366H103.83C104.038 8.27552 104.247 8.24334 104.442 8.16922C104.637 8.09511 104.814 7.98075 104.962 7.83366C105.192 7.58783 105.322 7.26447 105.324 6.92806C105.331 6.68773 105.281 6.44908 105.177 6.23206C105.074 6.06212 104.925 5.92372 104.748 5.83206C104.455 5.66605 104.121 5.58565 103.783 5.60006H101.832L101.829 8.26366Z" fill="white"/>
<path d="M108.134 4.42725H113.821V5.59845H109.482V7.94845H113.186V9.05125H109.482V11.4684H113.82V12.6396H108.134V4.42725Z" fill="white"/>
<path d="M115.314 4.42725H116.661V11.4672H121V12.6384H115.314V4.42725Z" fill="white"/>
<path d="M18.3265 14.028H1.35032C0.992193 14.0276 0.648857 13.8859 0.395624 13.634C0.142391 13.3821 -6.25742e-05 13.0406 -0.000488281 12.6844V1.5936C-6.25742e-05 1.23739 0.142391 0.895881 0.395624 0.643999C0.648857 0.392117 0.992193 0.250423 1.35032 0.25H18.3261C18.6842 0.250423 19.0276 0.392117 19.2808 0.643999C19.534 0.895881 19.6765 1.23739 19.6769 1.5936V12.6844C19.6765 13.0405 19.5341 13.382 19.2809 13.6339C19.0278 13.8857 18.6846 14.0275 18.3265 14.028ZM1.35032 1.2648C1.26293 1.2648 1.17912 1.2993 1.11729 1.36073C1.05546 1.42215 1.02067 1.50548 1.02056 1.5924V12.6832C1.02067 12.7702 1.05544 12.8535 1.11726 12.915C1.17908 12.9765 1.26289 13.0111 1.35032 13.0112H18.3261C18.4136 13.0112 18.4974 12.9766 18.5593 12.9151C18.6211 12.8536 18.6559 12.7702 18.6559 12.6832V1.5936C18.6557 1.50668 18.621 1.42335 18.5591 1.36193C18.4973 1.3005 18.4135 1.266 18.3261 1.266L1.35032 1.2648Z" fill="white"/>
<path d="M18.2417 16.2499H1.43201C1.22638 16.2499 1.02917 16.1686 0.883768 16.024C0.738364 15.8794 0.656677 15.6832 0.656677 15.4787V14.9351H19.017V15.4767C19.0173 15.5781 18.9974 15.6786 18.9586 15.7724C18.9198 15.8662 18.8627 15.9514 18.7907 16.0233C18.7186 16.0951 18.6331 16.1521 18.5389 16.191C18.4447 16.2298 18.3437 16.2499 18.2417 16.2499Z" fill="white"/>
<path d="M1.30979 0.757813H18.3664C18.5786 0.757813 18.7822 0.841677 18.9323 0.990955C19.0824 1.14023 19.1667 1.3427 19.1667 1.55381V2.13301H0.509521V1.55261C0.509841 1.34171 0.594296 1.13955 0.744341 0.990531C0.894386 0.841512 1.09776 0.757812 1.30979 0.757813Z" fill="white"/>
<path d="M13.6468 12.2528H6.02698L6.82765 9.276C6.86601 9.03726 6.9822 8.81769 7.15834 8.65109C7.33449 8.48449 7.56081 8.3801 7.80245 8.354H11.871C12.1127 8.38002 12.3391 8.48437 12.5153 8.65097C12.6915 8.81758 12.8078 9.0372 12.8462 9.276L13.6468 12.2528Z" fill="white"/>
<path d="M9.83686 7.77497C11.0222 7.77497 11.9831 6.81919 11.9831 5.64017C11.9831 4.46115 11.0222 3.50537 9.83686 3.50537C8.65152 3.50537 7.69061 4.46115 7.69061 5.64017C7.69061 6.81919 8.65152 7.77497 9.83686 7.77497Z" fill="white"/>
</svg>
