<svg width="88" height="81" viewBox="0 0 88 81" fill="none" xmlns="http://www.w3.org/2000/svg">
<rect x="0.5" y="0.347656" width="80" height="80" rx="40" fill="#4B50C8"/>
<g clip-path="url(#clip0_1153_6724)">
<path d="M-33.9184 76.6753C-33.9448 78.3329 -32.6218 79.6969 -30.9641 79.7209L49.8151 80.8933C50.5058 80.9033 51.1727 80.6397 51.67 80.1599C52.1901 79.6581 52.4796 78.9637 52.4698 78.2413L51.7848 27.5324C51.7628 25.9096 50.4543 24.5993 48.8315 24.5752L-29.7432 23.406C-30.4664 23.3952 -31.1693 23.6461 -31.7225 24.1125L-32.0534 24.3914C-32.7173 24.9511 -33.1064 25.7707 -33.1202 26.6386L-33.9184 76.6753Z" fill="white"/>
<path d="M-32.4999 21.3477H52.5C53.6046 21.3477 54.5 22.2431 54.5 23.3477V78.9827C54.5 80.0872 53.6046 80.9827 52.5 80.9827H-32.4999C-33.6045 80.9827 -34.4999 80.0872 -34.4999 78.9827V23.3477C-34.4999 22.2431 -33.6045 21.3477 -32.4999 21.3477Z" fill="white"/>
<path d="M-34.42 28.3973H54.5V28.8526H-34.42V28.3973Z" fill="#E3E5E1"/>
<path d="M49.1581 25.2294C48.9116 24.1295 49.558 23.0272 50.6018 22.7675C51.6456 22.5078 52.6915 23.1889 52.938 24.2889C53.1845 25.3888 52.5381 26.4911 51.4943 26.7508C50.4505 27.0105 49.4045 26.3294 49.1581 25.2294Z" fill="#EA3790"/>
<path d="M45.3103 26.638C44.3262 26.1886 43.874 24.9836 44.3005 23.9465C44.7269 22.9094 45.8704 22.4329 46.8546 22.8823C47.8388 23.3317 48.2909 24.5367 47.8645 25.5739C47.438 26.611 46.2945 27.0874 45.3103 26.638Z" fill="#F4EA3D"/>
<path d="M39.6678 26.1155C38.9559 25.2701 39.0292 23.9767 39.8315 23.2265C40.6338 22.4764 41.8612 22.5536 42.573 23.399C43.2849 24.2445 43.2116 25.5379 42.4093 26.2881C41.6071 27.0382 40.3796 26.961 39.6678 26.1155Z" fill="#8DEF1B"/>
<path d="M26.1123 68.2949C26.017 68.2828 25.9086 68.2707 25.7837 68.2603C25.6605 68.2499 25.5307 68.2412 25.3976 68.2326C25.2645 68.2257 25.1282 68.2187 24.9901 68.2135C24.8521 68.2083 24.7174 68.2066 24.5893 68.2066C24.2524 68.2066 23.9469 68.2516 23.6708 68.3417C23.3965 68.4317 23.1599 68.5667 22.9643 68.7485C22.7688 68.9303 22.6177 69.1606 22.5109 69.4359C22.4041 69.7112 22.3515 70.0349 22.3515 70.4055C22.3515 70.7794 22.4008 71.1223 22.4977 71.4356C22.5963 71.749 22.7425 72.0191 22.9381 72.2442C23.1336 72.4693 23.3767 72.6441 23.6675 72.7705C23.9584 72.8969 24.2968 72.9593 24.6829 72.9593C24.9392 72.9593 25.1939 72.9523 25.4469 72.9368C25.6999 72.9212 25.9217 72.9039 26.1123 72.8813V68.2949ZM25.511 72.5784C25.4223 72.5939 25.322 72.6061 25.2103 72.6164C25.1002 72.6268 24.9737 72.632 24.8324 72.632C24.5531 72.6355 24.3034 72.6113 24.0816 72.561C23.8598 72.5108 23.679 72.4329 23.5377 72.3273C23.4687 72.2754 23.3997 72.2044 23.3324 72.1161C23.265 72.026 23.2042 71.9083 23.1533 71.7629C23.1007 71.6174 23.0596 71.4391 23.0251 71.2296C22.9923 71.0201 22.9758 70.7691 22.9758 70.4782C22.9758 70.1163 23.0268 69.8133 23.127 69.5657C23.2272 69.3182 23.3619 69.119 23.5295 68.9667C23.6971 68.8143 23.8893 68.707 24.1079 68.6412C24.3264 68.5754 24.5531 68.5425 24.7864 68.5425C24.8866 68.5425 24.9721 68.5442 25.0394 68.5477C25.1068 68.5511 25.1676 68.5546 25.2185 68.5598C25.2711 68.565 25.3187 68.5702 25.3631 68.5754C25.4075 68.5823 25.4568 68.5875 25.5126 68.5944V72.5784H25.511Z" fill="white"/>
<path d="M17.308 70.5717C17.308 70.9422 17.354 71.2764 17.4444 71.5724C17.5348 71.8702 17.6695 72.123 17.8486 72.3325C18.0277 72.542 18.2511 72.703 18.5206 72.8156C18.79 72.9281 19.1022 72.9835 19.4604 72.9835C19.8235 72.9835 20.1356 72.9264 20.3985 72.8104C20.6597 72.6944 20.875 72.5316 21.0426 72.3204C21.2101 72.1091 21.3334 71.8564 21.4122 71.5603C21.4911 71.2642 21.5305 70.9335 21.5305 70.5699C21.5305 70.2064 21.4894 69.8774 21.4089 69.5865C21.3284 69.2956 21.2036 69.0463 21.0327 68.842C20.8635 68.6377 20.6466 68.4802 20.3854 68.3711C20.1241 68.262 19.812 68.2066 19.4521 68.2066C19.0956 68.2066 18.7818 68.262 18.5156 68.3711C18.2478 68.4802 18.0244 68.6377 17.8469 68.842C17.6679 69.0463 17.5348 69.2956 17.4461 69.5865C17.3524 69.8791 17.308 70.2064 17.308 70.5717ZM17.9505 70.5717C17.9505 70.2739 17.98 70.0021 18.0375 69.7562C18.095 69.5103 18.1854 69.2991 18.307 69.1242C18.4302 68.9476 18.5846 68.8109 18.7736 68.7139C18.9625 68.6169 19.1876 68.5685 19.4489 68.5685C19.6756 68.5685 19.8875 68.5944 20.083 68.6464C20.2786 68.6983 20.4346 68.7762 20.5497 68.8784C20.6137 68.9355 20.6663 69.0204 20.709 69.1329C20.7517 69.2454 20.7862 69.377 20.8125 69.5259C20.8388 69.6766 20.8569 69.8393 20.8684 70.0176C20.8799 70.1942 20.8865 70.3795 20.8865 70.5699C20.8865 70.8643 20.8635 71.1361 20.8158 71.3872C20.7682 71.6382 20.6893 71.8529 20.5809 72.0364C20.4708 72.2182 20.3246 72.3619 20.1422 72.4641C19.9598 72.568 19.7314 72.6182 19.4571 72.6182C19.1958 72.6182 18.9724 72.5939 18.79 72.5437C18.6076 72.4935 18.4433 72.4035 18.3004 72.2736C18.2363 72.2182 18.1838 72.1334 18.141 72.0157C18.0983 71.8996 18.0622 71.7646 18.0326 71.6105C18.0047 71.4581 17.9833 71.2919 17.9702 71.1119C17.957 70.9335 17.9505 70.7535 17.9505 70.5717Z" fill="white"/>
<path d="M12.8444 72.9378L15.9677 69.3054H15.9808C15.9743 69.6482 15.9693 69.9616 15.9628 70.2438C15.9595 70.365 15.9578 70.4862 15.9562 70.6056C15.9545 70.7251 15.9529 70.8359 15.9513 70.9363C15.9496 71.0367 15.948 71.1233 15.9463 71.196C15.9447 71.2688 15.9447 71.319 15.9447 71.3467V72.917H16.3423V68.225H16.0794L12.9528 71.8488H12.9479C12.9544 71.5302 12.9577 71.2341 12.961 70.9606C12.961 70.8446 12.961 70.7286 12.9627 70.6108C12.9643 70.4931 12.9659 70.3806 12.9676 70.2767C12.9692 70.1728 12.9692 70.0793 12.9692 69.9962C12.9692 69.9148 12.9692 69.8507 12.9692 69.8057V68.2631H12.5716V72.943H12.8444V72.9378Z" fill="white"/>
<path d="M8.70868 72.921L9.26236 71.2139L10.9645 71.2364L11.5609 72.921H12.0012L10.2482 68.3017L9.73061 68.1424L8.08927 72.921H8.70868ZM9.35108 70.9091L10.0855 68.7328L10.8544 70.9091H9.35108Z" fill="white"/>
<path d="M6.63888 72.9202V68.6195L7.99927 68.597L7.95655 68.2593H4.6788L4.72151 68.5831L6.03919 68.6195V72.9202H6.63888Z" fill="white"/>
<path d="M1.69793 72.9202H4.06055V68.2593H1.79323L1.83594 68.597L3.46086 68.6195V70.2712L1.93124 70.2903L1.97396 70.5863L3.45921 70.6227V72.5618L1.65357 72.5982L1.69793 72.9202Z" fill="white"/>
<path opacity="0.52" d="M51.3754 59.2485V61.3677C51.3754 61.553 51.1831 61.6655 51.0336 61.5703L49.5204 60.6077C49.3824 60.5194 49.3742 60.3116 49.504 60.2129L51.0172 59.0563C51.1667 58.9421 51.3754 59.0546 51.3754 59.2485Z" fill="white"/>
<path d="M17.9631 35.955H49.9618C51.1021 35.955 52.0353 34.9716 52.0353 33.77C52.0353 32.5684 51.1021 31.585 49.9618 31.585H17.9631C16.8228 31.585 15.8896 32.5684 15.8896 33.77C15.8896 34.9716 16.8228 35.955 17.9631 35.955Z" fill="#F5F5F5"/>
<path d="M17.9639 42.7798H32.6554C33.7957 42.7798 34.7289 41.7964 34.7289 40.5948C34.7289 39.3932 33.7957 38.4098 32.6554 38.4098H17.9639C16.8236 38.4098 15.8904 39.3932 15.8904 40.5948C15.8904 41.7981 16.8236 42.7798 17.9639 42.7798Z" fill="#F5F5F5"/>
<path d="M-26.7811 35.955H10.2041C11.3444 35.955 12.2776 34.9716 12.2776 33.77C12.2776 32.5684 11.3444 31.585 10.2041 31.585H-26.7811C-27.9213 31.585 -28.8545 32.5684 -28.8545 33.77C-28.8545 34.9716 -27.9213 35.955 -26.7811 35.955Z" fill="#F5F5F5"/>
<path d="M-6.21471 42.7798H10.501C11.6412 42.7798 12.5745 41.7964 12.5745 40.5948C12.5745 39.3932 11.6412 38.4098 10.501 38.4098H-6.21471C-7.35494 38.4098 -8.28816 39.3932 -8.28816 40.5948C-8.28816 41.7981 -7.35494 42.7798 -6.21471 42.7798Z" fill="#F5F5F5"/>
<path d="M-29.903 49.0084H10.618C11.7582 49.0084 12.6914 48.025 12.6914 46.8234C12.6914 45.6218 11.7582 44.6384 10.618 44.6384H-29.903C-31.0432 44.6384 -31.9764 45.6218 -31.9764 46.8234C-31.9764 48.025 -31.0432 49.0084 -29.903 49.0084Z" fill="#F5F5F5"/>
<path d="M-30.1657 54.8022H32.9183C33.914 54.8022 34.7289 53.9434 34.7289 52.8942C34.7289 51.845 33.914 50.9862 32.9183 50.9862H-30.1674C-31.163 50.9862 -31.978 51.845 -31.978 52.8942C-31.9763 53.9434 -31.1614 54.8022 -30.1657 54.8022Z" fill="#F5F5F5"/>
<path d="M17.9639 49.0084H32.6554C33.7957 49.0084 34.7289 48.025 34.7289 46.8234C34.7289 45.6218 33.7957 44.6384 32.6554 44.6384H17.9639C16.8236 44.6384 15.8904 45.6218 15.8904 46.8234C15.8904 48.025 16.8236 49.0084 17.9639 49.0084Z" fill="#F5F5F5"/>
<path d="M-29.9031 61.6032H49.3019C50.4422 61.6032 51.3754 60.6197 51.3754 59.4182C51.3754 58.2166 50.4422 57.2332 49.3019 57.2332H-29.9031C-31.0433 57.2332 -31.9766 58.2166 -31.9766 59.4182C-31.9766 60.6197 -31.0433 61.6032 -29.9031 61.6032Z" fill="#F5F5F5"/>
<path d="M38.3391 54.8033H48.7802C50.0273 54.8033 51.0492 53.7281 51.0492 52.4123V40.6839C51.0492 39.3698 50.0289 38.2928 48.7802 38.2928H38.3391C37.092 38.2928 36.0701 39.368 36.0701 40.6839V52.4123C36.0701 53.7264 37.0904 54.8033 38.3391 54.8033Z" fill="#F5F5F5"/>
<path d="M10.3891 32.4572C3.45629 33.3579 -2.39977 37.3239 -5.85652 43.4543C-8.48101 48.1247 -9.20573 54.1375 -7.78571 59.4839C-5.86618 66.7012 -0.167257 72.4883 7.05965 74.5742C9.19428 75.1909 10.4479 75.3477 13.0329 75.3477C15.6179 75.3477 16.8716 75.191 19.0062 74.5738C26.1251 72.5269 31.6972 66.9553 33.7436 59.8364C34.3607 57.7018 34.5174 56.4486 34.5174 53.8631C34.5174 51.3857 34.3805 50.2203 33.8419 48.2033C32.7353 44.071 30.2385 40.1538 26.938 37.3923C23.9418 34.8758 20.5438 33.2991 16.6073 32.6038C15.0991 32.3396 11.907 32.261 10.3891 32.4572ZM15.2264 37.0205C16.0586 38.4111 16.7342 39.7723 17.3417 41.2507C17.8311 42.4451 18.7419 45.1482 18.6831 45.2167C18.6634 45.236 16.1078 45.236 13.0035 45.2263L7.35331 45.1969L7.83309 43.7769C8.65569 41.3091 9.86017 38.7728 11.1823 36.7163L11.6818 35.9429H13.1409H14.5903L15.2264 37.0205ZM6.4719 37.6276C5.6493 39.1455 4.28811 42.6707 3.77892 44.5802L3.60247 45.2461H0.488538C-1.23479 45.2461 -2.63505 45.207 -2.63505 45.1679C-2.63505 45.1289 -2.3607 44.6785 -2.03763 44.1693C-0.471012 41.7507 1.76194 39.645 4.34693 38.1565C4.91493 37.8335 6.4719 37.1285 6.63826 37.1184C6.69708 37.1184 6.6286 37.3436 6.4719 37.6276ZM20.9551 37.7742C23.1683 38.8611 25.4496 40.702 27.1049 42.7489C27.5355 43.2875 28.7009 45.0503 28.7009 45.1675C28.7009 45.2066 27.3006 45.2456 25.5769 45.2456H22.4629L22.1987 44.2567C21.6697 42.2787 20.8471 40.0559 19.9758 38.2149C19.7116 37.6469 19.4961 37.1768 19.4961 37.1571C19.4961 37.0987 20.0245 37.3239 20.9551 37.7742ZM2.80972 49.5254C2.56478 52.081 2.53537 52.8255 2.59419 54.9408C2.6236 56.2041 2.69208 57.5749 2.74124 57.9766C2.7904 58.3782 2.80972 58.7403 2.7904 58.7794C2.76099 58.8286 1.18428 58.8575 -0.725166 58.8575H-4.19157L-4.29912 58.466C-4.34828 58.2505 -4.44616 57.898 -4.49489 57.6926C-4.87722 56.2133 -4.99486 53.2464 -4.74026 51.4643C-4.61297 50.5341 -4.36803 49.359 -4.24074 49.0259C-4.19157 48.8889 -3.76096 48.8692 -0.647032 48.8692H2.87819L2.80972 49.5254ZM19.6036 50.0148C19.8678 52.2768 19.7309 57.7018 19.3881 58.6319L19.2998 58.8571H12.9447C9.02792 58.8571 6.56013 58.818 6.52106 58.7592C6.49165 58.71 6.39376 58.0147 6.31519 57.2216C6.08035 55.0869 6.18789 51.0622 6.52106 49.1822L6.57988 48.8687H13.0233H19.4763L19.6036 50.0148ZM30.375 49.2805C31.1485 52.1789 31.1485 55.5474 30.375 58.4462L30.2574 58.8575L26.6637 58.8378C23.1385 58.8084 23.07 58.8084 23.0893 58.6126C23.1091 58.5046 23.1674 58.0152 23.2166 57.5354C23.4712 55.4104 23.4321 51.053 23.1481 49.2313L23.0893 48.8692H26.6734H30.2574L30.375 49.2805ZM3.63231 62.9898C4.05327 64.7816 5.02291 67.4944 5.92365 69.3841C6.2173 70.0008 6.41308 70.5104 6.36435 70.5104C6.10976 70.5104 4.05327 69.4135 3.02524 68.7283C1.80101 67.9057 0.0873346 66.3487 -0.872215 65.1736C-1.45997 64.4586 -2.63505 62.7155 -2.63505 62.5689C-2.63505 62.5197 -1.29361 62.4806 0.439815 62.4806H3.51468L3.63231 62.9898ZM18.3504 63.2835C17.5669 65.8492 16.4019 68.3753 14.8348 70.9019L14.2962 71.7834H12.896C11.9263 71.7834 11.4566 71.7443 11.3487 71.6561C11.1331 71.4796 10.3105 70.0697 9.57617 68.601C8.64603 66.7402 7.94063 64.8993 7.29449 62.647C7.24533 62.4903 7.55874 62.4806 12.9249 62.4806H18.5949L18.3504 63.2835ZM28.7009 62.5588C28.7009 62.7058 27.5061 64.4779 26.938 65.1635C25.6063 66.7991 23.4716 68.5909 21.621 69.6193C20.9354 70.0012 19.2906 70.7259 19.2415 70.6768C19.2217 70.657 19.5255 69.9617 19.9271 69.1295C20.7888 67.3372 21.4055 65.7118 21.9441 63.8906C22.1596 63.1562 22.3356 62.5294 22.3356 62.5101C22.3356 62.5004 23.7653 62.4806 25.518 62.4806C27.2712 62.4806 28.7009 62.5197 28.7009 62.5588Z" fill="#EA3790"/>
<path d="M67.0551 41.3177L55.2788 36.4055C55.1009 36.3284 54.8991 36.3284 54.7212 36.4055L42.9449 41.3177C42.672 41.4304 42.5 41.6974 42.5 41.9881V52.8803C42.5 59.774 48.1063 65.3803 55 65.3803C61.8937 65.3803 67.5 59.7681 67.5 52.8803V41.9881C67.5 41.6915 67.322 41.4304 67.0551 41.3177ZM52.1776 47.6381C52.1776 53.7309 61.0928 63.9269 55 63.9269C48.9072 63.9269 60.0823 66.6284 60.0823 60.5416L43.9535 42.4746L55 63.9269L66.0465 42.4746L52.1776 47.6381Z" fill="#1F2272"/>
<path d="M51.1511 48.683V47.4014C51.1511 45.2804 51.8119 43.5566 55.1161 43.5566C58.4202 43.5566 59.081 45.2804 59.081 47.4014V48.683" fill="#1F2272"/>
<path d="M51.1511 48.683V47.4014C51.1511 45.2804 51.8119 43.5566 55.1161 43.5566C58.4202 43.5566 59.081 45.2804 59.081 47.4014V48.683" stroke="white" stroke-width="1.5" stroke-linecap="round" stroke-linejoin="round"/>
<path d="M58.4199 56.776H51.8117C49.1684 56.776 48.5076 56.1151 48.5076 53.4718V52.1502C48.5076 49.5069 49.1684 48.8461 51.8117 48.8461H58.4199C61.0632 48.8461 61.7241 49.5069 61.7241 52.1502V53.4718C61.7241 56.1151 61.0632 56.776 58.4199 56.776Z" fill="#1F2272" stroke="white" stroke-width="1.5" stroke-linecap="round" stroke-linejoin="round"/>
</g>
<g clip-path="url(#clip1_1153_6724)">
<rect x="63.5" y="0.347656" width="24" height="24" rx="12" fill="#58C27D"/>
<path d="M69.5 12.3477L73.5 16.3477L81.5 8.34766" stroke="#FCFCFD" stroke-width="2" stroke-miterlimit="10" stroke-linecap="round" stroke-linejoin="round"/>
</g>
<defs>
<clipPath id="clip0_1153_6724">
<rect x="0.5" y="0.347656" width="80" height="80" rx="40" fill="white"/>
</clipPath>
<clipPath id="clip1_1153_6724">
<rect x="63.5" y="0.347656" width="24" height="24" rx="12" fill="white"/>
</clipPath>
</defs>
</svg>
