<svg width="80" height="81" viewBox="0 0 80 81" fill="none" xmlns="http://www.w3.org/2000/svg">
<rect y="0.347656" width="80" height="80" rx="40" fill="#4B50C8"/>
<g clip-path="url(#clip0_1153_6767)">
<path d="M42.5739 19.9242C41.9653 18.6912 40.9048 17.7663 39.5988 17.3243C36.9053 16.4114 33.9743 17.87 33.0616 20.5637C32.4952 22.2265 33.0342 26.4488 33.4715 29.1909C31.0745 27.7729 27.3704 25.7564 25.6267 25.6726C22.7806 25.5358 20.358 27.7362 20.2212 30.5823C20.0848 33.4204 22.2853 35.8425 25.1314 35.9793C27.5579 36.0959 34.1115 32.8577 35.4039 32.2105C35.5733 32.1196 35.7112 31.9946 35.8089 31.8507C35.8175 31.8431 35.8179 31.8347 35.8265 31.827C37.309 30.488 42.1077 26.0193 42.8382 23.8612C43.2802 22.5552 43.1907 21.1575 42.5739 19.9242ZM25.2302 33.9229C23.5192 33.8406 22.1954 32.3922 22.2777 30.6811C22.3599 28.9701 23.8168 27.6468 25.5278 27.729C26.7288 27.7867 30.1453 29.6079 32.7985 31.1867C30.0061 32.5034 26.4311 33.9806 25.2302 33.9229ZM40.8907 23.2072C40.5065 24.343 37.8164 27.1324 35.5707 29.2588C35.074 26.2091 34.6242 22.3618 35.0085 21.2261C35.4607 19.879 36.7537 19.0507 38.1029 19.1155C38.3824 19.1289 38.6602 19.1838 38.9444 19.2715C40.567 19.8193 41.4387 21.5846 40.8907 23.2072Z" fill="white"/>
<path d="M51.6548 27.4925L24.5358 45.4967C23.9641 45.8763 23.193 45.7213 22.8123 45.1504L20.9412 42.3439C20.0073 40.9273 20.3851 39.018 21.8016 38.0738L45.8808 22.0939C47.2973 21.1605 49.2067 21.5488 50.1406 22.9546L52.004 25.7689C52.3831 26.3414 52.2268 27.1127 51.6548 27.4925Z" fill="#C175FF"/>
<path d="M51.6548 27.4925L24.5358 45.4967C23.9641 45.8763 23.193 45.7213 22.8123 45.1504L20.9412 42.3439C20.0073 40.9273 20.3851 39.018 21.8016 38.0738L45.8808 22.0939C47.2973 21.1605 49.2067 21.5488 50.1406 22.9546L52.004 25.7689C52.3831 26.3414 52.2268 27.1127 51.6548 27.4925Z" fill="#FF1A5E"/>
<path d="M51.6539 27.495L49.0516 29.216C49.6198 28.8372 49.7762 28.0716 49.3974 27.495L47.5362 24.6786C46.5975 23.2784 44.6951 22.8916 43.2784 23.8221L45.8809 22.0926C47.2974 21.1621 49.208 21.5493 50.1385 22.9575L52.0079 25.7655C52.3867 26.3421 52.2303 27.1162 51.6539 27.495Z" fill="url(#paint0_linear_1153_6767)"/>
<path d="M56.0727 43.1213C56.7599 43.1213 57.3169 43.6784 57.3169 44.3656V61.2812C57.3169 63.4811 55.5335 65.2645 53.3336 65.2645H30.0865C27.8865 65.2645 26.1031 63.4811 26.1031 61.2812V44.3656C26.1031 43.6784 26.6602 43.1213 27.3474 43.1213H56.0727Z" fill="#FF1A5E"/>
<path d="M57.3197 44.3693V61.2846C57.3197 63.4834 55.5327 65.2619 53.3339 65.2619H49.9739C52.1726 65.2619 53.9516 63.4834 53.9516 61.2846V44.3693C53.9516 43.6772 53.3997 43.1175 52.7081 43.1175H56.0762C56.7598 43.1175 57.3197 43.6772 57.3197 44.3693Z" fill="url(#paint1_linear_1153_6767)"/>
<path d="M37.3353 27.7628L30.6168 32.2255L34.8736 38.634L41.5921 34.1712L37.3353 27.7628Z" fill="white"/>
<path d="M57.2947 49.7463H26.0829V57.8169H57.2947V49.7463Z" fill="white"/>
<path d="M50.6507 38.4819C50.7991 38.6299 50.7167 38.8852 50.5108 38.9182L48.9707 39.1486C48.8885 39.1655 48.8225 39.2146 48.7813 39.289L48.1062 40.6887C48.0155 40.8781 47.7439 40.8781 47.6449 40.6887L46.9531 39.3055C46.9119 39.2311 46.8379 39.1736 46.7555 39.1655L45.2156 38.9512C45.0097 38.9182 44.9273 38.6629 45.0754 38.5149L46.179 37.4276C46.245 37.3701 46.2697 37.2796 46.2532 37.1972L45.9814 35.6736C45.9402 35.4596 46.1625 35.3028 46.3437 35.4017L47.7274 36.1183C47.8014 36.1513 47.892 36.1513 47.9662 36.1099L49.3332 35.3772C49.5226 35.2783 49.7367 35.4427 49.7038 35.6486L49.4567 37.1807C49.4402 37.2627 49.4649 37.3451 49.5309 37.403L50.6507 38.4819Z" fill="#FFD80C"/>
<path d="M67.6507 51.4819C67.7991 51.6299 67.7167 51.8852 67.5108 51.9182L65.9707 52.1486C65.8885 52.1655 65.8225 52.2146 65.7813 52.289L65.1062 53.6887C65.0155 53.8781 64.7439 53.8781 64.6449 53.6887L63.9531 52.3055C63.9119 52.2311 63.8379 52.1736 63.7555 52.1655L62.2156 51.9512C62.0097 51.9182 61.9273 51.6629 62.0754 51.5149L63.179 50.4276C63.245 50.3701 63.2697 50.2796 63.2532 50.1972L62.9814 48.6736C62.9402 48.4596 63.1625 48.3028 63.3437 48.4017L64.7274 49.1183C64.8014 49.1513 64.892 49.1513 64.9662 49.1099L66.3332 48.3772C66.5226 48.2783 66.7367 48.4427 66.7038 48.6486L66.4567 50.1807C66.4402 50.2627 66.4649 50.3451 66.5309 50.403L67.6507 51.4819Z" fill="#FFD80C"/>
<path d="M66.6256 18.9384L65.2834 18.1478C65.2092 18.1068 65.1269 18.0984 65.0445 18.1398L63.6363 18.7904C63.4469 18.8809 63.241 18.716 63.282 18.5101L63.6198 16.995C63.6363 16.9125 63.6116 16.822 63.5539 16.7645L62.4997 15.6278C62.3515 15.4713 62.4505 15.2244 62.6563 15.1999L64.2045 15.0515C64.2869 15.0431 64.3609 14.994 64.4021 14.9196L65.1597 13.5609C65.2586 13.3795 65.5302 13.388 65.6127 13.5854L66.2303 15.0101C66.2633 15.0845 66.3373 15.142 66.4197 15.1585L67.9433 15.4549C68.1492 15.4878 68.2232 15.7516 68.0585 15.8916L66.8974 16.921C66.8397 16.9785 66.8068 17.0609 66.815 17.1433L67.0044 18.683C67.0291 18.8974 66.8068 19.0457 66.6256 18.9384Z" fill="#FFD80C"/>
<path d="M30.582 16.0034L29.3467 16.9419C29.2808 16.9998 29.2478 17.0738 29.2478 17.1643L29.322 18.7124C29.3303 18.9267 29.0996 19.0502 28.9265 18.9348L27.642 18.0453C27.576 17.9962 27.4854 17.9878 27.4114 18.0208L25.962 18.5725C25.7643 18.6469 25.5667 18.4571 25.6244 18.2596L26.0691 16.769C26.0936 16.6866 26.0772 16.6041 26.0279 16.5386L25.0562 15.3278C24.9243 15.1629 25.0397 14.9161 25.2456 14.908L26.802 14.875C26.8842 14.875 26.9584 14.8336 27.0078 14.7596L27.8644 13.4668C27.9796 13.2855 28.2431 13.3185 28.3173 13.5159L28.8278 14.99C28.8525 15.0644 28.9185 15.1219 29.0007 15.1469L30.4996 15.5586C30.6972 15.6161 30.7549 15.8795 30.582 16.0034Z" fill="#FFD80C"/>
<path d="M47.3885 49.7463H36.032V57.8169H47.3885V49.7463Z" fill="white"/>
<path d="M45.743 43.1211H37.6774V65.2642H45.743V43.1211Z" fill="white"/>
<path d="M57.2956 49.7463H53.952V57.8169H57.2956V49.7463Z" fill="white"/>
<path d="M59.6831 39.1498C62.2292 39.9831 64.9688 38.5945 65.802 36.0484C66.6353 33.5023 65.2467 30.7628 62.7006 29.9295C60.1545 29.0962 57.415 30.4848 56.5817 33.0309C55.7484 35.577 57.137 38.3165 59.6831 39.1498Z" fill="#FF1A5E"/>
<path d="M60.1082 37.8518C61.9377 38.4505 63.9061 37.4528 64.5048 35.6233C65.1035 33.7939 64.1058 31.8254 62.2764 31.2267C60.4469 30.628 58.4785 31.6257 57.8798 33.4552C57.2811 35.2846 58.2788 37.253 60.1082 37.8518Z" fill="#E5E8EF"/>
<path d="M64.4798 33.3816C64.0613 32.7694 63.445 32.2838 62.6858 32.0354C60.8562 31.4366 58.8882 32.4353 58.2894 34.2649C58.041 35.0241 58.0668 35.8077 58.3132 36.5072C57.7251 35.6433 57.5292 34.5265 57.8795 33.4561C58.4783 31.6265 60.4463 30.6278 62.2759 31.2266C63.3463 31.5769 64.1312 32.3952 64.4798 33.3816Z" fill="#CDD4DF"/>
<path d="M62.8647 35.2773L60.8866 36.8086C60.7634 36.9023 60.5848 36.8439 60.5409 36.6955L59.8508 34.291C59.8264 34.2048 59.8566 34.1126 59.9272 34.0576L61.9053 32.5263C62.0289 32.4311 62.2076 32.4896 62.2511 32.6394L62.941 35.0439C62.9655 35.13 62.9353 35.2223 62.8647 35.2773Z" fill="#CDD4DF"/>
<path d="M62.6604 35.1501L60.6824 36.6814C60.5592 36.7751 60.3806 36.7166 60.3366 36.5682L59.6466 34.1637C59.6222 34.0776 59.6524 33.9853 59.723 33.9303L61.7011 32.399C61.8247 32.3039 62.0033 32.3623 62.0468 32.5122L62.7368 34.9167C62.7613 35.0028 62.7311 35.095 62.6604 35.1501Z" fill="url(#paint2_linear_1153_6767)"/>
<path d="M56.7624 31.7869L57.5494 31.6464L57.2403 32.3817L57.3808 33.1687L56.6454 32.8596L55.8607 33.0029L56.1676 32.2647L56.0242 31.48L56.7624 31.7869Z" fill="white"/>
<path d="M20.0849 72.1513C19.3675 71.975 18.8573 71.339 18.6921 70.5387L20.9497 71.0936L21.1937 70.1007L18.6737 69.4814C18.6872 69.3995 18.7035 69.3182 18.7237 69.2361C18.7437 69.1547 18.7671 69.0741 18.7929 68.9964L21.3129 69.6158L21.557 68.6227L19.2993 68.0679C19.8168 67.4354 20.5636 67.1085 21.281 67.2848C21.9667 67.4534 22.4998 68.0698 22.6724 68.8931L23.676 68.6857C23.422 67.4723 22.5978 66.5553 21.525 66.2917C20.7186 66.0935 19.8756 66.276 19.1511 66.8064C18.7866 67.0733 18.4749 67.4126 18.2285 67.8047L17.1456 67.5385L16.9016 68.5315L17.7947 68.751C17.7703 68.8296 17.7478 68.9105 17.7279 68.9913C17.7078 69.073 17.6905 69.154 17.6755 69.236L16.7824 69.0165L16.5384 70.0093L17.6212 70.2755C17.6578 70.7371 17.7769 71.1818 17.9762 71.5869C18.3723 72.3928 19.0345 72.946 19.8409 73.1442C20.9136 73.4078 22.0689 72.9774 22.8564 72.0201L22.0636 71.3703C21.5288 72.0207 20.7706 72.3198 20.0849 72.1513Z" fill="url(#paint3_linear_1153_6767)"/>
<path d="M75.5909 43.835C75.0008 43.5236 74.6928 42.8547 74.7229 42.1172L76.5801 43.0971L77.011 42.2804L74.938 41.1866C74.9677 41.1178 74.9998 41.0502 75.0355 40.9826C75.0708 40.9156 75.1089 40.8501 75.1485 40.7877L77.2215 41.8815L77.6525 41.0646L75.7954 40.0847C76.3871 39.6436 77.113 39.5204 77.7032 39.8318C78.2672 40.1294 78.5997 40.7862 78.5709 41.5454L79.4957 41.583C79.5384 40.4642 79.0167 39.4804 78.1342 39.0148C77.4709 38.6648 76.6922 38.6404 75.9412 38.9468C75.5635 39.101 75.2162 39.3302 74.9144 39.6199L74.0237 39.1499L73.5927 39.9668L74.3274 40.3544C74.2888 40.4179 74.2514 40.4838 74.2163 40.5503C74.1809 40.6175 74.148 40.6848 74.1169 40.7533L73.3822 40.3657L72.9513 41.1824L73.842 41.6524C73.7732 42.065 73.7803 42.4807 73.8664 42.8793C74.0373 43.6722 74.4966 44.3017 75.16 44.6517C76.0425 45.1173 77.149 44.9927 78.0485 44.326L77.4957 43.5832C76.8848 44.0362 76.155 44.1326 75.5909 43.835Z" fill="url(#paint4_linear_1153_6767)"/>
<path d="M11.6507 43.4819C11.7991 43.6299 11.7167 43.8852 11.5108 43.9182L9.97071 44.1486C9.88848 44.1655 9.82253 44.2146 9.78131 44.289L9.10617 45.6887C9.01549 45.8781 8.74386 45.8781 8.64494 45.6887L7.9531 44.3055C7.91189 44.2311 7.8379 44.1736 7.75546 44.1655L6.21557 43.9512C6.00969 43.9182 5.92725 43.6629 6.07543 43.5149L7.17903 42.4276C7.24498 42.3701 7.26971 42.2796 7.25322 42.1972L6.9814 40.6736C6.94018 40.4596 7.16255 40.3028 7.3437 40.4017L8.72737 41.1183C8.80136 41.1513 8.89204 41.1513 8.96623 41.1099L10.3332 40.3772C10.5226 40.2783 10.7367 40.4427 10.7038 40.6486L10.4567 42.1807C10.4402 42.2627 10.4649 42.3451 10.5309 42.403L11.6507 43.4819Z" fill="#FFD80C"/>
<path d="M57.6182 74.2082C56.9183 74.427 56.1582 74.1489 55.6066 73.5541L57.8093 72.8654L57.5064 71.8968L55.0478 72.6655C55.0172 72.5891 54.9893 72.5116 54.9643 72.4315C54.9394 72.352 54.9179 72.2716 54.8999 72.1923L57.3585 71.4236L57.0556 70.4548L54.8529 71.1435C54.9675 70.3405 55.4338 69.6791 56.1337 69.4602C56.8027 69.2511 57.5723 69.5007 58.1419 70.1113L58.8877 69.4195C58.0485 68.5195 56.8773 68.1641 55.8308 68.4913C55.044 68.7373 54.4217 69.3254 54.0789 70.1483C53.9065 70.5622 53.816 71.0105 53.8081 71.4701L52.7517 71.8005L53.0546 72.7693L53.9259 72.4968C53.9456 72.5761 53.968 72.6563 53.9927 72.7352C54.0176 72.8149 54.0445 72.8926 54.0739 72.97L53.2025 73.2424L53.5054 74.2111L54.5619 73.8807C54.8302 74.254 55.1597 74.5705 55.5372 74.8122C56.2877 75.2932 57.1343 75.4228 57.9211 75.1768C58.9677 74.8496 59.7278 73.8904 59.9048 72.6727L58.8975 72.5282C58.7775 73.3554 58.2872 73.999 57.6182 74.2082Z" fill="url(#paint5_linear_1153_6767)"/>
<path d="M11.9094 20.939C11.2232 21.2127 10.4383 20.9918 9.83856 20.4367L11.998 19.5756L11.6194 18.626L9.20892 19.5871C9.17228 19.5127 9.13837 19.4371 9.10703 19.3585C9.07599 19.2806 9.04814 19.2014 9.02395 19.1232L11.4344 18.1621L11.0557 17.2122L8.89619 18.0733C8.9495 17.2579 9.36705 16.5578 10.0533 16.2841C10.7091 16.0226 11.5013 16.2142 12.1204 16.7837L12.8163 16.0315C11.9043 15.192 10.7005 14.925 9.67446 15.3342C8.9031 15.6417 8.32331 16.2803 8.04218 17.1332C7.90082 17.5622 7.84445 18.0195 7.87186 18.4818L6.83611 18.8948L7.21484 19.8446L8.06911 19.504C8.09494 19.5821 8.12364 19.6609 8.15447 19.7383C8.18562 19.8164 8.21867 19.8924 8.25408 19.9678L7.39982 20.3085L7.77849 21.2581L8.81424 20.8451C9.11244 21.1994 9.46783 21.492 9.86549 21.7057C10.6563 22.1312 11.5167 22.1963 12.2881 21.8887C13.3142 21.4796 14.0039 20.4577 14.0881 19.221L13.0652 19.1532C13.0082 19.9934 12.5652 20.6775 11.9094 20.939Z" fill="url(#paint6_linear_1153_6767)"/>
<path d="M50.3915 10.3351C49.405 10.5934 48.3674 10.1575 47.64 9.29521L50.7446 8.48238L50.3871 7.11711L46.9218 8.02441C46.8842 7.91623 46.8506 7.80683 46.821 7.69384C46.7917 7.58192 46.767 7.46872 46.7471 7.3575L50.2126 6.45019L49.855 5.08465L46.7505 5.89749C46.962 4.78952 47.6529 3.90128 48.6394 3.64298C49.5823 3.39611 50.635 3.79314 51.3863 4.67844L52.4675 3.76619C51.3606 2.46121 49.757 1.89105 48.2818 2.27727C47.1729 2.56761 46.2702 3.34395 45.7402 4.46453C45.4737 5.02821 45.3188 5.64507 45.2778 6.28305L43.7888 6.67291L44.1463 8.03841L45.3744 7.71687C45.3966 7.82828 45.4225 7.94118 45.4516 8.05235C45.481 8.16467 45.5133 8.27437 45.549 8.38378L44.3209 8.70532L44.6784 10.0706L46.1674 9.68073C46.5157 10.2167 46.9529 10.6779 47.4614 11.0382C48.4725 11.7554 49.6401 11.9907 50.749 11.7004C52.2242 11.3141 53.3426 10.0314 53.668 8.35147L52.2782 8.08498C52.0575 9.22618 51.3344 10.0882 50.3915 10.3351Z" fill="url(#paint7_linear_1153_6767)"/>
<path d="M9.98162 58.2045C12.1806 59.2502 14.811 58.3153 15.8568 56.1163C16.9025 53.9172 15.9676 51.2869 13.7685 50.2411C11.5695 49.1954 8.93913 50.1303 7.8934 52.3293C6.84767 54.5284 7.78259 57.1588 9.98162 58.2045Z" fill="#1F2272"/>
<path d="M10.5147 57.0839C12.0947 57.8352 13.9847 57.1635 14.7361 55.5834C15.4874 54.0034 14.8157 52.1134 13.2357 51.3621C11.6556 50.6107 9.76565 51.2825 9.01427 52.8625C8.2629 54.4425 8.93466 56.3325 10.5147 57.0839Z" fill="#E5E8EF"/>
<path d="M14.9728 53.5597C14.6664 52.9593 14.167 52.4503 13.5113 52.1385C11.9311 51.387 10.0414 52.0597 9.28989 53.6399C8.97807 54.2957 8.91075 55.0051 9.05196 55.6641C8.62171 54.8173 8.57426 53.7878 9.01387 52.8633C9.76533 51.2831 11.6551 50.6104 13.2352 51.3619C14.1597 51.8015 14.7727 52.63 14.9728 53.5597Z" fill="#CDD4DF"/>
<path d="M13.4405 55.5785C13.2298 56.0216 12.7002 56.2098 12.2572 55.9991C12.0322 55.8922 11.872 55.7022 11.7988 55.4842C11.7674 55.7893 11.7815 56.0741 11.8555 56.3303C11.8774 56.4124 11.7851 56.4694 11.7193 56.4172C11.4202 56.1739 11.0845 56.0121 10.707 55.9336C10.625 55.9157 10.611 55.808 10.6885 55.7733C10.9348 55.6672 11.1637 55.5002 11.3806 55.2833C11.1644 55.3658 10.916 55.3613 10.6893 55.2535C10.248 55.0437 10.0597 54.5141 10.2704 54.071C10.4811 53.628 11.0107 53.4398 11.452 53.6496C11.519 53.6815 11.5785 53.7202 11.633 53.7651C11.5694 53.5622 11.5811 53.3341 11.6799 53.1263C11.8898 52.6849 12.4194 52.4967 12.8624 52.7074C13.3037 52.9173 13.492 53.4468 13.2821 53.8882C13.1832 54.096 13.0136 54.249 12.8162 54.3277C12.8853 54.3417 12.953 54.3634 13.0199 54.3952C13.4629 54.6059 13.6512 55.1355 13.4405 55.5785Z" fill="#CDD4DF"/>
<path d="M13.2788 55.3588C13.0681 55.8018 12.5385 55.99 12.0954 55.7794C11.8705 55.6724 11.7102 55.4825 11.637 55.2644C11.6056 55.5696 11.6197 55.8543 11.6937 56.1105C11.7157 56.1926 11.6233 56.2497 11.5576 56.1974C11.2585 55.9541 10.9228 55.7923 10.5453 55.7139C10.4632 55.6959 10.4492 55.5882 10.5268 55.5535C10.773 55.4474 11.0019 55.2804 11.2188 55.0635C11.0027 55.146 10.7542 55.1415 10.5275 55.0337C10.0862 54.8239 9.89797 54.2943 10.1087 53.8512C10.3194 53.4082 10.849 53.22 11.2903 53.4298C11.3573 53.4617 11.4167 53.5005 11.4712 53.5453C11.4077 53.3424 11.4193 53.1143 11.5181 52.9065C11.728 52.4651 12.2576 52.2769 12.7006 52.4876C13.142 52.6975 13.3302 53.227 13.1203 53.6684C13.0215 53.8762 12.8519 54.0292 12.6544 54.1079C12.7236 54.1219 12.7912 54.1436 12.8582 54.1754C13.3012 54.3861 13.4895 54.9157 13.2788 55.3588Z" fill="#1F2272"/>
<path d="M16.8582 53.9528L17.087 54.8441L16.2164 54.5523L15.3251 54.7811L15.6169 53.9105L15.3851 53.0221L16.2587 53.311L17.1471 53.0792L16.8582 53.9528Z" fill="white"/>
<path d="M27.6836 7.14982C30.2297 7.98308 32.9692 6.59454 33.8025 4.04842C34.6358 1.50229 33.2472 -1.23725 30.7011 -2.07052C28.155 -2.90379 25.4154 -1.51524 24.5822 1.03088C23.7489 3.57701 25.1375 6.31655 27.6836 7.14982Z" fill="#FF1A5E"/>
<path d="M28.1087 5.85175C29.9382 6.45047 31.9066 5.45277 32.5053 3.62332C33.104 1.79387 32.1063 -0.174553 30.2769 -0.773276C28.4474 -1.372 26.479 -0.374298 25.8803 1.45515C25.2815 3.2846 26.2792 5.25303 28.1087 5.85175Z" fill="#E5E8EF"/>
<path d="M32.4803 1.38164C32.0618 0.76939 31.4455 0.283844 30.6863 0.0353864C28.8567 -0.563387 26.8887 0.435291 26.2899 2.26493C26.0414 3.02415 26.0673 3.80773 26.3137 4.50718C25.7256 3.64326 25.5297 2.52646 25.88 1.45611C26.4787 -0.373531 28.4468 -1.37221 30.2763 -0.773447C31.3468 -0.423131 32.1316 0.395156 32.4803 1.38164Z" fill="#CDD4DF"/>
<path d="M30.8651 3.27733L28.8871 4.80861C28.7639 4.90232 28.5853 4.84386 28.5414 4.69546L27.8513 2.291C27.8269 2.20482 27.8571 2.1126 27.9277 2.05759L29.9058 0.526259C30.0294 0.431129 30.2081 0.489591 30.2515 0.639409L30.9415 3.04393C30.966 3.13004 30.9358 3.22226 30.8651 3.27733Z" fill="#CDD4DF"/>
<path d="M30.6609 3.15008L28.6829 4.68135C28.5597 4.77506 28.381 4.7166 28.3371 4.5682L27.6471 2.16374C27.6227 2.07756 27.6529 1.98534 27.7235 1.93034L29.7016 0.399001C29.8252 0.30387 30.0038 0.362333 30.0473 0.512151L30.7373 2.91668C30.7617 3.00278 30.7316 3.095 30.6609 3.15008Z" fill="url(#paint8_linear_1153_6767)"/>
<path d="M24.7629 -0.213136L25.5499 -0.353625L25.2408 0.38174L25.3813 1.16874L24.6459 0.859584L23.8612 1.00289L24.168 0.264708L24.0247 -0.520022L24.7629 -0.213136Z" fill="white"/>
<path d="M29.9816 85.2045C32.1806 86.2502 34.811 85.3153 35.8568 83.1163C36.9025 80.9172 35.9676 78.2869 33.7685 77.2411C31.5695 76.1954 28.9391 77.1303 27.8934 79.3293C26.8477 81.5284 27.7826 84.1588 29.9816 85.2045Z" fill="#1F2272"/>
<path d="M30.5147 84.0839C32.0947 84.8352 33.9847 84.1635 34.7361 82.5834C35.4874 81.0034 34.8157 79.1134 33.2357 78.3621C31.6556 77.6107 29.7656 78.2825 29.0143 79.8625C28.2629 81.4425 28.9347 83.3325 30.5147 84.0839Z" fill="#E5E8EF"/>
<path d="M34.9728 80.5597C34.6664 79.9593 34.167 79.4503 33.5113 79.1385C31.9311 78.387 30.0414 79.0597 29.2899 80.6399C28.9781 81.2957 28.9107 82.0051 29.052 82.6641C28.6217 81.8173 28.5743 80.7878 29.0139 79.8633C29.7653 78.2831 31.6551 77.6104 33.2352 78.3619C34.1597 78.8015 34.7727 79.63 34.9728 80.5597Z" fill="#CDD4DF"/>
<path d="M33.4405 82.5785C33.2298 83.0216 32.7002 83.2098 32.2572 82.9991C32.0322 82.8922 31.872 82.7022 31.7988 82.4842C31.7674 82.7893 31.7815 83.0741 31.8555 83.3303C31.8774 83.4124 31.7851 83.4694 31.7193 83.4172C31.4202 83.1739 31.0845 83.0121 30.707 82.9336C30.625 82.9157 30.611 82.808 30.6885 82.7733C30.9348 82.6672 31.1637 82.5002 31.3806 82.2833C31.1644 82.3658 30.916 82.3613 30.6893 82.2535C30.248 82.0437 30.0597 81.5141 30.2704 81.071C30.4811 80.628 31.0107 80.4398 31.452 80.6496C31.519 80.6815 31.5785 80.7202 31.633 80.7651C31.5694 80.5622 31.5811 80.3341 31.6799 80.1263C31.8898 79.6849 32.4194 79.4967 32.8624 79.7074C33.3037 79.9173 33.492 80.4468 33.2821 80.8882C33.1832 81.096 33.0136 81.249 32.8162 81.3277C32.8853 81.3417 32.953 81.3634 33.0199 81.3952C33.4629 81.6059 33.6512 82.1355 33.4405 82.5785Z" fill="#CDD4DF"/>
<path d="M33.2788 82.3588C33.0681 82.8018 32.5385 82.99 32.0954 82.7794C31.8705 82.6724 31.7102 82.4825 31.637 82.2644C31.6056 82.5696 31.6197 82.8543 31.6937 83.1105C31.7157 83.1926 31.6233 83.2497 31.5576 83.1974C31.2585 82.9541 30.9228 82.7923 30.5453 82.7139C30.4632 82.6959 30.4492 82.5882 30.5268 82.5535C30.773 82.4474 31.0019 82.2804 31.2188 82.0635C31.0027 82.146 30.7542 82.1415 30.5275 82.0337C30.0862 81.8239 29.898 81.2943 30.1087 80.8512C30.3194 80.4082 30.849 80.22 31.2903 80.4298C31.3573 80.4617 31.4167 80.5005 31.4712 80.5453C31.4077 80.3424 31.4193 80.1143 31.5181 79.9065C31.728 79.4651 32.2576 79.2769 32.7006 79.4876C33.142 79.6975 33.3302 80.227 33.1203 80.6684C33.0215 80.8762 32.8519 81.0292 32.6544 81.1079C32.7236 81.1219 32.7912 81.1436 32.8582 81.1754C33.3012 81.3861 33.4895 81.9157 33.2788 82.3588Z" fill="#1F2272"/>
<path d="M36.8582 80.9528L37.087 81.8441L36.2164 81.5523L35.3251 81.7811L35.6169 80.9105L35.3851 80.0221L36.2587 80.311L37.1471 80.0792L36.8582 80.9528Z" fill="white"/>
</g>
<g clip-path="url(#clip1_1153_6767)">
<rect x="56" y="0.347656" width="24" height="24" rx="12" fill="#58C27D"/>
<path d="M62 12.3477L66 16.3477L74 8.34766" stroke="#FCFCFD" stroke-width="2" stroke-miterlimit="10" stroke-linecap="round" stroke-linejoin="round"/>
</g>
<defs>
<linearGradient id="paint0_linear_1153_6767" x1="47.7464" y1="21.5859" x2="47.7464" y2="29.216" gradientUnits="userSpaceOnUse">
<stop stop-color="#FF4EA3"/>
<stop offset="1" stop-color="#B8008F"/>
</linearGradient>
<linearGradient id="paint1_linear_1153_6767" x1="53.6468" y1="43.1175" x2="53.6468" y2="65.2619" gradientUnits="userSpaceOnUse">
<stop stop-color="#FF4EA3"/>
<stop offset="1" stop-color="#B8008F"/>
</linearGradient>
<linearGradient id="paint2_linear_1153_6767" x1="61.904" y1="32.3637" x2="60.4798" y2="36.7156" gradientUnits="userSpaceOnUse">
<stop stop-color="#FF4EA3"/>
<stop offset="1" stop-color="#B8008F"/>
</linearGradient>
<linearGradient id="paint3_linear_1153_6767" x1="20.8962" y1="66.1371" x2="19.212" y2="72.9896" gradientUnits="userSpaceOnUse">
<stop stop-color="#FFD836"/>
<stop offset="1" stop-color="#EBB11D"/>
</linearGradient>
<linearGradient id="paint4_linear_1153_6767" x1="77.6169" y1="38.7418" x2="74.6427" y2="44.3788" gradientUnits="userSpaceOnUse">
<stop stop-color="#FFD836"/>
<stop offset="1" stop-color="#EBB11D"/>
</linearGradient>
<linearGradient id="paint5_linear_1153_6767" x1="55.2172" y1="68.6831" x2="57.3075" y2="75.3687" gradientUnits="userSpaceOnUse">
<stop stop-color="#FFD836"/>
<stop offset="1" stop-color="#EBB11D"/>
</linearGradient>
<linearGradient id="paint6_linear_1153_6767" x1="9.07294" y1="15.574" x2="11.6865" y2="22.1286" gradientUnits="userSpaceOnUse">
<stop stop-color="#FFD836"/>
<stop offset="1" stop-color="#EBB11D"/>
</linearGradient>
<linearGradient id="paint7_linear_1153_6767" x1="47.4171" y1="2.50368" x2="49.8842" y2="11.9268" gradientUnits="userSpaceOnUse">
<stop stop-color="#FFD836"/>
<stop offset="1" stop-color="#EBB11D"/>
</linearGradient>
<linearGradient id="paint8_linear_1153_6767" x1="29.9045" y1="0.363719" x2="28.4803" y2="4.71557" gradientUnits="userSpaceOnUse">
<stop stop-color="#FF4EA3"/>
<stop offset="1" stop-color="#B8008F"/>
</linearGradient>
<clipPath id="clip0_1153_6767">
<rect y="0.347656" width="80" height="80" rx="40" fill="white"/>
</clipPath>
<clipPath id="clip1_1153_6767">
<rect x="56" y="0.347656" width="24" height="24" rx="12" fill="white"/>
</clipPath>
</defs>
</svg>
