<svg width="80" height="81" viewBox="0 0 80 81" fill="none" xmlns="http://www.w3.org/2000/svg">
<rect y="0.347656" width="80" height="80" rx="40" fill="#4B50C8"/>
<g clip-path="url(#clip0_1153_6842)">
<path d="M63.2533 49.5721C67.8112 51.7178 73.2633 49.7995 75.4309 45.2873C77.5984 40.7752 75.6605 35.3779 71.1026 33.2322C66.5446 31.0865 61.0925 33.0049 58.925 37.517C56.7575 42.0291 58.6953 47.4264 63.2533 49.5721Z" fill="#1F2272"/>
<path d="M64.3575 47.272C67.6325 48.8137 71.5499 47.4353 73.1073 44.1933C74.6647 40.9513 73.2723 37.0733 69.9974 35.5315C66.7224 33.9898 62.805 35.3682 61.2476 38.6102C59.6902 41.8522 61.0826 45.7302 64.3575 47.272Z" fill="#E5E8EF"/>
<path d="M73.5998 40.0408C72.9646 38.8089 71.9295 37.7644 70.5704 37.1246C67.2951 35.5828 63.3782 36.963 61.8206 40.2055C61.1743 41.5509 61.0347 43.0065 61.3274 44.3589C60.4356 42.6212 60.3373 40.5088 61.2485 38.612C62.806 35.3696 66.723 33.9893 69.9982 35.5311C71.9144 36.4332 73.1849 38.1332 73.5998 40.0408Z" fill="#CDD4DF"/>
<path d="M70.4235 44.1849C69.9867 45.094 68.889 45.4802 67.9708 45.0479C67.5045 44.8284 67.1723 44.4387 67.0206 43.9913C66.9555 44.6174 66.9847 45.2016 67.1381 45.7274C67.1837 45.8959 66.9922 46.0129 66.856 45.9057C66.236 45.4065 65.5401 45.0745 64.7577 44.9135C64.5876 44.8767 64.5586 44.6556 64.7193 44.5845C65.2298 44.3668 65.7042 44.0241 66.1537 43.579C65.7058 43.7483 65.1908 43.7392 64.7209 43.518C63.8062 43.0874 63.416 42.0008 63.8527 41.0916C64.2895 40.1825 65.3872 39.7963 66.3019 40.227C66.4407 40.2923 66.564 40.3719 66.6769 40.4639C66.5452 40.0476 66.5693 39.5795 66.7741 39.1531C67.2092 38.2474 68.3069 37.8613 69.2252 38.2936C70.14 38.7242 70.5301 39.8108 70.095 40.7165C69.8902 41.1428 69.5387 41.4568 69.1294 41.6184C69.2727 41.6471 69.4129 41.6915 69.5517 41.7569C70.47 42.1891 70.8602 43.2758 70.4235 44.1849Z" fill="#CDD4DF"/>
<path d="M70.0858 43.7319C69.6491 44.641 68.5514 45.0272 67.6331 44.5949C67.1668 44.3754 66.8347 43.9857 66.6829 43.5383C66.6179 44.1644 66.6471 44.7486 66.8005 45.2744C66.846 45.4429 66.6546 45.5599 66.5183 45.4527C65.8984 44.9535 65.2025 44.6215 64.42 44.4605C64.25 44.4237 64.2209 44.2026 64.3817 44.1315C64.8921 43.9138 65.3666 43.5711 65.8161 43.126C65.3681 43.2953 64.8532 43.2862 64.3833 43.065C63.4686 42.6344 63.0784 41.5478 63.5151 40.6386C63.9518 39.7295 65.0495 39.3433 65.9642 39.774C66.1031 39.8393 66.2263 39.9189 66.3393 40.0109C66.2075 39.5946 66.2317 39.1265 66.4365 38.7001C66.8716 37.7944 67.9693 37.4083 68.8875 37.8406C69.8023 38.2712 70.1925 39.3578 69.7574 40.2635C69.5526 40.6898 69.201 41.0038 68.7917 41.1654C68.9351 41.194 69.0753 41.2385 69.2141 41.3039C70.1323 41.7361 70.5225 42.8228 70.0858 43.7319Z" fill="#1F2272"/>
<path d="M56.193 100.046L24.2193 100.046C21.0743 100.046 18.5012 97.5018 18.5012 94.3917L18.5012 24.8929C18.5012 21.7829 21.0743 19.2384 24.2193 19.2384L56.193 19.2384C59.338 19.2384 61.9111 21.7829 61.9111 24.8929L61.9111 94.3917C61.9111 97.5018 59.338 100.046 56.193 100.046Z" fill="#2B478B"/>
<path d="M59.7617 25.4256L59.7617 93.3139C59.7617 95.6169 57.8697 97.501 55.5585 97.501L24.857 97.501C22.5458 97.501 20.6545 95.6169 20.6545 93.3139L20.6545 25.4256C20.6545 23.1226 22.5458 21.2385 24.857 21.2385L55.5585 21.2385C57.8697 21.2385 59.7617 23.1226 59.7617 25.4256Z" fill="#C0D8FB"/>
<path d="M55.5585 21.2385L25.237 97.501L24.857 97.501C22.5458 97.501 20.6545 95.6169 20.6545 93.3139L20.6545 25.4256C20.6545 23.1226 22.5458 21.2385 24.857 21.2385L55.5585 21.2385Z" fill="#CBE1FD"/>
<ellipse cx="40.4807" cy="22.4862" rx="3.23261" ry="3.2001" fill="#2B478B"/>
<ellipse cx="40.4799" cy="22.4845" rx="1.79589" ry="1.77783" fill="#CBE1FD"/>
<path d="M19.5159 62.9228C24.0977 60.6757 25.9718 55.1772 23.7019 50.6416C21.432 46.106 15.8776 44.2507 11.2959 46.4978C6.71421 48.7449 4.84012 54.2433 7.11001 58.779C9.37991 63.3146 14.9342 65.1698 19.5159 62.9228Z" fill="#FF1A5E"/>
<path d="M18.3588 60.6098C21.6509 58.9952 22.9974 55.0445 21.3665 51.7855C19.7355 48.5265 15.7446 47.1935 12.4525 48.8081C9.16045 50.4226 7.81387 54.3734 9.44484 57.6324C11.0758 60.8913 15.0667 62.2244 18.3588 60.6098Z" fill="#E5E8EF"/>
<path d="M18.3365 48.7965C16.9479 48.525 15.4594 48.6862 14.0932 49.3562C10.8009 50.9709 9.45612 54.9225 11.0873 58.1818C11.7641 59.5343 12.8471 60.5564 14.118 61.1733C12.1618 60.7871 10.4016 59.5408 9.4474 57.6341C7.81626 54.3748 9.16101 50.4232 12.4533 48.8085C14.3795 47.8638 16.5426 47.928 18.3365 48.7965Z" fill="#CDD4DF"/>
<path d="M18.6702 53.4898L18.024 58.1726C17.9815 58.462 17.6601 58.6197 17.4018 58.4778L13.2468 56.1496C13.0984 56.0657 13.0162 55.9015 13.0388 55.7338L13.685 51.0508C13.7261 50.7589 14.0475 50.6013 14.3071 50.7457L18.4621 53.074C18.6105 53.1577 18.6927 53.322 18.6702 53.4898Z" fill="#CDD4DF"/>
<path d="M18.2223 53.5886L17.5761 58.2715C17.5337 58.5609 17.2122 58.7185 16.954 58.5766L12.799 56.2484C12.6505 56.1646 12.5683 56.0003 12.5909 55.8327L13.2371 51.1496C13.2782 50.8577 13.5997 50.7001 13.8592 50.8445L18.0142 53.1728C18.1626 53.2566 18.2449 53.4208 18.2223 53.5886Z" fill="url(#paint0_linear_1153_6842)"/>
<g clip-path="url(#clip1_1153_6842)">
<path d="M40.0027 35.1173C39.9584 35.117 39.9148 35.1289 39.877 35.1515C39.8391 35.174 39.8086 35.2065 39.7887 35.2451L38.973 36.8313L37.0358 37.1212C36.9925 37.1277 36.9518 37.1458 36.9184 37.1734C36.8849 37.201 36.86 37.237 36.8464 37.2776C36.8327 37.3181 36.8309 37.3615 36.8411 37.403C36.8513 37.4445 36.8731 37.4825 36.9041 37.5126L38.2441 38.8154L37.9456 40.7008C37.939 40.743 37.9444 40.7861 37.9615 40.8254C37.9785 40.8648 38.0064 40.8988 38.0421 40.9236C38.0778 40.9485 38.1198 40.9632 38.1636 40.9662C38.2074 40.9693 38.2512 40.9604 38.2901 40.9407L40.0012 40.0727L41.7122 40.9407C41.7512 40.9604 41.795 40.9693 41.8388 40.9662C41.8825 40.9632 41.9246 40.9485 41.9603 40.9236C41.996 40.8988 42.0239 40.8648 42.0409 40.8254C42.0579 40.7861 42.0634 40.743 42.0567 40.7008L41.7583 38.8154L43.0983 37.5126C43.1293 37.4825 43.1511 37.4445 43.1613 37.403C43.1715 37.3615 43.1697 37.3181 43.156 37.2776C43.1424 37.237 43.1175 37.201 43.084 37.1734C43.0506 37.1458 43.0099 37.1277 42.9665 37.1212L41.0294 36.8313L40.2136 35.2451C40.1941 35.2069 40.164 35.1748 40.1268 35.1522C40.0895 35.1297 40.0466 35.1176 40.0027 35.1173Z" fill="#FF1A5E"/>
</g>
<path d="M47.6005 35.1173C47.5561 35.117 47.5126 35.1289 47.4747 35.1515C47.4369 35.174 47.4063 35.2065 47.3865 35.2451L46.5707 36.8313L44.6336 37.1212C44.5903 37.1277 44.5496 37.1458 44.5162 37.1734C44.4827 37.201 44.4578 37.237 44.4441 37.2776C44.4305 37.3181 44.4287 37.3615 44.4389 37.403C44.4491 37.4445 44.4709 37.4825 44.5019 37.5126L45.8418 38.8154L45.5434 40.7008C45.5367 40.743 45.5422 40.7861 45.5592 40.8254C45.5763 40.8648 45.6042 40.8988 45.6399 40.9236C45.6756 40.9485 45.7176 40.9632 45.7614 40.9662C45.8052 40.9693 45.849 40.9604 45.8879 40.9407L47.599 40.0727L49.31 40.9407C49.349 40.9604 49.3927 40.9693 49.4365 40.9662C49.4803 40.9632 49.5224 40.9485 49.5581 40.9236C49.5938 40.8988 49.6217 40.8648 49.6387 40.8254C49.6557 40.7861 49.6612 40.743 49.6545 40.7008L49.3561 38.8154L50.6961 37.5126C50.7271 37.4825 50.7489 37.4445 50.7591 37.403C50.7693 37.3615 50.7674 37.3181 50.7538 37.2776C50.7402 37.237 50.7152 37.201 50.6818 37.1734C50.6483 37.1458 50.6077 37.1277 50.5643 37.1212L48.6272 36.8313L47.8114 35.2451C47.7918 35.2069 47.7618 35.1748 47.7245 35.1522C47.6873 35.1297 47.6444 35.1176 47.6005 35.1173Z" fill="#FF1A5E"/>
<g clip-path="url(#clip2_1153_6842)">
<path d="M55.2012 35.1173C55.1568 35.117 55.1133 35.1289 55.0754 35.1515C55.0376 35.174 55.0071 35.2065 54.9872 35.2451L54.1714 36.8313L52.2343 37.1212C52.191 37.1277 52.1503 37.1458 52.1169 37.1734C52.0834 37.201 52.0585 37.237 52.0449 37.2776C52.0312 37.3181 52.0294 37.3615 52.0396 37.403C52.0498 37.4445 52.0716 37.4825 52.1026 37.5126L53.4426 38.8154L53.1441 40.7008C53.1375 40.743 53.1429 40.7861 53.16 40.8254C53.177 40.8648 53.2049 40.8988 53.2406 40.9236C53.2763 40.9485 53.3183 40.9632 53.3621 40.9662C53.4059 40.9693 53.4497 40.9604 53.4886 40.9407L55.1997 40.0727L56.9107 40.9407C56.9497 40.9604 56.9935 40.9693 57.0372 40.9662C57.081 40.9632 57.1231 40.9485 57.1588 40.9236C57.1945 40.8988 57.2224 40.8648 57.2394 40.8254C57.2564 40.7861 57.2619 40.743 57.2552 40.7008L56.9568 38.8154L58.2968 37.5126C58.3278 37.4825 58.3496 37.4445 58.3598 37.403C58.37 37.3615 58.3682 37.3181 58.3545 37.2776C58.3409 37.237 58.3159 37.201 58.2825 37.1734C58.249 37.1458 58.2084 37.1277 58.165 37.1212L56.2279 36.8313L55.4121 35.2451C55.3925 35.2069 55.3625 35.1748 55.3252 35.1522C55.288 35.1297 55.2451 35.1176 55.2012 35.1173Z" fill="#FF1A5E"/>
</g>
<path d="M24.8014 35.1173C24.7571 35.117 24.7135 35.1289 24.6757 35.1515C24.6378 35.174 24.6073 35.2065 24.5875 35.2451L23.7717 36.8313L21.8346 37.1212C21.7912 37.1277 21.7505 37.1458 21.7171 37.1734C21.6836 37.201 21.6587 37.237 21.6451 37.2776C21.6314 37.3181 21.6296 37.3615 21.6398 37.403C21.65 37.4445 21.6718 37.4825 21.7028 37.5126L23.0428 38.8154L22.7444 40.7008C22.7377 40.743 22.7432 40.7861 22.7602 40.8254C22.7772 40.8648 22.8051 40.8988 22.8408 40.9236C22.8765 40.9485 22.9186 40.9632 22.9623 40.9662C23.0061 40.9693 23.0499 40.9604 23.0888 40.9407L24.7999 40.0727L26.511 40.9407C26.5499 40.9604 26.5937 40.9693 26.6375 40.9662C26.6813 40.9632 26.7233 40.9485 26.759 40.9236C26.7947 40.8988 26.8226 40.8648 26.8396 40.8254C26.8567 40.7861 26.8621 40.743 26.8555 40.7008L26.557 38.8154L27.897 37.5126C27.928 37.4825 27.9498 37.4445 27.96 37.403C27.9702 37.3615 27.9684 37.3181 27.9547 37.2776C27.9411 37.237 27.9162 37.201 27.8827 37.1734C27.8493 37.1458 27.8086 37.1277 27.7653 37.1212L25.8281 36.8313L25.0124 35.2451C24.9928 35.2069 24.9627 35.1748 24.9255 35.1522C24.8882 35.1297 24.8453 35.1176 24.8014 35.1173Z" fill="#FF1A5E"/>
<path d="M32.4022 35.1173C32.3578 35.117 32.3142 35.1289 32.2764 35.1515C32.2385 35.174 32.208 35.2065 32.1882 35.2451L31.3724 36.8313L29.4353 37.1212C29.3919 37.1277 29.3512 37.1458 29.3178 37.1734C29.2844 37.201 29.2594 37.237 29.2458 37.2776C29.2321 37.3181 29.2303 37.3615 29.2405 37.403C29.2507 37.4445 29.2725 37.4825 29.3035 37.5126L30.6435 38.8154L30.3451 40.7008C30.3384 40.743 30.3439 40.7861 30.3609 40.8254C30.3779 40.8648 30.4058 40.8988 30.4415 40.9236C30.4772 40.9485 30.5193 40.9632 30.563 40.9662C30.6068 40.9693 30.6506 40.9604 30.6896 40.9407L32.4006 40.0727L34.1117 40.9407C34.1506 40.9604 34.1944 40.9693 34.2382 40.9662C34.282 40.9632 34.324 40.9485 34.3597 40.9236C34.3954 40.8988 34.4233 40.8648 34.4403 40.8254C34.4574 40.7861 34.4628 40.743 34.4562 40.7008L34.1577 38.8154L35.4977 37.5126C35.5287 37.4825 35.5505 37.4445 35.5607 37.403C35.5709 37.3615 35.5691 37.3181 35.5554 37.2776C35.5418 37.237 35.5169 37.201 35.4834 37.1734C35.45 37.1458 35.4093 37.1277 35.366 37.1212L33.4288 36.8313L32.6131 35.2451C32.5935 35.2069 32.5634 35.1748 32.5262 35.1522C32.4889 35.1297 32.446 35.1176 32.4022 35.1173Z" fill="#FF1A5E"/>
<path opacity="0.2" d="M65 86.5998V89.0115C65 91.0559 63.4046 92.7195 61.4418 92.7195H41.2296C40.4529 92.7195 39.7274 92.9498 39.1115 93.3477L25.7414 79.4218C24.9446 78.5919 24.7893 77.3413 25.2791 76.3477C25.396 76.5856 25.5496 76.8102 25.7414 77.0101L39.1115 90.9359C39.7473 90.5246 40.4811 90.307 41.2296 90.3078H61.4418C63.4046 90.3078 65 88.6441 65 86.5998Z" fill="#2B478B"/>
<circle cx="40.4118" cy="46.8182" r="2.47059" fill="#1F2272"/>
<path d="M34.6471 52.1503C34.6471 51.36 35.1119 50.6428 35.8521 50.366C37.0784 49.9074 38.995 49.2888 40.4118 49.2888C41.8286 49.2888 43.7452 49.9074 44.9715 50.366C45.7117 50.6428 46.1765 51.36 46.1765 52.1503V56.3476C46.1765 57.4522 45.2811 58.3476 44.1765 58.3476H36.6471C35.5425 58.3476 34.6471 57.4522 34.6471 56.3476V52.1503Z" fill="#1F2272"/>
<circle cx="50.101" cy="48.8526" r="2.0346" fill="#1F2272"/>
<path d="M45.3538 53.4733C45.3538 52.6829 45.8182 51.9646 46.5612 51.6953C47.5702 51.3294 49.0143 50.8874 50.1012 50.8874C51.188 50.8874 52.6322 51.3294 53.6411 51.6953C54.3841 51.9646 54.8486 52.6829 54.8486 53.4733V56.3476C54.8486 57.4522 53.9531 58.3476 52.8486 58.3476H47.3538C46.2492 58.3476 45.3538 57.4522 45.3538 56.3476V53.4733Z" fill="#1F2272"/>
<circle cx="30.7472" cy="48.8527" r="2.0346" fill="#1F2272"/>
<path d="M26 53.4734C26 52.6831 26.4645 51.9648 27.2075 51.6954C28.2164 51.3296 29.6605 50.8875 30.7474 50.8875C31.8343 50.8875 33.2784 51.3296 34.2874 51.6954C35.0304 51.9648 35.4948 52.6831 35.4948 53.4734V56.3477C35.4948 57.4523 34.5994 58.3477 33.4948 58.3477H28C26.8954 58.3477 26 57.4523 26 56.3477V53.4734Z" fill="#1F2272"/>
<path d="M38.8816 88.5598L39.4383 89.1086L40.1053 88.7008C40.4149 88.5116 40.7792 88.4017 41.1722 88.4017H56.3314C58.343 88.4017 60 86.7857 60 84.7694V71.7862C60 70.1859 58.6868 68.9106 57.0989 68.9106C56.1348 68.9106 55.272 69.3801 54.7426 70.1069C54.4322 68.8408 53.2772 67.9133 51.9221 67.9133C50.9686 67.9133 50.1142 68.3731 49.5837 69.087C49.2999 67.7792 48.1428 66.7499 46.7479 66.7499C45.8246 66.7499 45.0055 67.2009 44.4749 67.8852V58.2219C44.4749 56.6221 43.1607 55.3477 41.5724 55.3477C39.9851 55.3477 38.6714 56.6225 38.6714 58.2219V76.3337C38.6706 77.1868 37.956 77.9156 37.037 77.9156C36.601 77.9156 36.177 77.7377 35.876 77.4343L35.8761 77.4343L35.8679 77.4263C35.8553 77.4138 35.8429 77.4022 35.831 77.3917L32.9482 74.5977C32.3976 74.0565 31.6695 73.7604 30.9007 73.7604C30.132 73.7604 29.4021 74.0566 28.8541 74.5969C27.7153 75.7196 27.7153 77.551 28.8541 78.6737L38.8816 88.5598Z" fill="white" stroke="#2B478B" stroke-width="2"/>
<path d="M5.80746 49.8655L7.30395 47.7599L8.25599 50.1553L10.3617 51.6518L7.96621 52.6038L6.4813 54.7108L5.51768 52.314L3.41064 50.8291L5.80746 49.8655Z" fill="white"/>
<path d="M77.6548 41.5798L78.1978 43.6952L76.1315 43.0027L74.0161 43.5457L74.7086 41.4794L74.1584 39.3707L76.2319 40.0565L78.3405 39.5063L77.6548 41.5798Z" fill="white"/>
</g>
<g clip-path="url(#clip3_1153_6842)">
<rect x="56" y="0.347656" width="24" height="24" rx="12" fill="#58C27D"/>
<path d="M62 12.3477L66 16.3477L74 8.34766" stroke="#FCFCFD" stroke-width="2" stroke-miterlimit="10" stroke-linecap="round" stroke-linejoin="round"/>
</g>
<defs>
<linearGradient id="paint0_linear_1153_6842" x1="13.4662" y1="50.8334" x2="17.2834" y2="58.6165" gradientUnits="userSpaceOnUse">
<stop stop-color="#FF4EA3"/>
<stop offset="1" stop-color="#B8008F"/>
</linearGradient>
<clipPath id="clip0_1153_6842">
<rect y="0.347656" width="80" height="80" rx="40" fill="white"/>
</clipPath>
<clipPath id="clip1_1153_6842">
<rect width="7.60008" height="7.38889" fill="white" transform="translate(36.2013 34.3477)"/>
</clipPath>
<clipPath id="clip2_1153_6842">
<rect width="7.60008" height="7.38889" fill="white" transform="translate(51.3998 34.3477)"/>
</clipPath>
<clipPath id="clip3_1153_6842">
<rect x="56" y="0.347656" width="24" height="24" rx="12" fill="white"/>
</clipPath>
</defs>
</svg>
