<svg width="80" height="81" viewBox="0 0 80 81" fill="none" xmlns="http://www.w3.org/2000/svg">
<rect y="0.347656" width="80" height="80" rx="40" fill="#4B50C8"/>
<g clip-path="url(#clip0_1293_6771)">
<path opacity="0.2" d="M65 86.5998V89.0115C65 91.0559 63.4046 92.7195 61.4418 92.7195H41.2296C40.4529 92.7195 39.7274 92.9498 39.1115 93.3477L25.7414 79.4218C24.9446 78.5919 24.7893 77.3413 25.2791 76.3477C25.396 76.5856 25.5496 76.8102 25.7414 77.0101L39.1115 90.9359C39.7473 90.5246 40.4811 90.307 41.2296 90.3078H61.4418C63.4046 90.3078 65 88.6441 65 86.5998Z" fill="#2B478B"/>
<path d="M46.2545 66.3472L25.6796 66.3472C23.6558 66.3472 22 64.7098 22 62.7085L22 17.9863C22 15.985 23.6558 14.3477 25.6796 14.3477L46.2545 14.3477C48.2783 14.3477 49.9341 15.985 49.9341 17.9863L49.9341 62.7085C49.9341 64.7098 48.2783 66.3472 46.2545 66.3472Z" fill="#2B478B"/>
<path d="M48.5509 18.329L48.5509 62.0149C48.5509 63.4968 47.3334 64.7092 45.8462 64.7092L26.0899 64.7092C24.6026 64.7092 23.3856 63.4968 23.3856 62.0149L23.3856 18.329C23.3856 16.8471 24.6026 15.6346 26.0899 15.6346L45.8462 15.6346C47.3334 15.6346 48.5509 16.8471 48.5509 18.329Z" fill="#C0D8FB"/>
<path d="M45.8462 15.6346L26.3344 64.7092L26.0899 64.7092C24.6026 64.7092 23.3856 63.4968 23.3856 62.0149L23.3856 18.329C23.3856 16.8471 24.6026 15.6346 26.0899 15.6346L45.8462 15.6346Z" fill="#CBE1FD"/>
<path d="M68.7979 42.332V60.6736C68.7979 61.916 67.7959 62.9181 66.5533 62.9181H38.0788C36.8444 62.9181 35.8341 61.916 35.8341 60.6736V42.332C35.8341 41.0974 36.8444 40.0872 38.0788 40.0872H66.5533C67.7959 40.0872 68.7979 41.0974 68.7979 42.332Z" fill="url(#paint0_linear_1293_6771)"/>
<path d="M68.8027 45.2401H35.8367V50.2261H68.8027V45.2401Z" fill="white"/>
<path d="M42.579 55.9873C42.579 56.1675 42.5058 56.3303 42.3883 56.4488C42.2698 56.5664 42.1069 56.6396 41.9267 56.6396H39.7888C39.4284 56.6396 39.1365 56.3477 39.1365 55.9873C39.1365 55.8071 39.2097 55.6443 39.3273 55.5257C39.4458 55.4082 39.6086 55.335 39.7888 55.335H41.9267C42.2871 55.335 42.579 55.6269 42.579 55.9873Z" fill="#E5E8EF"/>
<path d="M56.3533 55.9873C56.3533 56.1675 56.2801 56.3303 56.1625 56.4488C56.044 56.5664 55.8812 56.6396 55.701 56.6396H44.5313C44.171 56.6396 43.879 56.3477 43.879 55.9873C43.879 55.8071 43.9523 55.6443 44.0698 55.5257C44.1883 55.4082 44.3511 55.335 44.5313 55.335H55.701C56.0614 55.335 56.3533 55.6269 56.3533 55.9873Z" fill="#E5E8EF"/>
<path d="M50.7012 59.3877C50.7012 59.5679 50.6279 59.7307 50.5104 59.8492C50.3919 59.9668 50.229 60.04 50.0488 60.04H39.8381C39.4777 60.04 39.1858 59.748 39.1858 59.3877C39.1858 59.2075 39.259 59.0446 39.3766 58.9261C39.4951 58.8086 39.6579 58.7354 39.8381 58.7354H50.0488C50.4092 58.7354 50.7012 59.0273 50.7012 59.3877Z" fill="#E5E8EF"/>
<path d="M41.5427 38.754C41.2028 39.106 41.2122 39.6383 41.5642 39.9782L49.3092 47.456C49.6612 47.7959 50.1935 47.7866 50.5334 47.4346L57.9846 39.6901C58.3245 39.338 58.3152 38.8058 57.9631 38.4659" fill="#1F2272"/>
<path d="M46.0145 38.7019C46.0145 38.7019 46.655 28.1752 34.6048 30.2235C34.6048 30.2235 40.2398 25.173 46.3753 27.4081C48.6048 28.5403 53.1804 29.871 53.3864 38.5726L46.0145 38.7019Z" fill="#1F2272"/>
<path d="M38.6224 75.715C38.0983 75.8789 37.5291 75.6706 37.1161 75.2252L38.7655 74.7095L38.5387 73.9842L36.6976 74.5598C36.6747 74.5026 36.6539 74.4446 36.6351 74.3845C36.6165 74.3251 36.6003 74.2648 36.5868 74.2055L38.428 73.6298L38.2011 72.9043L36.5517 73.4201C36.6375 72.8187 36.9867 72.3235 37.5108 72.1596C38.0118 72.003 38.588 72.1899 39.0146 72.6471L39.573 72.1291C38.9447 71.4551 38.0677 71.189 37.2839 71.434C36.6948 71.6182 36.2288 72.0586 35.9721 72.6748C35.843 72.9847 35.7753 73.3205 35.7693 73.6647L34.9782 73.912L35.2051 74.6375L35.8575 74.4335C35.8723 74.4929 35.8891 74.5529 35.9075 74.612C35.9262 74.6717 35.9464 74.7299 35.9683 74.7878L35.3159 74.9918L35.5426 75.7172L36.3337 75.4698C36.5347 75.7493 36.7815 75.9863 37.0641 76.1673C37.6261 76.5275 38.2601 76.6245 38.8492 76.4403C39.633 76.1953 40.2022 75.477 40.3347 74.5652L39.5804 74.457C39.4905 75.0764 39.1234 75.5584 38.6224 75.715Z" fill="url(#paint1_linear_1293_6771)"/>
<path d="M68.6024 35.1391C68.1605 34.9059 67.9298 34.405 67.9524 33.8528L69.3431 34.5866L69.6658 33.975L68.1135 33.1559C68.1357 33.1044 68.1598 33.0538 68.1865 33.0031C68.2129 32.953 68.2415 32.9039 68.2711 32.8572L69.8234 33.6762L70.1462 33.0645L68.7555 32.3308C69.1986 32.0005 69.7422 31.9082 70.1841 32.1414C70.6065 32.3642 70.8554 32.8561 70.8339 33.4246L71.5264 33.4528C71.5584 32.615 71.1677 31.8782 70.5069 31.5296C70.0101 31.2675 69.427 31.2492 68.8647 31.4787C68.5819 31.5941 68.3218 31.7658 68.0958 31.9827L67.4288 31.6308L67.106 32.2424L67.6562 32.5327C67.6273 32.5803 67.5993 32.6297 67.573 32.6795C67.5465 32.7298 67.5219 32.7801 67.4986 32.8315L66.9484 32.5412L66.6257 33.1528L67.2928 33.5047C67.2412 33.8136 67.2465 34.125 67.311 34.4234C67.439 35.0172 67.783 35.4886 68.2797 35.7507C68.9405 36.0994 69.7691 36.0061 70.4427 35.5068L70.0287 34.9505C69.5713 35.2898 69.0248 35.362 68.6024 35.1391Z" fill="url(#paint2_linear_1293_6771)"/>
<path d="M24.2721 7.20098C23.7394 7.34045 23.1791 7.10507 22.7863 6.63947L24.4627 6.20055L24.2697 5.46333L22.3985 5.95325C22.3782 5.89484 22.36 5.83576 22.3441 5.77475C22.3282 5.71432 22.3149 5.65319 22.3042 5.59313L24.1754 5.1032L23.9824 4.36583L22.306 4.80475C22.4202 4.20646 22.7933 3.72682 23.326 3.58734C23.8351 3.45404 24.4036 3.66843 24.8093 4.14648L25.3931 3.65388C24.7954 2.9492 23.9294 2.64133 23.1329 2.84988C22.5341 3.00666 22.0466 3.42587 21.7604 4.03097C21.6165 4.33535 21.5329 4.66845 21.5108 5.01294L20.7067 5.22346L20.8998 5.96082L21.5629 5.78719C21.5749 5.84735 21.5889 5.90832 21.6046 5.96834C21.6205 6.02899 21.6379 6.08823 21.6572 6.14731L20.994 6.32094L21.1871 7.05816L21.9911 6.84765C22.1792 7.13707 22.4153 7.38611 22.6898 7.58068C23.2358 7.96794 23.8663 8.09499 24.4651 7.93822C25.2617 7.72966 25.8656 7.037 26.0413 6.12986L25.2909 5.98596C25.1717 6.6022 24.7812 7.06767 24.2721 7.20098Z" fill="url(#paint3_linear_1293_6771)"/>
<path d="M3.05891 48.5588C2.5217 48.4267 2.13968 47.9505 2.01591 47.3512L3.70649 47.7667L3.88922 47.0232L2.00216 46.5594C2.01224 46.4981 2.02451 46.4373 2.03963 46.3758C2.05461 46.3148 2.07211 46.2544 2.09141 46.1963L3.97851 46.6601L4.16127 45.9165L2.47067 45.501C2.85813 45.0274 3.41735 44.7826 3.95457 44.9146C4.46803 45.0408 4.86728 45.5024 4.99651 46.1189L5.748 45.9636C5.5578 45.055 4.94063 44.3683 4.13734 44.1709C3.53347 44.0225 2.9022 44.1591 2.35963 44.5564C2.08674 44.7562 1.85332 45.0103 1.66875 45.3039L0.857891 45.1046L0.675136 45.8482L1.34391 46.0125C1.32564 46.0714 1.30879 46.1319 1.29391 46.1925C1.27888 46.2536 1.26593 46.3143 1.25465 46.3757L0.585878 46.2113L0.403156 46.9548L1.21401 47.1541C1.24146 47.4998 1.3306 47.8328 1.47984 48.1361C1.77646 48.7396 2.27233 49.1538 2.8762 49.3023C3.67951 49.4997 4.54462 49.1774 5.13432 48.4605L4.54059 47.9739C4.14012 48.461 3.57237 48.685 3.05891 48.5588Z" fill="url(#paint4_linear_1293_6771)"/>
<path d="M25.7206 34.1319C29.2495 32.4012 30.6929 28.1663 28.9446 24.6729C27.1963 21.1796 22.9184 19.7506 19.3895 21.4813C15.8607 23.212 14.4173 27.447 16.1655 30.9403C17.9138 34.4337 22.1918 35.8626 25.7206 34.1319Z" fill="#FF1A5E"/>
<path d="M24.8298 32.3512C27.3653 31.1077 28.4025 28.0648 27.1463 25.5547C25.8901 23.0446 22.8163 22.0179 20.2807 23.2615C17.7452 24.505 16.708 27.5479 17.9642 30.058C19.2204 32.568 22.2942 33.5948 24.8298 32.3512Z" fill="#E5E8EF"/>
<path d="M24.812 23.2526C23.7425 23.0435 22.596 23.1676 21.5438 23.6837C19.008 24.9273 17.9723 27.9709 19.2286 30.4812C19.7499 31.5228 20.5841 32.3101 21.5629 32.7852C20.0563 32.4877 18.7005 31.5278 17.9656 30.0593C16.7093 27.549 17.745 24.5055 20.2807 23.2618C21.7643 22.5342 23.4303 22.5837 24.812 23.2526Z" fill="#CDD4DF"/>
<path d="M25.0695 26.8664L24.5718 30.4731C24.5391 30.696 24.2915 30.8175 24.0926 30.7082L20.8924 28.915C20.7781 28.8504 20.7148 28.7239 20.7322 28.5948L21.2299 24.9879C21.2615 24.7631 21.5091 24.6417 21.7091 24.7529L24.9092 26.5461C25.0235 26.6107 25.0869 26.7372 25.0695 26.8664Z" fill="#CDD4DF"/>
<path d="M24.7243 26.9431L24.2266 30.5499C24.1939 30.7728 23.9463 30.8942 23.7474 30.7849L20.5472 28.9917C20.4329 28.9271 20.3695 28.8006 20.3869 28.6715L20.8847 25.0646C20.9163 24.8398 21.1639 24.7184 21.3638 24.8296L24.564 26.6229C24.6783 26.6874 24.7417 26.8139 24.7243 26.9431Z" fill="url(#paint5_linear_1293_6771)"/>
<path d="M15.1623 24.074L16.3149 22.4523L17.0482 24.2972L18.67 25.4498L16.825 26.1831L15.6813 27.8059L14.9391 25.9599L13.3163 24.8162L15.1623 24.074Z" fill="white"/>
<path d="M67.2529 20.5727C71.8109 22.7184 77.263 20.8001 79.4305 16.2879C81.598 11.7758 79.6602 6.37855 75.1022 4.23283C70.5442 2.08711 65.0921 4.00547 62.9246 8.5176C60.7571 13.0297 62.6949 18.427 67.2529 20.5727Z" fill="#1F2272"/>
<path d="M68.3572 18.2726C71.6321 19.8143 75.5495 18.4359 77.1069 15.1939C78.6643 11.9519 77.272 8.07388 73.997 6.53215C70.722 4.99042 66.8046 6.36879 65.2472 9.61082C63.6898 12.8529 65.0822 16.7309 68.3572 18.2726Z" fill="#E5E8EF"/>
<path d="M77.5994 11.0414C76.9642 9.80949 75.9291 8.76505 74.57 8.12526C71.2947 6.58338 67.3778 7.96366 65.8202 11.2061C65.1739 12.5515 65.0344 14.0072 65.3271 15.3595C64.4353 13.6218 64.3369 11.5094 65.2481 9.61258C66.8057 6.37018 70.7226 4.98989 73.9978 6.53174C75.9141 7.43383 77.1845 9.13381 77.5994 11.0414Z" fill="#CDD4DF"/>
<path d="M74.4231 15.1855C73.9864 16.0946 72.8887 16.4808 71.9704 16.0485C71.5041 15.829 71.1719 15.4393 71.0202 14.9919C70.9551 15.618 70.9844 16.2022 71.1378 16.728C71.1833 16.8965 70.9919 17.0135 70.8556 16.9063C70.2356 16.4071 69.5397 16.0751 68.7573 15.9141C68.5872 15.8773 68.5582 15.6563 68.719 15.5851C69.2294 15.3674 69.7039 15.0247 70.1534 14.5796C69.7054 14.7489 69.1904 14.7398 68.7206 14.5186C67.8059 14.088 67.4156 13.0014 67.8524 12.0922C68.2891 11.1831 69.3868 10.797 70.3015 11.2276C70.4404 11.2929 70.5636 11.3725 70.6766 11.4645C70.5448 11.0482 70.569 10.5801 70.7738 10.1537C71.2088 9.24805 72.3065 8.86189 73.2248 9.29418C74.1396 9.72484 74.5297 10.8114 74.0947 11.7171C73.8899 12.1434 73.5383 12.4575 73.129 12.619C73.2724 12.6477 73.4126 12.6921 73.5513 12.7575C74.4696 13.1898 74.8598 14.2764 74.4231 15.1855Z" fill="#CDD4DF"/>
<path d="M74.0855 14.7325C73.6487 15.6416 72.551 16.0278 71.6328 15.5955C71.1664 15.376 70.8343 14.9863 70.6826 14.5389C70.6175 15.165 70.6467 15.7492 70.8001 16.275C70.8457 16.4435 70.6542 16.5605 70.518 16.4533C69.898 15.9541 69.2021 15.6221 68.4196 15.4611C68.2496 15.4243 68.2206 15.2033 68.3813 15.1321C68.8918 14.9144 69.3662 14.5717 69.8157 14.1266C69.3678 14.2959 68.8528 14.2868 68.3829 14.0656C67.4682 13.635 67.078 12.5484 67.5147 11.6392C67.9514 10.7301 69.0491 10.344 69.9639 10.7746C70.1027 10.8399 70.226 10.9195 70.3389 11.0115C70.2072 10.5952 70.2313 10.1271 70.4361 9.70074C70.8712 8.79505 71.9689 8.40889 72.8872 8.84118C73.802 9.27183 74.1921 10.3584 73.757 11.2641C73.5522 11.6904 73.2006 12.0045 72.7913 12.166C72.9347 12.1947 73.0749 12.2391 73.2137 12.3045C74.132 12.7368 74.5222 13.8234 74.0855 14.7325Z" fill="#1F2272"/>
<path d="M81.6544 12.5798L82.1974 14.6952L80.1311 14.0027L78.0157 14.5457L78.7082 12.4794L78.158 10.3707L80.2315 11.0565L82.3402 10.5063L81.6544 12.5798Z" fill="white"/>
<path d="M19.5314 58.9037C22.5865 60.3419 26.2408 59.0561 27.6936 56.0318C29.1464 53.0075 27.8475 49.3899 24.7925 47.9517C21.7375 46.5135 18.0831 47.7993 16.6303 50.8236C15.1775 53.8479 16.4764 57.4655 19.5314 58.9037Z" fill="#1F2272"/>
<path d="M20.2715 57.3618C22.4666 58.3951 25.0923 57.4713 26.1362 55.2983C27.18 53.1253 26.2468 50.526 24.0517 49.4926C21.8566 48.4593 19.2309 49.3831 18.1871 51.5562C17.1432 53.7292 18.0765 56.3284 20.2715 57.3618Z" fill="#E5E8EF"/>
<path d="M26.4663 52.515C26.0406 51.6893 25.3468 50.9893 24.4358 50.5604C22.2406 49.527 19.6152 50.4521 18.5712 52.6254C18.138 53.5272 18.0445 54.5028 18.2407 55.4093C17.6429 54.2445 17.577 52.8287 18.1877 51.5573C19.2317 49.3841 21.8571 48.4589 24.0523 49.4924C25.3367 50.097 26.1882 51.2364 26.4663 52.515Z" fill="#CDD4DF"/>
<path d="M24.3374 55.2925C24.0446 55.9018 23.3089 56.1607 22.6934 55.8709C22.3809 55.7238 22.1582 55.4626 22.0565 55.1627C22.0129 55.5824 22.0325 55.9739 22.1353 56.3264C22.1659 56.4393 22.0375 56.5177 21.9462 56.4459C21.5307 56.1113 21.0642 55.8887 20.5398 55.7808C20.4258 55.7562 20.4064 55.608 20.5141 55.5603C20.8562 55.4144 21.1742 55.1847 21.4755 54.8864C21.1753 54.9999 20.8301 54.9938 20.5152 54.8455C19.9021 54.5569 19.6405 53.8286 19.9333 53.2192C20.226 52.6098 20.9617 52.351 21.5748 52.6396C21.6679 52.6835 21.7505 52.7368 21.8262 52.7984C21.7379 52.5194 21.7541 52.2057 21.8914 51.9199C22.183 51.3128 22.9187 51.054 23.5342 51.3438C24.1474 51.6324 24.4088 52.3607 24.1172 52.9678C23.98 53.2535 23.7443 53.464 23.47 53.5722C23.5661 53.5915 23.66 53.6213 23.7531 53.6651C24.3685 53.9548 24.6301 54.6831 24.3374 55.2925Z" fill="#CDD4DF"/>
<path d="M24.1113 54.9895C23.8186 55.5989 23.0828 55.8577 22.4673 55.5679C22.1548 55.4208 21.9322 55.1596 21.8305 54.8598C21.7869 55.2794 21.8064 55.671 21.9093 56.0234C21.9398 56.1363 21.8115 56.2148 21.7201 56.1429C21.3046 55.8083 20.8382 55.5858 20.3137 55.4779C20.1997 55.4532 20.1803 55.305 20.288 55.2573C20.6302 55.1114 20.9482 54.8818 21.2495 54.5834C20.9492 54.6969 20.6041 54.6908 20.2891 54.5425C19.676 54.2539 19.4145 53.5256 19.7072 52.9162C19.9999 52.3069 20.7357 52.048 21.3488 52.3367C21.4418 52.3805 21.5244 52.4338 21.6001 52.4954C21.5118 52.2165 21.528 51.9027 21.6653 51.6169C21.9569 51.0099 22.6926 50.751 23.3081 51.0408C23.9213 51.3294 24.1828 52.0577 23.8912 52.6648C23.7539 52.9505 23.5182 53.161 23.2439 53.2693C23.34 53.2885 23.434 53.3183 23.527 53.3621C24.1425 53.6518 24.404 54.3802 24.1113 54.9895Z" fill="#1F2272"/>
<path d="M29.1844 53.5471L29.5484 54.965L28.1634 54.5008L26.7455 54.8648L27.2097 53.4798L26.8409 52.0664L28.2307 52.5261L29.6441 52.1573L29.1844 53.5471Z" fill="white"/>
</g>
<g clip-path="url(#clip1_1293_6771)">
<rect x="56" y="0.347656" width="24" height="24" rx="12" fill="#58C27D"/>
<path d="M62 12.3477L66 16.3477L74 8.34766" stroke="#FCFCFD" stroke-width="2" stroke-miterlimit="10" stroke-linecap="round" stroke-linejoin="round"/>
</g>
<defs>
<linearGradient id="paint0_linear_1293_6771" x1="52.316" y1="40.0872" x2="52.316" y2="62.9181" gradientUnits="userSpaceOnUse">
<stop stop-color="#FF4EA3"/>
<stop offset="1" stop-color="#B8008F"/>
</linearGradient>
<linearGradient id="paint1_linear_1293_6771" x1="36.8245" y1="71.5777" x2="38.3898" y2="76.584" gradientUnits="userSpaceOnUse">
<stop stop-color="#FFD836"/>
<stop offset="1" stop-color="#EBB11D"/>
</linearGradient>
<linearGradient id="paint2_linear_1293_6771" x1="70.1195" y1="31.3252" x2="67.8923" y2="35.5463" gradientUnits="userSpaceOnUse">
<stop stop-color="#FFD836"/>
<stop offset="1" stop-color="#EBB11D"/>
</linearGradient>
<linearGradient id="paint3_linear_1293_6771" x1="22.6659" y1="2.97214" x2="23.9981" y2="8.06048" gradientUnits="userSpaceOnUse">
<stop stop-color="#FFD836"/>
<stop offset="1" stop-color="#EBB11D"/>
</linearGradient>
<linearGradient id="paint4_linear_1293_6771" x1="3.66643" y1="44.0552" x2="2.40527" y2="49.1865" gradientUnits="userSpaceOnUse">
<stop stop-color="#FFD836"/>
<stop offset="1" stop-color="#EBB11D"/>
</linearGradient>
<linearGradient id="paint5_linear_1293_6771" x1="21.0612" y1="24.8211" x2="24.0011" y2="30.8156" gradientUnits="userSpaceOnUse">
<stop stop-color="#FF4EA3"/>
<stop offset="1" stop-color="#B8008F"/>
</linearGradient>
<clipPath id="clip0_1293_6771">
<rect y="0.347656" width="80" height="80" rx="40" fill="white"/>
</clipPath>
<clipPath id="clip1_1293_6771">
<rect x="56" y="0.347656" width="24" height="24" rx="12" fill="white"/>
</clipPath>
</defs>
</svg>
