<svg width="80" height="81" viewBox="0 0 80 81" fill="none" xmlns="http://www.w3.org/2000/svg">
<rect y="0.347656" width="80" height="80" rx="40" fill="#4B50C8"/>
<g clip-path="url(#clip0_1293_7168)">
<path opacity="0.2" d="M65 86.5998V89.0115C65 91.0559 63.4046 92.7195 61.4418 92.7195H41.2296C40.4529 92.7195 39.7274 92.9498 39.1115 93.3477L25.7414 79.4218C24.9446 78.5919 24.7893 77.3413 25.2791 76.3477C25.396 76.5856 25.5496 76.8102 25.7414 77.0101L39.1115 90.9359C39.7473 90.5246 40.4811 90.307 41.2296 90.3078H61.4418C63.4046 90.3078 65 88.6441 65 86.5998Z" fill="#2B478B"/>
<path d="M57.9051 38.2814L29.3152 66.8698L31.7932 69.3479H59.2326C60.9584 69.3479 62.3714 67.9363 62.3714 66.2105V42.7477L57.9051 38.2814Z" fill="#1F2272"/>
<path d="M51.31 10.3477H20.1373C18.4116 10.3477 17 11.7607 17 13.4865V66.2089C17 67.9347 18.4116 69.3462 20.1373 69.3462H31.7928L29.3148 66.8682L57.9047 38.2798L62.371 42.7461V21.4102L51.31 10.3477Z" fill="#1F2272"/>
<path d="M51.3099 10.3477V21.4102H62.3724L51.3099 10.3477Z" fill="#E4E5ED"/>
<path d="M62.3724 32.4727V21.4102H51.3099L62.3724 32.4727Z" fill="#1F2272"/>
<path d="M50.994 25.1319C50.994 25.5231 50.8386 25.8983 50.562 26.1749C50.2854 26.4515 49.9102 26.6069 49.519 26.6069H41.1601C40.769 26.6069 40.3938 26.4515 40.1172 26.1749C39.8405 25.8983 39.6851 25.5231 39.6851 25.1319V24.9785C39.6851 24.5873 39.8405 24.2122 40.1172 23.9356C40.3938 23.6589 40.769 23.5035 41.1601 23.5035H49.519C49.9102 23.5035 50.2854 23.6589 50.562 23.9356C50.8386 24.2122 50.994 24.5873 50.994 24.9785V25.1319ZM50.994 32.2149C50.994 32.6061 50.8386 32.9813 50.562 33.2579C50.2854 33.5345 49.9102 33.6899 49.519 33.6899H41.1601C40.769 33.6899 40.3938 33.5345 40.1172 33.2579C39.8405 32.9813 39.6851 32.6061 39.6851 32.2149V32.0615C39.6851 31.6703 39.8405 31.2951 40.1172 31.0185C40.3938 30.7419 40.769 30.5865 41.1601 30.5865H49.519C49.9102 30.5865 50.2854 30.7419 50.562 31.0185C50.8386 31.2951 50.994 31.6703 50.994 32.0615V32.2149ZM22.0205 41.9838C21.6293 41.9838 21.2542 42.1392 20.9775 42.4158C20.7009 42.6925 20.5455 43.0676 20.5455 43.4588V43.6122C20.5455 44.0034 20.7009 44.3786 20.9775 44.6552C21.2542 44.9318 21.6293 45.0872 22.0205 45.0872H51.0987L54.2021 41.9838H22.0205Z" fill="#E4E5ED"/>
<path d="M58.7743 41.9838H54.2033L51.0999 45.0872H58.7743C59.1655 45.0872 59.5407 44.9318 59.8173 44.6551C60.0939 44.3785 60.2493 44.0034 60.2493 43.6122V43.4588C60.2493 43.0676 60.0939 42.6924 59.8173 42.4158C59.5407 42.1392 59.1655 41.9838 58.7743 41.9838Z" fill="#B1B5C3"/>
<path d="M22.0205 50.6178C21.6293 50.6178 21.2542 50.7732 20.9775 51.0498C20.7009 51.3264 20.5455 51.7016 20.5455 52.0928V52.2462C20.5455 52.6374 20.7009 53.0126 20.9775 53.2892C21.2542 53.5658 21.6293 53.7212 22.0205 53.7212H42.4626L45.566 50.6178H22.0205Z" fill="#E4E5ED"/>
<path d="M58.7738 50.6178H45.5681L42.4647 53.7212H58.7753C59.1665 53.7212 59.5417 53.5658 59.8183 53.2892C60.0949 53.0126 60.2503 52.6374 60.2503 52.2462V52.0928C60.2488 51.2786 59.588 50.6178 58.7738 50.6178Z" fill="#B1B5C3"/>
<path d="M22.0205 59.2529C21.6293 59.2529 21.2542 59.4083 20.9775 59.6849C20.7009 59.9616 20.5455 60.3367 20.5455 60.7279V60.8813C20.5455 61.2725 20.7009 61.6477 20.9775 61.9243C21.2542 62.2009 21.6293 62.3563 22.0205 62.3563H33.8279L36.9313 59.2529H22.0205Z" fill="#E4E5ED"/>
<path d="M58.7737 59.2529H36.9319L33.8285 62.3563H58.7737C59.1649 62.3563 59.5401 62.2009 59.8167 61.9243C60.0933 61.6477 60.2487 61.2725 60.2487 60.8813V60.7279C60.2487 60.3367 60.0933 59.9616 59.8167 59.6849C59.5401 59.4083 59.1649 59.2529 58.7737 59.2529Z" fill="#B1B5C3"/>
<path d="M34.6801 16.6367H34.447C34.5326 16.7237 34.6004 16.827 34.6801 16.9199V16.6367ZM25.8301 16.6367V16.9199C25.9112 16.827 25.9776 16.7237 26.0631 16.6367H25.8301ZM30.2551 26.6844C29.4148 26.6824 28.5848 26.4997 27.8213 26.1487C27.0579 25.7978 26.3788 25.2868 25.8301 24.6504V34.3367L30.2551 29.9117L34.6801 34.3367V24.6504C34.1311 25.2865 33.452 25.7973 32.6886 26.1482C31.9252 26.4991 31.0953 26.682 30.2551 26.6844Z" fill="#EA3790"/>
<path d="M30.2551 26.6844C31.0953 26.6824 31.9254 26.4997 32.6888 26.1487C33.4523 25.7978 34.1314 25.2868 34.6801 24.6504V16.9199C34.599 16.827 34.5326 16.7237 34.447 16.6367H26.0631C25.9776 16.7237 25.9097 16.8285 25.8301 16.9199V24.6504C26.3788 25.2868 27.0579 25.7978 27.8213 26.1487C28.5848 26.4997 29.4148 26.6824 30.2551 26.6844Z" fill="#EA3790"/>
<path d="M30.2555 14.8852C33.3087 14.8852 35.7912 17.2142 36.095 20.1864C36.1157 19.9872 36.1555 19.7925 36.1555 19.5875C36.1555 18.0227 35.5339 16.522 34.4274 15.4156C33.3209 14.3091 31.8203 13.6875 30.2555 13.6875C28.6907 13.6875 27.19 14.3091 26.0835 15.4156C24.9771 16.522 24.3555 18.0227 24.3555 19.5875C24.3555 19.7925 24.3953 19.9872 24.4159 20.1864C24.7198 17.2142 27.2022 14.8852 30.2555 14.8852Z" fill="white"/>
<path d="M30.2536 25.4871C33.3068 25.4871 35.7893 23.1595 36.0931 20.1859C35.7893 17.2138 33.3068 14.8848 30.2536 14.8848C27.2003 14.8848 24.7179 17.2138 24.4141 20.1859C24.7179 23.158 27.2003 25.4871 30.2536 25.4871Z" fill="white"/>
<path d="M25.3672 19.5871C25.3672 20.2286 25.4935 20.8639 25.7391 21.4566C25.9846 22.0493 26.3444 22.5878 26.798 23.0414C27.2517 23.4951 27.7902 23.8549 28.3829 24.1004C28.9756 24.3459 29.6109 24.4723 30.2524 24.4723C30.8939 24.4723 31.5292 24.3459 32.1219 24.1004C32.7146 23.8549 33.2531 23.4951 33.7068 23.0414C34.1604 22.5878 34.5202 22.0493 34.7657 21.4566C35.0112 20.8639 35.1376 20.2286 35.1376 19.5871C35.1362 18.8267 34.9565 18.0773 34.613 17.399C34.2695 16.7207 33.7717 16.1324 33.1596 15.6813C32.2764 15.166 31.2734 14.8914 30.2509 14.8848C29.1874 14.8848 28.2036 15.1886 27.3422 15.6813C26.7309 16.1329 26.2339 16.7214 25.8909 17.3997C25.548 18.0779 25.3686 18.827 25.3672 19.5871Z" fill="#EA3790"/>
<path d="M33.2206 26.132C36.7495 24.4013 38.1929 20.1663 36.4446 16.673C34.6963 13.1796 30.4184 11.7507 26.8895 13.4814C23.3607 15.2121 21.9173 19.447 23.6655 22.9404C25.4138 26.4337 29.6918 27.8627 33.2206 26.132Z" fill="#FF1A5E"/>
<path d="M32.3298 24.3513C34.8653 23.1077 35.9025 20.0648 34.6463 17.5548C33.3901 15.0447 30.3163 14.018 27.7807 15.2615C25.2452 16.5051 24.208 19.548 25.4642 22.058C26.7204 24.5681 29.7942 25.5948 32.3298 24.3513Z" fill="#E5E8EF"/>
<path d="M32.312 15.2526C31.2425 15.0436 30.096 15.1677 29.0438 15.6837C26.508 16.9274 25.4723 19.9709 26.7286 22.4812C27.2499 23.5229 28.0841 24.3102 29.0629 24.7853C27.5563 24.4878 26.2005 23.5279 25.4656 22.0594C24.2093 19.549 25.245 16.5055 27.7807 15.2619C29.2643 14.5343 30.9303 14.5837 32.312 15.2526Z" fill="#CDD4DF"/>
<path d="M32.5695 18.8664L32.0718 22.4732C32.0391 22.6961 31.7915 22.8175 31.5926 22.7082L28.3924 20.9151C28.2781 20.8505 28.2148 20.7239 28.2322 20.5948L28.7299 16.988C28.7615 16.7631 29.0091 16.6417 29.2091 16.7529L32.4092 18.5462C32.5235 18.6107 32.5869 18.7372 32.5695 18.8664Z" fill="#CDD4DF"/>
<path d="M32.2243 18.9432L31.7266 22.55C31.6939 22.7729 31.4463 22.8943 31.2474 22.785L28.0472 20.9918C27.9329 20.9272 27.8695 20.8007 27.8869 20.6716L28.3847 17.0647C28.4163 16.8399 28.6639 16.7185 28.8638 16.8297L32.064 18.623C32.1783 18.6875 32.2417 18.814 32.2243 18.9432Z" fill="url(#paint0_linear_1293_7168)"/>
<path d="M22.6623 16.074L23.8149 14.4522L24.5482 16.2972L26.17 17.4498L24.325 18.183L23.1813 19.8059L22.4391 17.9598L20.8163 16.8162L22.6623 16.074Z" fill="white"/>
</g>
<g clip-path="url(#clip1_1293_7168)">
<rect x="56" y="0.347656" width="24" height="24" rx="12" fill="#58C27D"/>
<path d="M62 12.3477L66 16.3477L74 8.34766" stroke="#FCFCFD" stroke-width="2" stroke-miterlimit="10" stroke-linecap="round" stroke-linejoin="round"/>
</g>
<defs>
<linearGradient id="paint0_linear_1293_7168" x1="28.5612" y1="16.8212" x2="31.5011" y2="22.8157" gradientUnits="userSpaceOnUse">
<stop stop-color="#FF4EA3"/>
<stop offset="1" stop-color="#B8008F"/>
</linearGradient>
<clipPath id="clip0_1293_7168">
<rect y="0.347656" width="80" height="80" rx="40" fill="white"/>
</clipPath>
<clipPath id="clip1_1293_7168">
<rect x="56" y="0.347656" width="24" height="24" rx="12" fill="white"/>
</clipPath>
</defs>
</svg>
