<svg width="148" height="150" viewBox="0 0 148 150" fill="none" xmlns="http://www.w3.org/2000/svg">
<path opacity="0.2" d="M24.95 90.04L75.93 119.93L126.89 89.93L75.81 60.2L24.95 90.04Z" fill="black"/>
<path d="M74.84 53.14V117.87L120.1 91.67V26.54L74.84 53.14Z" fill="url(#paint0_linear_2175_31234)"/>
<path d="M74.9 53.14V117.87L29.41 91.59V26.46L74.9 53.14Z" fill="url(#paint1_linear_2175_31234)"/>
<path d="M29.41 26.46L74.9 53.14L120.1 26.54L74.51 0L29.41 26.46Z" fill="url(#paint2_linear_2175_31234)"/>
<path d="M93.88 42.08V106.8L102.2 102.25V37.13L93.88 42.08Z" fill="url(#paint3_linear_2175_31234)"/>
<path d="M48.08 15.26L93.94 42.08L102.2 37.13L56.2401 10.45L48.08 15.26Z" fill="url(#paint4_linear_2175_31234)"/>
<path d="M55.89 42.21V106.93L47.82 102.5V37.38L55.89 42.21Z" fill="url(#paint5_linear_2175_31234)"/>
<path d="M101.32 15.53L55.83 42.21L47.82 37.38L93.41 10.84L101.32 15.53Z" fill="url(#paint6_linear_2175_31234)"/>
<path d="M81.25 27.25L73.9 23.02C73.9 23.02 81.3 12.56 88.18 9.24998C92.31 7.25998 97.06 9.77999 98.55 12.86C99.44 14.71 97.4 17.84 95.09 19.24C88.93 22.97 81.25 27.25 81.25 27.25Z" fill="url(#paint7_linear_2175_31234)"/>
<path d="M95.13 13.6C96.26 13.06 97.43 12.86 98.57 12.91C97.11 9.81 92.33 7.26 88.18 9.25C81.3 12.56 73.9 23.02 73.9 23.02L81.03 27.13C82.14 25.6 88.85 16.63 95.13 13.6Z" fill="url(#paint8_linear_2175_31234)"/>
<path style="mix-blend-mode:color-dodge" d="M98.34 12.48C97.21 12.43 96.04 12.63 94.92 13.17C88.63 16.2 81.03 27.12 81.03 27.12C82.14 25.59 88.85 16.62 95.13 13.59C96.26 13.05 97.43 12.85 98.57 12.9C98.5 12.76 98.42 12.62 98.34 12.48Z" fill="url(#paint9_radial_2175_31234)"/>
<path d="M68.54 27.57L75.89 23.34C75.89 23.34 68.4901 12.88 61.6101 9.56999C57.4801 7.57999 52.7301 10.1 51.2401 13.18C50.3501 15.03 52.39 18.16 54.7 19.56C60.86 23.29 68.54 27.57 68.54 27.57Z" fill="url(#paint10_linear_2175_31234)"/>
<path d="M54.66 13.91C53.53 13.37 52.36 13.17 51.22 13.22C52.68 10.12 57.46 7.56999 61.61 9.55999C68.49 12.87 75.89 23.33 75.89 23.33L68.76 27.44C67.65 25.91 60.94 16.94 54.66 13.91Z" fill="url(#paint11_linear_2175_31234)"/>
<path style="mix-blend-mode:color-dodge" d="M51.45 12.8C52.58 12.75 53.75 12.95 54.87 13.49C61.16 16.52 68.76 27.44 68.76 27.44C67.65 25.91 60.94 16.94 54.66 13.91C53.53 13.37 52.36 13.17 51.22 13.22C51.29 13.08 51.37 12.94 51.45 12.8Z" fill="url(#paint12_radial_2175_31234)"/>
<path d="M79.53 25.7C79.53 25.7 85.56 24.51 90.38 25.87C96.53 27.61 100.59 33.58 97.54 35.96C94.49 38.33 91.35 40.54 88 38.71C84.65 36.89 72.79 30.06 72.79 30.06L79.53 25.69V25.7Z" fill="url(#paint13_linear_2175_31234)"/>
<path d="M83.98 30.06C79.16 28.7 73.13 29.89 73.13 29.89L72.83 30.08L72.79 30.06L79.53 25.69C79.53 25.69 85.56 24.5 90.38 25.86C96.53 27.6 100.59 33.57 97.54 35.95C95.7 37.38 93.83 38.74 91.9 39.21C93.23 36.47 89.43 31.6 83.98 30.06Z" fill="url(#paint14_linear_2175_31234)"/>
<path style="mix-blend-mode:color-dodge" d="M73.38 29.81L73.42 29.83C73.42 29.83 79.75 28.44 84.57 29.81C90.02 31.35 93.8201 36.22 92.4901 38.96C92.8301 38.88 92.43 39.09 91.9 39.21C93.23 36.47 89.43 31.6 83.98 30.06C79.16 28.7 73.13 29.89 73.13 29.89L72.83 30.08L72.79 30.06L73.38 29.81Z" fill="url(#paint15_radial_2175_31234)"/>
<path d="M78.98 25.95L77.01 24.27C75.85 23.28 74.14 23.31 73.01 24.34L70.92 26.26L74.73 29.02L78.98 25.96V25.95Z" fill="url(#paint16_linear_2175_31234)"/>
<path d="M69.76 25.7C69.76 25.7 63.73 24.51 58.91 25.87C52.76 27.61 48.7 33.58 51.75 35.96C54.8 38.33 57.94 40.54 61.29 38.71C64.64 36.89 76.5 30.06 76.5 30.06L69.76 25.69V25.7Z" fill="url(#paint17_linear_2175_31234)"/>
<path d="M65.31 30.06C70.13 28.7 76.16 29.89 76.16 29.89L76.46 30.08L76.5 30.06L69.76 25.69C69.76 25.69 63.73 24.5 58.91 25.86C52.76 27.6 48.7 33.57 51.75 35.95C53.59 37.38 55.46 38.74 57.39 39.21C56.06 36.47 59.86 31.6 65.31 30.06Z" fill="url(#paint18_linear_2175_31234)"/>
<path style="mix-blend-mode:color-dodge" d="M75.9101 29.81L75.87 29.83C75.87 29.83 69.5401 28.44 64.72 29.81C59.2701 31.35 55.4701 36.22 56.8001 38.96C56.4601 38.88 56.86 39.09 57.39 39.21C56.06 36.47 59.86 31.6 65.31 30.06C70.13 28.7 76.1601 29.89 76.1601 29.89L76.46 30.08L76.5 30.06L75.9101 29.81Z" fill="url(#paint19_radial_2175_31234)"/>
<path opacity="0.2" d="M0 120.28L41.14 144.41L82.29 120.2L41.05 96.19L0 120.28Z" fill="black"/>
<path d="M40.27 108.72V142.76L76.8 121.6V87.24L40.27 108.72Z" fill="url(#paint20_linear_2175_31234)"/>
<path d="M40.31 108.72V142.76L3.59003 121.54V87.18L40.31 108.72Z" fill="url(#paint21_linear_2175_31234)"/>
<path d="M3.59003 87.18L40.31 108.72L76.8 87.24L40 65.82L3.59003 87.18Z" fill="url(#paint22_linear_2175_31234)"/>
<path d="M55.64 99.79V133.82L62.36 130.14V95.79L55.64 99.79Z" fill="url(#paint23_linear_2175_31234)"/>
<path d="M18.66 78.14L55.69 99.79L62.36 95.79L25.25 74.25L18.66 78.14Z" fill="url(#paint24_linear_2175_31234)"/>
<path d="M24.97 99.9V133.92L18.46 130.34V96L24.97 99.9Z" fill="url(#paint25_linear_2175_31234)"/>
<path d="M61.65 78.36L24.92 99.9L18.46 96L55.26 74.57L61.65 78.36Z" fill="url(#paint26_linear_2175_31234)"/>
<path d="M45.44 87.82L39.51 84.4C39.51 84.4 45.49 75.96 51.04 73.28C54.37 71.68 58.21 73.71 59.41 76.19C60.13 77.68 58.48 80.21 56.62 81.34C51.65 84.35 45.44 87.81 45.44 87.81V87.82Z" fill="url(#paint27_linear_2175_31234)"/>
<path d="M56.65 76.8C57.56 76.36 58.5 76.2 59.42 76.24C58.24 73.74 54.38 71.68 51.03 73.29C45.48 75.96 39.5 84.41 39.5 84.41L45.25 87.72C46.15 86.49 51.56 79.24 56.64 76.8H56.65Z" fill="url(#paint28_linear_2175_31234)"/>
<path style="mix-blend-mode:color-dodge" d="M59.2401 75.9C58.3201 75.86 57.38 76.02 56.48 76.46C51.4 78.9 45.26 87.72 45.26 87.72C46.16 86.49 51.57 79.24 56.65 76.8C57.56 76.36 58.5 76.2 59.42 76.24C59.37 76.12 59.3 76.01 59.23 75.9H59.2401Z" fill="url(#paint29_radial_2175_31234)"/>
<path d="M35.19 88.08L41.12 84.66C41.12 84.66 35.14 76.22 29.59 73.54C26.26 71.94 22.42 73.97 21.22 76.45C20.5 77.94 22.15 80.47 24.01 81.6C28.98 84.61 35.19 88.07 35.19 88.07V88.08Z" fill="url(#paint30_linear_2175_31234)"/>
<path d="M23.98 77.05C23.07 76.61 22.13 76.45 21.21 76.49C22.39 73.99 26.25 71.93 29.6 73.54C35.15 76.21 41.13 84.66 41.13 84.66L35.38 87.97C34.48 86.74 29.0701 79.49 23.9901 77.05H23.98Z" fill="url(#paint31_linear_2175_31234)"/>
<path style="mix-blend-mode:color-dodge" d="M21.39 76.15C22.31 76.11 23.25 76.27 24.15 76.71C29.23 79.15 35.37 87.97 35.37 87.97C34.47 86.74 29.06 79.49 23.98 77.05C23.07 76.61 22.13 76.45 21.21 76.49C21.26 76.37 21.33 76.26 21.4 76.15H21.39Z" fill="url(#paint32_radial_2175_31234)"/>
<path d="M44.05 86.56C44.05 86.56 48.92 85.6 52.81 86.7C57.77 88.1 61.06 92.93 58.59 94.84C56.12 96.75 53.59 98.54 50.89 97.06C48.19 95.59 38.61 90.08 38.61 90.08L44.05 86.56Z" fill="url(#paint33_linear_2175_31234)"/>
<path d="M47.64 90.09C43.75 88.99 38.88 89.95 38.88 89.95L38.64 90.11L38.61 90.09L44.05 86.57C44.05 86.57 48.92 85.61 52.81 86.71C57.77 88.11 61.06 92.94 58.59 94.85C57.1 96.01 55.59 97.11 54.04 97.48C55.12 95.27 52.04 91.34 47.65 90.1L47.64 90.09Z" fill="url(#paint34_linear_2175_31234)"/>
<path style="mix-blend-mode:color-dodge" d="M39.09 89.88L39.12 89.9C39.12 89.9 44.23 88.78 48.12 89.88C52.52 91.12 55.59 95.05 54.51 97.26C54.78 97.2 54.46 97.36 54.03 97.47C55.11 95.26 52.03 91.33 47.64 90.09C43.75 88.99 38.88 89.95 38.88 89.95L38.64 90.11L38.61 90.09L39.09 89.88Z" fill="url(#paint35_radial_2175_31234)"/>
<path d="M43.61 86.77L42.02 85.41C41.08 84.61 39.7 84.63 38.79 85.47L37.1 87.02L40.18 89.24L43.61 86.77Z" fill="url(#paint36_linear_2175_31234)"/>
<path d="M36.1701 86.56C36.1701 86.56 31.3 85.6 27.41 86.7C22.45 88.1 19.16 92.93 21.63 94.84C24.1 96.75 26.63 98.54 29.33 97.06C32.03 95.59 41.6101 90.08 41.6101 90.08L36.1701 86.56Z" fill="url(#paint37_linear_2175_31234)"/>
<path d="M32.58 90.09C36.47 88.99 41.34 89.95 41.34 89.95L41.58 90.11L41.6101 90.09L36.1701 86.57C36.1701 86.57 31.3 85.61 27.41 86.71C22.45 88.11 19.16 92.94 21.63 94.85C23.12 96.01 24.63 97.11 26.18 97.48C25.11 95.27 28.18 91.34 32.57 90.1L32.58 90.09Z" fill="url(#paint38_linear_2175_31234)"/>
<path style="mix-blend-mode:color-dodge" d="M41.13 89.88L41.1 89.9C41.1 89.9 35.99 88.78 32.1 89.88C27.7 91.12 24.63 95.05 25.71 97.26C25.44 97.2 25.76 97.36 26.19 97.47C25.12 95.26 28.19 91.33 32.58 90.09C36.47 88.99 41.34 89.95 41.34 89.95L41.58 90.11L41.61 90.09L41.13 89.88Z" fill="url(#paint39_radial_2175_31234)"/>
<path opacity="0.2" d="M70.11 127.22L108.96 150L147.8 127.14L108.87 104.48L70.11 127.22Z" fill="black"/>
<path d="M108.13 127.35V148.43L142.62 128.46V107.08L108.13 127.35Z" fill="url(#paint40_linear_2175_31234)"/>
<path d="M108.17 127.35V148.43L73.5 128.41V107.02L108.17 127.35Z" fill="url(#paint41_linear_2175_31234)"/>
<path d="M73.5 107.02L108.17 127.35L142.62 107.08L107.87 86.85L73.5 107.02Z" fill="url(#paint42_linear_2175_31234)"/>
<path d="M122.64 118.92V140L128.98 136.52V115.15L122.64 118.92Z" fill="url(#paint43_linear_2175_31234)"/>
<path d="M87.73 98.4799L122.69 118.92L128.98 115.15L93.95 94.8099L87.73 98.4799Z" fill="url(#paint44_linear_2175_31234)"/>
<path d="M93.69 119.02V140.09L87.54 136.71V115.34L93.69 119.02Z" fill="url(#paint45_linear_2175_31234)"/>
<path d="M128.31 98.69L93.64 119.02L87.54 115.34L122.28 95.11L128.31 98.69Z" fill="url(#paint46_linear_2175_31234)"/>
<path d="M113.01 107.62L107.41 104.4C107.41 104.4 113.05 96.43 118.29 93.9C121.44 92.39 125.06 94.31 126.19 96.65C126.87 98.06 125.31 100.45 123.55 101.51C118.86 104.35 113 107.61 113 107.61L113.01 107.62Z" fill="url(#paint47_linear_2175_31234)"/>
<path d="M123.59 97.22C124.45 96.81 125.34 96.65 126.21 96.69C125.1 94.33 121.45 92.38 118.29 93.9C113.05 96.42 107.41 104.4 107.41 104.4L112.84 107.53C113.69 106.37 118.8 99.53 123.59 97.22Z" fill="url(#paint48_linear_2175_31234)"/>
<path style="mix-blend-mode:color-dodge" d="M126.04 96.37C125.18 96.34 124.29 96.49 123.43 96.9C118.64 99.21 112.84 107.53 112.84 107.53C113.69 106.37 118.8 99.53 123.59 97.22C124.45 96.81 125.34 96.65 126.21 96.69C126.16 96.58 126.1 96.47 126.03 96.37H126.04Z" fill="url(#paint49_radial_2175_31234)"/>
<path d="M103.33 107.86L108.93 104.64C108.93 104.64 103.29 96.67 98.05 94.14C94.9 92.63 91.28 94.55 90.15 96.89C89.47 98.3 91.03 100.69 92.79 101.75C97.48 104.59 103.34 107.85 103.34 107.85L103.33 107.86Z" fill="url(#paint50_linear_2175_31234)"/>
<path d="M92.75 97.46C91.89 97.05 91 96.89 90.13 96.93C91.24 94.57 94.89 92.62 98.05 94.14C103.29 96.66 108.93 104.64 108.93 104.64L103.5 107.77C102.65 106.61 97.54 99.77 92.75 97.46Z" fill="url(#paint51_linear_2175_31234)"/>
<path style="mix-blend-mode:color-dodge" d="M90.3 96.6C91.16 96.57 92.05 96.72 92.91 97.13C97.7 99.44 103.5 107.76 103.5 107.76C102.65 106.6 97.54 99.76 92.75 97.45C91.89 97.04 91 96.88 90.13 96.92C90.18 96.81 90.24 96.7 90.31 96.6H90.3Z" fill="url(#paint52_radial_2175_31234)"/>
<path d="M111.7 106.43C111.7 106.43 116.3 105.52 119.97 106.56C124.65 107.88 127.75 112.44 125.43 114.25C123.1 116.06 120.71 117.74 118.16 116.35C115.61 114.96 106.56 109.76 106.56 109.76L111.7 106.43Z" fill="url(#paint53_linear_2175_31234)"/>
<path d="M115.09 109.76C111.42 108.72 106.82 109.63 106.82 109.63L106.59 109.78L106.56 109.76L111.7 106.43C111.7 106.43 116.3 105.52 119.97 106.56C124.65 107.88 127.75 112.44 125.43 114.25C124.03 115.34 122.6 116.38 121.13 116.73C122.14 114.64 119.25 110.93 115.09 109.76Z" fill="url(#paint54_linear_2175_31234)"/>
<path style="mix-blend-mode:color-dodge" d="M107.02 109.57L107.05 109.59C107.05 109.59 111.87 108.53 115.55 109.57C119.7 110.74 122.6 114.45 121.59 116.54C121.85 116.48 121.55 116.64 121.14 116.73C122.15 114.64 119.26 110.93 115.1 109.76C111.43 108.72 106.83 109.63 106.83 109.63L106.6 109.78L106.57 109.76L107.02 109.57Z" fill="url(#paint55_radial_2175_31234)"/>
<path d="M111.29 106.63L109.79 105.35C108.91 104.59 107.6 104.62 106.74 105.4L105.14 106.86L108.04 108.96L111.28 106.63H111.29Z" fill="url(#paint56_linear_2175_31234)"/>
<path d="M104.26 106.43C104.26 106.43 99.66 105.52 95.99 106.56C91.31 107.88 88.21 112.44 90.53 114.25C92.86 116.06 95.25 117.74 97.8 116.35C100.35 114.96 109.39 109.76 109.39 109.76L104.25 106.43H104.26Z" fill="url(#paint57_linear_2175_31234)"/>
<path d="M100.87 109.76C104.54 108.72 109.14 109.63 109.14 109.63L109.37 109.78L109.4 109.76L104.26 106.43C104.26 106.43 99.66 105.52 95.99 106.56C91.31 107.88 88.21 112.44 90.53 114.25C91.93 115.34 93.36 116.38 94.83 116.73C93.82 114.64 96.71 110.93 100.87 109.76Z" fill="url(#paint58_linear_2175_31234)"/>
<path style="mix-blend-mode:color-dodge" d="M108.94 109.57L108.91 109.59C108.91 109.59 104.09 108.53 100.41 109.57C96.26 110.74 93.36 114.45 94.37 116.54C94.11 116.48 94.41 116.64 94.82 116.73C93.81 114.64 96.7 110.93 100.86 109.76C104.53 108.72 109.13 109.63 109.13 109.63L109.36 109.78L109.39 109.76L108.94 109.57Z" fill="url(#paint59_radial_2175_31234)"/>
<defs>
<linearGradient id="paint0_linear_2175_31234" x1="87.75" y1="75.12" x2="215.62" y2="36.83" gradientUnits="userSpaceOnUse">
<stop offset="0.04" stop-color="#9F19AB"/>
<stop offset="0.24" stop-color="#AE24B0"/>
<stop offset="0.65" stop-color="#D643BF"/>
<stop offset="1" stop-color="#FF63CE"/>
</linearGradient>
<linearGradient id="paint1_linear_2175_31234" x1="-30.43" y1="90.68" x2="138.31" y2="52.86" gradientUnits="userSpaceOnUse">
<stop offset="0.04" stop-color="#9F19AB"/>
<stop offset="0.24" stop-color="#AE24B0"/>
<stop offset="0.65" stop-color="#D643BF"/>
<stop offset="1" stop-color="#FF63CE"/>
</linearGradient>
<linearGradient id="paint2_linear_2175_31234" x1="122.07" y1="-63.67" x2="71.13" y2="33.41" gradientUnits="userSpaceOnUse">
<stop offset="0.04" stop-color="#9F19AB"/>
<stop offset="0.24" stop-color="#AE24B0"/>
<stop offset="0.65" stop-color="#D643BF"/>
<stop offset="1" stop-color="#FF63CE"/>
</linearGradient>
<linearGradient id="paint3_linear_2175_31234" x1="94.14" y1="73.14" x2="145.53" y2="57.75" gradientUnits="userSpaceOnUse">
<stop offset="0.04" stop-color="#138BBD"/>
<stop offset="0.23" stop-color="#169AC6"/>
<stop offset="0.59" stop-color="#1EC2DF"/>
<stop offset="1" stop-color="#2AF6FF"/>
</linearGradient>
<linearGradient id="paint4_linear_2175_31234" x1="85.09" y1="7.23001" x2="73.68" y2="28.97" gradientUnits="userSpaceOnUse">
<stop offset="0.04" stop-color="#138BBD"/>
<stop offset="0.23" stop-color="#169AC6"/>
<stop offset="0.59" stop-color="#1EC2DF"/>
<stop offset="1" stop-color="#2AF6FF"/>
</linearGradient>
<linearGradient id="paint5_linear_2175_31234" x1="87.94" y1="80.24" x2="14.17" y2="63.71" gradientUnits="userSpaceOnUse">
<stop offset="0.04" stop-color="#138BBD"/>
<stop offset="0.23" stop-color="#169AC6"/>
<stop offset="0.59" stop-color="#1EC2DF"/>
<stop offset="1" stop-color="#2AF6FF"/>
</linearGradient>
<linearGradient id="paint6_linear_2175_31234" x1="64.8" y1="7.82003" x2="76" y2="29.18" gradientUnits="userSpaceOnUse">
<stop offset="0.04" stop-color="#138BBD"/>
<stop offset="0.23" stop-color="#169AC6"/>
<stop offset="0.59" stop-color="#1EC2DF"/>
<stop offset="1" stop-color="#2AF6FF"/>
</linearGradient>
<linearGradient id="paint7_linear_2175_31234" x1="84.28" y1="15.53" x2="95.72" y2="28.76" gradientUnits="userSpaceOnUse">
<stop offset="0.04" stop-color="#138BBD"/>
<stop offset="0.23" stop-color="#169AC6"/>
<stop offset="0.59" stop-color="#1EC2DF"/>
<stop offset="1" stop-color="#2AF6FF"/>
</linearGradient>
<linearGradient id="paint8_linear_2175_31234" x1="80.02" y1="26.41" x2="95.95" y2="4.76001" gradientUnits="userSpaceOnUse">
<stop offset="0.04" stop-color="#1BB0D4"/>
<stop offset="0.2" stop-color="#1EBFDD"/>
<stop offset="0.53" stop-color="#26E7F6"/>
<stop offset="0.63" stop-color="#2AF6FF"/>
<stop offset="0.87" stop-color="#1BB0D4"/>
</linearGradient>
<radialGradient id="paint9_radial_2175_31234" cx="0" cy="0" r="1" gradientUnits="userSpaceOnUse" gradientTransform="translate(96.419 15.4003) scale(8.15759 8.1576)">
<stop stop-color="white"/>
<stop offset="1"/>
</radialGradient>
<linearGradient id="paint10_linear_2175_31234" x1="65.51" y1="15.85" x2="54.07" y2="29.07" gradientUnits="userSpaceOnUse">
<stop offset="0.04" stop-color="#138BBD"/>
<stop offset="0.23" stop-color="#169AC6"/>
<stop offset="0.59" stop-color="#1EC2DF"/>
<stop offset="1" stop-color="#2AF6FF"/>
</linearGradient>
<linearGradient id="paint11_linear_2175_31234" x1="69.78" y1="26.72" x2="53.84" y2="5.08" gradientUnits="userSpaceOnUse">
<stop offset="0.04" stop-color="#1BB0D4"/>
<stop offset="0.2" stop-color="#1EBFDD"/>
<stop offset="0.53" stop-color="#26E7F6"/>
<stop offset="0.63" stop-color="#2AF6FF"/>
<stop offset="0.87" stop-color="#1BB0D4"/>
</linearGradient>
<radialGradient id="paint12_radial_2175_31234" cx="0" cy="0" r="1" gradientUnits="userSpaceOnUse" gradientTransform="translate(25.6823 15.7072) rotate(180) scale(8.15759 8.1576)">
<stop stop-color="white"/>
<stop offset="1"/>
</radialGradient>
<linearGradient id="paint13_linear_2175_31234" x1="86.88" y1="26.06" x2="84" y2="40.63" gradientUnits="userSpaceOnUse">
<stop offset="0.04" stop-color="#138BBD"/>
<stop offset="0.23" stop-color="#169AC6"/>
<stop offset="0.59" stop-color="#1EC2DF"/>
<stop offset="1" stop-color="#2AF6FF"/>
</linearGradient>
<linearGradient id="paint14_linear_2175_31234" x1="81.44" y1="24.97" x2="91.48" y2="39.75" gradientUnits="userSpaceOnUse">
<stop offset="0.04" stop-color="#1BB0D4"/>
<stop offset="0.2" stop-color="#1EBFDD"/>
<stop offset="0.53" stop-color="#26E7F6"/>
<stop offset="0.63" stop-color="#2AF6FF"/>
<stop offset="0.87" stop-color="#1BB0D4"/>
</linearGradient>
<radialGradient id="paint15_radial_2175_31234" cx="0" cy="0" r="1" gradientUnits="userSpaceOnUse" gradientTransform="translate(55.9267 32.3788) rotate(180) scale(7.9299 7.9299)">
<stop stop-color="white"/>
<stop offset="1"/>
</radialGradient>
<linearGradient id="paint16_linear_2175_31234" x1="74.95" y1="31.64" x2="74.95" y2="23.73" gradientUnits="userSpaceOnUse">
<stop offset="0.04" stop-color="#138BBD"/>
<stop offset="0.23" stop-color="#169AC6"/>
<stop offset="0.59" stop-color="#1EC2DF"/>
<stop offset="1" stop-color="#2AF6FF"/>
</linearGradient>
<linearGradient id="paint17_linear_2175_31234" x1="62.42" y1="26.06" x2="65.3" y2="40.63" gradientUnits="userSpaceOnUse">
<stop offset="0.04" stop-color="#138BBD"/>
<stop offset="0.23" stop-color="#169AC6"/>
<stop offset="0.59" stop-color="#1EC2DF"/>
<stop offset="1" stop-color="#2AF6FF"/>
</linearGradient>
<linearGradient id="paint18_linear_2175_31234" x1="67.86" y1="24.97" x2="57.82" y2="39.75" gradientUnits="userSpaceOnUse">
<stop offset="0.04" stop-color="#1BB0D4"/>
<stop offset="0.2" stop-color="#1EBFDD"/>
<stop offset="0.53" stop-color="#26E7F6"/>
<stop offset="0.63" stop-color="#2AF6FF"/>
<stop offset="0.87" stop-color="#1BB0D4"/>
</linearGradient>
<radialGradient id="paint19_radial_2175_31234" cx="0" cy="0" r="1" gradientUnits="userSpaceOnUse" gradientTransform="translate(65.6795 32.3788) scale(7.92988 7.9299)">
<stop stop-color="white"/>
<stop offset="1"/>
</radialGradient>
<linearGradient id="paint20_linear_2175_31234" x1="51.42" y1="117.13" x2="145.04" y2="89.1" gradientUnits="userSpaceOnUse">
<stop offset="0.04" stop-color="#6B24D6"/>
<stop offset="0.29" stop-color="#7733DC"/>
<stop offset="0.79" stop-color="#965BEC"/>
<stop offset="1" stop-color="#A56EF4"/>
</linearGradient>
<linearGradient id="paint21_linear_2175_31234" x1="-38.4799" y1="128.52" x2="85" y2="100.84" gradientUnits="userSpaceOnUse">
<stop offset="0.04" stop-color="#6B24D6"/>
<stop offset="0.29" stop-color="#7733DC"/>
<stop offset="0.79" stop-color="#965BEC"/>
<stop offset="1" stop-color="#A56EF4"/>
</linearGradient>
<linearGradient id="paint22_linear_2175_31234" x1="78.39" y1="14.42" x2="37.2701" y2="92.79" gradientUnits="userSpaceOnUse">
<stop offset="0.04" stop-color="#6B24D6"/>
<stop offset="0.29" stop-color="#7733DC"/>
<stop offset="0.79" stop-color="#965BEC"/>
<stop offset="1" stop-color="#A56EF4"/>
</linearGradient>
<linearGradient id="paint23_linear_2175_31234" x1="56.58" y1="115.53" x2="88.4501" y2="105.99" gradientUnits="userSpaceOnUse">
<stop offset="0.04" stop-color="#FFA98C"/>
<stop offset="0.32" stop-color="#FEB892"/>
<stop offset="0.86" stop-color="#FEE0A3"/>
<stop offset="1" stop-color="#FEECA8"/>
</linearGradient>
<linearGradient id="paint24_linear_2175_31234" x1="48.54" y1="71.66" x2="39.33" y2="89.21" gradientUnits="userSpaceOnUse">
<stop offset="0.04" stop-color="#FFA98C"/>
<stop offset="0.32" stop-color="#FEB892"/>
<stop offset="0.86" stop-color="#FEE0A3"/>
<stop offset="1" stop-color="#FEECA8"/>
</linearGradient>
<linearGradient id="paint25_linear_2175_31234" x1="44.6101" y1="120.09" x2="-2.2" y2="109.6" gradientUnits="userSpaceOnUse">
<stop offset="0.04" stop-color="#FFA98C"/>
<stop offset="0.32" stop-color="#FEB892"/>
<stop offset="0.86" stop-color="#FEE0A3"/>
<stop offset="1" stop-color="#FEECA8"/>
</linearGradient>
<linearGradient id="paint26_linear_2175_31234" x1="32.16" y1="72.13" x2="41.21" y2="89.38" gradientUnits="userSpaceOnUse">
<stop offset="0.04" stop-color="#FFA98C"/>
<stop offset="0.32" stop-color="#FEB892"/>
<stop offset="0.86" stop-color="#FEE0A3"/>
<stop offset="1" stop-color="#FEECA8"/>
</linearGradient>
<linearGradient id="paint27_linear_2175_31234" x1="47.89" y1="78.36" x2="57.13" y2="89.03" gradientUnits="userSpaceOnUse">
<stop offset="0.04" stop-color="#FFA98C"/>
<stop offset="0.32" stop-color="#FEB892"/>
<stop offset="0.86" stop-color="#FEE0A3"/>
<stop offset="1" stop-color="#FEECA8"/>
</linearGradient>
<linearGradient id="paint28_linear_2175_31234" x1="44.45" y1="87.14" x2="57.31" y2="69.67" gradientUnits="userSpaceOnUse">
<stop offset="0.04" stop-color="#F7AA90"/>
<stop offset="0.23" stop-color="#F9B996"/>
<stop offset="0.61" stop-color="#FEE1A6"/>
<stop offset="0.63" stop-color="#FFE4A7"/>
<stop offset="0.87" stop-color="#F7AA90"/>
</linearGradient>
<radialGradient id="paint29_radial_2175_31234" cx="0" cy="0" r="1" gradientUnits="userSpaceOnUse" gradientTransform="translate(58.0565 78.5425) scale(6.58352 6.5835)">
<stop stop-color="white"/>
<stop offset="1"/>
</radialGradient>
<linearGradient id="paint30_linear_2175_31234" x1="32.74" y1="78.61" x2="23.5" y2="89.29" gradientUnits="userSpaceOnUse">
<stop offset="0.04" stop-color="#FFA98C"/>
<stop offset="0.32" stop-color="#FEB892"/>
<stop offset="0.86" stop-color="#FEE0A3"/>
<stop offset="1" stop-color="#FEECA8"/>
</linearGradient>
<linearGradient id="paint31_linear_2175_31234" x1="36.18" y1="87.39" x2="23.32" y2="69.92" gradientUnits="userSpaceOnUse">
<stop offset="0.04" stop-color="#F7AA90"/>
<stop offset="0.23" stop-color="#F9B996"/>
<stop offset="0.61" stop-color="#FEE1A6"/>
<stop offset="0.63" stop-color="#FFE4A7"/>
<stop offset="0.87" stop-color="#F7AA90"/>
</linearGradient>
<radialGradient id="paint32_radial_2175_31234" cx="0" cy="0" r="1" gradientUnits="userSpaceOnUse" gradientTransform="translate(-5.41363 78.79) rotate(180) scale(6.58349 6.5835)">
<stop stop-color="white"/>
<stop offset="1"/>
</radialGradient>
<linearGradient id="paint33_linear_2175_31234" x1="49.99" y1="86.85" x2="47.66" y2="98.62" gradientUnits="userSpaceOnUse">
<stop offset="0.04" stop-color="#FFA98C"/>
<stop offset="0.32" stop-color="#FEB892"/>
<stop offset="0.86" stop-color="#FEE0A3"/>
<stop offset="1" stop-color="#FEECA8"/>
</linearGradient>
<linearGradient id="paint34_linear_2175_31234" x1="45.59" y1="85.98" x2="53.7" y2="97.91" gradientUnits="userSpaceOnUse">
<stop offset="0.04" stop-color="#F7AA90"/>
<stop offset="0.23" stop-color="#F9B996"/>
<stop offset="0.61" stop-color="#FEE1A6"/>
<stop offset="0.63" stop-color="#FFE4A7"/>
<stop offset="0.87" stop-color="#F7AA90"/>
</linearGradient>
<radialGradient id="paint35_radial_2175_31234" cx="0" cy="0" r="1" gradientUnits="userSpaceOnUse" gradientTransform="translate(18.9899 92.2441) rotate(180) scale(6.40529 6.4053)">
<stop stop-color="white"/>
<stop offset="1"/>
</radialGradient>
<linearGradient id="paint36_linear_2175_31234" x1="40.36" y1="91.36" x2="40.36" y2="84.98" gradientUnits="userSpaceOnUse">
<stop offset="0.04" stop-color="#FFA98C"/>
<stop offset="0.32" stop-color="#FEB892"/>
<stop offset="0.86" stop-color="#FEE0A3"/>
<stop offset="1" stop-color="#FEECA8"/>
</linearGradient>
<linearGradient id="paint37_linear_2175_31234" x1="30.24" y1="86.85" x2="32.57" y2="98.62" gradientUnits="userSpaceOnUse">
<stop offset="0.04" stop-color="#FFA98C"/>
<stop offset="0.32" stop-color="#FEB892"/>
<stop offset="0.86" stop-color="#FEE0A3"/>
<stop offset="1" stop-color="#FEECA8"/>
</linearGradient>
<linearGradient id="paint38_linear_2175_31234" x1="34.63" y1="85.98" x2="26.53" y2="97.91" gradientUnits="userSpaceOnUse">
<stop offset="0.04" stop-color="#F7AA90"/>
<stop offset="0.23" stop-color="#F9B996"/>
<stop offset="0.61" stop-color="#FEE1A6"/>
<stop offset="0.63" stop-color="#FFE4A7"/>
<stop offset="0.87" stop-color="#F7AA90"/>
</linearGradient>
<radialGradient id="paint39_radial_2175_31234" cx="0" cy="0" r="1" gradientUnits="userSpaceOnUse" gradientTransform="translate(33.2372 92.2441) scale(6.40531 6.4053)">
<stop stop-color="white"/>
<stop offset="1"/>
</radialGradient>
<linearGradient id="paint40_linear_2175_31234" x1="119.1" y1="129.63" x2="201.65" y2="104.91" gradientUnits="userSpaceOnUse">
<stop offset="0.04" stop-color="#138BBD"/>
<stop offset="0.23" stop-color="#169AC6"/>
<stop offset="0.59" stop-color="#1EC2DF"/>
<stop offset="1" stop-color="#2AF6FF"/>
</linearGradient>
<linearGradient id="paint41_linear_2175_31234" x1="37.56" y1="139.67" x2="146.41" y2="115.27" gradientUnits="userSpaceOnUse">
<stop offset="0.04" stop-color="#138BBD"/>
<stop offset="0.23" stop-color="#169AC6"/>
<stop offset="0.59" stop-color="#1EC2DF"/>
<stop offset="1" stop-color="#2AF6FF"/>
</linearGradient>
<linearGradient id="paint42_linear_2175_31234" x1="144.12" y1="38.33" x2="105.3" y2="112.31" gradientUnits="userSpaceOnUse">
<stop offset="0.04" stop-color="#138BBD"/>
<stop offset="0.23" stop-color="#169AC6"/>
<stop offset="0.59" stop-color="#1EC2DF"/>
<stop offset="1" stop-color="#2AF6FF"/>
</linearGradient>
<linearGradient id="paint43_linear_2175_31234" x1="123.97" y1="128.12" x2="148.23" y2="120.86" gradientUnits="userSpaceOnUse">
<stop offset="0.04" stop-color="#9F19AB"/>
<stop offset="0.24" stop-color="#AE24B0"/>
<stop offset="0.65" stop-color="#D643BF"/>
<stop offset="1" stop-color="#FF63CE"/>
</linearGradient>
<linearGradient id="paint44_linear_2175_31234" x1="115.94" y1="92.3599" x2="107.25" y2="108.93" gradientUnits="userSpaceOnUse">
<stop offset="0.04" stop-color="#9F19AB"/>
<stop offset="0.24" stop-color="#AE24B0"/>
<stop offset="0.65" stop-color="#D643BF"/>
<stop offset="1" stop-color="#FF63CE"/>
</linearGradient>
<linearGradient id="paint45_linear_2175_31234" x1="108.45" y1="131.72" x2="71.9801" y2="123.54" gradientUnits="userSpaceOnUse">
<stop offset="0.04" stop-color="#9F19AB"/>
<stop offset="0.24" stop-color="#AE24B0"/>
<stop offset="0.65" stop-color="#D643BF"/>
<stop offset="1" stop-color="#FF63CE"/>
</linearGradient>
<linearGradient id="paint46_linear_2175_31234" x1="100.47" y1="92.81" x2="109.02" y2="109.09" gradientUnits="userSpaceOnUse">
<stop offset="0.04" stop-color="#9F19AB"/>
<stop offset="0.24" stop-color="#AE24B0"/>
<stop offset="0.65" stop-color="#D643BF"/>
<stop offset="1" stop-color="#FF63CE"/>
</linearGradient>
<linearGradient id="paint47_linear_2175_31234" x1="115.32" y1="98.69" x2="124.04" y2="108.77" gradientUnits="userSpaceOnUse">
<stop offset="0.04" stop-color="#9F19AB"/>
<stop offset="0.24" stop-color="#AE24B0"/>
<stop offset="0.65" stop-color="#D643BF"/>
<stop offset="1" stop-color="#FF63CE"/>
</linearGradient>
<linearGradient id="paint48_linear_2175_31234" x1="112.07" y1="106.98" x2="124.22" y2="90.48" gradientUnits="userSpaceOnUse">
<stop offset="0.04" stop-color="#9F19AB"/>
<stop offset="0.16" stop-color="#AE24B0"/>
<stop offset="0.41" stop-color="#D643BF"/>
<stop offset="0.63" stop-color="#FF63CE"/>
<stop offset="0.87" stop-color="#DC48C1"/>
</linearGradient>
<radialGradient id="paint49_radial_2175_31234" cx="0" cy="0" r="1" gradientUnits="userSpaceOnUse" gradientTransform="translate(125.357 98.9662) scale(6.2172 6.21719)">
<stop stop-color="white"/>
<stop offset="1"/>
</radialGradient>
<linearGradient id="paint50_linear_2175_31234" x1="101.02" y1="98.93" x2="92.3" y2="109" gradientUnits="userSpaceOnUse">
<stop offset="0.04" stop-color="#9F19AB"/>
<stop offset="0.24" stop-color="#AE24B0"/>
<stop offset="0.65" stop-color="#D643BF"/>
<stop offset="1" stop-color="#FF63CE"/>
</linearGradient>
<linearGradient id="paint51_linear_2175_31234" x1="104.27" y1="107.21" x2="92.13" y2="90.72" gradientUnits="userSpaceOnUse">
<stop offset="0.04" stop-color="#9F19AB"/>
<stop offset="0.16" stop-color="#AE24B0"/>
<stop offset="0.41" stop-color="#D643BF"/>
<stop offset="0.63" stop-color="#FF63CE"/>
<stop offset="0.87" stop-color="#DC48C1"/>
</linearGradient>
<radialGradient id="paint52_radial_2175_31234" cx="0" cy="0" r="1" gradientUnits="userSpaceOnUse" gradientTransform="translate(63.5893 99.2038) rotate(180) scale(6.2172 6.2172)">
<stop stop-color="white"/>
<stop offset="1"/>
</radialGradient>
<linearGradient id="paint53_linear_2175_31234" x1="117.3" y1="106.71" x2="115.11" y2="117.82" gradientUnits="userSpaceOnUse">
<stop offset="0.04" stop-color="#9F19AB"/>
<stop offset="0.24" stop-color="#AE24B0"/>
<stop offset="0.65" stop-color="#D643BF"/>
<stop offset="1" stop-color="#FF63CE"/>
</linearGradient>
<linearGradient id="paint54_linear_2175_31234" x1="113.16" y1="105.88" x2="120.81" y2="117.15" gradientUnits="userSpaceOnUse">
<stop offset="0.04" stop-color="#9F19AB"/>
<stop offset="0.16" stop-color="#AE24B0"/>
<stop offset="0.41" stop-color="#D643BF"/>
<stop offset="0.63" stop-color="#FF63CE"/>
<stop offset="0.87" stop-color="#DC48C1"/>
</linearGradient>
<radialGradient id="paint55_radial_2175_31234" cx="0" cy="0" r="1" gradientUnits="userSpaceOnUse" gradientTransform="translate(86.6365 111.906) rotate(180) scale(6.04891 6.0489)">
<stop stop-color="white"/>
<stop offset="1"/>
</radialGradient>
<linearGradient id="paint56_linear_2175_31234" x1="108.22" y1="110.97" x2="108.22" y2="104.94" gradientUnits="userSpaceOnUse">
<stop offset="0.04" stop-color="#9F19AB"/>
<stop offset="0.24" stop-color="#AE24B0"/>
<stop offset="0.65" stop-color="#D643BF"/>
<stop offset="1" stop-color="#FF63CE"/>
</linearGradient>
<linearGradient id="paint57_linear_2175_31234" x1="98.66" y1="106.71" x2="100.86" y2="117.82" gradientUnits="userSpaceOnUse">
<stop offset="0.04" stop-color="#9F19AB"/>
<stop offset="0.24" stop-color="#AE24B0"/>
<stop offset="0.65" stop-color="#D643BF"/>
<stop offset="1" stop-color="#FF63CE"/>
</linearGradient>
<linearGradient id="paint58_linear_2175_31234" x1="102.81" y1="105.88" x2="95.15" y2="117.15" gradientUnits="userSpaceOnUse">
<stop offset="0.04" stop-color="#9F19AB"/>
<stop offset="0.16" stop-color="#AE24B0"/>
<stop offset="0.41" stop-color="#D643BF"/>
<stop offset="0.63" stop-color="#FF63CE"/>
<stop offset="0.87" stop-color="#DC48C1"/>
</linearGradient>
<radialGradient id="paint59_radial_2175_31234" cx="0" cy="0" r="1" gradientUnits="userSpaceOnUse" gradientTransform="translate(101.933 111.906) scale(6.04891 6.0489)">
<stop stop-color="white"/>
<stop offset="1"/>
</radialGradient>
</defs>
</svg>
