<svg width="97" height="33" viewBox="0 0 97 33" fill="none" xmlns="http://www.w3.org/2000/svg">
<g opacity="0.5" clip-path="url(#clip0_3156_9096)">
<path d="M16.3761 12.6926C16.5801 12.6926 16.7612 12.6417 16.9194 12.54C17.0776 12.4327 17.1898 12.2773 17.2562 12.074V11.6079H16.4373C15.9475 11.6079 15.7026 11.7858 15.7026 12.1418C15.7026 12.3112 15.7613 12.4468 15.8786 12.5485C16.0011 12.6446 16.1669 12.6926 16.3761 12.6926Z" fill="white"/>
<path d="M31.9931 12.1585C31.7992 12.3845 31.5492 12.4975 31.2431 12.4975C30.937 12.4975 30.6845 12.3845 30.4855 12.1585C30.2865 11.9269 30.187 11.619 30.187 11.2349C30.187 10.8507 30.2865 10.5457 30.4855 10.3197C30.6845 10.0881 30.937 9.97217 31.2431 9.97217C31.5492 9.97217 31.7992 10.0881 31.9931 10.3197C32.192 10.5457 32.2915 10.8507 32.2915 11.2349C32.2915 11.619 32.192 11.9269 31.9931 12.1585Z" fill="white"/>
<path d="M45.2348 12.2093C45.551 12.2093 45.8087 12.1077 46.0076 11.9043C46.2118 11.6953 46.3138 11.4241 46.3138 11.0908C46.3138 10.7575 46.2118 10.4891 46.0076 10.2858C45.8087 10.0767 45.551 9.97217 45.2348 9.97217C44.9184 9.97217 44.6582 10.0767 44.4541 10.2858C44.2501 10.4891 44.1481 10.7575 44.1481 11.0908C44.1481 11.4241 44.2501 11.6953 44.4541 11.9043C44.6582 12.1077 44.9184 12.2093 45.2348 12.2093Z" fill="white"/>
<path d="M51.1594 12.1585C50.9656 12.3845 50.7156 12.4975 50.4095 12.4975C50.1033 12.4975 49.8508 12.3845 49.6518 12.1585C49.4529 11.9269 49.3534 11.619 49.3534 11.2349C49.3534 10.8507 49.4529 10.5457 49.6518 10.3197C49.8508 10.0881 50.1033 9.97217 50.4095 9.97217C50.7156 9.97217 50.9656 10.0881 51.1594 10.3197C51.3584 10.5457 51.4579 10.8507 51.4579 11.2349C51.4579 11.619 51.3584 11.9269 51.1594 12.1585Z" fill="white"/>
<path d="M64.8286 9.88721C64.5582 9.88721 64.3312 9.97193 64.1476 10.1415C63.9639 10.3109 63.8516 10.5426 63.8108 10.8363H65.8388C65.798 10.5482 65.6858 10.3194 65.5021 10.1499C65.3184 9.97483 65.0939 9.88721 64.8286 9.88721Z" fill="white"/>
<path d="M79.661 12.1585C79.4667 12.3845 79.2168 12.4975 78.9105 12.4975C78.6042 12.4975 78.352 12.3845 78.1532 12.1585C77.9543 11.9269 77.8545 11.619 77.8545 11.2349C77.8545 10.8507 77.9543 10.5457 78.1532 10.3197C78.352 10.0881 78.6042 9.97217 78.9105 9.97217C79.2168 9.97217 79.4667 10.0881 79.661 10.3197C79.8598 10.5457 79.9589 10.8507 79.9589 11.2349C79.9589 11.619 79.8598 11.9269 79.661 12.1585Z" fill="white"/>
<path d="M25.9948 22.825C25.8021 23.051 25.5535 23.164 25.2491 23.164C24.9448 23.164 24.6936 23.051 24.4958 22.825C24.298 22.5934 24.1991 22.2855 24.1991 21.9014C24.1991 21.5172 24.298 21.2122 24.4958 20.9862C24.6936 20.7546 24.9448 20.6387 25.2491 20.6387C25.5535 20.6387 25.8021 20.7546 25.9948 20.9862C26.1926 21.2122 26.2916 21.5172 26.2916 21.9014C26.2916 22.2855 26.1926 22.5934 25.9948 22.825Z" fill="white"/>
<path d="M30.3492 23.164C30.6536 23.164 30.9021 23.051 31.0949 22.825C31.2927 22.5934 31.3916 22.2855 31.3916 21.9014C31.3916 21.5172 31.2927 21.2122 31.0949 20.9862C30.9021 20.7546 30.6536 20.6387 30.3492 20.6387C30.0448 20.6387 29.7938 20.7546 29.5959 20.9862C29.4031 21.2122 29.3068 21.5172 29.3068 21.9014C29.3068 22.2855 29.4031 22.5934 29.5959 22.825C29.7938 23.051 30.0448 23.164 30.3492 23.164Z" fill="white"/>
<path d="M37.9327 22.825C37.7399 23.051 37.4914 23.164 37.187 23.164C36.8826 23.164 36.6316 23.051 36.4337 22.825C36.2359 22.5934 36.137 22.2855 36.137 21.9014C36.137 21.5172 36.2359 21.2122 36.4337 20.9862C36.6316 20.7546 36.8826 20.6387 37.187 20.6387C37.4914 20.6387 37.7399 20.7546 37.9327 20.9862C38.1306 21.2122 38.2295 21.5172 38.2295 21.9014C38.2295 22.2855 38.1306 22.5934 37.9327 22.825Z" fill="white"/>
<path d="M42.2872 23.164C42.5916 23.164 42.8401 23.051 43.0329 22.825C43.2307 22.5934 43.3296 22.2855 43.3296 21.9014C43.3296 21.5172 43.2307 21.2122 43.0329 20.9862C42.8401 20.7546 42.5916 20.6387 42.2872 20.6387C41.9828 20.6387 41.7317 20.7546 41.5339 20.9862C41.3411 21.2122 41.2448 21.5172 41.2448 21.9014C41.2448 22.2855 41.3411 22.5934 41.5339 22.825C41.7317 23.051 41.9828 23.164 42.2872 23.164Z" fill="white"/>
<path d="M56.6123 23.164C56.9116 23.164 57.1602 23.051 57.358 22.825C57.5559 22.5934 57.6548 22.2855 57.6548 21.9014C57.6548 21.5172 57.5559 21.2122 57.358 20.9862C57.1602 20.7546 56.9116 20.6387 56.6123 20.6387C56.3079 20.6387 56.0569 20.7546 55.859 20.9862C55.6612 21.2122 55.5623 21.5172 55.5623 21.9014C55.5623 22.2855 55.6612 22.5934 55.859 22.825C56.0569 23.051 56.3079 23.164 56.6123 23.164Z" fill="white"/>
<path fill-rule="evenodd" clip-rule="evenodd" d="M74.1929 24.0045C74.3798 23.7479 74.4732 23.4327 74.4732 23.0589C74.4732 22.7232 74.3798 22.4311 74.1929 22.1828C74.0127 21.943 73.7668 21.7553 73.4559 21.6199C73.7173 21.4932 73.9251 21.3261 74.0792 21.1185C74.2514 20.8839 74.3375 20.615 74.3375 20.3121C74.3375 19.9518 74.25 19.6489 74.0747 19.4033C73.9027 19.1549 73.6633 18.9667 73.3567 18.8384C73.0534 18.7101 72.7046 18.646 72.3106 18.646C71.9225 18.646 71.5751 18.7101 71.2687 18.8384C70.965 18.9667 70.7257 19.1549 70.5507 19.4033C70.3784 19.6489 70.2923 19.9518 70.2923 20.3121C70.2923 20.615 70.3784 20.8839 70.5507 21.1185C70.7045 21.3259 70.9121 21.4929 71.1735 21.6196C71.0242 21.6842 70.888 21.7628 70.7651 21.8554C70.5726 22 70.4223 22.1747 70.3142 22.3793C70.2062 22.5813 70.1521 22.8078 70.1521 23.0589C70.1521 23.4327 70.247 23.7479 70.4369 24.0045C70.6266 24.2583 70.8847 24.4506 71.2118 24.5816C71.5385 24.7099 71.9078 24.7741 72.3193 24.7741C72.7308 24.7741 73.0986 24.7099 73.4226 24.5816C73.7494 24.4506 74.0063 24.2583 74.1929 24.0045ZM73.0898 22.5105C73.1656 22.6414 73.2036 22.7984 73.2036 22.9812C73.2036 23.1613 73.167 23.3169 73.0941 23.4479C73.024 23.5789 72.9219 23.6798 72.7876 23.7508C72.6565 23.819 72.5003 23.8532 72.3193 23.8532C72.1383 23.8532 71.9793 23.819 71.8422 23.7508C71.708 23.6798 71.6027 23.5789 71.527 23.4479C71.4538 23.3169 71.4175 23.1613 71.4175 22.9812C71.4175 22.7984 71.4538 22.6414 71.527 22.5105C71.6027 22.3767 71.708 22.2744 71.8422 22.2035C71.9765 22.1325 72.1324 22.097 72.3106 22.097C72.4885 22.097 72.6447 22.1325 72.7789 22.2035C72.9132 22.2744 73.0167 22.3767 73.0898 22.5105ZM73.0767 20.3653C73.0767 20.2043 73.046 20.0651 72.9846 19.9478C72.9235 19.8277 72.8358 19.7349 72.722 19.6695C72.6111 19.6039 72.474 19.5712 72.3105 19.5712C72.1529 19.5712 72.0172 19.6026 71.9033 19.6653C71.7924 19.7281 71.7062 19.8196 71.6451 19.9396C71.5866 20.057 71.5576 20.1988 71.5576 20.3653C71.5576 20.5264 71.5866 20.6682 71.6451 20.7911C71.7062 20.9111 71.7938 21.0053 71.9078 21.0735C72.0215 21.1418 72.1588 21.1758 72.3193 21.1758C72.4797 21.1758 72.6156 21.1418 72.7265 21.0735C72.8403 21.0053 72.9263 20.9111 72.9846 20.7911C73.046 20.6682 73.0767 20.5264 73.0767 20.3653Z" fill="white"/>
<path d="M68.2828 24.6922V18.7197H68.1471L65.5071 19.5999V20.5291L67.0218 20.0788V24.6922H68.2828Z" fill="white"/>
<path d="M79.3241 21.3724V22.3999H77.7394V24.0946H76.544V22.3999H74.9551V21.3724H76.544V19.7554H77.7394V21.3724H79.3241Z" fill="white"/>
<path fill-rule="evenodd" clip-rule="evenodd" d="M6.09524 0.75C2.72893 0.75 0 3.47893 0 6.84524V26.6548C0 30.0211 2.72893 32.75 6.09524 32.75H90.6667C94.0328 32.75 96.7619 30.0211 96.7619 26.6548V6.84524C96.7619 3.47893 94.0328 0.75 90.6667 0.75H6.09524ZM74.4518 15.2262C74.0334 15.2262 73.7146 15.1415 73.4952 14.9719L73.8166 14.0144C73.9544 14.1217 74.1227 14.1754 74.3217 14.1754C74.4747 14.1754 74.5947 14.1189 74.6814 14.0059C74.7682 13.8986 74.8115 13.7348 74.8115 13.5144V8.95533H76.0053V13.506C76.0053 14.037 75.8676 14.4551 75.5921 14.7601C75.3217 15.0708 74.9416 15.2262 74.4518 15.2262ZM75.4084 8.31975C75.189 8.31975 75.0104 8.24912 74.8727 8.10789C74.7349 7.96666 74.6661 7.79152 74.6661 7.58249C74.6661 7.37346 74.7349 7.19833 74.8727 7.05709C75.0104 6.91586 75.189 6.84524 75.4084 6.84524C75.6278 6.84524 75.8063 6.91303 75.9441 7.04862C76.0818 7.1842 76.1507 7.35369 76.1507 7.55707C76.1507 7.7774 76.0818 7.961 75.9441 8.10789C75.8063 8.24912 75.6278 8.31975 75.4084 8.31975ZM26.3321 11.7264L25.7581 12.3534V13.5144H24.5643V7.22658H25.7581V10.7857L27.5029 8.95533H28.9264L27.2122 10.8874L29.0795 13.5144H27.6331L26.3321 11.7264ZM14.6587 7.58249L12.9063 13.5144H11.5747L10.3961 9.49766L9.17935 13.5144H7.85539L6.09524 7.58249H7.38091L8.59009 11.7518L9.8528 7.58249H11.0007L12.2251 11.7857L13.4726 7.58249H14.6587ZM16.4679 8.88752C17.1056 8.88752 17.5954 9.05697 17.9372 9.39594C18.2791 9.72928 18.45 10.2349 18.45 10.9128V13.5144H17.3326V12.9466C17.1082 13.3703 16.6898 13.5822 16.0776 13.5822C15.7613 13.5822 15.4858 13.5229 15.251 13.4042C15.0215 13.2856 14.8455 13.1218 14.723 12.9127C14.6006 12.7037 14.5394 12.4664 14.5394 12.2009C14.5394 11.7772 14.6822 11.4439 14.9679 11.201C15.2587 10.958 15.7051 10.8366 16.3072 10.8366H17.2562C17.2562 10.5485 17.1771 10.3281 17.0189 10.1756C16.8607 10.0174 16.6235 9.93834 16.3072 9.93834C16.0878 9.93834 15.8709 9.97789 15.6567 10.057C15.4475 10.1304 15.269 10.2321 15.121 10.362L14.6924 9.4383C14.9169 9.26322 15.1848 9.1276 15.496 9.0316C15.8123 8.93552 16.1362 8.88752 16.4679 8.88752ZM21.5967 13.5144C21.7702 13.4636 21.9156 13.3902 22.0329 13.2941L21.7115 12.3619C21.5789 12.4749 21.4181 12.5314 21.2294 12.5314C21.0661 12.5314 20.9386 12.4806 20.8467 12.3789C20.76 12.2715 20.7166 12.1218 20.7166 11.9297V10.0739H21.7421V9.05697H20.7166V7.94688H19.5228V9.05697H18.8876V10.0739H19.5228V11.9467C19.5228 12.4834 19.6555 12.8901 19.9208 13.167C20.1912 13.4438 20.5712 13.5822 21.061 13.5822C21.2498 13.5822 21.4283 13.5596 21.5967 13.5144ZM30.0722 13.2856C30.4191 13.4833 30.8094 13.5822 31.243 13.5822C31.6767 13.5822 32.0645 13.4833 32.4062 13.2856C32.7481 13.0822 33.0159 12.8026 33.2098 12.4467C33.4037 12.0907 33.5006 11.6868 33.5006 11.2349C33.5006 10.7829 33.4037 10.379 33.2098 10.0231C33.0159 9.6671 32.7481 9.39031 32.4062 9.19259C32.0645 8.98924 31.6767 8.88752 31.243 8.88752C30.8094 8.88752 30.4191 8.98924 30.0722 9.19259C29.7304 9.39031 29.4625 9.6671 29.2686 10.0231C29.0747 10.379 28.9778 10.7829 28.9778 11.2349C28.9778 11.6868 29.0747 12.0907 29.2686 12.4467C29.4625 12.8026 29.7304 13.0822 30.0722 13.2856ZM35.5307 13.5822C35.1889 13.5822 34.8547 13.537 34.5282 13.4466C34.2017 13.3506 33.9415 13.2319 33.7477 13.0907L34.1456 12.1416C34.3292 12.2715 34.5512 12.3789 34.8114 12.4636C35.0715 12.5427 35.3266 12.5822 35.5767 12.5822C36.0817 12.5822 36.3342 12.4439 36.3342 12.167C36.3342 12.0371 36.2654 11.9438 36.1276 11.8874C35.9899 11.8308 35.7782 11.7828 35.4925 11.7433C35.1557 11.6868 34.8777 11.6218 34.6583 11.5484C34.4389 11.475 34.2476 11.345 34.0843 11.1586C33.9262 10.9722 33.8471 10.7066 33.8471 10.362C33.8471 10.0739 33.9211 9.81964 34.069 9.59937C34.2221 9.37339 34.4414 9.19823 34.7272 9.07396C35.018 8.94962 35.3598 8.88752 35.7527 8.88752C36.0435 8.88752 36.3317 8.92425 36.6174 8.99769C36.9083 9.06551 37.148 9.1615 37.3368 9.28577L36.9388 10.2264C36.5766 10.0004 36.1813 9.88745 35.7527 9.88745C35.4976 9.88745 35.3063 9.92699 35.1787 10.0061C35.0511 10.0852 34.9874 10.1869 34.9874 10.3111C34.9874 10.4524 35.0562 10.5513 35.194 10.6078C35.3317 10.6643 35.5512 10.7179 35.8522 10.7687C36.1889 10.8309 36.4644 10.8987 36.6786 10.9722C36.893 11.04 37.0792 11.1671 37.2373 11.3535C37.3955 11.5399 37.4746 11.7998 37.4746 12.1331C37.4746 12.4156 37.398 12.667 37.2449 12.8873C37.0919 13.1076 36.8674 13.28 36.5715 13.4042C36.2807 13.5229 35.9338 13.5822 35.5307 13.5822ZM40.2774 13.5144C40.4509 13.4636 40.5963 13.3902 40.7136 13.2941L40.3922 12.3619C40.2596 12.4749 40.0988 12.5314 39.9101 12.5314C39.7468 12.5314 39.6193 12.4806 39.5274 12.3789C39.4407 12.2715 39.3973 12.1218 39.3973 11.9297V10.0739H40.4228V9.05697H39.3973V7.94688H38.2035V9.05697H37.5683V10.0739H38.2035V11.9467C38.2035 12.4834 38.3361 12.8901 38.6014 13.167C38.8718 13.4438 39.252 13.5822 39.7417 13.5822C39.9305 13.5822 40.109 13.5596 40.2774 13.5144ZM47.4923 8.95533V12.7518C47.4923 13.5879 47.2958 14.2093 46.903 14.6161C46.5102 15.0228 45.9362 15.2262 45.1811 15.2262C44.7832 15.2262 44.4056 15.1726 44.0485 15.0652C43.6914 14.9578 43.3955 14.8025 43.1608 14.5991L43.6353 13.65C43.8088 13.8082 44.0281 13.9325 44.2934 14.0228C44.5587 14.1189 44.824 14.1669 45.0893 14.1669C45.5025 14.1669 45.8061 14.0624 46 13.8534C46.1989 13.65 46.2984 13.3393 46.2984 12.9212V12.7263C45.9872 13.1048 45.5536 13.2941 44.9975 13.2941C44.62 13.2941 44.273 13.2037 43.9567 13.0229C43.6455 12.8365 43.398 12.5766 43.2143 12.2433C43.0307 11.91 42.9389 11.5258 42.9389 11.0908C42.9389 10.6558 43.0307 10.2716 43.2143 9.93834C43.398 9.60501 43.6455 9.34794 43.9567 9.16714C44.273 8.9807 44.62 8.88752 44.9975 8.88752C45.5944 8.88752 46.0485 9.10505 46.3597 9.54002V8.95533H47.4923ZM49.2386 13.2856C49.5856 13.4833 49.9758 13.5822 50.4095 13.5822C50.8432 13.5822 51.2309 13.4833 51.5727 13.2856C51.9146 13.0822 52.1824 12.8026 52.3763 12.4467C52.5702 12.0907 52.6671 11.6868 52.6671 11.2349C52.6671 10.7829 52.5702 10.379 52.3763 10.0231C52.1824 9.6671 51.9146 9.39031 51.5727 9.19259C51.2309 8.98924 50.8432 8.88752 50.4095 8.88752C49.9758 8.88752 49.5856 8.98924 49.2386 9.19259C48.8968 9.39031 48.6289 9.6671 48.4351 10.0231C48.2412 10.379 48.1443 10.7829 48.1443 11.2349C48.1443 11.6868 48.2412 12.0907 48.4351 12.4467C48.6289 12.8026 48.8968 13.0822 49.2386 13.2856ZM55.0798 11.7264L54.5059 12.3534V13.5144H53.312V7.22658H54.5059V10.7857L56.2507 8.95533H57.6741L55.9599 10.8874L57.8272 13.5144H56.3808L55.0798 11.7264ZM59.4049 12.3534L59.9788 11.7264L61.2798 13.5144H62.7262L60.8589 10.8874L62.5732 8.95533H61.1497L59.4049 10.7857V7.22658H58.211V13.5144H59.4049V12.3534ZM66.9637 11.2518C66.9637 11.2688 66.9561 11.3874 66.9408 11.6078H63.8261C63.8822 11.8902 64.0149 12.1134 64.224 12.2772C64.4332 12.441 64.6934 12.523 65.0046 12.523C65.2189 12.523 65.4077 12.489 65.5709 12.4212C65.7393 12.3478 65.8949 12.2348 66.0377 12.0823L66.6729 12.8449C66.2852 13.3364 65.7188 13.5822 64.974 13.5822C64.5097 13.5822 64.099 13.4833 63.7419 13.2856C63.3848 13.0822 63.1093 12.8026 62.9153 12.4467C62.7215 12.0907 62.6246 11.6868 62.6246 11.2349C62.6246 10.7886 62.7189 10.3874 62.9077 10.0315C63.1016 9.66992 63.3643 9.39031 63.696 9.19259C64.0327 8.98924 64.4077 8.88752 64.8209 8.88752C65.224 8.88752 65.5888 8.98352 65.9153 9.1756C66.2418 9.36775 66.4969 9.64455 66.6806 10.0061C66.8693 10.362 66.9637 10.7773 66.9637 11.2518ZM71.3401 9.39594C71.0289 9.05697 70.6181 8.88752 70.108 8.88752C69.8273 8.88752 69.5697 8.94116 69.335 9.04851C69.1003 9.15023 68.9039 9.29712 68.7458 9.4892V8.95533H67.6055V13.5144H68.7993V11.2602C68.7993 10.8535 68.8886 10.5485 69.0672 10.345C69.2458 10.1361 69.4856 10.0315 69.7866 10.0315C70.057 10.0315 70.2636 10.1219 70.4064 10.3027C70.5493 10.4778 70.6207 10.7462 70.6207 11.1077V13.5144H71.8145V10.9044C71.8145 10.2377 71.6564 9.73491 71.3401 9.39594ZM77.7394 13.2856C78.0869 13.4833 78.4769 13.5822 78.9105 13.5822C79.344 13.5822 79.7318 13.4833 80.0739 13.2856C80.416 13.0822 80.6834 12.8026 80.8777 12.4467C81.0712 12.0907 81.168 11.6868 81.168 11.2349C81.168 10.7829 81.0712 10.379 80.8777 10.0231C80.6834 9.6671 80.416 9.39031 80.0739 9.19259C79.7318 8.98924 79.344 8.88752 78.9105 8.88752C78.4769 8.88752 78.0869 8.98924 77.7394 9.19259C77.3981 9.39031 77.1299 9.6671 76.9364 10.0231C76.7421 10.379 76.6453 10.7829 76.6453 11.2349C76.6453 11.6868 76.7421 12.0907 76.9364 12.4467C77.1299 12.8026 77.3981 13.0822 77.7394 13.2856ZM85.9611 13.5144H84.8282V12.9721C84.6705 13.1698 84.4815 13.3223 84.2621 13.4297C84.0427 13.5313 83.8057 13.5822 83.5505 13.5822C83.0095 13.5822 82.5813 13.4099 82.2644 13.0653C81.9482 12.7207 81.7905 12.2094 81.7905 11.5315V8.95533H82.9844V11.3365C82.9844 12.071 83.2625 12.4382 83.8179 12.4382C84.1036 12.4382 84.3337 12.3365 84.5067 12.1331C84.6804 11.9241 84.7672 11.6162 84.7672 11.2094V8.95533H85.9611V13.5144ZM88.4015 10.7264C88.2842 10.9185 88.2255 11.1614 88.2255 11.4552H89.3813C89.3813 11.2744 89.424 11.1219 89.5109 10.9975C89.5977 10.8676 89.7356 10.7095 89.9246 10.523C90.0823 10.3649 90.2103 10.2264 90.307 10.1078C90.4091 9.98352 90.493 9.83381 90.5592 9.65865C90.6309 9.48356 90.6667 9.28013 90.6667 9.04851C90.6667 8.55701 90.4884 8.17286 90.131 7.89603C89.779 7.61921 89.3097 7.4808 88.723 7.4808C88.2232 7.4808 87.7889 7.57967 87.4217 7.7774C87.0598 7.97513 86.771 8.25478 86.5569 8.61636L87.4834 9.21804C87.6107 9.02025 87.7661 8.86771 87.9497 8.76036C88.1387 8.64745 88.3528 8.59091 88.5928 8.59091C88.8427 8.59091 89.0415 8.65309 89.1893 8.77735C89.3425 8.89598 89.4194 9.05979 89.4194 9.26886C89.4194 9.41575 89.3783 9.54848 89.2968 9.6671C89.2206 9.7801 89.0979 9.92135 88.9295 10.0909C88.7002 10.3225 88.5242 10.5343 88.4015 10.7264ZM88.2788 13.3619C88.4221 13.5088 88.5981 13.5822 88.8068 13.5822C89.0164 13.5822 89.1893 13.5088 89.3272 13.3619C89.4705 13.2094 89.5413 13.0257 89.5413 12.811C89.5413 12.5964 89.4728 12.4184 89.3349 12.2772C89.1969 12.1303 89.0209 12.0568 88.8068 12.0568C88.5928 12.0568 88.4168 12.1303 88.2788 12.2772C88.1409 12.4184 88.0724 12.5964 88.0724 12.811C88.0724 13.0257 88.1409 13.2094 88.2788 13.3619ZM50.9251 18.9864C50.707 18.9864 50.5294 18.9158 50.3925 18.7745C50.2555 18.6334 50.187 18.4582 50.187 18.2491C50.187 18.0401 50.2555 17.865 50.3925 17.7238C50.5294 17.5825 50.707 17.5119 50.9251 17.5119C51.1432 17.5119 51.3208 17.5797 51.4577 17.7153C51.5947 17.8509 51.6632 18.0203 51.6632 18.2238C51.6632 18.4441 51.5947 18.6276 51.4577 18.7745C51.3208 18.9158 51.1432 18.9864 50.9251 18.9864ZM17.4067 24.2828C16.9857 24.2828 16.5773 24.2206 16.1816 24.0964C15.791 23.9664 15.4765 23.7998 15.2381 23.5963L15.6566 22.5625C15.8849 22.7489 16.1563 22.8986 16.4708 23.0116C16.7853 23.1246 17.0998 23.1811 17.4143 23.1811C17.7643 23.1811 18.023 23.1246 18.1904 23.0116C18.3578 22.893 18.4415 22.7377 18.4415 22.5456C18.4415 22.4043 18.3908 22.2885 18.2894 22.1982C18.193 22.1021 18.0661 22.0258 17.9089 21.9694C17.7567 21.9128 17.5487 21.8506 17.285 21.7829C16.8791 21.6756 16.5469 21.5682 16.2882 21.4609C16.0294 21.3535 15.8062 21.1812 15.6185 20.944C15.436 20.7066 15.3446 20.3903 15.3446 19.9948C15.3446 19.6502 15.4283 19.3395 15.5957 19.0627C15.7631 18.7802 16.0142 18.5571 16.349 18.3932C16.6889 18.2294 17.1023 18.1475 17.5893 18.1475C17.9291 18.1475 18.2614 18.1927 18.5861 18.283C18.9108 18.3735 19.1948 18.5034 19.4383 18.6729L19.0578 19.7152C18.5658 19.4045 18.0738 19.2491 17.5817 19.2491C17.2367 19.2491 16.9806 19.3112 16.8132 19.4356C16.6508 19.5598 16.5697 19.7236 16.5697 19.9271C16.5697 20.1304 16.6635 20.283 16.8512 20.3847C17.044 20.4807 17.3357 20.5767 17.7262 20.6727C18.1321 20.7801 18.4644 20.8874 18.723 20.9948C18.9818 21.1022 19.2024 21.2716 19.3851 21.5032C19.5727 21.7348 19.6666 22.0484 19.6666 22.4439C19.6666 22.7828 19.5803 23.0935 19.4078 23.3761C19.2405 23.6529 18.9868 23.8732 18.6469 24.037C18.3071 24.2008 17.8936 24.2828 17.4067 24.2828ZM22.9134 23.9607C22.7966 24.0568 22.6521 24.1303 22.4796 24.1811C22.3122 24.2263 22.1347 24.2489 21.947 24.2489C21.46 24.2489 21.0821 24.1105 20.8133 23.8337C20.5495 23.5568 20.4176 23.1501 20.4176 22.6134V20.7406H19.786V19.7236H20.4176V18.6135H21.6046V19.7236H22.6242V20.7406H21.6046V22.5964C21.6046 22.7885 21.6477 22.9382 21.7339 23.0455C21.8252 23.1473 21.9521 23.1981 22.1144 23.1981C22.3021 23.1981 22.4619 23.1415 22.5938 23.0286L22.9134 23.9607ZM24.0849 23.9523C24.4299 24.15 24.8179 24.2489 25.2491 24.2489C25.6803 24.2489 26.0658 24.15 26.4057 23.9523C26.7455 23.7489 27.0119 23.4692 27.2046 23.1134C27.3974 22.7574 27.4938 22.3535 27.4938 21.9015C27.4938 21.4496 27.3974 21.0456 27.2046 20.6897C27.0119 20.3338 26.7455 20.057 26.4057 19.8593C26.0658 19.6559 25.6803 19.5542 25.2491 19.5542C24.8179 19.5542 24.4299 19.6559 24.0849 19.8593C23.7451 20.057 23.4787 20.3338 23.2859 20.6897C23.0932 21.0456 22.9968 21.4496 22.9968 21.9015C22.9968 22.3535 23.0932 22.7574 23.2859 23.1134C23.4787 23.4692 23.7451 23.7489 24.0849 23.9523ZM30.5547 19.5542C30.9352 19.5542 31.2802 19.653 31.5896 19.8508C31.9041 20.0429 32.1501 20.3169 32.3276 20.6727C32.5052 21.0231 32.594 21.4326 32.594 21.9015C32.594 22.3704 32.5052 22.7828 32.3276 23.1387C32.1501 23.489 31.9041 23.763 31.5896 23.9607C31.2802 24.1528 30.9352 24.2489 30.5547 24.2489C30.0322 24.2489 29.6213 24.0653 29.3221 23.698V25.825H28.135V19.622H29.2688V20.1473C29.563 19.7519 29.9916 19.5542 30.5547 19.5542ZM36.0229 23.9523C36.3678 24.15 36.7559 24.2489 37.187 24.2489C37.6182 24.2489 38.0037 24.15 38.3436 23.9523C38.6835 23.7489 38.9498 23.4692 39.1426 23.1134C39.3353 22.7574 39.4318 22.3535 39.4318 21.9015C39.4318 21.4496 39.3353 21.0456 39.1426 20.6897C38.9498 20.3338 38.6835 20.057 38.3436 19.8593C38.0037 19.6559 37.6182 19.5542 37.187 19.5542C36.7559 19.5542 36.3678 19.6559 36.0229 19.8593C35.683 20.057 35.4167 20.3338 35.2239 20.6897C35.0312 21.0456 34.9348 21.4496 34.9348 21.9015C34.9348 22.3535 35.0312 22.7574 35.2239 23.1134C35.4167 23.4692 35.683 23.7489 36.0229 23.9523ZM42.4926 19.5542C42.8731 19.5542 43.2181 19.653 43.5275 19.8508C43.842 20.0429 44.0881 20.3169 44.2656 20.6727C44.4431 21.0231 44.5319 21.4326 44.5319 21.9015C44.5319 22.3704 44.4431 22.7828 44.2656 23.1387C44.0881 23.489 43.842 23.763 43.5275 23.9607C43.2181 24.1528 42.8731 24.2489 42.4926 24.2489C41.9702 24.2489 41.5593 24.0653 41.26 23.698V25.825H40.073V19.622H41.2067V20.1473C41.5009 19.7519 41.9296 19.5542 42.4926 19.5542ZM49.3837 24.1811C49.5562 24.1303 49.7007 24.0568 49.8174 23.9607L49.4978 23.0286C49.3659 23.1415 49.2062 23.1981 49.0184 23.1981C48.8562 23.1981 48.7293 23.1473 48.638 23.0455C48.5518 22.9382 48.5086 22.7885 48.5086 22.5964V20.7406H49.5283V19.7236H48.5086V18.6135H47.3217V19.7236H46.6901V20.7406H47.3217V22.6134C47.3217 23.1501 47.4536 23.5568 47.7173 23.8337C47.9862 24.1105 48.3641 24.2489 48.851 24.2489C49.0388 24.2489 49.2163 24.2263 49.3837 24.1811ZM51.2126 25.6386C51.4307 25.8081 51.7477 25.8929 52.1637 25.8929C52.6507 25.8929 53.0286 25.7375 53.2974 25.4268C53.5714 25.1217 53.7083 24.7037 53.7083 24.1726V19.622H52.5213V24.1811C52.5213 24.4014 52.4782 24.5652 52.392 24.6726C52.3058 24.7856 52.1865 24.842 52.0344 24.842C51.8365 24.842 51.6691 24.7884 51.5322 24.681L51.2126 25.6386ZM52.5822 18.7745C52.7192 18.9158 52.8967 18.9864 53.1148 18.9864C53.333 18.9864 53.5105 18.9158 53.6475 18.7745C53.7845 18.6276 53.8529 18.4441 53.8529 18.2238C53.8529 18.0203 53.7845 17.8509 53.6475 17.7153C53.5105 17.5797 53.333 17.5119 53.1148 17.5119C52.8967 17.5119 52.7192 17.5825 52.5822 17.7238C52.4453 17.865 52.3768 18.0401 52.3768 18.2491C52.3768 18.4582 52.4453 18.6334 52.5822 18.7745ZM58.8189 17.8932V24.1811H57.6852V23.6557C57.3909 24.0511 56.9649 24.2489 56.4069 24.2489C56.0213 24.2489 55.6713 24.1528 55.3568 23.9607C55.0473 23.7687 54.8039 23.4947 54.6263 23.1387C54.4488 22.7828 54.36 22.3704 54.36 21.9015C54.36 21.4326 54.4488 21.0202 54.6263 20.6643C54.8039 20.3084 55.0473 20.0344 55.3568 19.8423C55.6713 19.6502 56.0213 19.5542 56.4069 19.5542C56.9293 19.5542 57.3377 19.7378 57.6319 20.105V17.8932H58.8189ZM50.3316 19.622H51.5186V24.1811H50.3316V19.622ZM62.8841 18.9562C62.8841 17.7377 63.9405 16.75 65.2436 16.75H79.1642C80.4678 16.75 81.5238 17.7377 81.5238 18.9562V24.2511C81.5238 25.4695 80.4678 26.4573 79.1642 26.4573H65.2436C63.9405 26.4573 62.8841 25.4695 62.8841 24.2511V18.9562Z" fill="white"/>
</g>
<defs>
<clipPath id="clip0_3156_9096">
<rect width="96.7619" height="32" fill="white" transform="translate(0 0.75)"/>
</clipPath>
</defs>
</svg>
