<svg width="10" height="9" viewBox="0 0 10 9" fill="none" xmlns="http://www.w3.org/2000/svg">
<path fill-rule="evenodd" clip-rule="evenodd" d="M5.20711 0.292893C5.59763 0.683417 5.59763 1.31658 5.20711 1.70711L2.41421 4.5L5.20711 7.29289C5.59763 7.68342 5.59763 8.31658 5.20711 8.70711C4.81658 9.09763 4.18342 9.09763 3.79289 8.70711L0.292893 5.20711C-0.0976311 4.81658 -0.0976311 4.18342 0.292893 3.79289L3.79289 0.292893C4.18342 -0.0976311 4.81658 -0.0976311 5.20711 0.292893Z" fill="#777E91"/>
<path fill-rule="evenodd" clip-rule="evenodd" d="M9.70711 0.292893C10.0976 0.683417 10.0976 1.31658 9.70711 1.70711L6.91421 4.5L9.70711 7.29289C10.0976 7.68342 10.0976 8.31658 9.70711 8.70711C9.31658 9.09763 8.68342 9.09763 8.29289 8.70711L4.79289 5.20711C4.40237 4.81658 4.40237 4.18342 4.79289 3.79289L8.29289 0.292893C8.68342 -0.0976311 9.31658 -0.0976311 9.70711 0.292893Z" fill="#777E91"/>
</svg>
