<svg width="11" height="7" viewBox="0 0 11 7" fill="none" xmlns="http://www.w3.org/2000/svg">
<path d="M5.17605 4.47973L8.83305 0.822727C8.8996 0.749639 8.98015 0.690648 9.06991 0.649244C9.15968 0.607841 9.25683 0.584867 9.35563 0.581682C9.45443 0.578498 9.55287 0.595168 9.64511 0.630705C9.73735 0.666243 9.82153 0.719925 9.89266 0.788575C9.96378 0.857225 10.0204 0.939447 10.0592 1.03037C10.098 1.1213 10.1181 1.21908 10.1184 1.31793C10.1188 1.41678 10.0992 1.51469 10.061 1.60587C10.0228 1.69704 9.96673 1.77962 9.89605 1.84873L9.87805 1.86673L5.69905 6.04673C5.56046 6.18528 5.37252 6.26312 5.17655 6.26312C4.98058 6.26312 4.79263 6.18528 4.65405 6.04673L0.475048 1.86773C0.40525 1.80029 0.349418 1.71977 0.31074 1.63076C0.272061 1.54175 0.251293 1.44599 0.249621 1.34895C0.24795 1.25192 0.265408 1.1555 0.300998 1.06521C0.336588 0.97492 0.389614 0.892524 0.457048 0.822727C0.524482 0.752929 0.605003 0.697097 0.694014 0.658418C0.783025 0.619739 0.878783 0.598971 0.97582 0.5973C1.07286 0.595629 1.16927 0.613086 1.25956 0.648677C1.34985 0.684267 1.43225 0.737293 1.50205 0.804727L1.52005 0.822727L5.17605 4.47973Z" fill="#FF1A5E" stroke="#FF1A5E" stroke-width="0.5"/>
</svg>
