<svg width="10" height="9" viewBox="0 0 10 9" fill="none" xmlns="http://www.w3.org/2000/svg">
<path fill-rule="evenodd" clip-rule="evenodd" d="M4.79289 0.292893C4.40237 0.683417 4.40237 1.31658 4.79289 1.70711L7.58579 4.5L4.79289 7.29289C4.40237 7.68342 4.40237 8.31658 4.79289 8.70711C5.18342 9.09763 5.81658 9.09763 6.20711 8.70711L9.70711 5.20711C10.0976 4.81658 10.0976 4.18342 9.70711 3.79289L6.20711 0.292893C5.81658 -0.0976311 5.18342 -0.0976311 4.79289 0.292893Z" fill="#777E91"/>
<path fill-rule="evenodd" clip-rule="evenodd" d="M0.292893 0.292893C-0.097631 0.683417 -0.097631 1.31658 0.292893 1.70711L3.08579 4.5L0.292893 7.29289C-0.097631 7.68342 -0.097631 8.31658 0.292893 8.70711C0.683417 9.09763 1.31658 9.09763 1.70711 8.70711L5.20711 5.20711C5.59763 4.81658 5.59763 4.18342 5.20711 3.79289L1.70711 0.292893C1.31658 -0.0976311 0.683417 -0.0976311 0.292893 0.292893Z" fill="#777E91"/>
</svg>
