<svg width="17" height="15" viewBox="0 0 17 15" fill="none" xmlns="http://www.w3.org/2000/svg">
<path d="M9.70907 0.1875C9.46043 0.1875 9.22198 0.286272 9.04616 0.462087C8.87035 0.637903 8.77157 0.87636 8.77157 1.125C8.77157 1.37364 8.87035 1.6121 9.04616 1.78791C9.22198 1.96373 9.46043 2.0625 9.70907 2.0625C9.95771 2.0625 10.1962 1.96373 10.372 1.78791C10.5478 1.6121 10.6466 1.37364 10.6466 1.125C10.6466 0.87636 10.5478 0.637903 10.372 0.462087C10.1962 0.286272 9.95771 0.1875 9.70907 0.1875ZM12.6725 1.50146C11.6954 1.48915 10.7465 1.91875 10.1104 2.68213C10.2274 3.24838 10.6185 3.60263 11.2083 3.75C11.9204 4.73923 11.8486 5.50727 10.7052 5.9729C9.89167 6.12512 9.17248 6.54097 8.63461 7.12793C8.62577 7.13289 8.59132 7.15202 8.58334 7.15649C8.56696 7.18923 8.54522 7.21592 8.52695 7.24658C8.45674 7.33004 8.3913 7.41718 8.32846 7.50659C7.42759 8.43284 5.49963 7.80613 6.52084 5.4375C6.64084 5.229 6.19004 4.4514 5.53866 4.00928C5.53304 4.00965 5.52744 4.00817 5.52182 4.00855C5.26743 4.01954 5.02122 4.07028 4.78866 4.15503C4.71802 4.11819 4.63917 4.095 4.55429 4.09131C1.97654 3.97806 1.81321 5.90308 1.71908 7.05396C1.65383 7.85271 1.5903 8.34698 1.25693 8.47485C0.966676 8.58623 0.82182 8.91192 0.933195 9.20142C1.01907 9.42529 1.23222 9.5625 1.45834 9.5625C1.52547 9.5625 1.59301 9.55065 1.65976 9.52515C2.67713 9.1344 2.76805 8.03199 2.84042 7.14624C2.91006 6.294 2.98305 5.72655 3.38901 5.4375C3.22515 5.76602 3.13031 6.11959 3.11947 6.47681C3.0996 7.13043 3.35462 7.7346 3.83725 8.17822C3.97841 8.30789 4.13347 8.41527 4.29428 8.50928C4.15851 8.84941 3.92735 9.15898 3.66879 9.43286C3.66166 9.43736 3.62836 9.45886 3.62778 9.45923C3.4639 9.56085 3.36269 9.73853 3.36044 9.93091L3.33334 12.1809C3.33259 12.2439 3.34203 12.3059 3.36191 12.3655L3.54941 12.928C3.62816 13.1635 3.84784 13.3125 4.08334 13.3125C4.14222 13.3125 4.20171 13.3038 4.26059 13.2839C4.55534 13.1861 4.71479 12.8668 4.61654 12.572L4.45907 12.0996L4.48178 10.2444C4.86803 9.98264 5.60303 9.45061 6.18466 8.81836C6.19206 8.81033 6.19686 8.80106 6.2037 8.79273C6.27338 8.77528 6.34351 8.76081 6.41171 8.73706C6.81288 8.9503 7.24401 9.08302 7.68393 9.14942C7.66133 9.31555 7.64584 9.48402 7.64584 9.65625C7.64584 10.9204 8.27611 12.0381 9.23739 12.7178C9.76428 14.0691 11.0886 15 12.5208 15C14.2942 15 16.2705 13.5339 16.2701 11.4294C16.2701 9.87587 15.407 8.90984 14.9671 8.5166C14.6021 7.3754 13.705 6.47208 12.5684 6.09668L13.3331 4.92627C13.506 4.92477 13.675 4.89418 13.8363 4.84131L14.7921 5.61401C14.9717 5.75951 15.2232 5.77966 15.4242 5.66528L15.7992 5.45215C15.9342 5.37527 16.0309 5.24621 16.0672 5.09546C16.1036 4.94471 16.0769 4.7854 15.9918 4.65527L15.1261 3.33252L15.274 3.01172C15.4188 2.69822 15.2814 2.32663 14.9679 2.18188C14.8801 2.14138 14.7887 2.12583 14.6983 2.12695L13.9952 1.80249C13.5665 1.60433 13.1165 1.50706 12.6725 1.50146ZM7.29648 1.67212C6.3715 1.69355 5.49136 2.11191 5.39657 2.8125C5.35658 3.10805 5.49263 3.35887 5.7225 3.55444C5.7285 3.56136 5.73295 3.56899 5.73935 3.57568L7.2225 5.12842L6.90756 6.63501C6.84418 6.93914 7.03923 7.23703 7.34335 7.30078C7.38198 7.30866 7.42082 7.3125 7.45907 7.3125C7.72007 7.3125 7.954 7.13012 8.00912 6.86499L8.38412 5.06836C8.422 4.88686 8.36844 4.69869 8.24057 4.56519L7.47958 3.76831L8.57895 3.57422L8.8558 4.28027C8.89405 4.3789 8.95964 4.46521 9.04477 4.52783L10.1236 5.3269C10.2245 5.40153 10.3417 5.4375 10.4583 5.4375C10.6305 5.4375 10.8004 5.35895 10.911 5.21045C11.0959 4.9607 11.0435 4.60833 10.7938 4.42383L9.84457 3.7207L9.70907 3.375C9.52157 2.53238 9.14657 2.06236 8.20907 1.78711C7.91826 1.7018 7.6048 1.66498 7.29648 1.67212ZM11.3958 7.03125C12.843 7.03125 14.0208 8.20913 14.0208 9.65625C14.0208 11.1034 12.8433 12.2813 11.3958 12.2813C9.94834 12.2813 8.77084 11.1034 8.77084 9.65625C8.77084 8.20913 9.94834 7.03125 11.3958 7.03125ZM11.3958 7.6062C11.1888 7.6062 11.0208 7.77383 11.0208 7.9812V8.18921C10.6265 8.29177 10.3331 8.64184 10.3331 9.06152C10.3331 9.5614 10.7464 9.96826 11.2545 9.96826H11.5987C11.7626 9.96826 11.8954 10.0946 11.8954 10.2495C11.8954 10.4044 11.7626 10.5308 11.5987 10.5308H11.1549C10.991 10.5308 10.8692 10.4476 10.8407 10.4158C10.7443 10.2759 10.5521 10.2389 10.41 10.3337C10.2664 10.4297 10.228 10.6237 10.3236 10.7673C10.4365 10.9368 10.7042 11.0995 11.0208 11.1394V11.3313C11.0208 11.5387 11.1888 11.7063 11.3958 11.7063C11.6028 11.7063 11.7708 11.5387 11.7708 11.3313V11.1394C12.1971 11.06 12.5208 10.6916 12.5208 10.2495C12.5208 9.74964 12.1076 9.34351 11.5995 9.34351H11.2552C11.0913 9.34351 10.9579 9.21713 10.9579 9.06226C10.9579 8.90738 11.0913 8.78101 11.2552 8.78101H11.3922C11.3935 8.78102 11.3945 8.78174 11.3958 8.78174C11.3971 8.78174 11.3982 8.78102 11.3995 8.78101H11.5833C11.7401 8.78101 11.8147 8.87978 11.8184 8.88428C11.9099 9.0309 12.1032 9.07503 12.2491 8.98316C12.3957 8.89203 12.4395 8.69947 12.348 8.55322C12.3259 8.51817 12.1447 8.24701 11.7708 8.17456V7.9812C11.7708 7.77383 11.6028 7.6062 11.3958 7.6062ZM6.06528 9.58521C5.79003 9.79446 5.50347 9.90113 5.20834 9.9375L4.86923 11.0625L5.50058 12.6394C5.67908 13.1247 5.98872 13.1464 6.33334 13.125C6.67759 13.1036 6.85697 12.7501 6.7186 12.4651L6.06528 11.0237C6.08365 10.9048 6.43368 9.66211 6.43368 9.66211L6.06528 9.58521ZM15.0199 10.6033C15.0957 10.8472 15.1458 11.1216 15.1458 11.4302C15.1458 12.8297 13.7602 13.875 12.5208 13.875C11.985 13.875 11.5102 13.6819 11.1263 13.3931C11.2156 13.3995 11.3049 13.4063 11.3958 13.4063C13.136 13.4063 14.5987 12.2133 15.0199 10.6033Z" fill="#58C27D"/>
</svg>
