<svg width="18" height="17" viewBox="0 0 18 17" fill="none" xmlns="http://www.w3.org/2000/svg">
<path d="M8.75 0.219971C4.1852 0.219971 0.470001 3.93517 0.470001 8.49997C0.470001 13.0648 4.1852 16.78 8.75 16.78C13.3148 16.78 17.03 13.0648 17.03 8.49997C17.03 3.93517 13.3148 0.219971 8.75 0.219971ZM8.75 4.53997C10.9352 4.53997 12.71 6.31477 12.71 8.49997C12.71 10.6852 10.9352 12.46 8.75 12.46C6.5648 12.46 4.79 10.6852 4.79 8.49997C4.79 6.31477 6.5648 4.53997 8.75 4.53997ZM9.99945 6.42997C9.75105 6.42997 9.57468 6.46625 9.39828 6.53825C9.22188 6.61025 9.08151 6.71769 8.97711 6.86169C8.83671 7.00569 8.76434 7.18583 8.69234 7.36583C8.62394 7.54583 8.58828 7.76225 8.58828 7.97825H9.2218C9.2218 7.83425 9.22166 7.68969 9.25766 7.58169C9.25766 7.47369 9.32994 7.36625 9.36594 7.25825C9.43434 7.15025 9.50566 7.07769 9.57406 7.04169C9.64606 7.00569 9.75069 6.96997 9.89469 6.96997C10.0351 6.96997 10.1757 7.00569 10.2477 7.04169C10.3521 7.07769 10.424 7.14969 10.46 7.22169C10.5284 7.29369 10.5641 7.36625 10.5641 7.43825C10.6001 7.54625 10.6006 7.61797 10.6006 7.68997C10.6006 7.86997 10.5643 8.01369 10.4923 8.12169C10.4239 8.22969 10.3162 8.33783 10.2118 8.44583C10.1038 8.55383 9.96337 8.62611 9.82297 8.73411C9.68257 8.84211 9.57454 8.91369 9.43414 9.02169C9.15334 9.20169 8.94103 9.41797 8.80063 9.66997C8.62423 9.92197 8.55172 10.246 8.55172 10.57H11.27V9.95825H9.32938C9.36538 9.88625 9.398 9.77783 9.47 9.70583C9.542 9.63383 9.6102 9.56197 9.7182 9.48997C9.8226 9.41797 9.92731 9.34611 10.0353 9.27411C10.1757 9.20211 10.2803 9.13025 10.3883 9.05825C10.4927 8.98625 10.6003 8.91383 10.7047 8.80583C10.8127 8.69783 10.9175 8.58969 10.9895 8.48169C11.0939 8.37369 11.1659 8.26569 11.1983 8.12169C11.2343 8.01369 11.27 7.86997 11.27 7.68997C11.27 7.54597 11.2343 7.40225 11.1983 7.25825C11.1659 7.11425 11.0939 6.96969 10.9895 6.86169C10.8815 6.71769 10.777 6.61025 10.6006 6.53825C10.4602 6.46625 10.2479 6.42997 9.99945 6.42997ZM7.03649 6.46583C7.00049 6.60983 6.96434 6.71797 6.89234 6.78997C6.82394 6.89797 6.7162 6.93383 6.6118 7.00583C6.5038 7.04183 6.39923 7.07811 6.25883 7.11411C6.15083 7.15011 6.0104 7.14997 5.87 7.14997V7.65411H6.86V10.5341H7.56594V6.46583H7.03649Z" fill="#58C27D"/>
</svg>
