<svg width="13" height="15" viewBox="0 0 13 15" fill="none" xmlns="http://www.w3.org/2000/svg">
<path d="M2.41666 0C1.58828 0 0.916656 0.671625 0.916656 1.5V13.5C0.916656 14.3284 1.58828 15 2.41666 15H11.4167C12.245 15 12.9167 14.3284 12.9167 13.5V1.5C12.9167 0.671625 12.245 0 11.4167 0H2.41666ZM10.4667 1.50586C10.6182 1.50586 10.755 1.59707 10.8131 1.73657L11.7506 3.98657C11.8301 4.17782 11.7397 4.39669 11.5485 4.47656C11.5012 4.49644 11.4529 4.50586 11.4049 4.50586C11.2579 4.50586 11.1181 4.41915 11.0585 4.27515L10.9984 4.13013C10.9966 4.13013 10.9941 4.13086 10.9919 4.13086H9.94156C9.93968 4.13086 9.93795 4.13013 9.9357 4.13013L9.87491 4.27515C9.81528 4.41877 9.67621 4.50586 9.52921 4.50586C9.48121 4.50586 9.43217 4.49644 9.38492 4.47656C9.19367 4.39706 9.104 4.17782 9.1835 3.98657L10.121 1.73657C10.1791 1.5967 10.3152 1.50586 10.4667 1.50586ZM10.4667 2.85571L10.2477 3.38086H10.6857L10.4667 2.85571ZM6.91666 5.25732C7.02766 5.25732 7.13838 5.30248 7.20963 5.39136L8.70963 7.26636C8.81913 7.40323 8.81913 7.5975 8.70963 7.73437L7.20963 9.60937C7.13838 9.69825 7.03066 9.75 6.91666 9.75C6.80266 9.75 6.69494 9.69825 6.62369 9.60937L5.12369 7.73437C5.01419 7.5975 5.01419 7.40323 5.12369 7.26636L6.62369 5.39136C6.69456 5.30248 6.80566 5.25732 6.91666 5.25732ZM2.41812 10.5044C2.56512 10.5044 2.7042 10.5918 2.76382 10.7358L2.82462 10.8809C2.82649 10.8809 2.82787 10.8794 2.82974 10.8794H3.88004C3.88304 10.8794 3.88548 10.8809 3.88736 10.8809L3.94742 10.7358C4.00742 10.5918 4.1465 10.5044 4.29312 10.5044C4.34112 10.5044 4.39016 10.5138 4.43741 10.5337C4.62866 10.6132 4.71906 10.8332 4.63956 11.0244L3.70206 13.2744C3.64393 13.4143 3.50712 13.5051 3.35562 13.5051C3.20412 13.5051 3.06731 13.4139 3.00919 13.2744L2.07169 11.0244C1.99219 10.8332 2.08258 10.6136 2.27383 10.5337C2.32108 10.5138 2.37012 10.5044 2.41812 10.5044ZM3.13736 11.6294L3.35635 12.1545L3.57535 11.6294H3.13736Z" fill="#58C27D"/>
</svg>
