<svg width="16" height="17" viewBox="0 0 16 17" fill="none" xmlns="http://www.w3.org/2000/svg">
<path fill-rule="evenodd" clip-rule="evenodd" d="M12.6667 4.74984H3.33337C2.96518 4.74984 2.66671 5.04831 2.66671 5.4165V13.4165C2.66671 13.7847 2.96518 14.0832 3.33337 14.0832H12.6667C13.0349 14.0832 13.3334 13.7847 13.3334 13.4165V5.4165C13.3334 5.04831 13.0349 4.74984 12.6667 4.74984ZM3.33337 3.4165C2.2288 3.4165 1.33337 4.31193 1.33337 5.4165V13.4165C1.33337 14.5211 2.2288 15.4165 3.33337 15.4165H12.6667C13.7713 15.4165 14.6667 14.5211 14.6667 13.4165V5.4165C14.6667 4.31193 13.7713 3.4165 12.6667 3.4165H3.33337Z" fill="#777E90"/>
<path fill-rule="evenodd" clip-rule="evenodd" d="M6.66667 8.75C6.29848 8.75 6 9.04848 6 9.41667C6 9.78486 6.29848 10.0833 6.66667 10.0833H11.3333C11.7015 10.0833 12 9.78486 12 9.41667C12 9.04848 11.7015 8.75 11.3333 8.75H6.66667ZM4.66667 11.4167C4.29848 11.4167 4 11.7151 4 12.0833C4 12.4515 4.29848 12.75 4.66667 12.75H8.66667C9.03486 12.75 9.33333 12.4515 9.33333 12.0833C9.33333 11.7151 9.03486 11.4167 8.66667 11.4167H4.66667Z" fill="#777E90"/>
<path fill-rule="evenodd" clip-rule="evenodd" d="M4.66667 2.0835C4.29848 2.0835 4 2.38197 4 2.75016V5.41683C4 5.78502 4.29848 6.0835 4.66667 6.0835C5.03486 6.0835 5.33333 5.78502 5.33333 5.41683V2.75016C5.33333 2.38197 5.03486 2.0835 4.66667 2.0835ZM11.3333 2.0835C10.9651 2.0835 10.6667 2.38197 10.6667 2.75016V5.41683C10.6667 5.78502 10.9651 6.0835 11.3333 6.0835C11.7015 6.0835 12 5.78502 12 5.41683V2.75016C12 2.38197 11.7015 2.0835 11.3333 2.0835Z" fill="#777E90"/>
</svg>
