<svg width="19" height="18" viewBox="0 0 19 18" fill="none" xmlns="http://www.w3.org/2000/svg">
<path d="M17.1875 9C17.1875 13.1355 13.823 16.5 9.6875 16.5C8.49387 16.5 7.31075 16.2112 6.25062 15.6641L3.37775 16.4662C3.29487 16.4887 3.2105 16.5 3.1265 16.5C2.88088 16.5 2.6405 16.4032 2.46237 16.2255C2.2235 15.9862 2.13162 15.636 2.22237 15.3109L3.0245 12.4395C2.47625 11.3782 2.1875 10.1944 2.1875 9C2.1875 4.86412 5.552 1.5 9.6875 1.5C13.823 1.5 17.1875 4.86412 17.1875 9ZM13.4375 7.68712C13.4375 7.37662 13.1859 7.12462 12.875 7.12462H6.5C6.18912 7.12462 5.9375 7.37662 5.9375 7.68712C5.9375 7.99762 6.18912 8.24962 6.5 8.24962H12.875C13.1859 8.24962 13.4375 7.99762 13.4375 7.68712ZM11.9375 10.3121C11.9375 10.0016 11.6859 9.74962 11.375 9.74962H6.5C6.18912 9.74962 5.9375 10.0016 5.9375 10.3121C5.9375 10.6226 6.18912 10.8746 6.5 10.8746H11.375C11.6859 10.8746 11.9375 10.6226 11.9375 10.3121Z" fill="#4B50C8"/>
</svg>
