<svg width="18" height="18" viewBox="0 0 18 18" fill="none" xmlns="http://www.w3.org/2000/svg">
<path d="M16.5 9C16.5 13.1355 13.1355 16.5 9 16.5C7.80637 16.5 6.62325 16.2112 5.56312 15.6641L2.69025 16.4662C2.60737 16.4887 2.523 16.5 2.439 16.5C2.19338 16.5 1.953 16.4032 1.77487 16.2255C1.536 15.9862 1.44412 15.636 1.53487 15.3109L2.337 12.4395C1.78875 11.3782 1.5 10.1944 1.5 9C1.5 4.86412 4.8645 1.5 9 1.5C13.1355 1.5 16.5 4.86412 16.5 9ZM12.75 7.68712C12.75 7.37662 12.4984 7.12462 12.1875 7.12462H5.8125C5.50162 7.12462 5.25 7.37662 5.25 7.68712C5.25 7.99762 5.50162 8.24962 5.8125 8.24962H12.1875C12.4984 8.24962 12.75 7.99762 12.75 7.68712ZM11.25 10.3121C11.25 10.0016 10.9984 9.74962 10.6875 9.74962H5.8125C5.50162 9.74962 5.25 10.0016 5.25 10.3121C5.25 10.6226 5.50162 10.8746 5.8125 10.8746H10.6875C10.9984 10.8746 11.25 10.6226 11.25 10.3121Z" fill="white"/>
</svg>
