<svg width="16" height="17" viewBox="0 0 16 17" fill="none" xmlns="http://www.w3.org/2000/svg">
<path fill-rule="evenodd" clip-rule="evenodd" d="M8.00004 14.0835C10.9456 14.0835 13.3334 11.6957 13.3334 8.75016C13.3334 5.80464 10.9456 3.41683 8.00004 3.41683C5.05452 3.41683 2.66671 5.80464 2.66671 8.75016C2.66671 11.6957 5.05452 14.0835 8.00004 14.0835ZM8.00004 15.4168C11.6819 15.4168 14.6667 12.4321 14.6667 8.75016C14.6667 5.06826 11.6819 2.0835 8.00004 2.0835C4.31814 2.0835 1.33337 5.06826 1.33337 8.75016C1.33337 12.4321 4.31814 15.4168 8.00004 15.4168Z" fill="#777E90"/>
<path fill-rule="evenodd" clip-rule="evenodd" d="M8.00004 4.75C8.36823 4.75 8.66671 5.04848 8.66671 5.41667V8.47386L10.1381 9.94526C10.3985 10.2056 10.3985 10.6277 10.1381 10.8881C9.87776 11.1484 9.45565 11.1484 9.1953 10.8881L7.52864 9.2214C7.40361 9.09638 7.33337 8.92681 7.33337 8.75V5.41667C7.33337 5.04848 7.63185 4.75 8.00004 4.75Z" fill="#777E90"/>
</svg>
