<svg width="18" height="18" viewBox="0 0 18 18" fill="none" xmlns="http://www.w3.org/2000/svg">
<path d="M1.99023 0.990242C1.79129 0.990294 1.5969 1.04967 1.43189 1.16079C1.26688 1.2719 1.13875 1.4297 1.0639 1.61401C0.989039 1.79832 0.97085 2.00077 1.01165 2.19548C1.05246 2.39018 1.1504 2.56829 1.29296 2.70704L7.58593 9.00001L1.29296 15.293C1.19699 15.3851 1.12036 15.4955 1.06758 15.6176C1.0148 15.7397 0.986909 15.8712 0.985556 16.0042C0.984202 16.1373 1.00941 16.2692 1.0597 16.3924C1.10999 16.5156 1.18435 16.6275 1.27843 16.7216C1.37251 16.8157 1.48441 16.89 1.60759 16.9403C1.73076 16.9906 1.86274 17.0158 1.99578 17.0144C2.12882 17.0131 2.26025 16.9852 2.38238 16.9324C2.50451 16.8796 2.61488 16.803 2.70702 16.707L8.99999 10.4141L15.293 16.707C15.3851 16.803 15.4955 16.8796 15.6176 16.9324C15.7397 16.9852 15.8712 17.0131 16.0042 17.0145C16.1372 17.0158 16.2692 16.9906 16.3924 16.9403C16.5156 16.89 16.6275 16.8157 16.7216 16.7216C16.8156 16.6275 16.89 16.5156 16.9403 16.3924C16.9906 16.2692 17.0158 16.1373 17.0144 16.0042C17.0131 15.8712 16.9852 15.7397 16.9324 15.6176C16.8796 15.4955 16.803 15.3851 16.707 15.293L10.4141 9.00001L16.707 2.70704C16.8515 2.56658 16.9502 2.38574 16.9902 2.18822C17.0301 1.9907 17.0095 1.78571 16.931 1.60013C16.8524 1.41454 16.7196 1.25701 16.55 1.14818C16.3804 1.03935 16.1819 0.984302 15.9805 0.990242C15.7207 0.997983 15.4741 1.10656 15.293 1.29298L8.99999 7.58595L2.70702 1.29298C2.61383 1.19718 2.50239 1.12104 2.37927 1.06904C2.25616 1.01704 2.12387 0.99025 1.99023 0.990242Z" fill="white"/>
</svg>
