<svg width="16" height="17" viewBox="0 0 16 17" fill="none" xmlns="http://www.w3.org/2000/svg">
<path fill-rule="evenodd" clip-rule="evenodd" d="M10.6666 3.83333H5.33331C4.96512 3.83333 4.66665 4.13181 4.66665 4.5V7.16667C4.66665 9.00762 6.15903 10.5 7.99998 10.5C9.84093 10.5 11.3333 9.00762 11.3333 7.16667V4.5C11.3333 4.13181 11.0348 3.83333 10.6666 3.83333ZM5.33331 2.5C4.22874 2.5 3.33331 3.39543 3.33331 4.5V7.16667C3.33331 9.744 5.42265 11.8333 7.99998 11.8333C10.5773 11.8333 12.6666 9.744 12.6666 7.16667V4.5C12.6666 3.39543 11.7712 2.5 10.6666 2.5H5.33331Z" fill="white"/>
<path fill-rule="evenodd" clip-rule="evenodd" d="M0.666687 5.8335C0.666687 4.72893 1.56212 3.8335 2.66669 3.8335H4.66669V9.16683H3.33335C1.86059 9.16683 0.666687 7.97292 0.666687 6.50016V5.8335ZM2.66669 5.16683H3.33335V7.8335C2.59697 7.8335 2.00002 7.23654 2.00002 6.50016V5.8335C2.00002 5.46531 2.2985 5.16683 2.66669 5.16683Z" fill="white"/>
<path fill-rule="evenodd" clip-rule="evenodd" d="M15.3334 5.8335C15.3334 4.72893 14.4379 3.8335 13.3334 3.8335H11.3334V9.16683H12.6667C14.1394 9.16683 15.3334 7.97292 15.3334 6.50016V5.8335ZM13.3334 5.16683H12.6667V7.8335C13.4031 7.8335 14 7.23654 14 6.50016V5.8335C14 5.46531 13.7015 5.16683 13.3334 5.16683Z" fill="white"/>
<path d="M7.99998 10.5C7.63179 10.5 7.33331 10.7985 7.33331 11.1667V13.1667H5.99998C5.63179 13.1667 5.33331 13.4651 5.33331 13.8333C5.33331 14.2015 5.63179 14.5 5.99998 14.5H9.99998C10.3682 14.5 10.6666 14.2015 10.6666 13.8333C10.6666 13.4651 10.3682 13.1667 9.99998 13.1667H8.66665V11.1667C8.66665 10.7985 8.36817 10.5 7.99998 10.5Z" fill="white"/>
</svg>
