<svg width="17" height="16" viewBox="0 0 17 16" fill="none" xmlns="http://www.w3.org/2000/svg">
<path d="M13 1.3335C12.8334 1.3335 12.678 1.41652 12.5853 1.55485C12.2927 1.99085 10.833 4.21744 10.8334 5.23844C10.8334 5.84278 11.2158 6.46078 11.6478 6.87712L11.1687 12.7417C11.1433 13.2484 11.3219 13.7298 11.6713 14.0972C12.0209 14.4645 12.493 14.6668 13 14.6668C13.507 14.6668 13.9788 14.4645 14.3282 14.0972C14.6775 13.7295 14.8565 13.2481 14.8301 12.7261L14.3516 6.8667C14.7173 6.4947 15.1667 5.87078 15.1667 5.23844C15.1667 4.21744 13.7077 1.99085 13.4154 1.55485C13.3224 1.41652 13.1667 1.3335 13 1.3335ZM8.33337 1.66683C4.26471 1.66683 1.83337 4.6325 1.83337 7.50016C1.83337 9.03583 2.97837 10.3335 4.33337 10.3335C4.87804 10.3335 5.42364 10.2216 5.90564 10.1226C6.21231 10.0599 6.50171 10.0002 6.66671 10.0002C7.28904 10.0002 7.42568 10.2863 7.64001 11.424C7.85835 12.5827 8.18808 14.3335 10.6927 14.3335C10.7891 14.3335 10.888 14.3246 10.9877 14.314C10.6457 13.8513 10.4736 13.2922 10.5033 12.7078L10.959 7.1193C10.4584 6.5463 10.1667 5.86178 10.1667 5.23844C10.1664 4.47078 10.7452 3.29803 11.2976 2.35303C10.3992 1.91803 9.39637 1.66683 8.33337 1.66683ZM8.00004 3.3335C8.46037 3.3335 8.83337 3.7065 8.83337 4.16683C8.83337 4.62716 8.46037 5.00016 8.00004 5.00016C7.53971 5.00016 7.16671 4.62716 7.16671 4.16683C7.16671 3.7065 7.53971 3.3335 8.00004 3.3335ZM5.66671 4.00016C6.12704 4.00016 6.50004 4.37316 6.50004 4.8335C6.50004 5.29383 6.12704 5.66683 5.66671 5.66683C5.20637 5.66683 4.83337 5.29383 4.83337 4.8335C4.83337 4.37316 5.20637 4.00016 5.66671 4.00016ZM4.33337 6.00016C4.79371 6.00016 5.16671 6.37316 5.16671 6.8335C5.16671 7.29383 4.79371 7.66683 4.33337 7.66683C3.87304 7.66683 3.50004 7.29383 3.50004 6.8335C3.50004 6.37316 3.87304 6.00016 4.33337 6.00016ZM12.6413 7.00016H13.3588L13.4675 8.3335H12.5319L12.6413 7.00016Z" fill="white"/>
</svg>
