<svg width="24" height="25" viewBox="0 0 24 25" fill="none" xmlns="http://www.w3.org/2000/svg">
<path d="M21.4026 4.47698V16.1876H2.5979V4.47698C2.5979 3.69699 3.22968 3.06522 4.00967 3.06522H19.9909C20.7708 3.06522 21.4026 3.69699 21.4026 4.47698Z" fill="#435E88"/>
<path d="M21.4026 4.47698V16.1876H2.5979L19.9909 3.06522C20.7708 3.06522 21.4026 3.69699 21.4026 4.47698Z" fill="#33527D"/>
<path d="M2.59914 16.1876L0.709229 19.948H12.0003H12.0002H23.2913L21.4014 16.1876H2.59914Z" fill="#E5E8EF"/>
<path d="M20.5443 18.105L20.1597 17.1658C20.092 17.0004 19.931 16.8924 19.7523 16.8924H4.2484C4.06967 16.8924 3.90867 17.0004 3.84093 17.1658L3.45632 18.105C3.36141 18.3368 3.53186 18.5907 3.7823 18.5907H20.2184C20.4688 18.5907 20.6393 18.3368 20.5443 18.105Z" fill="#CDD4DF"/>
<path d="M23.294 19.948C23.294 20.4059 23.1003 20.8286 22.8008 21.1369C22.4927 21.4452 22.0789 21.6301 21.6121 21.6301H2.38775C1.46304 21.6301 0.705811 20.8725 0.705811 19.948H23.294Z" fill="#CDD4DF"/>
<path d="M14.4064 19.948C14.4064 20.1769 14.3095 20.3883 14.1598 20.5424C14.0057 20.6966 13.7988 20.789 13.5654 20.789H10.4345C9.97212 20.789 9.59351 20.4102 9.59351 19.948H14.4064Z" fill="#33527D"/>
<path d="M4.00854 14.7784V5.07409C4.00854 4.74272 4.27717 4.47409 4.60854 4.47409H19.3921C19.7235 4.47409 19.9921 4.74272 19.9921 5.07409V14.7784H4.00854Z" fill="white"/>
<path d="M18.09 7.41509V11.8356C18.09 12.7241 17.3701 13.444 16.4816 13.444H7.51915C6.63051 13.444 5.91064 12.7241 5.91064 11.8356V7.41509C5.91064 6.52865 6.63051 5.80884 7.51915 5.80884H16.4816C17.3701 5.80884 18.09 6.52865 18.09 7.41509Z" fill="#FF1A5E"/>
<path d="M16.4488 13.4429H7.55237C6.64621 13.4429 5.91162 12.7083 5.91162 11.8022L16.4488 5.80844C17.355 5.80844 18.0896 6.54303 18.0896 7.44919V11.8022C18.0896 12.7083 17.355 13.4429 16.4488 13.4429Z" fill="url(#paint0_linear_2417_40164)"/>
<path d="M16.9406 7.43979V11.813C16.9406 12.0784 16.7246 12.2945 16.4591 12.2945H7.5417C7.27626 12.2945 7.0603 12.0784 7.0603 11.813V7.43979C7.0603 7.1721 7.27626 6.95615 7.5417 6.95615H16.4591C16.7246 6.95615 16.9406 7.1721 16.9406 7.43979Z" fill="#E5E8EF"/>
<path d="M10.5989 6.95648H9.98657V12.2947H10.5989V6.95648Z" fill="#FF1A5E"/>
<path d="M14.0145 6.95648H13.4021V12.2947H14.0145V6.95648Z" fill="#FF1A5E"/>
<path d="M8.26185 10.7868C8.23427 10.7593 8.22066 10.7255 8.22066 10.6853C8.22066 10.66 8.22686 10.6347 8.23962 10.6093L9.11094 8.87599H7.96078C7.92269 8.87599 7.89047 8.86289 7.8641 8.83644C7.83773 8.81007 7.82446 8.77776 7.82446 8.73976C7.82446 8.70176 7.83773 8.66902 7.8641 8.64153C7.89047 8.61413 7.92269 8.60034 7.96078 8.60034H9.25363C9.3043 8.60034 9.34652 8.6162 9.3803 8.64791C9.41408 8.67962 9.43097 8.71968 9.43097 8.76828C9.43097 8.81481 9.42045 8.86126 9.39926 8.9077L8.4995 10.7488C8.48674 10.772 8.46779 10.791 8.44245 10.8057C8.41712 10.8205 8.39058 10.8279 8.36318 10.8279C8.32303 10.8279 8.28925 10.8142 8.26185 10.7868Z" fill="#33527D"/>
<path d="M8.36311 10.872C8.31106 10.872 8.2666 10.8539 8.23058 10.818C8.19474 10.7822 8.17647 10.7375 8.17647 10.6853C8.17647 10.6529 8.1844 10.6207 8.20008 10.5895L9.03935 8.9201H7.96071C7.91056 8.9201 7.86747 8.90243 7.83284 8.86754C7.79802 8.83272 7.78027 8.78973 7.78027 8.73975C7.78027 8.6902 7.79768 8.64686 7.83215 8.61102C7.86713 8.57465 7.91039 8.55621 7.96071 8.55621H9.25356C9.3156 8.55621 9.36834 8.5762 9.41039 8.61575C9.4533 8.656 9.47501 8.70726 9.47501 8.76827C9.47501 8.82101 9.46295 8.87408 9.43934 8.92604L8.53906 10.7681C8.52148 10.8003 8.49684 10.8251 8.46461 10.8439C8.43256 10.8626 8.39844 10.872 8.36311 10.872ZM7.96071 8.64445C7.93451 8.64445 7.91401 8.65324 7.89574 8.67211C7.87713 8.6915 7.86851 8.71304 7.86851 8.73975C7.86851 8.7662 7.87695 8.78697 7.89522 8.80524C7.91332 8.82342 7.93417 8.83186 7.96071 8.83186H9.18239L8.27901 10.6291C8.26936 10.6482 8.26471 10.6665 8.26471 10.6853C8.26471 10.714 8.27367 10.7363 8.29297 10.7555C8.32571 10.7882 8.37466 10.7946 8.42015 10.7676C8.43859 10.7568 8.45186 10.7437 8.46082 10.7275L9.35955 8.8883C9.37747 8.8491 9.38678 8.80834 9.38678 8.76827C9.38678 8.73217 9.37471 8.7033 9.35007 8.68004C9.32456 8.65608 9.29303 8.64445 9.25356 8.64445H7.96071Z" fill="#33527D"/>
<path d="M11.6928 10.7868C11.6652 10.7593 11.6516 10.7255 11.6516 10.6853C11.6516 10.66 11.6578 10.6347 11.6705 10.6093L12.5418 8.87599H11.3917C11.3536 8.87599 11.3214 8.86289 11.295 8.83644C11.2686 8.81007 11.2554 8.77776 11.2554 8.73976C11.2554 8.70176 11.2686 8.66902 11.295 8.64153C11.3214 8.61413 11.3536 8.60034 11.3917 8.60034H12.6845C12.7352 8.60034 12.7774 8.6162 12.8112 8.64791C12.845 8.67962 12.8619 8.71968 12.8619 8.76828C12.8619 8.81481 12.8514 8.86126 12.8302 8.9077L11.9304 10.7488C11.9177 10.772 11.8987 10.791 11.8734 10.8057C11.848 10.8205 11.8215 10.8279 11.7941 10.8279C11.7539 10.8279 11.7202 10.8142 11.6928 10.7868Z" fill="#33527D"/>
<path d="M11.794 10.872C11.742 10.872 11.6975 10.8539 11.6615 10.818C11.6256 10.7822 11.6074 10.7375 11.6074 10.6853C11.6074 10.6529 11.6153 10.6207 11.631 10.5895L12.4703 8.9201H11.3916C11.3415 8.9201 11.2984 8.90243 11.2637 8.86754C11.2289 8.83272 11.2112 8.78973 11.2112 8.73975C11.2112 8.6902 11.2286 8.64686 11.2631 8.61102C11.298 8.57465 11.3413 8.55621 11.3916 8.55621H12.6845C12.7465 8.55621 12.7992 8.5762 12.8413 8.61575C12.8842 8.656 12.9059 8.70726 12.9059 8.76827C12.9059 8.82101 12.8939 8.87408 12.8702 8.92604L11.97 10.7681C11.9524 10.8003 11.9277 10.8251 11.8955 10.8439C11.8635 10.8626 11.8293 10.872 11.794 10.872ZM11.3916 8.64445C11.3654 8.64445 11.3449 8.65324 11.3266 8.67211C11.308 8.6915 11.2994 8.71304 11.2994 8.73975C11.2994 8.7662 11.3079 8.78697 11.3261 8.80524C11.3442 8.82342 11.3651 8.83186 11.3916 8.83186H12.6133L11.7099 10.6291C11.7003 10.6482 11.6956 10.6665 11.6956 10.6853C11.6956 10.714 11.7046 10.7363 11.7239 10.7555C11.7564 10.7882 11.8054 10.7946 11.8511 10.7676C11.8695 10.7568 11.8828 10.7437 11.8917 10.7275L12.7905 8.8883C12.8084 8.8491 12.8177 8.80834 12.8177 8.76827C12.8177 8.73217 12.8056 8.7033 12.781 8.68004C12.7555 8.65608 12.7239 8.64445 12.6845 8.64445H11.3916Z" fill="#33527D"/>
<path d="M15.1234 10.7868C15.0958 10.7593 15.0822 10.7255 15.0822 10.6853C15.0822 10.66 15.0884 10.6347 15.1012 10.6093L15.9725 8.87599H14.8224C14.7843 8.87599 14.752 8.86289 14.7257 8.83644C14.6993 8.81007 14.686 8.77776 14.686 8.73976C14.686 8.70176 14.6993 8.66902 14.7257 8.64153C14.752 8.61413 14.7843 8.60034 14.8224 8.60034H16.1152C16.1659 8.60034 16.2081 8.6162 16.2419 8.64791C16.2756 8.67962 16.2925 8.71968 16.2925 8.76828C16.2925 8.81481 16.282 8.86126 16.2608 8.9077L15.3611 10.7488C15.3483 10.772 15.3294 10.791 15.304 10.8057C15.2787 10.8205 15.2522 10.8279 15.2248 10.8279C15.1846 10.8279 15.1508 10.8142 15.1234 10.7868Z" fill="#33527D"/>
<path d="M15.2247 10.872C15.1726 10.872 15.1282 10.8539 15.0922 10.818C15.0563 10.7822 15.038 10.7375 15.038 10.6853C15.038 10.6529 15.046 10.6207 15.0617 10.5895L15.9009 8.9201H14.8223C14.7721 8.9201 14.729 8.90243 14.6944 8.86754C14.6596 8.83272 14.6418 8.78973 14.6418 8.73975C14.6418 8.6902 14.6593 8.64686 14.6937 8.61102C14.7287 8.57465 14.772 8.55621 14.8223 8.55621H16.1151C16.1772 8.55621 16.2299 8.5762 16.272 8.61575C16.3149 8.656 16.3366 8.70726 16.3366 8.76827C16.3366 8.82101 16.3245 8.87408 16.3009 8.92604L15.4006 10.7681C15.3831 10.8003 15.3584 10.8251 15.3262 10.8439C15.2941 10.8626 15.26 10.872 15.2247 10.872ZM14.8223 8.64445C14.7961 8.64445 14.7756 8.65324 14.7573 8.67211C14.7387 8.6915 14.7301 8.71304 14.7301 8.73975C14.7301 8.7662 14.7385 8.78697 14.7568 8.80524C14.7749 8.82342 14.7957 8.83186 14.8223 8.83186H16.044L15.1406 10.6291C15.1309 10.6482 15.1263 10.6665 15.1263 10.6853C15.1263 10.714 15.1352 10.7363 15.1545 10.7555C15.1871 10.7882 15.2361 10.7946 15.2817 10.7676C15.3002 10.7568 15.3134 10.7437 15.3224 10.7275L16.2211 8.8883C16.239 8.8491 16.2483 8.80834 16.2483 8.76827C16.2483 8.73217 16.2363 8.7033 16.2116 8.68004C16.1861 8.65608 16.1546 8.64445 16.1151 8.64445H14.8223Z" fill="#33527D"/>
<defs>
<linearGradient id="paint0_linear_2417_40164" x1="12.0006" y1="5.80844" x2="12.0006" y2="13.4429" gradientUnits="userSpaceOnUse">
<stop stop-color="#FF4EA3"/>
<stop offset="1" stop-color="#B8008F"/>
</linearGradient>
</defs>
</svg>
