<svg width="16" height="16" viewBox="0 0 16 16" fill="none" xmlns="http://www.w3.org/2000/svg">
<path d="M6.33333 1C5.14269 1 4.16667 1.97602 4.16667 3.16667C4.16667 3.59563 4.29525 3.99569 4.51302 4.33333H2.83333C2.37333 4.33333 2 4.70667 2 5.16667V7.16667C2 7.62667 2.37333 8 2.83333 8H7.5V4.33333H6.33333C5.68331 4.33333 5.16667 3.81669 5.16667 3.16667C5.16667 2.51665 5.68331 2 6.33333 2C6.98335 2 7.5 2.51665 7.5 3.16667V4.33333H8.5V3.16667C8.5 2.51665 9.01665 2 9.66667 2C10.3167 2 10.8333 2.51665 10.8333 3.16667C10.8333 3.81669 10.3167 4.33333 9.66667 4.33333H8.5V8H13.1667C13.6267 8 14 7.62667 14 7.16667V5.16667C14 4.70667 13.6267 4.33333 13.1667 4.33333H11.487C11.7047 3.99569 11.8333 3.59563 11.8333 3.16667C11.8333 1.97602 10.8573 1 9.66667 1C8.98387 1 8.39804 1.34083 8 1.83919C7.60196 1.34083 7.01613 1 6.33333 1ZM2.66667 9V12.5C2.66667 13.6933 3.64 14.6667 4.83333 14.6667H7.5V9H2.66667ZM8.5 9V14.6667H11.1667C12.36 14.6667 13.3333 13.6933 13.3333 12.5V9H8.5Z" fill="white"/>
</svg>
