<svg width="24" height="24" viewBox="0 0 24 24" fill="none" xmlns="http://www.w3.org/2000/svg">
<path d="M21.4026 4.12929V15.8399H2.5979V4.12929C2.5979 3.34931 3.22968 2.71753 4.00967 2.71753H19.9909C20.7708 2.71753 21.4026 3.34931 21.4026 4.12929Z" fill="#435E88"/>
<path d="M21.4026 4.12929V15.8399H2.5979L19.9909 2.71753C20.7708 2.71753 21.4026 3.34931 21.4026 4.12929Z" fill="#33527D"/>
<path d="M2.59914 15.84L0.709229 19.6003H12.0003H12.0002H23.2913L21.4014 15.84H2.59914Z" fill="#E5E8EF"/>
<path d="M20.5442 17.7573L20.1596 16.8182C20.0919 16.6528 19.9309 16.5447 19.7521 16.5447H4.24828C4.06955 16.5447 3.90855 16.6528 3.84081 16.8182L3.4562 17.7573C3.36129 17.9891 3.53174 18.2431 3.78218 18.2431H20.2182C20.4687 18.2431 20.6391 17.9891 20.5442 17.7573Z" fill="#CDD4DF"/>
<path d="M23.2942 19.6003C23.2942 20.0582 23.1005 20.4809 22.801 20.7892C22.4929 21.0975 22.079 21.2824 21.6122 21.2824H2.38787C1.46316 21.2824 0.705933 20.5248 0.705933 19.6003H23.2942Z" fill="#CDD4DF"/>
<path d="M14.4064 19.6003C14.4064 19.8293 14.3095 20.0406 14.1598 20.1948C14.0057 20.3489 13.7988 20.4414 13.5654 20.4414H10.4345C9.97212 20.4414 9.59351 20.0625 9.59351 19.6003H14.4064Z" fill="#33527D"/>
<path d="M4.00842 14.4307V4.7264C4.00842 4.39503 4.27705 4.1264 4.60842 4.1264H19.392C19.7233 4.1264 19.992 4.39503 19.992 4.7264V14.4307H4.00842Z" fill="white"/>
<path d="M18.0899 7.06743V11.4879C18.0899 12.3764 17.37 13.0963 16.4814 13.0963H7.51903C6.63039 13.0963 5.91052 12.3764 5.91052 11.4879V7.06743C5.91052 6.18099 6.63039 5.46118 7.51903 5.46118H16.4814C17.37 5.46118 18.0899 6.18099 18.0899 7.06743Z" fill="#FF1A5E"/>
<path d="M16.4487 13.0953H7.55224C6.64609 13.0953 5.9115 12.3607 5.9115 11.4546L16.4487 5.46082C17.3549 5.46082 18.0895 6.1954 18.0895 7.10156V11.4546C18.0895 12.3607 17.3549 13.0953 16.4487 13.0953Z" fill="url(#paint0_linear_1627_8111)"/>
<path d="M16.9403 7.09216V11.4654C16.9403 11.7308 16.7244 11.9468 16.4589 11.9468H7.54145C7.27601 11.9468 7.06006 11.7308 7.06006 11.4654V7.09216C7.06006 6.82447 7.27601 6.60852 7.54145 6.60852H16.4589C16.7244 6.60852 16.9403 6.82447 16.9403 7.09216Z" fill="#E5E8EF"/>
<path d="M10.5988 6.60883H9.98645V11.9471H10.5988V6.60883Z" fill="#FF1A5E"/>
<path d="M14.0142 6.60883H13.4019V11.9471H14.0142V6.60883Z" fill="#FF1A5E"/>
<path d="M8.26173 10.4392C8.23415 10.4117 8.22054 10.3779 8.22054 10.3377C8.22054 10.3124 8.22674 10.2871 8.23949 10.2617L9.11082 8.5284H7.96066C7.92257 8.5284 7.89034 8.5153 7.86398 8.48884C7.83761 8.46248 7.82434 8.43017 7.82434 8.39217C7.82434 8.35417 7.83761 8.32142 7.86398 8.29393C7.89034 8.26653 7.92257 8.25275 7.96066 8.25275H9.25351C9.30418 8.25275 9.3464 8.2686 9.38018 8.30031C9.41395 8.33202 9.43084 8.37209 9.43084 8.42069C9.43084 8.46722 9.42033 8.51366 9.39913 8.56011L8.49938 10.4012C8.48662 10.4244 8.46767 10.4434 8.44233 10.4581C8.417 10.4729 8.39046 10.4803 8.36306 10.4803C8.3229 10.4803 8.28913 10.4666 8.26173 10.4392Z" fill="#33527D"/>
<path d="M8.36299 10.5245C8.31094 10.5245 8.26648 10.5063 8.23046 10.4704C8.19462 10.4346 8.17635 10.3899 8.17635 10.3377C8.17635 10.3053 8.18428 10.2731 8.19996 10.2419L9.03923 8.5725H7.96059C7.91044 8.5725 7.86735 8.55484 7.83271 8.51994C7.7979 8.48513 7.78015 8.44213 7.78015 8.39215C7.78015 8.34261 7.79756 8.29927 7.83202 8.26342C7.86701 8.22706 7.91026 8.20862 7.96059 8.20862H9.25344C9.31548 8.20862 9.36821 8.22861 9.41026 8.26816C9.45318 8.3084 9.47489 8.35967 9.47489 8.42068C9.47489 8.47341 9.46283 8.52649 9.43922 8.57845L8.53894 10.4205C8.52136 10.4527 8.49672 10.4775 8.46449 10.4963C8.43244 10.515 8.39832 10.5245 8.36299 10.5245ZM7.96059 8.29685C7.93439 8.29685 7.91388 8.30564 7.89562 8.32451C7.877 8.3439 7.86839 8.36544 7.86839 8.39215C7.86839 8.41861 7.87683 8.43937 7.8951 8.45764C7.91319 8.47582 7.93405 8.48427 7.96059 8.48427H9.18227L8.27889 10.2815C8.26924 10.3006 8.26458 10.3189 8.26458 10.3377C8.26458 10.3664 8.27355 10.3887 8.29285 10.4079C8.32559 10.4406 8.37453 10.447 8.42003 10.42C8.43847 10.4092 8.45174 10.3961 8.4607 10.3799L9.35943 8.54071C9.37735 8.5015 9.38665 8.46074 9.38665 8.42068C9.38665 8.38457 9.37459 8.35571 9.34995 8.33244C9.32444 8.30849 9.2929 8.29685 9.25344 8.29685H7.96059Z" fill="#33527D"/>
<path d="M11.6925 10.4392C11.6649 10.4117 11.6513 10.3779 11.6513 10.3377C11.6513 10.3124 11.6575 10.2871 11.6703 10.2617L12.5416 8.5284H11.3914C11.3534 8.5284 11.3211 8.5153 11.2948 8.48884C11.2684 8.46248 11.2551 8.43017 11.2551 8.39217C11.2551 8.35417 11.2684 8.32142 11.2948 8.29393C11.3211 8.26653 11.3534 8.25275 11.3914 8.25275H12.6843C12.735 8.25275 12.7772 8.2686 12.811 8.30031C12.8447 8.33202 12.8616 8.37209 12.8616 8.42069C12.8616 8.46722 12.8511 8.51366 12.8299 8.56011L11.9302 10.4012C11.9174 10.4244 11.8985 10.4434 11.8731 10.4581C11.8478 10.4729 11.8212 10.4803 11.7938 10.4803C11.7537 10.4803 11.7199 10.4666 11.6925 10.4392Z" fill="#33527D"/>
<path d="M11.7939 10.5245C11.7418 10.5245 11.6974 10.5063 11.6614 10.4704C11.6255 10.4346 11.6073 10.3899 11.6073 10.3377C11.6073 10.3053 11.6152 10.2731 11.6309 10.2419L12.4701 8.5725H11.3915C11.3413 8.5725 11.2983 8.55484 11.2636 8.51994C11.2288 8.48513 11.2111 8.44213 11.2111 8.39215C11.2111 8.34261 11.2285 8.29927 11.2629 8.26342C11.2979 8.22706 11.3412 8.20862 11.3915 8.20862H12.6843C12.7464 8.20862 12.7991 8.22861 12.8412 8.26816C12.8841 8.3084 12.9058 8.35967 12.9058 8.42068C12.9058 8.47341 12.8937 8.52649 12.8701 8.57845L11.9698 10.4205C11.9523 10.4527 11.9276 10.4775 11.8954 10.4963C11.8633 10.515 11.8292 10.5245 11.7939 10.5245ZM11.3915 8.29685C11.3653 8.29685 11.3448 8.30564 11.3265 8.32451C11.3079 8.3439 11.2993 8.36544 11.2993 8.39215C11.2993 8.41861 11.3077 8.43937 11.326 8.45764C11.3441 8.47582 11.365 8.48427 11.3915 8.48427H12.6132L11.7098 10.2815C11.7001 10.3006 11.6955 10.3189 11.6955 10.3377C11.6955 10.3664 11.7045 10.3887 11.7238 10.4079C11.7563 10.4406 11.8053 10.447 11.8509 10.42C11.8694 10.4092 11.8826 10.3961 11.8916 10.3799L12.7903 8.54071C12.8083 8.5015 12.8176 8.46074 12.8176 8.42068C12.8176 8.38457 12.8055 8.35571 12.7809 8.33244C12.7553 8.30849 12.7238 8.29685 12.6843 8.29685H11.3915Z" fill="#33527D"/>
<path d="M15.1232 10.4392C15.0956 10.4117 15.082 10.3779 15.082 10.3377C15.082 10.3124 15.0882 10.2871 15.1009 10.2617L15.9723 8.5284H14.8221C14.784 8.5284 14.7518 8.5153 14.7254 8.48884C14.6991 8.46248 14.6858 8.43017 14.6858 8.39217C14.6858 8.35417 14.6991 8.32142 14.7254 8.29393C14.7518 8.26653 14.784 8.25275 14.8221 8.25275H16.115C16.1656 8.25275 16.2078 8.2686 16.2416 8.30031C16.2754 8.33202 16.2923 8.37209 16.2923 8.42069C16.2923 8.46722 16.2818 8.51366 16.2606 8.56011L15.3608 10.4012C15.3481 10.4244 15.3291 10.4434 15.3038 10.4581C15.2784 10.4729 15.2519 10.4803 15.2245 10.4803C15.1844 10.4803 15.1506 10.4666 15.1232 10.4392Z" fill="#33527D"/>
<path d="M15.2246 10.5245C15.1725 10.5245 15.1281 10.5063 15.092 10.4704C15.0562 10.4346 15.0379 10.3899 15.0379 10.3377C15.0379 10.3053 15.0458 10.2731 15.0615 10.2419L15.9008 8.5725H14.8222C14.772 8.5725 14.7289 8.55484 14.6943 8.51994C14.6595 8.48513 14.6417 8.44213 14.6417 8.39215C14.6417 8.34261 14.6591 8.29927 14.6936 8.26342C14.7286 8.22706 14.7718 8.20862 14.8222 8.20862H16.115C16.1771 8.20862 16.2298 8.22861 16.2718 8.26816C16.3147 8.3084 16.3365 8.35967 16.3365 8.42068C16.3365 8.47341 16.3244 8.52649 16.3008 8.57845L15.4005 10.4205C15.3829 10.4527 15.3583 10.4775 15.3261 10.4963C15.294 10.515 15.2599 10.5245 15.2246 10.5245ZM14.8222 8.29685C14.796 8.29685 14.7755 8.30564 14.7572 8.32451C14.7386 8.3439 14.73 8.36544 14.73 8.39215C14.73 8.41861 14.7384 8.43937 14.7567 8.45764C14.7748 8.47582 14.7956 8.48427 14.8222 8.48427H16.0438L15.1405 10.2815C15.1308 10.3006 15.1262 10.3189 15.1262 10.3377C15.1262 10.3664 15.1351 10.3887 15.1544 10.4079C15.187 10.4406 15.2359 10.447 15.2816 10.42C15.3 10.4092 15.3133 10.3961 15.3223 10.3799L16.221 8.54071C16.2389 8.5015 16.2482 8.46074 16.2482 8.42068C16.2482 8.38457 16.2362 8.35571 16.2115 8.33244C16.186 8.30849 16.1545 8.29685 16.115 8.29685H14.8222Z" fill="#33527D"/>
<defs>
<linearGradient id="paint0_linear_1627_8111" x1="12.0005" y1="5.46082" x2="12.0005" y2="13.0953" gradientUnits="userSpaceOnUse">
<stop stop-color="#FF4EA3"/>
<stop offset="1" stop-color="#B8008F"/>
</linearGradient>
</defs>
</svg>
