<svg width="24" height="25" viewBox="0 0 24 25" fill="none" xmlns="http://www.w3.org/2000/svg">
<path d="M1.03004 12.7824L6.99632 6.81606C7.55733 6.25506 8.26936 5.90762 9.0556 5.81218C9.44288 5.75312 9.79168 6.03948 9.83837 6.42465L18.3253 14.9117C18.7105 14.9584 18.9852 15.3092 18.9378 15.6944C18.8424 16.4806 18.4949 17.1927 17.9339 17.7537L11.9676 23.72C11.3043 24.384 10.4213 24.75 9.48198 24.75C8.54265 24.75 7.65961 24.384 6.99632 23.72L1.03004 17.7537C0.366053 17.0904 5.14984e-05 16.2074 5.14984e-05 15.2681C5.14984e-05 14.3287 0.366053 13.4457 1.03004 12.7824Z" fill="#C81294"/>
<path d="M1.03004 12.7824L6.99632 6.81606C7.55733 6.25506 8.26936 5.90762 9.0556 5.81218C9.44288 5.75312 9.79168 6.03948 9.83837 6.42465L18.3253 14.9117C18.7105 14.9584 18.9852 15.3092 18.9378 15.6944C18.8424 16.4806 18.4949 17.1927 17.9339 17.7537L11.9676 23.72C11.3043 24.384 10.4213 24.75 9.48198 24.75C8.54265 24.75 7.65961 24.384 6.99632 23.72L1.03004 17.7537C0.366053 17.0904 5.14984e-05 16.2074 5.14984e-05 15.2681C5.14984e-05 14.3287 0.366053 13.4457 1.03004 12.7824Z" stroke="#0C42CC"/>
<path d="M5.50326 16.675C5.87896 16.675 6.23236 16.5285 6.49833 16.2626C7.04602 15.7144 7.04583 14.8223 6.49762 14.2741C6.24909 14.0252 5.88702 13.8827 5.50373 13.8827C5.12043 13.8827 4.75799 14.0254 4.50917 14.2741C3.96097 14.8224 3.96097 15.7144 4.50917 16.2626C4.77514 16.5286 5.12816 16.675 5.50326 16.675Z" fill="white"/>
<path d="M5.50326 16.675C5.87896 16.675 6.23236 16.5285 6.49833 16.2626C7.04602 15.7144 7.04583 14.8223 6.49762 14.2741C6.24909 14.0252 5.88702 13.8827 5.50373 13.8827C5.12043 13.8827 4.75799 14.0254 4.50917 14.2741C3.96097 14.8224 3.96097 15.7144 4.50917 16.2626C4.77514 16.5286 5.12816 16.675 5.50326 16.675Z" stroke="#0040E5"/>
<path d="M9.48105 20.6513C9.85727 20.6513 10.2103 20.5054 10.4752 20.2406C11.0236 19.6922 11.0236 18.7998 10.4752 18.2514C10.2105 17.9872 9.85718 17.8414 9.48077 17.8414C9.10459 17.8414 8.75139 17.9872 8.48631 18.2518C7.93838 18.7998 7.93838 19.6922 8.48673 20.2406C8.75162 20.5054 9.10474 20.6513 9.48105 20.6513Z" fill="white"/>
<path d="M9.48105 20.6513C9.85727 20.6513 10.2103 20.5054 10.4752 20.2406C11.0236 19.6922 11.0236 18.7998 10.4752 18.2514C10.2105 17.9872 9.85718 17.8414 9.48077 17.8414C9.10459 17.8414 8.75139 17.9872 8.48631 18.2518C7.93838 18.7998 7.93838 19.6922 8.48673 20.2406C8.75162 20.5054 9.10474 20.6513 9.48105 20.6513Z" stroke="#0040E5"/>
<path fill-rule="evenodd" clip-rule="evenodd" d="M20.4841 0.75H16.2654H12.0466H12.0466C10.1059 0.75 8.53092 2.32501 8.53092 4.26565V12.7032C8.53092 14.1587 9.41686 15.4085 10.6785 15.9425C11.0991 16.1204 11.5614 16.2189 12.0466 16.2189C12.0466 16.2189 12.0466 16.2189 12.0466 16.2189H16.2654H20.4841C22.4247 16.2189 23.9998 14.6439 23.9998 12.7032V4.26565C23.9998 2.32501 22.4247 0.75 20.4841 0.75Z" fill="#EA3790"/>
<path d="M13.4529 7.07815C14.2283 7.07815 14.8591 6.4473 14.8591 5.67189C14.8591 4.89647 14.2283 4.26562 13.4529 4.26562C12.6775 4.26562 12.0466 4.89647 12.0466 5.67189C12.0466 6.4473 12.6775 7.07815 13.4529 7.07815Z" fill="white"/>
<path d="M13.4529 7.07815C14.2283 7.07815 14.8591 6.4473 14.8591 5.67189C14.8591 4.89647 14.2283 4.26562 13.4529 4.26562C12.6775 4.26562 12.0466 4.89647 12.0466 5.67189C12.0466 6.4473 12.6775 7.07815 13.4529 7.07815Z" stroke="#0040E5"/>
<path d="M13.4529 12.7031C14.2283 12.7031 14.8591 12.0723 14.8591 11.2969C14.8591 10.5215 14.2283 9.89062 13.4529 9.89062C12.6775 9.89062 12.0466 10.5215 12.0466 11.2969C12.0466 12.0723 12.6775 12.7031 13.4529 12.7031Z" fill="white"/>
<path d="M13.4529 12.7031C14.2283 12.7031 14.8591 12.0723 14.8591 11.2969C14.8591 10.5215 14.2283 9.89062 13.4529 9.89062C12.6775 9.89062 12.0466 10.5215 12.0466 11.2969C12.0466 12.0723 12.6775 12.7031 13.4529 12.7031Z" stroke="#0040E5"/>
<path d="M19.0769 7.07815C19.8523 7.07815 20.4832 6.4473 20.4832 5.67189C20.4832 4.89647 19.8523 4.26562 19.0769 4.26562C18.3015 4.26562 17.6706 4.89647 17.6706 5.67189C17.6706 6.4473 18.3015 7.07815 19.0769 7.07815Z" fill="white"/>
<path d="M19.0769 7.07815C19.8523 7.07815 20.4832 6.4473 20.4832 5.67189C20.4832 4.89647 19.8523 4.26562 19.0769 4.26562C18.3015 4.26562 17.6706 4.89647 17.6706 5.67189C17.6706 6.4473 18.3015 7.07815 19.0769 7.07815Z" stroke="#0040E5"/>
<path d="M19.0779 12.7031C19.8533 12.7031 20.4841 12.0723 20.4841 11.2969C20.4841 10.5215 19.8533 9.89062 19.0779 9.89062C18.3025 9.89062 17.6716 10.5215 17.6716 11.2969C17.6716 12.0723 18.3025 12.7031 19.0779 12.7031Z" fill="white"/>
<path d="M19.0779 12.7031C19.8533 12.7031 20.4841 12.0723 20.4841 11.2969C20.4841 10.5215 19.8533 9.89062 19.0779 9.89062C18.3025 9.89062 17.6716 10.5215 17.6716 11.2969C17.6716 12.0723 18.3025 12.7031 19.0779 12.7031Z" stroke="#0040E5"/>
</svg>
