<svg width="24" height="25" viewBox="0 0 24 25" fill="none" xmlns="http://www.w3.org/2000/svg">
<g clip-path="url(#clip0_2527_37968)">
<path d="M23.2945 7.81012V17.6889C23.2945 18.6631 22.504 19.4572 21.5264 19.4572H2.47462C1.49697 19.4572 0.706299 18.6631 0.706299 17.6889V7.81012C0.706299 6.83591 1.49697 6.04541 2.47462 6.04541H21.5264C22.504 6.04541 23.2945 6.83591 23.2945 7.81012Z" fill="#FF1A5E"/>
<path d="M23.2945 7.8102V17.6889C23.2945 18.6631 22.504 19.4573 21.5264 19.4573H2.47463C1.93815 19.4573 1.45812 19.2172 1.1405 18.8431C6.89346 15.6702 18.6428 9.17957 22.9487 6.7655C23.1675 7.0583 23.2945 7.41848 23.2945 7.8102Z" fill="url(#paint0_linear_2527_37968)"/>
<path d="M16.069 3.16777C16.069 3.26897 16.0285 3.37355 15.9475 3.45453L14.662 4.73984C14.581 4.82082 14.4764 4.86135 14.3752 4.86136C14.2301 4.86136 14.085 4.7838 14.0108 4.63531C13.9332 4.47336 13.9787 4.27935 14.1053 4.15282L15.3604 2.89786C15.4869 2.77133 15.6809 2.72577 15.8429 2.80337C15.9915 2.87759 16.069 3.02266 16.069 3.16777Z" fill="#435E88"/>
<path d="M12.2868 2.34677C12.3584 2.41837 12.4037 2.52096 12.4037 2.63549V4.45333C12.4037 4.56786 12.3584 4.67051 12.2868 4.74204C12.1842 4.84469 12.0268 4.8924 11.8692 4.83991C11.6998 4.78026 11.5948 4.61085 11.5948 4.43189V2.65699C11.5948 2.47802 11.6998 2.30862 11.8692 2.24896C12.0268 2.19641 12.1842 2.24418 12.2868 2.34677Z" fill="#435E88"/>
<path d="M8.33554 2.76526C8.43675 2.7653 8.54134 2.80579 8.62232 2.88677L9.90768 4.17208C9.98866 4.25306 10.0292 4.35769 10.0292 4.45885C10.0292 4.604 9.95162 4.74903 9.80312 4.82329C9.64115 4.90089 9.44713 4.85533 9.32059 4.72879L8.06559 3.47384C7.93905 3.3473 7.89349 3.1533 7.9711 2.99134C8.04533 2.84281 8.19042 2.7653 8.33554 2.76526Z" fill="#435E88"/>
<path d="M7.93298 22.3323C7.93303 22.2311 7.97353 22.1265 8.05452 22.0455L9.33997 20.7602C9.42096 20.6792 9.52559 20.6387 9.62676 20.6387C9.77193 20.6387 9.91696 20.7162 9.99123 20.8647C10.0688 21.0267 10.0233 21.2207 9.8967 21.3472L8.64161 22.6022C8.51506 22.7287 8.32104 22.7743 8.15907 22.6967C8.01053 22.6224 7.93302 22.4774 7.93298 22.3323Z" fill="#435E88"/>
<path d="M11.7152 23.1533C11.6437 23.0817 11.5983 22.9791 11.5983 22.8646V21.0468C11.5983 20.9322 11.6437 20.8296 11.7152 20.7581C11.8178 20.6554 11.9752 20.6077 12.1328 20.6602C12.3022 20.7198 12.4072 20.8893 12.4072 21.0682L12.4072 22.8431C12.4072 23.0221 12.3022 23.1915 12.1328 23.2511C11.9752 23.3037 11.8178 23.2559 11.7152 23.1533Z" fill="#435E88"/>
<path d="M15.6664 22.7348C15.5652 22.7348 15.4606 22.6943 15.3797 22.6133L14.0943 21.328C14.0133 21.247 13.9728 21.1424 13.9728 21.0412C13.9728 20.8961 14.0504 20.751 14.1989 20.6768C14.3608 20.5992 14.5548 20.6447 14.6814 20.7713L15.9364 22.0262C16.0629 22.1528 16.1085 22.3468 16.0309 22.5087C15.9566 22.6573 15.8116 22.7348 15.6664 22.7348Z" fill="#435E88"/>
<path d="M21.5298 16.9867C21.5298 17.3749 21.2122 17.6925 20.8239 17.6925H3.18051C2.79224 17.6925 2.47463 17.3749 2.47463 16.9867L2.47101 8.51606C2.47101 8.12779 2.78871 7.81018 3.17689 7.81018H20.8205C21.2087 7.81018 21.5264 8.12779 21.5264 8.51606L21.5298 16.9867Z" fill="white"/>
<path d="M9.12923 7.81018H8.20276V17.6925H9.12923V7.81018Z" fill="#FF1A5E"/>
<path d="M15.7981 7.80029H14.8716V17.6826H15.7981V7.80029Z" fill="#FF1A5E"/>
<path d="M5.995 11.8836C5.64817 11.8224 5.36152 11.7447 5.07146 11.7286C4.80116 11.7137 4.57333 11.8349 4.4354 12.0943C4.31692 12.3171 4.10088 12.2369 3.93234 12.1984C3.87728 12.1859 3.83356 11.9969 3.8348 11.8891C3.83788 11.6234 3.85877 11.3564 3.89556 11.0931C3.9121 10.9748 3.96329 10.7864 4.03501 10.7675C4.15576 10.7358 4.30542 10.8138 4.43746 10.8812C4.82952 10.801 5.22722 10.6663 5.64866 10.7841C5.82146 10.8325 5.99059 10.8948 6.1595 10.9559C6.37583 11.0343 6.58176 11.0403 6.79386 10.9278C7.00662 10.8149 7.13402 10.8742 7.31629 11.1274C7.43018 11.2856 7.3282 11.3848 7.23135 11.4934C6.46537 12.352 6.02088 13.3492 5.94593 14.5028C5.9339 14.6879 5.84732 14.7686 5.66207 14.7648C5.38763 14.759 5.11299 14.7639 4.83844 14.7632C4.528 14.7624 4.48097 14.727 4.50865 14.4271C4.59765 13.4627 4.97623 12.6476 5.76856 12.0545C5.82783 12.0102 5.88674 11.9653 5.995 11.8836Z" fill="#435E88"/>
<path d="M12.6119 11.8836C12.2651 11.8224 11.9784 11.7447 11.6883 11.7286C11.418 11.7137 11.1902 11.8349 11.0523 12.0943C10.9338 12.3171 10.7178 12.2369 10.5492 12.1984C10.4942 12.1859 10.4504 11.9969 10.4517 11.8891C10.4548 11.6234 10.4757 11.3564 10.5124 11.0931C10.529 10.9748 10.5802 10.7864 10.6519 10.7675C10.7726 10.7358 10.9223 10.8138 11.0543 10.8812C11.4464 10.801 11.8441 10.6663 12.2655 10.7841C12.4383 10.8325 12.6075 10.8948 12.7764 10.9559C12.9927 11.0343 13.1986 11.0403 13.4107 10.9278C13.6235 10.8149 13.7509 10.8742 13.9332 11.1274C14.0471 11.2856 13.9451 11.3848 13.8482 11.4934C13.0823 12.352 12.6378 13.3492 12.5628 14.5028C12.5508 14.6879 12.4642 14.7686 12.2789 14.7648C12.0045 14.759 11.7299 14.7639 11.4553 14.7632C11.1449 14.7624 11.0978 14.727 11.1255 14.4271C11.2145 13.4627 11.5931 12.6476 12.3854 12.0545C12.4447 12.0102 12.5036 11.9653 12.6119 11.8836Z" fill="#435E88"/>
<path d="M19.2287 11.8836C18.8819 11.8224 18.5952 11.7447 18.3052 11.7286C18.0349 11.7137 17.807 11.8349 17.6691 12.0943C17.5506 12.3171 17.3346 12.2369 17.166 12.1984C17.111 12.1859 17.0673 11.9969 17.0685 11.8891C17.0716 11.6234 17.0925 11.3564 17.1293 11.0931C17.1458 10.9748 17.197 10.7864 17.2687 10.7675C17.3895 10.7358 17.5391 10.8138 17.6712 10.8812C18.0632 10.801 18.4609 10.6663 18.8824 10.7841C19.0552 10.8325 19.2243 10.8948 19.3932 10.9559C19.6095 11.0343 19.8155 11.0403 20.0276 10.9278C20.2403 10.8149 20.3677 10.8742 20.55 11.1274C20.6639 11.2856 20.5619 11.3848 20.4651 11.4934C19.6991 12.352 19.2546 13.3492 19.1796 14.5028C19.1676 14.6879 19.081 14.7686 18.8958 14.7648C18.6213 14.759 18.3467 14.7639 18.0721 14.7632C17.7617 14.7624 17.7147 14.727 17.7424 14.4271C17.8314 13.4627 18.2099 12.6476 19.0023 12.0545C19.0615 12.0102 19.1204 11.9653 19.2287 11.8836Z" fill="#435E88"/>
</g>
<defs>
<linearGradient id="paint0_linear_2527_37968" x1="12.2175" y1="6.7655" x2="12.2175" y2="19.4573" gradientUnits="userSpaceOnUse">
<stop stop-color="#FF4EA3"/>
<stop offset="1" stop-color="#B8008F"/>
</linearGradient>
<clipPath id="clip0_2527_37968">
<rect width="24" height="24" fill="white" transform="translate(0.000427246 0.75)"/>
</clipPath>
</defs>
</svg>
