<svg width="24" height="25" viewBox="0 0 24 25" fill="none" xmlns="http://www.w3.org/2000/svg">
<path d="M12.0583 24.75C18.6537 24.75 24.0004 19.3774 24.0004 12.75C24.0004 6.12258 18.6537 0.75 12.0583 0.75C5.46278 0.75 0.116089 6.12258 0.116089 12.75C0.116088 19.3774 5.46278 24.75 12.0583 24.75Z" fill="#FF1A5E"/>
<path d="M12.0585 21.3709C16.7975 21.3709 20.6393 17.5106 20.6393 12.7486C20.6393 7.98667 16.7975 4.12634 12.0585 4.12634C7.31951 4.12634 3.47778 7.98667 3.47778 12.7486C3.47778 17.5106 7.31951 21.3709 12.0585 21.3709Z" fill="#E5E8EF"/>
<path d="M18.8651 7.4979C17.4171 6.38043 15.6034 5.71303 13.6368 5.71303C8.89739 5.71303 5.05732 9.57536 5.05732 14.3378C5.05732 16.314 5.71786 18.1364 6.82994 19.5913C4.79237 18.0126 3.47876 15.5377 3.47876 12.7516C3.47876 7.98916 7.31883 4.12683 12.0581 4.12683C14.831 4.12683 17.294 5.4468 18.8651 7.4979Z" fill="#CDD4DF"/>
<path d="M16.5367 13.1963L13.081 18.3186C12.8645 18.6337 12.4018 18.6337 12.1854 18.3186L8.72965 13.1963C8.60656 13.0125 8.60656 12.7725 8.72965 12.5888L12.1854 7.46638C12.4018 7.1476 12.8645 7.1476 13.081 7.46638L16.5367 12.5888C16.6598 12.7725 16.6598 13.0125 16.5367 13.1963Z" fill="#CDD4DF"/>
<path d="M15.9624 13.0544L12.5067 18.1766C12.2902 18.4917 11.8275 18.4917 11.6111 18.1766L8.1553 13.0544C8.03222 12.8705 8.03222 12.6305 8.1553 12.4468L11.6111 7.32441C11.8275 7.00563 12.2902 7.00563 12.5067 7.32441L15.9624 12.4468C16.0854 12.6305 16.0854 12.8705 15.9624 13.0544Z" fill="url(#paint0_linear_2527_37957)"/>
<defs>
<linearGradient id="paint0_linear_2527_37957" x1="12.0588" y1="7.08533" x2="12.0588" y2="18.4129" gradientUnits="userSpaceOnUse">
<stop stop-color="#FF4EA3"/>
<stop offset="1" stop-color="#B8008F"/>
</linearGradient>
</defs>
</svg>
