<svg width="24" height="25" viewBox="0 0 24 25" fill="none" xmlns="http://www.w3.org/2000/svg">
<path fill-rule="evenodd" clip-rule="evenodd" d="M14 18.8054V2.31608C14 1.45115 13.2455 0.75 12.3147 0.75H1.68533C0.754536 0.75 0 1.45115 0 2.31608V18.8054C0 19.6699 0.754536 20.371 1.68533 20.371H6.99947V20.371H12.3139C12.3376 20.371 12.3613 20.3706 12.3848 20.3697C13.2831 20.3355 14 19.648 14 18.8054Z" fill="#FEFEFE"/>
<path d="M3.54652 2.5481C2.97995 2.5481 2.52063 2.8876 2.52063 3.30637V5.61303C2.52063 6.03179 2.97995 6.3713 3.54652 6.3713C4.11308 6.3713 4.5724 6.03179 4.5724 5.61303V3.30637C4.5724 2.8876 4.11308 2.5481 3.54652 2.5481Z" fill="#EA3790"/>
<path fill-rule="evenodd" clip-rule="evenodd" d="M9.15711 14.9322C10.2704 14.7901 11.126 13.8932 11.2475 12.6935C11.2639 12.589 11.2913 12.2877 11.1757 11.8287C11.0027 11.1401 10.6039 10.5157 10.0233 10.0228L7.49755 7.87454C7.39632 7.788 7.26706 7.74697 7.13917 7.75017C7.02222 7.75274 6.90527 7.79377 6.81157 7.87198L4.24001 10.0221C3.65868 10.5157 3.25995 11.1408 3.08692 11.8287C2.97133 12.2877 2.99869 12.589 3.01511 12.6935C3.14779 14.0032 4.15521 14.9513 5.41773 14.9513C5.66258 14.9513 5.90127 14.916 6.12696 14.8487V16.2937C6.12696 16.8199 6.57877 17.248 7.13867 17.2547V17.2547C7.14346 17.2554 7.14756 17.2554 7.15235 17.2554C7.20005 17.2554 7.24699 17.2523 7.29296 17.2464C7.79354 17.1824 8.17873 16.78 8.17873 16.2937V14.8598C8.3906 14.92 8.61408 14.952 8.84438 14.952C8.95055 14.952 9.05491 14.9453 9.15711 14.9322Z" fill="#EA3790"/>
<path fill-rule="evenodd" clip-rule="evenodd" d="M23.9993 18.9953V18.9952H13.8337V22.6147C13.8337 23.7941 16.1095 24.75 18.9168 24.75C18.917 24.75 18.9173 24.75 18.9175 24.75V24.75C21.7248 24.75 24 23.7941 24 22.6147V18.9953H23.9993Z" fill="#FFCB00"/>
<path fill-rule="evenodd" clip-rule="evenodd" d="M24 18.9951V14.9055H18.9175V14.9056H13.8337V18.9952C13.8337 19.3289 14.3106 19.7363 15.0775 20.0583C16.0741 20.4769 17.4732 20.717 18.9168 20.717C19.4949 20.717 20.066 20.6785 20.6068 20.6054C21.4168 20.4961 22.1592 20.3092 22.7568 20.0582C23.5237 19.7362 24 19.3288 24 18.9951Z" fill="#FFD80C"/>
<path fill-rule="evenodd" clip-rule="evenodd" d="M20.1574 16.0974C21.1412 16.002 22.0502 15.7949 22.7568 15.4981C23.5237 15.1756 24 14.7687 24 14.435C24 14.1014 23.5237 13.694 22.7568 13.3714C21.7603 12.9534 20.3611 12.7133 18.9175 12.7133V12.7133C18.9173 12.7133 18.917 12.7133 18.9168 12.7133C17.4732 12.7133 16.0741 12.9534 15.0775 13.3715C14.3106 13.694 13.8337 14.1015 13.8337 14.4351C13.8337 14.7687 14.3106 15.1757 15.0775 15.4982C16.0741 15.9168 17.4732 16.1569 18.9168 16.1569C19.337 16.1569 19.7535 16.1365 20.1574 16.0974Z" fill="#FFCB00"/>
</svg>
