<svg width="24" height="24" viewBox="0 0 24 24" fill="none" xmlns="http://www.w3.org/2000/svg">
<g clip-path="url(#clip0_1627_8211)">
<path d="M5.46412 14.1321L3.59296 16.0033L8.37031 20.7806L9.46711 19.6838L14.7561 19.3952C16.2112 19.3135 17.5846 18.7004 18.6137 17.6713L22.567 13.718C23.202 13.0831 23.2001 12.054 22.567 11.4209C22.2506 11.1045 21.8345 10.9432 21.4165 10.9432C21.0025 10.9432 20.5844 11.1025 20.268 11.419L15.8688 15.8181L15.3055 15.8121L13.3109 15.7842C13.8603 15.7922 14.3559 15.5354 14.6685 15.1274C14.8814 14.8547 15.0109 14.5143 15.0228 14.1441C15.0367 13.6603 14.8456 13.2185 14.5291 12.9019C14.2245 12.5974 13.8046 12.4083 13.3387 12.4083L9.6582 12.3983C8.08766 12.3963 6.57681 13.0194 5.46412 14.1321Z" fill="#E5E8EF"/>
<path d="M8.93347 21.4859L7.23563 23.1837C6.89408 23.5253 6.34032 23.5253 5.99876 23.1837L1.21362 18.3986C0.872071 18.057 0.87207 17.5033 1.21362 17.1617L2.91146 15.4639C3.25301 15.1223 3.80677 15.1223 4.14833 15.4639L8.93347 20.249C9.27502 20.5906 9.27502 21.1444 8.93347 21.4859Z" fill="#5CBEFF"/>
<path d="M10.0424 15.4061C10.0404 15.4996 10.0782 15.5852 10.1419 15.6489C10.2016 15.7086 10.2832 15.7464 10.3768 15.7484L15.3055 15.8121L13.3109 15.7842C13.8603 15.7922 14.356 15.5354 14.6685 15.1274L10.3848 15.0716C10.1997 15.0696 10.0464 15.2189 10.0424 15.4061Z" fill="#CDD4DF"/>
<path d="M8.93397 21.4877L7.23619 23.1855C6.89456 23.5272 6.34239 23.5272 6.00076 23.1821L1.21442 18.3992L8.93397 21.4877Z" fill="#079CFF"/>
<path d="M15.3053 11.9566C18.4527 11.9566 21.0042 9.4051 21.0042 6.25766C21.0042 3.11022 18.4527 0.558716 15.3053 0.558716C12.1578 0.558716 9.60632 3.11022 9.60632 6.25766C9.60632 9.4051 12.1578 11.9566 15.3053 11.9566Z" fill="#FF1A5E"/>
<path d="M15.3053 10.3525C17.5668 10.3525 19.4001 8.51917 19.4001 6.25767C19.4001 3.99616 17.5668 2.16284 15.3053 2.16284C13.0438 2.16284 11.2104 3.99616 11.2104 6.25767C11.2104 8.51917 13.0438 10.3525 15.3053 10.3525Z" fill="#E5E8EF"/>
<path d="M18.5535 3.76325C17.8625 3.23256 16.9969 2.9156 16.0585 2.9156C13.7968 2.9156 11.9642 4.74986 11.9642 7.0116C11.9642 7.95013 12.2795 8.81561 12.8102 9.50656C11.8378 8.75682 11.2109 7.58143 11.2109 6.2583C11.2109 3.99656 13.0435 2.16229 15.3051 2.16229C16.6283 2.16229 17.8037 2.78916 18.5535 3.76325Z" fill="#CDD4DF"/>
<path d="M17.4425 6.46935L15.7934 8.90196C15.6901 9.05161 15.4693 9.05161 15.366 8.90196L13.7169 6.46935C13.6582 6.38204 13.6582 6.26804 13.7169 6.18083L15.366 3.74813C15.4693 3.59673 15.6901 3.59673 15.7934 3.74813L17.4425 6.18083C17.5013 6.26804 17.5013 6.38204 17.4425 6.46935Z" fill="#CDD4DF"/>
<path d="M17.168 6.40257L15.5189 8.83519C15.4156 8.98484 15.1948 8.98484 15.0915 8.83519L13.4424 6.40257C13.3836 6.31527 13.3836 6.20127 13.4424 6.11405L15.0915 3.68135C15.1948 3.52996 15.4156 3.52996 15.5189 3.68135L17.168 6.11405C17.2267 6.20127 17.2267 6.31527 17.168 6.40257Z" fill="url(#paint0_linear_1627_8211)"/>
</g>
<defs>
<linearGradient id="paint0_linear_1627_8211" x1="15.3052" y1="3.56781" x2="15.3052" y2="8.94743" gradientUnits="userSpaceOnUse">
<stop stop-color="#FF4EA3"/>
<stop offset="1" stop-color="#B8008F"/>
</linearGradient>
<clipPath id="clip0_1627_8211">
<rect width="24" height="24" fill="white"/>
</clipPath>
</defs>
</svg>
