<svg width="24" height="24" viewBox="0 0 24 24" fill="none" xmlns="http://www.w3.org/2000/svg">
<g clip-path="url(#clip0_1627_8159)">
<path d="M10.5316 3.67563C10.2708 3.14722 9.81633 2.75081 9.25659 2.56139C8.10225 2.17016 6.8461 2.79527 6.45495 3.9497C6.2122 4.66233 6.44321 6.47192 6.63061 7.64708C5.60331 7.03939 4.01587 6.17514 3.26854 6.13923C2.04879 6.08061 1.01054 7.02364 0.951918 8.2434C0.893465 9.45971 1.83651 10.4978 3.05626 10.5564C4.09622 10.6064 6.9049 9.21858 7.45878 8.9412C7.53139 8.90224 7.59047 8.84867 7.63234 8.78701C7.63603 8.78374 7.63621 8.78012 7.6399 8.77685C8.27523 8.203 10.3318 6.28785 10.6449 5.36293C10.8343 4.80319 10.796 4.20421 10.5316 3.67563ZM3.09862 9.67507C2.36532 9.63983 1.79801 9.01905 1.83325 8.28575C1.86849 7.55245 2.49289 6.98532 3.22619 7.02056C3.74087 7.0453 5.20509 7.82581 6.34218 8.50244C5.14546 9.06674 3.6133 9.69981 3.09862 9.67507ZM9.81029 5.08266C9.64559 5.5694 8.49272 6.76486 7.53027 7.67617C7.31738 6.36917 7.12462 4.72033 7.28931 4.23359C7.48312 3.65629 8.03728 3.30128 8.61548 3.32906C8.73529 3.33482 8.85433 3.35831 8.97614 3.39591C9.67156 3.63068 10.0451 4.38725 9.81029 5.08266Z" fill="white"/>
<path d="M14.4235 6.91916L2.80105 14.6353C2.55604 14.798 2.22558 14.7315 2.06243 14.4868L1.26052 13.2841C0.860266 12.677 1.02219 11.8587 1.62927 11.454L11.9489 4.60552C12.556 4.20548 13.3743 4.3719 13.7746 4.97438L14.5732 6.18052C14.7356 6.42586 14.6686 6.75642 14.4235 6.91916Z" fill="#C175FF"/>
<path d="M14.4235 6.91916L2.80105 14.6353C2.55604 14.798 2.22558 14.7315 2.06243 14.4868L1.26052 13.2841C0.860266 12.677 1.02219 11.8587 1.62927 11.454L11.9489 4.60552C12.556 4.20548 13.3743 4.3719 13.7746 4.97438L14.5732 6.18052C14.7356 6.42586 14.6686 6.75642 14.4235 6.91916Z" fill="#FF1A5E"/>
<path d="M14.4231 6.92029L13.3078 7.65788C13.5513 7.49554 13.6184 7.16742 13.456 6.92029L12.6584 5.71326C12.2561 5.11319 11.4408 4.9474 10.8336 5.34618L11.949 4.60497C12.556 4.20619 13.3749 4.37215 13.7736 4.97566L14.5748 6.17908C14.7372 6.4262 14.6701 6.75795 14.4231 6.92029Z" fill="url(#paint0_linear_1627_8159)"/>
<path d="M16.3169 13.6173C16.6114 13.6173 16.8501 13.8561 16.8501 14.1506V21.4001C16.8501 22.3429 16.0858 23.1072 15.143 23.1072H5.17992C4.23709 23.1072 3.47278 22.3429 3.47278 21.4001V14.1506C3.47278 13.8561 3.71152 13.6173 4.00603 13.6173H16.3169Z" fill="#FF1A5E"/>
<path d="M16.8513 14.1521V21.4016C16.8513 22.3439 16.0855 23.1061 15.1432 23.1061H13.7031C14.6455 23.1061 15.4079 22.3439 15.4079 21.4016V14.1521C15.4079 13.8556 15.1713 13.6157 14.8749 13.6157H16.3184C16.6114 13.6157 16.8513 13.8556 16.8513 14.1521Z" fill="url(#paint1_linear_1627_8159)"/>
<path d="M8.28659 7.03502L5.40723 8.94763L7.23157 11.6941L10.1109 9.7815L8.28659 7.03502Z" fill="white"/>
<path d="M16.8406 16.4566H3.46411V19.9154H16.8406V16.4566Z" fill="white"/>
<path d="M12.5946 13.0688C12.5303 13.0688 12.4651 13.0512 12.4069 13.0144C12.2418 12.9105 12.1923 12.6926 12.2963 12.5276C13.7258 10.2577 16.803 10.9217 16.9336 10.9511C17.1235 10.994 17.2426 11.1826 17.2 11.3726C17.1576 11.5624 16.9696 11.6825 16.7787 11.6399C16.752 11.6338 14.056 11.0585 12.8936 12.9038C12.8265 13.0103 12.7118 13.0688 12.5946 13.0688Z" fill="#E5E8EF"/>
<path d="M13.5014 10.6512C13.4557 10.6512 13.4092 10.6422 13.3645 10.6234C13.1848 10.5477 13.1005 10.3407 13.1764 10.161C13.7397 8.82433 14.5902 7.93018 15.704 7.50339C17.5886 6.78105 19.5238 7.67409 19.6053 7.71234C19.7814 7.79532 19.8567 8.00514 19.7742 8.18144C19.6915 8.35765 19.4821 8.43365 19.3049 8.35119C19.2877 8.34309 17.5516 7.54837 15.9516 8.16446C15.0265 8.52051 14.3117 9.28455 13.8268 10.4352C13.7699 10.5701 13.6391 10.6512 13.5014 10.6512Z" fill="#E5E8EF"/>
<path d="M17.1177 6.61853C16.6937 6.61853 16.2358 6.55933 15.7454 6.44068C15.556 6.39484 15.4395 6.20415 15.4853 6.01467C15.5313 5.8251 15.7226 5.70929 15.9115 5.75462C17.0539 6.03104 17.9656 5.94419 18.6209 5.49655C19.47 4.91656 19.6174 3.89789 19.6188 3.88772C19.645 3.69505 19.8245 3.55985 20.0146 3.58458C20.2075 3.61 20.3434 3.78578 20.3186 3.97863C20.3117 4.03265 20.1366 5.30982 19.0282 6.07327C18.5007 6.43646 17.8613 6.61853 17.1177 6.61853Z" fill="#E5E8EF"/>
<path d="M20.1125 11.5051C20.1761 11.5685 20.1407 11.6779 20.0525 11.692L19.3925 11.7908C19.3572 11.798 19.329 11.8191 19.3113 11.8509L19.0219 12.4508C18.9831 12.532 18.8667 12.532 18.8243 12.4508L18.5278 11.858C18.5101 11.8261 18.4784 11.8015 18.4431 11.798L17.7831 11.7062C17.6949 11.692 17.6596 11.5826 17.7231 11.5192L18.196 11.0532C18.2243 11.0286 18.2349 10.9898 18.2278 10.9545L18.1113 10.3015C18.0937 10.2098 18.189 10.1426 18.2666 10.185L18.8596 10.4921C18.8913 10.5062 18.9302 10.5062 18.962 10.4885L19.5478 10.1745C19.629 10.1321 19.7208 10.2026 19.7066 10.2908L19.6007 10.9474C19.5937 10.9825 19.6043 11.0179 19.6325 11.0427L20.1125 11.5051Z" fill="#FFD80C"/>
<path d="M20.8396 3.25319L20.2643 2.91438C20.2325 2.8968 20.1973 2.89318 20.1619 2.91093L19.5584 3.18977C19.4773 3.22854 19.389 3.15789 19.4066 3.06965L19.5514 2.4203C19.5584 2.38497 19.5478 2.34619 19.5231 2.32155L19.0713 1.83436C19.0078 1.76732 19.0502 1.66151 19.1384 1.65099L19.8019 1.5874C19.8373 1.58378 19.869 1.56276 19.8866 1.53088L20.2113 0.948559C20.2537 0.870836 20.3701 0.874455 20.4055 0.959071L20.6702 1.56965C20.6843 1.60153 20.716 1.62618 20.7513 1.63324L21.4043 1.76025C21.4925 1.77439 21.5242 1.88744 21.4537 1.94741L20.9561 2.38859C20.9313 2.41323 20.9172 2.44856 20.9207 2.48389L21.0019 3.14376C21.0125 3.23561 20.9172 3.2992 20.8396 3.25319Z" fill="#FFD80C"/>
<path d="M23.0067 7.47453L22.4773 7.87676C22.449 7.90157 22.4349 7.93328 22.4349 7.97206L22.4667 8.63554C22.4702 8.7274 22.3714 8.78031 22.2972 8.73085L21.7467 8.34964C21.7184 8.32862 21.6795 8.325 21.6478 8.33913L21.0266 8.57557C20.9419 8.60745 20.8572 8.52611 20.882 8.4415L21.0726 7.80265C21.0831 7.76732 21.076 7.73199 21.0549 7.7039L20.6385 7.185C20.5819 7.11435 20.6314 7.00853 20.7196 7.00509L21.3867 6.99096C21.4219 6.99096 21.4537 6.97321 21.4749 6.9415L21.842 6.38744C21.8913 6.30972 22.0043 6.32385 22.0361 6.40846L22.2549 7.04024C22.2655 7.07213 22.2937 7.09677 22.329 7.10745L22.9714 7.28392C23.0561 7.30857 23.0808 7.42145 23.0067 7.47453Z" fill="#FFD80C"/>
<path d="M12.5951 16.4566H7.72803V19.9154H12.5951V16.4566Z" fill="white"/>
<path d="M11.8899 13.6172H8.43317V23.1071H11.8899V13.6172Z" fill="white"/>
<path d="M16.841 16.4566H15.408V19.9154H16.841V16.4566Z" fill="white"/>
</g>
<defs>
<linearGradient id="paint0_linear_1627_8159" x1="12.7485" y1="4.38782" x2="12.7485" y2="7.65788" gradientUnits="userSpaceOnUse">
<stop stop-color="#FF4EA3"/>
<stop offset="1" stop-color="#B8008F"/>
</linearGradient>
<linearGradient id="paint1_linear_1627_8159" x1="15.2772" y1="13.6157" x2="15.2772" y2="23.1061" gradientUnits="userSpaceOnUse">
<stop stop-color="#FF4EA3"/>
<stop offset="1" stop-color="#B8008F"/>
</linearGradient>
<clipPath id="clip0_1627_8159">
<rect width="24" height="24" fill="white"/>
</clipPath>
</defs>
</svg>
