<svg width="24" height="24" viewBox="0 0 24 24" fill="none" xmlns="http://www.w3.org/2000/svg">
<path d="M23.2942 7.06018V16.9389C23.2942 17.9131 22.5037 18.7072 21.526 18.7072H2.47426C1.4966 18.7072 0.705933 17.9131 0.705933 16.9389V7.06018C0.705933 6.08597 1.4966 5.29547 2.47426 5.29547H21.526C22.5037 5.29547 23.2942 6.08597 23.2942 7.06018Z" fill="#FF1A5E"/>
<path d="M23.2942 7.0602V16.9389C23.2942 17.9131 22.5037 18.7073 21.526 18.7073H2.47426C1.93779 18.7073 1.45775 18.4672 1.14014 18.0931C6.8931 14.9202 18.6424 8.42957 22.9483 6.0155C23.1672 6.3083 23.2942 6.66848 23.2942 7.0602Z" fill="url(#paint0_linear_1627_8136)"/>
<path d="M16.0685 2.41777C16.0685 2.51897 16.028 2.62355 15.947 2.70453L14.6615 3.98984C14.5805 4.07082 14.4759 4.11135 14.3747 4.11136C14.2296 4.11136 14.0845 4.0338 14.0103 3.88531C13.9327 3.72336 13.9782 3.52935 14.1048 3.40282L15.3599 2.14786C15.4864 2.02133 15.6805 1.97577 15.8424 2.05337C15.991 2.12759 16.0685 2.27266 16.0685 2.41777Z" fill="#435E88"/>
<path d="M12.2863 1.59671C12.3579 1.66831 12.4032 1.7709 12.4032 1.88543V3.70327C12.4032 3.8178 12.3579 3.92044 12.2863 3.99198C12.1837 4.09463 12.0263 4.14234 11.8687 4.08985C11.6993 4.0302 11.5944 3.86079 11.5944 3.68183V1.90693C11.5944 1.72796 11.6993 1.55855 11.8687 1.4989C12.0263 1.44635 12.1837 1.49412 12.2863 1.59671Z" fill="#435E88"/>
<path d="M8.33517 2.01526C8.43638 2.0153 8.54097 2.05579 8.62195 2.13677L9.90731 3.42208C9.9883 3.50306 10.0288 3.60769 10.0288 3.70885C10.0288 3.854 9.95126 3.99903 9.80275 4.07329C9.64078 4.15089 9.44677 4.10533 9.32023 3.97879L8.06522 2.72384C7.93868 2.5973 7.89312 2.4033 7.97073 2.24134C8.04497 2.09281 8.19005 2.0153 8.33517 2.01526Z" fill="#435E88"/>
<path d="M7.93262 21.5822C7.93266 21.481 7.97316 21.3764 8.05415 21.2954L9.33961 20.0101C9.4206 19.9291 9.52523 19.8886 9.6264 19.8886C9.77156 19.8886 9.9166 19.9662 9.99086 20.1147C10.0685 20.2766 10.0229 20.4706 9.89634 20.5971L8.64124 21.8521C8.51469 21.9786 8.32067 22.0242 8.1587 21.9466C8.01017 21.8724 7.93265 21.7273 7.93262 21.5822Z" fill="#435E88"/>
<path d="M11.7148 22.4033C11.6432 22.3317 11.5979 22.2291 11.5979 22.1146V20.2967C11.5979 20.1822 11.6432 20.0795 11.7148 20.008C11.8174 19.9054 11.9748 19.8576 12.1323 19.9101C12.3018 19.9698 12.4067 20.1392 12.4067 20.3182L12.4067 22.0931C12.4067 22.272 12.3018 22.4414 12.1323 22.5011C11.9748 22.5536 11.8174 22.5059 11.7148 22.4033Z" fill="#435E88"/>
<path d="M15.6661 21.9847C15.5649 21.9847 15.4603 21.9442 15.3793 21.8632L14.0939 20.5779C14.0129 20.4969 13.9724 20.3923 13.9724 20.2912C13.9724 20.146 14.05 20.001 14.1985 19.9267C14.3605 19.8491 14.5545 19.8947 14.681 20.0212L15.936 21.2762C16.0626 21.4027 16.1081 21.5967 16.0305 21.7587C15.9563 21.9072 15.8112 21.9847 15.6661 21.9847Z" fill="#435E88"/>
<path d="M21.5294 16.2367C21.5294 16.6249 21.2118 16.9425 20.8235 16.9425H3.18008C2.79181 16.9425 2.4742 16.6249 2.4742 16.2367L2.47058 7.76606C2.47058 7.37779 2.78828 7.06018 3.17646 7.06018H20.8201C21.2083 7.06018 21.526 7.37779 21.526 7.76606L21.5294 16.2367Z" fill="white"/>
<path d="M9.12886 7.06024H8.20239V16.9426H9.12886V7.06024Z" fill="#FF1A5E"/>
<path d="M15.7977 7.05035H14.8712V16.9327H15.7977V7.05035Z" fill="#FF1A5E"/>
<path d="M5.99458 11.1336C5.64774 11.0724 5.3611 10.9947 5.07104 10.9786C4.80074 10.9637 4.5729 11.0849 4.43498 11.3443C4.31649 11.5671 4.10045 11.4869 3.93191 11.4484C3.87685 11.4359 3.83313 11.2469 3.83438 11.1391C3.83745 10.8734 3.85834 10.6064 3.89514 10.3431C3.91167 10.2248 3.96286 10.0364 4.03458 10.0175C4.15533 9.98576 4.305 10.0638 4.43703 10.1312C4.82909 10.051 5.22679 9.91627 5.64823 10.0341C5.82103 10.0825 5.99017 10.1448 6.15907 10.2059C6.3754 10.2843 6.58133 10.2903 6.79343 10.1778C7.0062 10.0649 7.13359 10.1242 7.31586 10.3774C7.42975 10.5356 7.32777 10.6348 7.23092 10.7434C6.46494 11.602 6.02046 12.5992 5.9455 13.7528C5.93347 13.9379 5.84689 14.0186 5.66164 14.0148C5.38721 14.009 5.11257 14.0139 4.83802 14.0132C4.52757 14.0124 4.48054 13.977 4.50822 13.6771C4.59722 12.7127 4.9758 11.8976 5.76814 11.3045C5.8274 11.2602 5.88632 11.2153 5.99458 11.1336Z" fill="#435E88"/>
<path d="M12.6114 11.1336C12.2646 11.0724 11.9779 10.9947 11.6879 10.9786C11.4176 10.9637 11.1897 11.0849 11.0518 11.3443C10.9333 11.5671 10.7173 11.4869 10.5487 11.4484C10.4937 11.4359 10.45 11.2469 10.4512 11.1391C10.4543 10.8734 10.4752 10.6064 10.512 10.3431C10.5285 10.2248 10.5797 10.0364 10.6514 10.0175C10.7722 9.98576 10.9218 10.0638 11.0539 10.1312C11.4459 10.051 11.8436 9.91627 12.2651 10.0341C12.4378 10.0825 12.607 10.1448 12.7759 10.2059C12.9922 10.2843 13.1982 10.2903 13.4103 10.1778C13.623 10.0649 13.7504 10.1242 13.9327 10.3774C14.0466 10.5356 13.9446 10.6348 13.8477 10.7434C13.0818 11.602 12.6373 12.5992 12.5623 13.7528C12.5503 13.9379 12.4637 14.0186 12.2785 14.0148C12.004 14.009 11.7294 14.0139 11.4548 14.0132C11.1444 14.0124 11.0974 13.977 11.125 13.6771C11.214 12.7127 11.5926 11.8976 12.385 11.3045C12.4442 11.2602 12.5031 11.2153 12.6114 11.1336Z" fill="#435E88"/>
<path d="M19.2282 11.1336C18.8814 11.0724 18.5947 10.9947 18.3047 10.9786C18.0344 10.9637 17.8065 11.0849 17.6686 11.3443C17.5501 11.5671 17.3341 11.4869 17.1656 11.4484C17.1105 11.4359 17.0668 11.2469 17.068 11.1391C17.0711 10.8734 17.092 10.6064 17.1288 10.3431C17.1453 10.2248 17.1965 10.0364 17.2682 10.0175C17.389 9.98576 17.5386 10.0638 17.6707 10.1312C18.0627 10.051 18.4604 9.91627 18.8819 10.0341C19.0547 10.0825 19.2238 10.1448 19.3927 10.2059C19.609 10.2843 19.815 10.2903 20.0271 10.1778C20.2398 10.0649 20.3672 10.1242 20.5495 10.3774C20.6634 10.5356 20.5614 10.6348 20.4646 10.7434C19.6986 11.602 19.2541 12.5992 19.1791 13.7528C19.1671 13.9379 19.0805 14.0186 18.8953 14.0148C18.6209 14.009 18.3462 14.0139 18.0717 14.0132C17.7612 14.0124 17.7142 13.977 17.7419 13.6771C17.8309 12.7127 18.2094 11.8976 19.0018 11.3045C19.061 11.2602 19.12 11.2153 19.2282 11.1336Z" fill="#435E88"/>
<defs>
<linearGradient id="paint0_linear_1627_8136" x1="12.2172" y1="6.0155" x2="12.2172" y2="18.7073" gradientUnits="userSpaceOnUse">
<stop stop-color="#FF4EA3"/>
<stop offset="1" stop-color="#B8008F"/>
</linearGradient>
</defs>
</svg>
