<svg width="17" height="16" viewBox="0 0 17 16" fill="none" xmlns="http://www.w3.org/2000/svg">
<path d="M8.25 0.25C4.1145 0.25 0.75 3.6145 0.75 7.75C0.75 11.8855 4.1145 15.25 8.25 15.25C8.56125 15.25 8.86622 15.2249 9.16772 15.1877C9.05935 14.9789 9 14.7494 9 14.5V10C9 8.52287 11.0752 7.75 13.125 7.75C14.0516 7.75 14.9837 7.90754 15.7266 8.21729C15.7363 8.06166 15.75 7.90788 15.75 7.75C15.75 3.6145 12.3855 0.25 8.25 0.25ZM8.4375 3.25C8.74837 3.25 9 3.50163 9 3.8125V8.3125C9 8.62337 8.74837 8.875 8.4375 8.875H5.4375C5.12663 8.875 4.875 8.62337 4.875 8.3125C4.875 8.00163 5.12663 7.75 5.4375 7.75H7.875V3.8125C7.875 3.50163 8.12663 3.25 8.4375 3.25ZM13.125 8.5C11.2609 8.5 9.75 9.17163 9.75 10C9.75 10.8284 11.2609 11.5 13.125 11.5C14.9891 11.5 16.5 10.8284 16.5 10C16.5 9.17163 14.9891 8.5 13.125 8.5ZM9.75 11.125V12.25C9.75 13.0787 11.2613 13.75 13.125 13.75C14.9887 13.75 16.5 13.0787 16.5 12.25V11.125C16.5 11.9537 14.9887 12.625 13.125 12.625C11.2613 12.625 9.75 11.9537 9.75 11.125ZM9.75 13.375V14.5C9.75 15.3287 11.2613 16 13.125 16C14.9887 16 16.5 15.3287 16.5 14.5V13.375C16.5 14.2037 14.9887 14.875 13.125 14.875C11.2613 14.875 9.75 14.2037 9.75 13.375Z" fill="#4B50C8"/>
</svg>
