<svg width="16" height="17" viewBox="0 0 16 17" fill="none" xmlns="http://www.w3.org/2000/svg">
<path d="M7.74121 0.491951C7.59215 0.49428 7.45012 0.555676 7.3463 0.662656C7.24248 0.769635 7.18536 0.913448 7.1875 1.06251V2.56251C7.18645 2.63705 7.20022 2.71105 7.22801 2.78022C7.25581 2.84939 7.29707 2.91234 7.34941 2.96543C7.40175 3.01851 7.46411 3.06066 7.53288 3.08943C7.60165 3.1182 7.67545 3.13302 7.75 3.13302C7.82454 3.13302 7.89835 3.1182 7.96712 3.08943C8.03589 3.06066 8.09825 3.01851 8.15059 2.96543C8.20293 2.91234 8.24419 2.84939 8.27199 2.78022C8.29978 2.71105 8.31355 2.63705 8.3125 2.56251V1.06251C8.31358 0.98722 8.29953 0.912483 8.2712 0.842723C8.24286 0.772964 8.20081 0.709603 8.14753 0.656396C8.09426 0.603189 8.03084 0.561218 7.96105 0.53297C7.89125 0.504723 7.8165 0.490774 7.74121 0.491951ZM12.4148 2.47974C12.2687 2.47662 12.1271 2.53047 12.02 2.62989L10.9053 3.63331C10.8486 3.68223 10.8022 3.74198 10.7689 3.80906C10.7355 3.87615 10.716 3.9492 10.7113 4.02396C10.7066 4.09871 10.7168 4.17365 10.7415 4.24438C10.7661 4.31511 10.8046 4.3802 10.8548 4.43585C10.9049 4.49149 10.9656 4.53657 11.0334 4.56843C11.1012 4.60029 11.1747 4.61829 11.2495 4.62137C11.3243 4.62446 11.399 4.61257 11.4692 4.58641C11.5394 4.56024 11.6037 4.52033 11.6582 4.469L12.7729 3.46558C12.8583 3.39091 12.9191 3.29217 12.9474 3.18233C12.9756 3.07249 12.97 2.95668 12.9313 2.85008C12.8926 2.74347 12.8225 2.65107 12.7304 2.58498C12.6382 2.51889 12.5282 2.48221 12.4148 2.47974ZM3.06836 2.48048C2.95655 2.48629 2.84902 2.52533 2.75953 2.5926C2.67004 2.65987 2.60266 2.75232 2.56601 2.85811C2.52935 2.96389 2.5251 3.07821 2.55379 3.18643C2.58248 3.29465 2.64281 3.39185 2.72705 3.46558L3.8418 4.469C3.89635 4.52033 3.96059 4.56024 4.03078 4.58641C4.10096 4.61257 4.17565 4.62446 4.25049 4.62137C4.32533 4.61829 4.39879 4.60029 4.46658 4.56843C4.53436 4.53657 4.59511 4.49149 4.64524 4.43585C4.69538 4.3802 4.7339 4.31511 4.75854 4.24438C4.78318 4.17365 4.79345 4.09871 4.78874 4.02396C4.78404 3.9492 4.76445 3.87615 4.73114 3.80906C4.69782 3.74198 4.65144 3.68223 4.59473 3.63331L3.47998 2.62989C3.42484 2.57873 3.36001 2.53915 3.2893 2.51349C3.2186 2.48782 3.14347 2.4766 3.06836 2.48048ZM6.92163 4.25001C6.16315 4.25001 5.49297 4.7623 5.29346 5.49366L4.50757 8.37501H3.0625C1.5115 8.37501 0.25 9.63651 0.25 11.1875V13.4375C0.25 14.9885 1.5115 16.25 3.0625 16.25H12.4375C13.9885 16.25 15.25 14.9885 15.25 13.4375V11.1875C15.25 9.63651 13.9885 8.37501 12.4375 8.37501H10.9924L10.2058 5.49366C10.0064 4.76195 9.33584 4.25001 8.57764 4.25001H6.92163ZM6.92163 5.37501H8.57764C8.83418 5.37501 9.05282 5.54177 9.12036 5.78956L9.82568 8.37501H5.67358L6.37891 5.78956C6.44639 5.54217 6.66536 5.37501 6.92163 5.37501ZM1.57715 6.49122C1.50268 6.48982 1.42867 6.50323 1.35942 6.53066C1.29017 6.5581 1.22706 6.59901 1.17375 6.65103C1.12043 6.70305 1.07798 6.76513 1.04885 6.83369C1.01973 6.90224 1.0045 6.9759 1.00407 7.05038C1.00363 7.12486 1.01799 7.19869 1.04631 7.26758C1.07463 7.33647 1.11635 7.39905 1.16905 7.45169C1.22175 7.50433 1.28438 7.54598 1.3533 7.57422C1.42223 7.60247 1.49607 7.61674 1.57056 7.61622L3.06763 7.62501C3.1421 7.6264 3.21611 7.61299 3.28536 7.58556C3.35461 7.55813 3.41772 7.51721 3.47103 7.4652C3.52434 7.41318 3.56679 7.35109 3.59592 7.28254C3.62505 7.21399 3.64027 7.14033 3.64071 7.06585C3.64115 6.99136 3.62679 6.91753 3.59846 6.84864C3.57014 6.77975 3.52842 6.71717 3.47572 6.66453C3.42302 6.61189 3.36039 6.57025 3.29147 6.542C3.22255 6.51376 3.1487 6.49949 3.07422 6.50001L1.57715 6.49122ZM13.9229 6.49122L12.4346 6.50001C12.3601 6.49942 12.2862 6.51363 12.2172 6.54182C12.1483 6.57 12.0856 6.61161 12.0329 6.66422C11.9801 6.71682 11.9383 6.77938 11.91 6.84826C11.8816 6.91715 11.8672 6.99098 11.8676 7.06548C11.8679 7.13997 11.8831 7.21365 11.9122 7.28223C11.9413 7.35082 11.9837 7.41294 12.037 7.46499C12.0903 7.51705 12.1534 7.558 12.2227 7.58546C12.2919 7.61293 12.3659 7.62637 12.4404 7.62501L13.9294 7.61622C14.0039 7.61674 14.0778 7.60247 14.1467 7.57422C14.2156 7.54598 14.2782 7.50433 14.3309 7.45169C14.3836 7.39905 14.4254 7.33647 14.4537 7.26758C14.482 7.19869 14.4964 7.12486 14.4959 7.05038C14.4955 6.9759 14.4803 6.90224 14.4511 6.83369C14.422 6.76513 14.3796 6.70305 14.3263 6.65103C14.2729 6.59901 14.2098 6.5581 14.1406 6.53066C14.0713 6.50323 13.9973 6.48982 13.9229 6.49122ZM8.5 10.625C8.707 10.625 8.875 10.793 8.875 11V13.625C8.875 13.832 8.707 14 8.5 14C8.293 14 8.125 13.832 8.125 13.625V11C8.125 10.793 8.293 10.625 8.5 10.625ZM10.75 10.625C10.7601 10.625 10.7684 10.6297 10.7786 10.6309C10.8048 10.6331 10.8296 10.6387 10.8547 10.6462C10.8772 10.653 10.8986 10.6599 10.9192 10.6704C10.9402 10.6809 10.9583 10.6946 10.977 10.7092C10.9977 10.7254 11.0166 10.7414 11.0334 10.7612C11.0402 10.7691 11.0494 10.7739 11.0554 10.7825L12.25 12.4546V11C12.25 10.793 12.418 10.625 12.625 10.625C12.832 10.625 13 10.793 13 11V13.625C13 13.6355 12.9949 13.6438 12.9941 13.6543C12.9919 13.6802 12.9859 13.7046 12.9788 13.7297C12.972 13.7526 12.9655 13.7743 12.9546 13.7949C12.9437 13.8159 12.9304 13.834 12.9158 13.8528C12.8996 13.873 12.8836 13.892 12.8638 13.9085C12.8559 13.9152 12.8512 13.9244 12.8425 13.9304C12.8279 13.9409 12.811 13.9456 12.7957 13.9539C12.7825 13.9606 12.7704 13.968 12.7561 13.9736C12.7134 13.9894 12.67 14 12.6257 14H12.625C12.568 14 12.5152 13.9855 12.4668 13.9627C12.4533 13.9563 12.4429 13.9453 12.4302 13.937C12.3957 13.9153 12.3652 13.8909 12.3394 13.8594C12.3337 13.8526 12.3248 13.85 12.3196 13.8425L11.125 12.1704V13.625C11.125 13.832 10.957 14 10.75 14C10.543 14 10.375 13.832 10.375 13.625V11C10.375 10.9895 10.3801 10.9812 10.3809 10.9707C10.3831 10.9448 10.3891 10.9204 10.3962 10.8953C10.403 10.8724 10.4095 10.8507 10.4204 10.8301C10.4313 10.8091 10.4446 10.791 10.4592 10.7722C10.4754 10.752 10.4914 10.7331 10.5112 10.7166C10.5191 10.7098 10.5238 10.7006 10.5325 10.6946C10.5437 10.6863 10.5571 10.6852 10.5691 10.6785C10.5908 10.6661 10.6121 10.6556 10.6365 10.6477C10.662 10.6395 10.6864 10.635 10.7126 10.6323C10.7254 10.6312 10.7365 10.625 10.75 10.625ZM4.74927 10.6257C4.76502 10.6257 4.78112 10.6327 4.79687 10.6345C4.82987 10.6387 4.86318 10.6416 4.89355 10.6543C4.89505 10.6551 4.89645 10.6547 4.89795 10.655C4.91407 10.6622 4.9247 10.6753 4.9397 10.6843C4.96595 10.7001 4.99265 10.7139 5.0144 10.7356C5.03578 10.757 5.04992 10.7833 5.06567 10.8088C5.07467 10.8238 5.08785 10.8356 5.09497 10.8521L5.80469 12.5073L6.26465 10.8967C6.32165 10.6976 6.52915 10.5823 6.72827 10.6389C6.9274 10.6963 7.04235 10.9042 6.98535 11.1033L6.23535 13.7283C6.23348 13.7354 6.22881 13.7406 6.22656 13.7473C6.22094 13.7634 6.21282 13.7774 6.20532 13.7927C6.1922 13.819 6.1772 13.8428 6.15845 13.8645C6.14795 13.8769 6.13713 13.8881 6.12476 13.8989C6.10076 13.9207 6.07489 13.9385 6.04639 13.9531C6.03776 13.9576 6.03195 13.9659 6.02295 13.97C6.01882 13.9719 6.01389 13.9707 6.00977 13.9722C5.96702 13.989 5.92225 14 5.875 14C5.84087 14 5.80585 13.9951 5.77173 13.9854L5.771 13.9846C5.72825 13.9723 5.68908 13.9508 5.65308 13.9238C5.64258 13.916 5.63389 13.9068 5.62451 13.8982C5.60126 13.8772 5.5817 13.8534 5.56445 13.8264C5.55695 13.8148 5.54885 13.8036 5.54248 13.7913C5.5391 13.7845 5.5334 13.7793 5.53003 13.7722L4.75 11.9514L3.96997 13.773C3.96697 13.7801 3.96089 13.7852 3.95752 13.792C3.95114 13.8044 3.94342 13.8148 3.93555 13.8264C3.91792 13.8534 3.89836 13.8779 3.87549 13.8989C3.86611 13.9076 3.85742 13.916 3.84692 13.9238C3.81092 13.9505 3.77175 13.973 3.729 13.9854L3.72827 13.9861C3.69377 13.9958 3.65875 14 3.625 14C3.57775 14 3.53298 13.989 3.49023 13.9722C3.48611 13.9707 3.48118 13.9711 3.47705 13.9692C3.46768 13.9655 3.46224 13.9573 3.45361 13.9524C3.42511 13.9374 3.39924 13.9207 3.37524 13.8989C3.36324 13.8877 3.35205 13.8769 3.34155 13.8645C3.32318 13.8428 3.30818 13.8182 3.29468 13.792C3.2868 13.7766 3.27869 13.7627 3.27344 13.7466C3.27119 13.7398 3.26652 13.7347 3.26465 13.7275L2.51465 11.1025C2.45765 10.9034 2.57334 10.6959 2.77246 10.6389C2.97196 10.5819 3.17946 10.6976 3.23608 10.8967L3.69604 12.5081L4.40503 10.8521C4.41215 10.8352 4.42568 10.8242 4.43506 10.8088C4.45043 10.7833 4.46422 10.7577 4.4856 10.7363C4.50847 10.7135 4.53659 10.6983 4.56396 10.6821C4.57746 10.6743 4.58705 10.6614 4.60205 10.655C4.60318 10.6547 4.60459 10.6547 4.60571 10.6543C4.64096 10.6397 4.67915 10.635 4.71777 10.6316C4.72865 10.6308 4.73877 10.6257 4.74927 10.6257Z" fill="#4B50C8"/>
</svg>
