<svg width="24" height="25" viewBox="0 0 24 25" fill="none" xmlns="http://www.w3.org/2000/svg">
<path d="M19.7904 5.81624V16.8279C19.7904 17.5738 19.1888 18.1754 18.4427 18.1754H1.34761C0.606537 18.1754 0 17.5738 0 16.8279V5.81624C0 5.07504 0.606537 4.46851 1.34761 4.46851H18.4427C19.1888 4.46851 19.7904 5.07504 19.7904 5.81624Z" fill="url(#paint0_linear_2527_36295)"/>
<path d="M19.7927 7.5625H0.000976562V10.5559H19.7927V7.5625Z" fill="white"/>
<path d="M4.04886 14.0144C4.04886 14.1226 4.00489 14.2204 3.93432 14.2915C3.86317 14.3621 3.76541 14.4061 3.65723 14.4061H2.37368C2.15732 14.4061 1.98206 14.2308 1.98206 14.0144C1.98206 13.9063 2.02602 13.8085 2.09659 13.7373C2.16774 13.6668 2.2655 13.6228 2.37368 13.6228H3.65723C3.87358 13.6228 4.04886 13.7981 4.04886 14.0144Z" fill="#E5E8EF"/>
<path d="M12.3182 14.0144C12.3182 14.1226 12.2743 14.2204 12.2037 14.2915C12.1326 14.3621 12.0348 14.4061 11.9266 14.4061H5.22073C5.00437 14.4061 4.8291 14.2308 4.8291 14.0144C4.8291 13.9063 4.87307 13.8085 4.94364 13.7373C5.01479 13.6668 5.11255 13.6228 5.22073 13.6228H11.9266C12.143 13.6228 12.3182 13.7981 12.3182 14.0144Z" fill="#E5E8EF"/>
<path d="M8.926 16.0554C8.926 16.1636 8.88204 16.2614 8.81146 16.3325C8.74031 16.4031 8.64256 16.4471 8.53437 16.4471H2.4042C2.18784 16.4471 2.01257 16.2718 2.01257 16.0554C2.01257 15.9473 2.05654 15.8495 2.12711 15.7784C2.19826 15.7078 2.29602 15.6638 2.4042 15.6638H8.53437C8.75072 15.6638 8.926 15.8391 8.926 16.0554Z" fill="#E5E8EF"/>
<path d="M18.1463 22.0313C21.3789 22.0313 23.9995 19.4107 23.9995 16.178C23.9995 12.9453 21.3789 10.3247 18.1463 10.3247C14.9136 10.3247 12.293 12.9453 12.293 16.178C12.293 19.4107 14.9136 22.0313 18.1463 22.0313Z" fill="#1F2272"/>
<path d="M18.1463 20.3837C20.4691 20.3837 22.352 18.5008 22.352 16.1781C22.352 13.8554 20.4691 11.9724 18.1463 11.9724C15.8236 11.9724 13.9407 13.8554 13.9407 16.1781C13.9407 18.5008 15.8236 20.3837 18.1463 20.3837Z" fill="#E5E8EF"/>
<path d="M21.4831 13.616C20.7734 13.0709 19.8845 12.7454 18.9206 12.7454C16.5976 12.7454 14.7155 14.6293 14.7155 16.9523C14.7155 17.9163 15.0392 18.8052 15.5843 19.5148C14.5856 18.7448 13.9418 17.5376 13.9418 16.1786C13.9418 13.8556 15.8239 11.9717 18.1468 11.9717C19.5059 11.9717 20.7131 12.6155 21.4831 13.616Z" fill="#CDD4DF"/>
<path d="M20.7963 16.9106C20.7963 17.5619 20.2687 18.0895 19.6174 18.0895C19.2867 18.0895 18.9863 17.9532 18.7742 17.7335C18.9105 18.1172 19.0897 18.4505 19.3246 18.7156C19.3977 18.8015 19.3195 18.9225 19.2109 18.8974C18.7136 18.7762 18.2188 18.7736 17.7215 18.8948C17.6129 18.9201 17.5347 18.7989 17.6079 18.7131C17.8427 18.4455 18.0219 18.1148 18.1582 17.731C17.9461 17.9532 17.6457 18.0895 17.3125 18.0895C16.6637 18.0895 16.1361 17.5619 16.1361 16.9106C16.1361 16.2592 16.6637 15.7316 17.3125 15.7316C17.411 15.7316 17.5044 15.7442 17.5953 15.7669C17.4034 15.5599 17.2873 15.2798 17.2873 14.9743C17.2873 14.3254 17.8149 13.7979 18.4662 13.7979C19.115 13.7979 19.6426 14.3254 19.6426 14.9743C19.6426 15.2798 19.5265 15.5599 19.3346 15.7669C19.4255 15.7442 19.519 15.7316 19.6174 15.7316C20.2687 15.7316 20.7963 16.2592 20.7963 16.9106Z" fill="#CDD4DF"/>
<path d="M20.477 16.7389C20.477 17.3903 19.9493 17.9179 19.2981 17.9179C18.9673 17.9179 18.6669 17.7815 18.4549 17.5619C18.5912 17.9456 18.7704 18.2789 19.0052 18.5439C19.0784 18.6298 19.0002 18.7509 18.8916 18.7257C18.3943 18.6046 17.8995 18.602 17.4022 18.7232C17.2936 18.7484 17.2153 18.6273 17.2886 18.5415C17.5233 18.2738 17.7026 17.9431 17.8389 17.5594C17.6268 17.7815 17.3264 17.9179 16.9932 17.9179C16.3444 17.9179 15.8168 17.3903 15.8168 16.7389C15.8168 16.0876 16.3444 15.56 16.9932 15.56C17.0917 15.56 17.185 15.5726 17.2759 15.5953C17.0841 15.3883 16.968 15.1081 16.968 14.8027C16.968 14.1538 17.4956 13.6262 18.1469 13.6262C18.7957 13.6262 19.3233 14.1538 19.3233 14.8027C19.3233 15.1081 19.2071 15.3883 19.0153 15.5953C19.1062 15.5726 19.1996 15.56 19.2981 15.56C19.9493 15.56 20.477 16.0876 20.477 16.7389Z" fill="#1F2272"/>
<defs>
<linearGradient id="paint0_linear_2527_36295" x1="9.89518" y1="4.46851" x2="9.89518" y2="18.1754" gradientUnits="userSpaceOnUse">
<stop stop-color="#FF4EA3"/>
<stop offset="1" stop-color="#B8008F"/>
</linearGradient>
</defs>
</svg>
