<svg width="24" height="24" viewBox="0 0 24 24" fill="none" xmlns="http://www.w3.org/2000/svg">
<path d="M21.3581 15.5H2.64209C4.06259 19.294 7.71059 22 12.0001 22C16.2896 22 19.9376 19.294 21.3581 15.5Z" fill="#3F51B5"/>
<path d="M12.0001 2C7.71059 2 4.06259 4.706 2.64209 8.5H21.3576C19.9376 4.706 16.2896 2 12.0001 2Z" fill="#FF3D00"/>
<path d="M22 12C22 10.7665 21.766 9.591 21.358 8.5H2.642C2.234 9.591 2 10.7665 2 12C2 13.2335 2.234 14.409 2.642 15.5H21.3575C21.766 14.409 22 13.2335 22 12Z" fill="#ECEFF1"/>
<path d="M22 17C22 19.7614 19.7614 22 17 22C14.2386 22 12 19.7614 12 17C12 14.2386 14.2386 12 17 12C19.7614 12 22 14.2386 22 17Z" fill="#27AE60"/>
<path d="M16.0652 17.5143L19.2759 14.5L20.3334 15.4929L16.0652 19.5L13.6667 17.2482L14.7243 16.2553L16.0652 17.5143Z" fill="white"/>
</svg>
