<svg width="17" height="18" viewBox="0 0 17 18" fill="none" xmlns="http://www.w3.org/2000/svg">
<path d="M6.16892 0.808594C5.91717 0.808594 5.67574 0.9086 5.49772 1.08661C5.31971 1.26463 5.2197 1.50606 5.2197 1.75781C5.2197 2.00956 5.31971 2.251 5.49772 2.42901C5.67574 2.60702 5.91717 2.70703 6.16892 2.70703H10.8578C10.7194 1.65234 9.80417 0.808594 8.69921 0.808594H6.16892ZM4.68 1.50822C4.27124 1.81791 3.93943 2.21773 3.71038 2.67657C3.48133 3.1354 3.36121 3.6409 3.35938 4.15372V4.18009C3.81641 4.17858 4.74731 4.05529 5.5918 3.15308C5.27583 3.02291 5.01349 2.78922 4.84781 2.49034C4.68214 2.19146 4.62296 1.84515 4.68 1.50822ZM6.23422 3.26953C5.20302 4.57031 3.95703 4.73906 3.35938 4.7417V6.60986C3.3591 7.50116 3.70879 8.35694 4.33318 8.993C4.96353 9.64036 5.79831 9.99687 6.67855 9.99687C7.55879 9.99687 8.39361 9.64036 9.02399 8.993C9.65005 8.35755 10.0019 7.50189 10.0039 6.60986V3.26953H6.23422ZM7.59639 5.62775C7.67098 5.62775 7.74252 5.65738 7.79526 5.71012C7.84801 5.76287 7.87764 5.8344 7.87764 5.909C7.879 5.99635 7.91466 6.07966 7.97692 6.14095C8.03917 6.20223 8.12303 6.23659 8.21039 6.23659C8.29775 6.23659 8.38161 6.20223 8.44386 6.14095C8.50611 6.07966 8.54177 5.99635 8.54314 5.909C8.54314 5.8344 8.57277 5.76287 8.62551 5.71012C8.67826 5.65738 8.74979 5.62775 8.82439 5.62775C8.89898 5.62775 8.97052 5.65738 9.02326 5.71012C9.076 5.76287 9.10564 5.8344 9.10564 5.909C9.10339 6.14495 9.00808 6.37048 8.84043 6.53654C8.67278 6.7026 8.44636 6.79576 8.21039 6.79576C7.97442 6.79576 7.74799 6.7026 7.58035 6.53654C7.4127 6.37048 7.31739 6.14495 7.31514 5.909C7.31514 5.8344 7.34477 5.76287 7.39752 5.71012C7.45026 5.65738 7.5218 5.62775 7.59639 5.62775ZM4.53443 5.62788C4.60757 5.63001 4.67701 5.66056 4.728 5.71304C4.77898 5.76553 4.80751 5.83582 4.80751 5.909C4.80888 5.99634 4.84454 6.07965 4.90679 6.14094C4.96904 6.20223 5.0529 6.23658 5.14026 6.23658C5.22762 6.23658 5.31147 6.20223 5.37373 6.14094C5.43598 6.07965 5.47164 5.99634 5.47301 5.909C5.47301 5.8344 5.50264 5.76287 5.55538 5.71012C5.60813 5.65738 5.67967 5.62775 5.75426 5.62775C5.82885 5.62775 5.90039 5.65738 5.95313 5.71012C6.00588 5.76287 6.03551 5.8344 6.03551 5.909C6.03518 6.14633 5.94075 6.37385 5.77293 6.54167C5.60511 6.70949 5.37759 6.80392 5.14026 6.80424C4.90291 6.80397 4.67536 6.70957 4.50752 6.54173C4.33969 6.3739 4.24528 6.14635 4.24501 5.909C4.24501 5.87138 4.25256 5.83414 4.26721 5.79949C4.28186 5.76484 4.30332 5.73348 4.3303 5.70727C4.35729 5.68106 4.38926 5.66052 4.42432 5.64689C4.45939 5.63325 4.49683 5.62679 4.53443 5.62788ZM2.79688 5.71729C2.65625 5.80243 2.58944 5.94581 2.58944 6.10819C2.58818 6.18333 2.60668 6.25749 2.64308 6.32324C2.67949 6.38898 2.73252 6.44402 2.79688 6.48283V5.71729ZM10.5664 5.73438V6.48207C10.6238 6.43811 10.6703 6.38152 10.7023 6.31669C10.7343 6.25186 10.751 6.18053 10.751 6.10823C10.751 6.03592 10.7343 5.96459 10.7023 5.89976C10.6703 5.83493 10.6238 5.77834 10.5664 5.73438ZM10.6515 9.70312C10.3848 9.70312 10.1797 9.9371 10.1797 10.2038V16.7062C10.1784 16.7692 10.1896 16.8317 10.2127 16.8903C10.2358 16.9489 10.2703 17.0023 10.3142 17.0474C10.3581 17.0926 10.4105 17.1285 10.4684 17.1532C10.5263 17.178 10.5885 17.1909 10.6515 17.1914H10.7789C10.7041 17.0409 10.6673 16.8743 10.6719 16.7062V10.2038C10.671 10.0312 10.7075 9.86034 10.7789 9.70312H10.6515ZM11.7062 9.70312C11.4394 9.70312 11.2344 9.9371 11.2344 10.2038V16.7062C11.2331 16.7692 11.2443 16.8317 11.2674 16.8903C11.2905 16.9489 11.325 17.0023 11.3689 17.0474C11.4128 17.0926 11.4652 17.1285 11.5231 17.1532C11.581 17.178 11.6432 17.1909 11.7062 17.1914H15.7605C16.0273 17.1914 16.2617 16.9729 16.2617 16.7062V10.2038C16.2583 10.072 16.2044 9.94658 16.1111 9.8534C16.0178 9.76022 15.8923 9.70643 15.7605 9.70312H11.7062ZM15.0963 9.94592C15.3611 9.94625 15.6148 10.0515 15.802 10.2387C15.9892 10.4259 16.0945 10.6797 16.0948 10.9444C16.0948 11.019 16.0652 11.0905 16.0124 11.1432C15.9597 11.196 15.8881 11.2256 15.8135 11.2256C15.739 11.2256 15.6674 11.196 15.6147 11.1432C15.5619 11.0905 15.5323 11.019 15.5323 10.9444C15.5321 10.8288 15.4861 10.718 15.4044 10.6363C15.3227 10.5546 15.2119 10.5086 15.0963 10.5084C15.0218 10.5084 14.9502 10.4788 14.8975 10.426C14.8447 10.3733 14.8151 10.3018 14.8151 10.2272C14.8151 10.1526 14.8447 10.081 14.8975 10.0283C14.9502 9.97555 15.0218 9.94592 15.0963 9.94592ZM8.38672 10.1466C7.88273 10.4054 7.32646 10.5462 6.76002 10.5584C6.19357 10.5705 5.63179 10.4536 5.11719 10.2165V10.7876L6.70924 11.8343L8.38672 10.7836V10.1466ZM3.05704 11.2148C1.85699 11.2148 0.863281 12.1973 0.863281 13.3973V15.293H6.41797V12.3201L4.7372 11.2148H3.05704ZM8.75407 11.2148L6.98047 12.3241V15.293H9.61719V11.2148H8.75407ZM13.0685 11.8892C13.305 11.8937 13.5358 11.9628 13.7358 12.0889C13.9347 11.9683 14.1618 11.9019 14.3944 11.8964C14.9077 11.8964 15.3106 12.2501 15.421 12.7976L15.4214 12.7996C15.5618 13.5226 15.138 14.4812 13.8748 14.993C13.8695 14.9952 13.864 14.9972 13.8585 14.999C13.7776 15.028 13.6891 15.028 13.6082 14.999C13.6033 14.9974 13.5984 14.9955 13.5936 14.9937C12.3294 14.4921 11.9049 13.5306 12.045 12.8002C12.1499 12.247 12.5517 11.8892 13.0685 11.8892ZM13.0685 12.4518C12.8275 12.4518 12.6514 12.6214 12.5974 12.9056C12.5032 13.3969 12.8198 14.0552 13.7325 14.4428C14.6455 14.0477 14.9629 13.3924 14.8693 12.9078C14.8124 12.6267 14.6349 12.459 14.3944 12.459C14.2472 12.459 14.071 12.528 13.8985 12.6532C13.8499 12.6884 13.7914 12.7072 13.7314 12.7068C13.6714 12.7064 13.6131 12.6869 13.5651 12.651C13.3903 12.5206 13.2186 12.4518 13.0685 12.4518ZM11.6615 15.6846C11.7346 15.6868 11.804 15.7173 11.855 15.7698C11.906 15.8223 11.9345 15.8926 11.9345 15.9657C11.9346 16.0813 11.9806 16.1921 12.0623 16.2738C12.1441 16.3556 12.2549 16.4015 12.3704 16.4017C12.445 16.4017 12.5166 16.4313 12.5693 16.4841C12.622 16.5368 12.6517 16.6084 12.6517 16.6829C12.6517 16.7575 12.622 16.8291 12.5693 16.8818C12.5166 16.9346 12.445 16.9642 12.3704 16.9642C12.1057 16.9639 11.852 16.8586 11.6648 16.6714C11.4776 16.4842 11.3723 16.2305 11.372 15.9657C11.372 15.9281 11.3795 15.8909 11.3942 15.8562C11.4088 15.8216 11.4303 15.7902 11.4573 15.764C11.4843 15.7378 11.5163 15.7172 11.5513 15.7036C11.5864 15.69 11.6239 15.6835 11.6615 15.6846Z" fill="#4B50C8"/>
</svg>
