<svg width="32" height="22" viewBox="0 0 32 22" fill="none" xmlns="http://www.w3.org/2000/svg">
<rect y="0.75" width="32" height="21" rx="3" fill="#262626"/>
<path d="M19.4283 4.94995C18.6403 4.94995 17.8601 5.11291 17.1321 5.42951C16.4042 5.74612 15.7427 6.21018 15.1856 6.79519C14.6284 7.3802 14.1865 8.07472 13.8849 8.83907C13.5834 9.60343 13.4282 10.4227 13.4282 11.25C13.4282 12.0773 13.5834 12.8966 13.8849 13.6609C14.1865 14.4253 14.6284 15.1198 15.1856 15.7048C15.7427 16.2898 16.4042 16.7539 17.1321 17.0705C17.8601 17.3871 18.6403 17.55 19.4283 17.55C20.2162 17.55 20.9964 17.3871 21.7244 17.0705C22.4523 16.7539 23.1138 16.2898 23.6709 15.7048C24.2281 15.1198 24.67 14.4253 24.9716 13.6609C25.2731 12.8966 25.4283 12.0773 25.4283 11.25C25.4283 10.4227 25.2731 9.60343 24.9716 8.83907C24.67 8.07472 24.2281 7.3802 23.6709 6.79519C23.1138 6.21018 22.4523 5.74612 21.7244 5.42951C20.9964 5.11291 20.2162 4.94995 19.4283 4.94995Z" fill="#FF9800"/>
<path d="M12.5713 4.94995C11.7834 4.94995 11.0032 5.11291 10.2752 5.42951C9.54726 5.74612 8.88582 6.21018 8.32866 6.79519C7.7715 7.3802 7.32955 8.07472 7.02802 8.83907C6.72648 9.60343 6.57129 10.4227 6.57129 11.25C6.57129 12.0773 6.72648 12.8966 7.02802 13.6609C7.32955 14.4253 7.7715 15.1198 8.32866 15.7048C8.88582 16.2898 9.54726 16.7539 10.2752 17.0705C11.0032 17.3871 11.7834 17.55 12.5713 17.55C13.3593 17.55 14.1395 17.3871 14.8674 17.0705C15.5954 16.7539 16.2568 16.2898 16.814 15.7048C17.3712 15.1198 17.8131 14.4253 18.1146 13.6609C18.4162 12.8966 18.5714 12.0773 18.5714 11.25C18.5714 10.4227 18.4162 9.60343 18.1146 8.83907C17.8131 8.07472 17.3712 7.3802 16.814 6.79519C16.2568 6.21018 15.5954 5.74612 14.8674 5.42951C14.1395 5.11291 13.3593 4.94995 12.5713 4.94995Z" fill="#D50000"/>
<path d="M13.4282 11.2498C13.4282 13.3895 14.4465 15.2773 15.9997 16.4158C17.5528 15.2773 18.5711 13.3895 18.5711 11.2498C18.5711 9.11001 17.5528 7.22225 15.9997 6.08374C14.4465 7.22225 13.4282 9.11001 13.4282 11.2498Z" fill="#FF3D00"/>
</svg>
