<svg width="16" height="16" viewBox="0 0 16 16" fill="none" xmlns="http://www.w3.org/2000/svg">
<path d="M2.83341 2C2.1951 2 1.66675 2.52835 1.66675 3.16667V8.83333C1.66675 9.47165 2.1951 10 2.83341 10H13.1667C13.8051 10 14.3334 9.47165 14.3334 8.83333V3.16667C14.3334 2.52835 13.8051 2 13.1667 2H2.83341ZM3.66675 3H12.3334C12.3334 3.55333 12.7801 4 13.3334 4V8C12.7801 8 12.3334 8.44667 12.3334 9H3.66675C3.66675 8.44667 3.22008 8 2.66675 8V4C3.22008 4 3.66675 3.55333 3.66675 3ZM8.00008 3.66667C6.89708 3.66667 6.00008 4.71333 6.00008 6C6.00008 7.28667 6.89708 8.33333 8.00008 8.33333C9.10308 8.33333 10.0001 7.28667 10.0001 6C10.0001 4.71333 9.10308 3.66667 8.00008 3.66667ZM4.00008 5.33333C3.82327 5.33333 3.6537 5.40357 3.52868 5.5286C3.40365 5.65362 3.33341 5.82319 3.33341 6C3.33341 6.17681 3.40365 6.34638 3.52868 6.4714C3.6537 6.59643 3.82327 6.66667 4.00008 6.66667C4.17689 6.66667 4.34646 6.59643 4.47149 6.4714C4.59651 6.34638 4.66675 6.17681 4.66675 6C4.66675 5.82319 4.59651 5.65362 4.47149 5.5286C4.34646 5.40357 4.17689 5.33333 4.00008 5.33333ZM12.0001 5.33333C11.8233 5.33333 11.6537 5.40357 11.5287 5.5286C11.4037 5.65362 11.3334 5.82319 11.3334 6C11.3334 6.17681 11.4037 6.34638 11.5287 6.4714C11.6537 6.59643 11.8233 6.66667 12.0001 6.66667C12.1769 6.66667 12.3465 6.59643 12.4715 6.4714C12.5965 6.34638 12.6667 6.17681 12.6667 6C12.6667 5.82319 12.5965 5.65362 12.4715 5.5286C12.3465 5.40357 12.1769 5.33333 12.0001 5.33333ZM2.68172 10.666C2.75539 11.2177 3.21122 11.646 3.78589 11.666C7.41089 11.7913 10.0942 12.9991 11.5359 13.6478C11.7926 13.7635 12.0134 13.8622 12.196 13.9368C12.297 13.9782 12.4029 13.9987 12.5085 13.9987C12.6699 13.9987 12.8295 13.9511 12.9675 13.8587C13.1965 13.7051 13.3334 13.4479 13.3334 13.1712V10.6667H12.3334V12C11.955 12 11.6303 12.2111 11.4604 12.5202C9.87714 11.8212 7.26992 10.7858 3.82039 10.6667C3.81973 10.6667 3.81909 10.666 3.81909 10.666H2.68172Z" fill="white"/>
</svg>
