<svg width="136" height="16" viewBox="0 0 136 16" fill="none" xmlns="http://www.w3.org/2000/svg">
<g clip-path="url(#clip0_3384_21687)">
<rect width="24" height="15.75" rx="3" fill="#00579F"/>
<path d="M10.8698 10.3261H9.5498L10.3669 4.86043H11.6869L10.8698 10.3261Z" fill="white"/>
<path d="M15.6454 4.96147C15.394 4.86025 14.9854 4.7253 14.4512 4.7253C13.1626 4.7253 12.2198 5.46755 12.2198 6.54719C12.2198 7.32319 12.8798 7.76179 13.3826 8.0317C13.8855 8.30161 14.074 8.47031 14.074 8.70648C14.074 9.07761 13.6655 9.2463 13.2883 9.2463C12.7541 9.2463 12.4712 9.14509 12.0627 8.94265L11.8741 8.84144L11.6855 10.056C11.9998 10.191 12.5655 10.3259 13.1626 10.3597C14.5454 10.3597 15.4568 9.61743 15.4568 8.50405C15.4568 7.89675 15.1111 7.39067 14.3569 7.01954C13.8855 6.78337 13.6026 6.61467 13.6026 6.34476C13.6026 6.10859 13.854 5.87242 14.3569 5.87242C14.7969 5.87242 15.1111 5.97363 15.3311 6.07485L15.4568 6.14233L15.6454 4.96147Z" fill="white"/>
<path d="M17.4051 8.36927C17.4994 8.06562 17.9394 6.85102 17.9394 6.85102C17.9394 6.85102 18.0336 6.51363 18.1279 6.3112L18.2222 6.78354C18.2222 6.78354 18.4736 8.09936 18.5365 8.36927C18.2851 8.36927 17.6565 8.36927 17.4051 8.36927ZM19.0079 4.86043H18.0022C17.6879 4.86043 17.4365 4.96165 17.3108 5.29903L15.3623 10.3261H16.7451C16.7451 10.3261 16.9651 9.65134 17.028 9.51639C17.1851 9.51639 18.5365 9.51639 18.725 9.51639C18.7565 9.71882 18.8822 10.3261 18.8822 10.3261H20.1078L19.0079 4.86043Z" fill="white"/>
<path d="M8.41867 4.86043L7.13014 8.60544L7.00443 7.86318C6.75301 6.95224 5.99875 6.00755 5.18164 5.5352L6.37588 10.3261H7.75869L9.83291 4.86043H8.41867Z" fill="white"/>
<path d="M5.9351 4.86043H3.79803L3.7666 4.96165C5.43226 5.40025 6.53222 6.51363 6.9722 7.82944L6.50079 5.29903C6.46936 4.96165 6.21794 4.86043 5.9351 4.86043Z" fill="#FAA61A"/>
<rect x="28" width="24" height="15.75" rx="3" fill="#262626"/>
<path d="M42.5674 3.14999C41.9765 3.14999 41.3913 3.27221 40.8453 3.50967C40.2994 3.74712 39.8033 4.09516 39.3854 4.53392C38.9675 4.97268 38.6361 5.49357 38.4099 6.06683C38.1838 6.6401 38.0674 7.25453 38.0674 7.87503C38.0674 8.49553 38.1838 9.10995 38.4099 9.68322C38.6361 10.2565 38.9675 10.7774 39.3854 11.2161C39.8033 11.6549 40.2994 12.0029 40.8453 12.2404C41.3913 12.4778 41.9765 12.6001 42.5674 12.6001C43.1584 12.6001 43.7435 12.4778 44.2895 12.2404C44.8355 12.0029 45.3315 11.6549 45.7494 11.2161C46.1673 10.7774 46.4988 10.2565 46.7249 9.68322C46.951 9.10995 47.0674 8.49553 47.0674 7.87503C47.0674 7.25453 46.951 6.6401 46.7249 6.06683C46.4988 5.49357 46.1673 4.97268 45.7494 4.53392C45.3315 4.09516 44.8355 3.74712 44.2895 3.50967C43.7435 3.27221 43.1584 3.14999 42.5674 3.14999Z" fill="#FF9800"/>
<path d="M37.4258 3.14999C36.8349 3.14999 36.2497 3.27221 35.7037 3.50967C35.1578 3.74712 34.6617 4.09516 34.2438 4.53392C33.8259 4.97268 33.4945 5.49357 33.2683 6.06683C33.0422 6.6401 32.9258 7.25453 32.9258 7.87503C32.9258 8.49553 33.0422 9.10995 33.2683 9.68322C33.4945 10.2565 33.8259 10.7774 34.2438 11.2161C34.6617 11.6549 35.1578 12.0029 35.7037 12.2404C36.2497 12.4778 36.8349 12.6001 37.4258 12.6001C38.0168 12.6001 38.6019 12.4778 39.1479 12.2404C39.6939 12.0029 40.1899 11.6549 40.6078 11.2161C41.0257 10.7774 41.3572 10.2565 41.5833 9.68322C41.8094 9.10995 41.9258 8.49553 41.9258 7.87503C41.9258 7.25453 41.8094 6.6401 41.5833 6.06683C41.3572 5.49357 41.0257 4.97268 40.6078 4.53392C40.1899 4.09516 39.6939 3.74712 39.1479 3.50967C38.6019 3.27221 38.0168 3.14999 37.4258 3.14999Z" fill="#D50000"/>
<path d="M38.0674 7.87495C38.0674 9.47978 38.8311 10.8956 39.996 11.7495C41.1608 10.8956 41.9246 9.47978 41.9246 7.87495C41.9246 6.27013 41.1608 4.85431 39.996 4.00043C38.8311 4.85431 38.0674 6.27013 38.0674 7.87495Z" fill="#FF3D00"/>
<rect x="56" width="24" height="15.75" rx="3" fill="#FF9800"/>
<path d="M66.0079 3.15001V4.26177H65V11.4882H66.0079V12.6H67.0157V11.4882H68.0236V12.6H69.0315V11.4361C69.1654 11.4166 69.311 11.4079 69.4409 11.384C69.7441 11.2733 69.9921 11.1517 70.2441 10.9845C70.4449 10.8173 70.6437 10.6023 70.7953 10.3244C70.9469 10.0464 71 9.75763 71 9.36894C71 8.9238 70.8386 8.53946 70.6378 8.20506C70.3858 7.87067 70.0827 7.6557 69.6299 7.54495C69.9823 7.37776 70.2343 7.15844 70.3858 6.93696C70.5374 6.71547 70.6378 6.42233 70.6378 6.03365C70.6378 5.69925 70.5965 5.42131 70.4961 5.19983C70.3957 4.97834 70.2402 4.75469 70.0394 4.64394C69.8386 4.5332 69.6339 4.42246 69.3307 4.366C69.2323 4.34863 69.1319 4.33126 69.0315 4.31389V3.15001H68.0236V4.26177H67.0157V3.15001H66.0079ZM66.5118 5.37354H67.9764C68.128 5.37354 68.2697 5.3692 68.3701 5.42565C68.5217 5.42565 68.6319 5.4908 68.7323 5.54725C68.8327 5.60371 68.9331 5.64497 68.9843 5.75571C69.0354 5.86645 69.0787 5.98805 69.0787 6.15525C69.0787 6.48965 69.0276 6.70462 68.8268 6.81536C68.626 6.98256 68.4213 7.04119 68.1181 7.04119H66.5118V5.37354ZM66.5118 8.15295H68.2756C68.628 8.15295 68.937 8.26369 69.189 8.43089C69.4409 8.59809 69.5354 8.92815 69.5354 9.31683C69.5354 9.48403 69.4921 9.70986 69.4409 9.8206C69.3406 9.9878 69.2264 10.0942 69.126 10.1507C69.0256 10.2071 68.8839 10.2679 68.7323 10.3244C68.5807 10.3808 68.3799 10.3765 68.2283 10.3765H66.5118V8.15295Z" fill="#262626"/>
<rect x="84" width="24" height="15.75" rx="3" fill="#ECF2F9"/>
<path d="M91.0446 3.89058C90.769 3.90444 90.4293 4.08865 90.2347 4.34735C90.0565 4.57082 89.904 4.93318 89.9425 5.2733C90.2538 5.30159 90.5658 5.10326 90.7599 4.85149C90.9513 4.59222 91.077 4.24513 91.0446 3.89058ZM93.6901 4.58307V9.78011H94.4732V8.04776H95.5462C96.5306 8.04776 97.2369 7.32884 97.2369 6.31542C97.2369 5.30199 96.5432 4.58307 95.572 4.58307H93.6901ZM94.4732 5.27556H95.3808C96.0561 5.27556 96.4528 5.65886 96.4528 6.31542C96.4528 6.97198 96.0594 7.35415 95.3808 7.35415H94.4732V5.27556ZM91.0091 5.44924C90.5554 5.44924 90.2305 5.70864 90.0188 5.70864C89.8037 5.70864 89.4823 5.4515 89.1111 5.4515C88.6574 5.4515 88.2133 5.75087 87.979 6.18684C87.4978 7.05821 87.8542 8.34862 88.3195 9.0583C88.5477 9.40939 88.8226 9.78011 89.1938 9.78011C89.5343 9.76683 89.6488 9.56357 90.0596 9.56357C90.4731 9.56357 90.596 9.78011 90.9672 9.78011C91.3384 9.78011 91.5634 9.42292 91.7911 9.07183C92.0512 8.67339 92.1572 8.28452 92.1638 8.26431C92.1577 8.25796 91.4443 7.97047 91.4377 7.10603C91.4316 6.38306 91.9994 6.03843 92.0252 6.0188C91.7046 5.51873 91.1737 5.44924 91.0499 5.44924H91.0091ZM99.035 5.96917C98.2139 5.96917 97.6074 6.45266 97.5849 7.1173H98.2809C98.3381 6.80144 98.6236 6.59399 99.0135 6.59399C99.4864 6.59399 99.7536 6.82104 99.7536 7.23911V7.52783L98.7868 7.58197C97.8888 7.63798 97.4034 8.01542 97.4034 8.67371C97.4034 9.33835 97.9048 9.78011 98.6236 9.78011C99.1092 9.78011 99.5603 9.52617 99.7643 9.12484H99.7804V9.74064H100.496V7.18723C100.495 6.44578 99.9198 5.96917 99.035 5.96917ZM100.784 5.96917L102.107 9.76207L102.036 9.99327C101.917 10.3842 101.722 10.5346 101.378 10.5346C101.319 10.5346 101.208 10.5286 101.156 10.5222V11.147C101.208 11.1592 101.389 11.1662 101.445 11.1662C102.206 11.1662 102.565 10.865 102.878 9.95267L104.249 5.96917H103.455L102.536 9.04702H102.519L101.6 5.96917H100.784ZM99.7536 8.04776L99.7503 8.3489C99.7503 8.82933 99.3544 9.17108 98.8309 9.17108C98.419 9.17108 98.1563 8.96751 98.1563 8.65454C98.1563 8.33174 98.4093 8.14433 98.8921 8.11431L99.7536 8.04776Z" fill="#3A3F50"/>
<rect x="112" width="24" height="15.75" rx="3" fill="#ECF2F9"/>
<path d="M119.045 3.89058C118.769 3.90444 118.429 4.08865 118.235 4.34735C118.056 4.57082 117.904 4.93318 117.943 5.2733C118.254 5.30159 118.566 5.10326 118.76 4.85149C118.951 4.59222 119.077 4.24513 119.045 3.89058ZM121.69 4.58307V9.78011H122.473V8.04776H123.546C124.531 8.04776 125.237 7.32884 125.237 6.31542C125.237 5.30199 124.543 4.58307 123.572 4.58307H121.69ZM122.473 5.27556H123.381C124.056 5.27556 124.453 5.65886 124.453 6.31542C124.453 6.97198 124.059 7.35415 123.381 7.35415H122.473V5.27556ZM119.009 5.44924C118.555 5.44924 118.23 5.70864 118.019 5.70864C117.804 5.70864 117.482 5.4515 117.111 5.4515C116.657 5.4515 116.213 5.75087 115.979 6.18684C115.498 7.05821 115.854 8.34862 116.319 9.0583C116.548 9.40939 116.823 9.78011 117.194 9.78011C117.534 9.76683 117.649 9.56357 118.06 9.56357C118.473 9.56357 118.596 9.78011 118.967 9.78011C119.338 9.78011 119.563 9.42292 119.791 9.07183C120.051 8.67339 120.157 8.28452 120.164 8.26431C120.158 8.25796 119.444 7.97047 119.438 7.10603C119.432 6.38306 119.999 6.03843 120.025 6.0188C119.705 5.51873 119.174 5.44924 119.05 5.44924H119.009ZM127.035 5.96917C126.214 5.96917 125.607 6.45266 125.585 7.1173H126.281C126.338 6.80144 126.624 6.59399 127.013 6.59399C127.486 6.59399 127.754 6.82104 127.754 7.23911V7.52783L126.787 7.58197C125.889 7.63798 125.403 8.01542 125.403 8.67371C125.403 9.33835 125.905 9.78011 126.624 9.78011C127.109 9.78011 127.56 9.52617 127.764 9.12484H127.78V9.74064H128.496V7.18723C128.495 6.44578 127.92 5.96917 127.035 5.96917ZM128.784 5.96917L130.107 9.76207L130.036 9.99327C129.917 10.3842 129.722 10.5346 129.378 10.5346C129.319 10.5346 129.208 10.5286 129.156 10.5222V11.147C129.208 11.1592 129.389 11.1662 129.445 11.1662C130.206 11.1662 130.565 10.865 130.878 9.95267L132.249 5.96917H131.455L130.536 9.04702H130.519L129.6 5.96917H128.784ZM127.754 8.04776L127.75 8.3489C127.75 8.82933 127.354 9.17108 126.831 9.17108C126.419 9.17108 126.156 8.96751 126.156 8.65454C126.156 8.33174 126.409 8.14433 126.892 8.11431L127.754 8.04776Z" fill="#3A3F50"/>
</g>
<defs>
<clipPath id="clip0_3384_21687">
<rect width="136" height="15.75" fill="white"/>
</clipPath>
</defs>
</svg>
