<svg width="16" height="15" viewBox="0 0 16 15" fill="none" xmlns="http://www.w3.org/2000/svg">
<path d="M3.04825 0.375C1.8055 0.375 0.798248 1.38225 0.798248 2.625V10.875C0.798248 12.1178 1.8055 13.125 3.04825 13.125H7.92325C9.166 13.125 10.1732 12.1178 10.1732 10.875V2.625C10.1732 1.38225 9.166 0.375 7.92325 0.375H3.04825ZM10.8383 1.9292C10.8915 2.1527 10.9232 2.385 10.9232 2.625V10.875C10.9232 12.5291 9.57737 13.875 7.92325 13.875H6.09366L10.1242 14.9268C10.3147 14.9766 10.5054 15 10.6933 15C11.6904 15 12.6008 14.3319 12.8671 13.3228L14.9728 5.33569C15.2904 4.13119 14.5689 2.89784 13.3629 2.58472L10.8383 1.9292ZM5.47916 3.375C5.7193 3.375 5.95963 3.4621 6.14713 3.63647C6.97888 4.40935 8.29166 5.78798 8.29166 6.78735C8.29166 7.5951 7.62502 8.25 6.80264 8.25C6.54727 8.25 6.31132 8.18048 6.10245 8.06836L6.77115 9.2373C6.86902 9.4833 6.68764 9.75 6.42252 9.75H4.54312C4.2795 9.75 4.09742 9.48586 4.19229 9.24023L4.86612 8.0625C4.65462 8.178 4.41555 8.25 4.15567 8.25C3.3333 8.25 2.66666 7.5951 2.66666 6.78735C2.66666 5.78798 3.97944 4.40935 4.81119 3.63647C4.99888 3.4621 5.23902 3.375 5.47916 3.375Z" fill="#58C27D"/>
</svg>
