<svg width="16" height="15" viewBox="0 0 16 15" fill="none" xmlns="http://www.w3.org/2000/svg">
<path d="M7.75 0C3.60775 0 0.25 3.35775 0.25 7.5C0.25 11.6422 3.60775 15 7.75 15C11.8922 15 15.25 11.6422 15.25 7.5C15.25 3.35775 11.8922 0 7.75 0ZM7.1875 1.15356V2.65942C6.70524 2.71488 6.24457 2.83997 5.81567 3.02563L5.06567 1.72559C5.72122 1.41956 6.43448 1.2198 7.1875 1.15356ZM8.3125 1.15356C9.06552 1.2198 9.77878 1.41956 10.4343 1.72559L9.68433 3.02563C9.25543 2.83997 8.79476 2.71488 8.3125 2.65942V1.15356ZM4.09155 2.28809L4.84448 3.59253C4.4633 3.87641 4.12641 4.2133 3.84253 4.59448L2.53809 3.84155C2.96278 3.23835 3.48835 2.71278 4.09155 2.28809ZM11.4084 2.28809C12.0116 2.71278 12.5372 3.23835 12.9619 3.84155L11.6575 4.59448C11.3736 4.2133 11.0367 3.87641 10.6555 3.59253L11.4084 2.28809ZM1.97559 4.81567L3.27563 5.56567C3.08997 5.99457 2.96488 6.45524 2.90942 6.9375H1.40356C1.4698 6.18448 1.66956 5.47122 1.97559 4.81567ZM13.5244 4.81567C13.8304 5.47122 14.0302 6.18448 14.0964 6.9375H12.5906C12.5351 6.45524 12.41 5.99457 12.2244 5.56567L13.5244 4.81567ZM6.25 5.625C6.34591 5.625 6.44182 5.66155 6.51514 5.73486L7.75 6.96973L8.98486 5.73486C9.13149 5.58824 9.36851 5.58824 9.51514 5.73486C9.66176 5.88149 9.66176 6.11851 9.51514 6.26514L8.28027 7.5L9.51514 8.73486C9.66176 8.88149 9.66176 9.11851 9.51514 9.26514C9.44201 9.33826 9.346 9.375 9.25 9.375C9.154 9.375 9.05799 9.33826 8.98486 9.26514L7.75 8.03027L6.51514 9.26514C6.44201 9.33826 6.346 9.375 6.25 9.375C6.154 9.375 6.05799 9.33826 5.98486 9.26514C5.83824 9.11851 5.83824 8.88149 5.98486 8.73486L7.21973 7.5L5.98486 6.26514C5.83824 6.11851 5.83824 5.88149 5.98486 5.73486C6.05818 5.66155 6.15409 5.625 6.25 5.625ZM1.40356 8.0625H2.90942C2.96488 8.54476 3.08997 9.00543 3.27563 9.43433L1.97559 10.1843C1.94342 10.1154 1.90645 10.0495 1.87671 9.97925C1.62345 9.38148 1.46283 8.73638 1.40356 8.0625ZM12.5906 8.0625H14.0964C14.0372 8.73638 13.8766 9.38148 13.6233 9.97925C13.5935 10.0495 13.5566 10.1154 13.5244 10.1843L12.2244 9.43433C12.41 9.00543 12.5351 8.54476 12.5906 8.0625ZM3.84253 10.4055C4.12641 10.7867 4.4633 11.1236 4.84448 11.4075L4.09155 12.7119C3.48835 12.2872 2.96278 11.7616 2.53809 11.1584L3.84253 10.4055ZM11.6575 10.4055L12.9619 11.1584C12.5372 11.7616 12.0116 12.2872 11.4084 12.7119L10.6555 11.4075C11.0367 11.1236 11.3736 10.7867 11.6575 10.4055ZM5.81567 11.9744C6.24457 12.16 6.70524 12.2851 7.1875 12.3406V13.8464C6.43448 13.7802 5.72122 13.5804 5.06567 13.2744L5.81567 11.9744ZM9.68433 11.9744L10.4343 13.2744C9.77878 13.5804 9.06552 13.7802 8.3125 13.8464V12.3406C8.79476 12.2851 9.25543 12.16 9.68433 11.9744Z" fill="#58C27D"/>
</svg>
