<svg width="19" height="19" viewBox="0 0 19 19" fill="none" xmlns="http://www.w3.org/2000/svg">
<g clip-path="url(#clip0_3677_15331)">
<path d="M9.39584 1.625C6.39772 1.625 3.95834 4.06437 3.95834 7.0625V15.6875C3.95834 16.6179 4.71547 17.375 5.64584 17.375H13.1458C14.0762 17.375 14.8333 16.6179 14.8333 15.6875V7.0625C14.8333 4.06437 12.394 1.625 9.39584 1.625ZM16.8958 5.75C16.5979 5.75003 16.3088 5.85145 16.0761 6.03759C15.8434 6.22373 15.681 6.4835 15.6155 6.7742C15.5501 7.0649 15.5855 7.36922 15.7159 7.63712C15.8464 7.90502 16.0641 8.12056 16.3333 8.24829V10.4375C16.3333 10.7476 16.081 11 15.7708 11H15.5833V12.125H15.7708C16.7012 12.125 17.4583 11.3679 17.4583 10.4375V8.24683C17.7267 8.11863 17.9436 7.90309 18.0734 7.63551C18.2033 7.36793 18.2384 7.06419 18.1731 6.77404C18.1077 6.48389 17.9457 6.22454 17.7137 6.0385C17.4816 5.85245 17.1933 5.75073 16.8958 5.75ZM6.58334 7.625H7.33334V11.75H6.58334C6.16897 11.75 5.83334 11.4144 5.83334 11V8.375C5.83334 7.96063 6.16897 7.625 6.58334 7.625ZM8.45834 7.625H10.3333V11.75H8.45834V7.625ZM11.4583 7.625H12.2083C12.6227 7.625 12.9583 7.96063 12.9583 8.375V11C12.9583 11.4144 12.6227 11.75 12.2083 11.75H11.4583V7.625Z" fill="#58C27D"/>
</g>
<defs>
<clipPath id="clip0_3677_15331">
<rect width="18" height="18" fill="white" transform="translate(0.583344 0.5)"/>
</clipPath>
</defs>
</svg>
