<svg width="14" height="14" viewBox="0 0 14 14" fill="none" xmlns="http://www.w3.org/2000/svg">
<path d="M7.00316 0.666674C6.90971 0.66609 6.81797 0.691704 6.73834 0.74061C6.65871 0.789516 6.59437 0.859757 6.55264 0.943367L4.83519 4.37826L0.757062 5.00587C0.665779 5.01997 0.580186 5.05908 0.509776 5.11887C0.439365 5.17865 0.386889 5.25677 0.358166 5.34455C0.329443 5.43234 0.325596 5.52637 0.347052 5.61621C0.368507 5.70605 0.414427 5.78819 0.479718 5.85352L3.30068 8.67449L2.67243 12.7572C2.65837 12.8485 2.6699 12.942 2.70574 13.0271C2.74158 13.1123 2.80033 13.1859 2.87546 13.2397C2.95059 13.2935 3.03916 13.3255 3.13135 13.332C3.22353 13.3385 3.31573 13.3194 3.39769 13.2767L6.9999 11.3971L10.6021 13.2767C10.6841 13.3194 10.7763 13.3385 10.8685 13.332C10.9606 13.3255 11.0492 13.2935 11.1243 13.2397C11.1995 13.1859 11.2582 13.1123 11.2941 13.0271C11.3299 12.942 11.3414 12.8485 11.3274 12.7572L10.6991 8.67449L13.5201 5.85352C13.5854 5.78819 13.6313 5.70605 13.6528 5.61621C13.6742 5.52637 13.6704 5.43234 13.6416 5.34455C13.6129 5.25677 13.5604 5.17865 13.49 5.11887C13.4196 5.05908 13.334 5.01997 13.2427 5.00587L9.16461 4.37826L7.44717 0.943367C7.40592 0.860746 7.3426 0.79116 7.26423 0.742322C7.18586 0.693483 7.0955 0.6673 7.00316 0.666674V0.666674Z" fill="#FF1A5E"/>
</svg>
