<svg width="14" height="14" viewBox="0 0 14 14" fill="none" xmlns="http://www.w3.org/2000/svg">
<path d="M7.00377 0.666514C6.91032 0.66593 6.81858 0.691544 6.73895 0.74045C6.65932 0.789356 6.59499 0.859597 6.55325 0.943206L4.8358 4.3781L0.757672 5.00571C0.666389 5.01981 0.580796 5.05892 0.510386 5.11871C0.439976 5.17849 0.387499 5.25661 0.358777 5.34439C0.330054 5.43218 0.326207 5.52621 0.347662 5.61605C0.369118 5.70589 0.415037 5.78803 0.480328 5.85336L3.30129 8.67432L2.67304 12.757C2.65898 12.8483 2.67051 12.9418 2.70635 13.027C2.7422 13.1122 2.80094 13.1858 2.87607 13.2396C2.9512 13.2934 3.03977 13.3253 3.13196 13.3319C3.22414 13.3384 3.31634 13.3192 3.3983 13.2765L7.00051 11.397L10.6027 13.2765C10.6847 13.3192 10.7769 13.3384 10.8691 13.3319C10.9612 13.3253 11.0498 13.2934 11.125 13.2396C11.2001 13.1858 11.2588 13.1122 11.2947 13.027C11.3305 12.9418 11.342 12.8483 11.328 12.757L10.6997 8.67432L13.5207 5.85336C13.586 5.78803 13.6319 5.70589 13.6534 5.61605C13.6748 5.52621 13.671 5.43218 13.6422 5.34439C13.6135 5.25661 13.561 5.17849 13.4906 5.11871C13.4202 5.05892 13.3346 5.01981 13.2434 5.00571L9.16523 4.3781L7.44778 0.943206C7.40653 0.860586 7.34321 0.791 7.26484 0.742161C7.18647 0.693323 7.09611 0.66714 7.00377 0.666514Z" fill="#FF1A5E"/>
</svg>
