<svg width="37" height="37" viewBox="0 0 37 37" fill="none" xmlns="http://www.w3.org/2000/svg">
<path opacity="0.7" d="M36.0965 18.8025C36.0429 28.7435 27.9407 36.8465 17.9998 36.9011C8.0588 36.9557 0.0434822 28.9412 0.0970674 19.0002C0.150652 9.05925 8.25285 0.956222 18.1938 0.901618C28.1348 0.847013 36.1501 8.8615 36.0965 18.8025ZM3.69701 18.9805C3.65415 26.9332 10.0664 33.3448 18.0192 33.3011C25.972 33.2575 32.4537 26.775 32.4966 18.8223C32.5394 10.8695 26.1272 4.45788 18.1744 4.50156C10.2216 4.54525 3.73988 11.0277 3.69701 18.9805Z" fill="#4B50C8" fill-opacity="0.2"/>
<path d="M18.1841 2.70159C18.1895 1.70749 19.0018 0.887846 19.9904 0.981644C23.7203 1.33553 27.2507 2.84962 30.073 5.33417C33.3452 8.21471 35.4408 12.2018 35.9668 16.5473C36.4927 20.8928 35.4127 25.2982 32.9295 28.9369C30.7877 32.0754 27.7288 34.4575 24.2003 35.7676C23.2651 36.1148 22.283 35.5316 22.0409 34.57V34.57C21.7989 33.6085 22.3902 32.6348 23.3167 32.2644C25.9971 31.1928 28.3181 29.3401 29.963 26.9298C31.9495 24.0188 32.8135 20.4945 32.3928 17.0181C31.972 13.5417 30.2955 10.352 27.6778 8.0476C25.5103 6.13952 22.8208 4.9469 19.9692 4.60403C18.9835 4.48551 18.1788 3.69569 18.1841 2.70159V2.70159Z" fill="#4B50C8"/>
<path d="M16.3333 11.8027C15.1427 11.8027 14.1667 12.7788 14.1667 13.9694C14.1667 14.3984 14.2953 14.7984 14.513 15.1361H12.8333C12.3733 15.1361 12 15.5094 12 15.9694V17.9694C12 18.4294 12.3733 18.8027 12.8333 18.8027H17.5V15.1361H16.3333C15.6833 15.1361 15.1667 14.6194 15.1667 13.9694C15.1667 13.3194 15.6833 12.8027 16.3333 12.8027C16.9834 12.8027 17.5 13.3194 17.5 13.9694V15.1361H18.5V13.9694C18.5 13.3194 19.0166 12.8027 19.6667 12.8027C20.3167 12.8027 20.8333 13.3194 20.8333 13.9694C20.8333 14.6194 20.3167 15.1361 19.6667 15.1361H18.5V18.8027H23.1667C23.6267 18.8027 24 18.4294 24 17.9694V15.9694C24 15.5094 23.6267 15.1361 23.1667 15.1361H21.487C21.7047 14.7984 21.8333 14.3984 21.8333 13.9694C21.8333 12.7788 20.8573 11.8027 19.6667 11.8027C18.9839 11.8027 18.398 12.1436 18 12.6419C17.602 12.1436 17.0161 11.8027 16.3333 11.8027ZM12.6667 19.8027V23.3027C12.6667 24.4961 13.64 25.4694 14.8333 25.4694H17.5V19.8027H12.6667ZM18.5 19.8027V25.4694H21.1667C22.36 25.4694 23.3333 24.4961 23.3333 23.3027V19.8027H18.5Z" fill="#4B50C8"/>
</svg>
