<svg width="37" height="37" viewBox="0 0 37 37" fill="none" xmlns="http://www.w3.org/2000/svg">
<path d="M22.6532 11.9847C22.4866 11.9847 22.3312 12.0678 22.2385 12.2061C21.9459 12.6421 20.4862 14.8687 20.4866 15.8897C20.4866 16.494 20.869 17.112 21.301 17.5284L20.8219 23.3929C20.7965 23.8996 20.9751 24.3811 21.3245 24.7484C21.6741 25.1157 22.1462 25.3181 22.6532 25.3181C23.1602 25.3181 23.632 25.1157 23.9814 24.7484C24.3307 24.3807 24.5096 23.8993 24.4833 23.3773L24.0048 17.5179C24.3705 17.1459 24.8199 16.522 24.8199 15.8897C24.8199 14.8687 23.3609 12.6421 23.0686 12.2061C22.9756 12.0678 22.8199 11.9847 22.6532 11.9847ZM17.9866 12.3181C13.9179 12.3181 11.4866 15.2837 11.4866 18.1514C11.4866 19.6871 12.6316 20.9847 13.9866 20.9847C14.5312 20.9847 15.0768 20.8728 15.5588 20.7738C15.8655 20.7111 16.1549 20.6514 16.3199 20.6514C16.9422 20.6514 17.0789 20.9376 17.2932 22.0752C17.5115 23.2339 17.8413 24.9847 20.3459 24.9847C20.4423 24.9847 20.5412 24.9759 20.6409 24.9652C20.2989 24.5025 20.1268 23.9434 20.1565 23.3591L20.6122 17.7705C20.1116 17.1975 19.8199 16.513 19.8199 15.8897C19.8196 15.122 20.3984 13.9493 20.9508 13.0043C20.0524 12.5693 19.0496 12.3181 17.9866 12.3181ZM17.6532 13.9847C18.1136 13.9847 18.4866 14.3577 18.4866 14.8181C18.4866 15.2784 18.1136 15.6514 17.6532 15.6514C17.1929 15.6514 16.8199 15.2784 16.8199 14.8181C16.8199 14.3577 17.1929 13.9847 17.6532 13.9847ZM15.3199 14.6514C15.7802 14.6514 16.1532 15.0244 16.1532 15.4847C16.1532 15.9451 15.7802 16.3181 15.3199 16.3181C14.8596 16.3181 14.4866 15.9451 14.4866 15.4847C14.4866 15.0244 14.8596 14.6514 15.3199 14.6514ZM13.9866 16.6514C14.4469 16.6514 14.8199 17.0244 14.8199 17.4847C14.8199 17.9451 14.4469 18.3181 13.9866 18.3181C13.5262 18.3181 13.1532 17.9451 13.1532 17.4847C13.1532 17.0244 13.5262 16.6514 13.9866 16.6514ZM22.2945 17.6514H23.012L23.1207 18.9847H22.1851L22.2945 17.6514Z" fill="#4B50C8"/>
<path opacity="0.7" d="M36.2497 18.6511C36.1961 28.5921 28.0939 36.6951 18.153 36.7497C8.21199 36.8043 0.19668 28.7898 0.250266 18.8489C0.303851 8.90788 8.40604 0.804855 18.347 0.75025C28.288 0.695646 36.3033 8.71014 36.2497 18.6511ZM3.85021 18.8291C3.80734 26.7819 10.2196 33.1935 18.1724 33.1498C26.1252 33.1061 32.6069 26.6237 32.6498 18.6709C32.6926 10.7181 26.2804 4.30651 18.3276 4.3502C10.3748 4.39388 3.89308 10.8763 3.85021 18.8291Z" fill="#4B50C8" fill-opacity="0.2"/>
<path d="M18.3373 2.55022C18.3427 1.55613 19.155 0.736479 20.1436 0.830277C23.8735 1.18417 27.4039 2.69825 30.2262 5.1828C33.4984 8.06334 35.594 12.0504 36.1199 16.3959C36.6459 20.7415 35.5659 25.1468 33.0827 28.7856C30.9409 31.9241 27.882 34.3062 24.3535 35.6162C23.4183 35.9634 22.4362 35.3802 22.1941 34.4187C21.9521 33.4572 22.5434 32.4834 23.4699 32.113C26.1503 31.0414 28.4713 29.1887 30.1162 26.7784C32.1027 23.8675 32.9667 20.3432 32.546 16.8667C32.1252 13.3903 30.4487 10.2007 27.831 7.89624C25.6635 5.98816 22.974 4.79554 20.1224 4.45266C19.1367 4.33415 18.332 3.54432 18.3373 2.55022Z" fill="#4B50C8"/>
</svg>
