<svg width="13" height="14" viewBox="0 0 13 14" fill="none" xmlns="http://www.w3.org/2000/svg">
<path d="M11.5647 4.73033C11.3247 4.333 11.0263 3.838 10.9743 3.682C10.223 1.428 8.43233 0.0643333 6.16667 0V4.26533C6.748 4.472 7.16667 5.02133 7.16667 5.67333C7.16667 6.32533 6.748 6.875 6.16667 7.08133V7.34C6.16667 7.89133 6.61533 8.34 7.16667 8.34H8.00367C8.15567 8.13867 8.39467 8.00667 8.66667 8.00667C9.127 8.00667 9.5 8.37967 9.5 8.84C9.5 9.30033 9.127 9.67333 8.66667 9.67333C8.395 9.67333 8.156 9.54133 8.00367 9.34H7.16667C6.06367 9.34 5.16667 8.443 5.16667 7.34V7.08133C4.58533 6.87467 4.16667 6.32533 4.16667 5.67333C4.16667 5.02133 4.58533 4.47167 5.16667 4.26533V0.0469999C2.382 0.371333 0.5 2.31667 0.5 5.00667C0.5 6.63233 0.96 7.43233 1.405 8.206C1.94333 9.14233 2.5 10.1107 2.5 12.84C2.5 13.1163 2.72367 13.34 3 13.34H8.33333C8.60967 13.34 8.83333 13.1163 8.83333 12.84V11.4937C8.83333 11.4017 8.908 11.327 9 11.327C10.1947 11.327 11.1667 10.355 11.1667 9.16033V7.711C12.5 7.27533 12.5 6.874 12.5 6.67333C12.5 6.31733 12.215 5.808 11.5647 4.73033Z" fill="white"/>
</svg>
