<svg width="32" height="22" viewBox="0 0 32 22" fill="none" xmlns="http://www.w3.org/2000/svg">
<rect y="0.75" width="32" height="21" rx="3" fill="#00579F"/>
<path d="M14.4662 14.5178H12.7062L13.7957 7.23022H15.5557L14.4662 14.5178Z" fill="white"/>
<path d="M20.836 7.36495C20.5008 7.22999 19.9561 7.05005 19.2437 7.05005C17.5257 7.05005 16.2686 8.03972 16.2686 9.47925C16.2686 10.5139 17.1485 11.0987 17.819 11.4586C18.4894 11.8185 18.7409 12.0434 18.7409 12.3583C18.7409 12.8531 18.1961 13.0781 17.6933 13.0781C16.9809 13.0781 16.6038 12.9431 16.0591 12.6732L15.8076 12.5382L15.5562 14.1577C15.9752 14.3376 16.7295 14.5176 17.5257 14.5626C19.3694 14.5626 20.5846 13.5729 20.5846 12.0884C20.5846 11.2787 20.1237 10.6039 19.118 10.109C18.4894 9.79414 18.1123 9.56922 18.1123 9.20934C18.1123 8.89444 18.4475 8.57954 19.118 8.57954C19.7046 8.57954 20.1237 8.7145 20.417 8.84945L20.5846 8.93943L20.836 7.36495Z" fill="white"/>
<path d="M23.1812 11.9087C23.3069 11.5038 23.8936 9.88435 23.8936 9.88435C23.8936 9.88435 24.0193 9.4345 24.145 9.16459L24.2707 9.79438C24.2707 9.79438 24.6059 11.5488 24.6897 11.9087C24.3545 11.9087 23.5165 11.9087 23.1812 11.9087ZM25.3183 7.23022H23.9774C23.5584 7.23022 23.2231 7.36518 23.0555 7.81503L20.4575 14.5178H22.3013C22.3013 14.5178 22.5946 13.6181 22.6784 13.4382C22.8879 13.4382 24.6897 13.4382 24.9412 13.4382C24.9831 13.7081 25.1507 14.5178 25.1507 14.5178H26.7849L25.3183 7.23022Z" fill="white"/>
<path d="M11.1976 7.23022L9.47954 12.2236L9.31192 11.2339C8.9767 10.0193 7.97102 8.75972 6.88153 8.12993L8.47386 14.5178H10.3176L13.0832 7.23022H11.1976Z" fill="white"/>
<path d="M7.8876 7.23022H5.03818L4.99628 7.36518C7.21715 7.94999 8.68377 9.4345 9.27041 11.1889L8.64186 7.81503C8.59996 7.36518 8.26473 7.23022 7.8876 7.23022Z" fill="#FAA61A"/>
</svg>
