<svg width="22" height="19" viewBox="0 0 22 19" fill="none" xmlns="http://www.w3.org/2000/svg">
<path d="M11 0.950195C7.65118 0.950195 3.30466 1.78926 3.30466 1.78926L3.29373 1.80176C1.76851 2.04569 0.599976 3.35629 0.599976 4.9502V9.7502V9.75176V14.5502V14.5518C0.601464 15.313 0.874272 16.0488 1.36941 16.6269C1.86456 17.2051 2.5496 17.5879 3.30154 17.7064L3.30466 17.7111C3.30466 17.7111 7.65118 18.5518 11 18.5518C14.3488 18.5518 18.6953 17.7111 18.6953 17.7111L18.6969 17.7096C19.4496 17.5913 20.1354 17.2082 20.631 16.6293C21.1265 16.0505 21.3992 15.3138 21.4 14.5518V14.5502V9.75176V9.7502V4.9502C21.3989 4.1887 21.1262 3.45256 20.631 2.87404C20.1359 2.29553 19.4506 1.91256 18.6984 1.79395L18.6953 1.78926C18.6953 1.78926 14.3488 0.950195 11 0.950195ZM8.59998 6.06895L15 9.7502L8.59998 13.4314V6.06895Z" fill="white"/>
</svg>
