<svg width="352" height="353" viewBox="0 0 352 353" fill="none" xmlns="http://www.w3.org/2000/svg">
<g clip-path="url(#clip0_2527_40359)">
<path opacity="0.7" d="M119.639 344.474C199.521 344.474 264.278 315.641 264.278 280.073C264.278 244.505 199.521 215.672 119.639 215.672C39.7571 215.672 -25.0001 244.505 -25.0001 280.073C-25.0001 315.641 39.7571 344.474 119.639 344.474Z" fill="#8922D9"/>
<path d="M26.9685 184.732C26.0116 191.622 25.9637 201.957 26.6814 213.296C30.6048 275.209 83.5706 323.247 145.436 319.036C145.866 318.989 146.297 318.989 146.728 318.941C191.942 315.544 218.306 302.482 240.267 274.683C252.42 259.324 241.655 210.569 198.067 180.091C186.584 172.053 177.493 161.192 172.278 148.178C163.665 126.551 158.163 103.25 151.321 87.3171C135.101 72.0541 117.111 59.949 89.7906 72.1977C46.8247 91.4319 33.1407 138.895 26.9685 184.732Z" fill="url(#paint0_linear_2527_40359)"/>
<path opacity="0.3" d="M87.9246 119.422C92.3264 138.177 95.3886 152.101 94.8144 166.933C94.2881 180.378 90.7954 204.205 97.0632 219.468C108.738 247.841 143.761 249.994 148.546 249.898C170.507 249.42 204.909 229.037 208.832 220.329C211.081 215.353 207.157 210.665 202.325 209.468C162.086 199.516 157.11 188.416 159.168 154.302C159.359 151.287 155.292 121.288 153.905 115.307C150.603 101.288 141.991 85.4031 137.206 83.1544C135.053 82.1496 132.565 82.4365 130.221 82.5801C123.474 82.9629 105.197 70.4273 90.2212 85.6902C81.4175 94.6853 85.915 110.762 87.9246 119.422Z" fill="#7B21CB"/>
<path d="M133.427 65.5471C132.9 71.3843 139.025 117.891 139.025 117.891L169.216 160.33C172.326 164.78 187.301 155.259 183.522 149.996L165.053 112.484C165.053 112.484 163.522 79.6618 163.474 66.0734C161.704 58.131 159.311 54.8775 155.962 53.2507C152.996 51.8153 149.551 51.911 146.393 52.7722C141.369 54.1597 134.096 57.5567 133.427 65.5471Z" fill="#2D085C"/>
<path d="M225.099 287.888C225.194 289.611 225.147 296.022 226.534 297.314C229.836 300.328 232.85 300.137 237.012 303.008C239.835 304.969 247.778 310.52 251.175 311.333C267.443 315.256 270.361 312.003 270.84 306.931C271.127 303.917 266.534 300.902 266.247 300.663C263.854 298.893 254.189 298.127 249.165 295.592C243.902 292.912 238.544 290.376 233.472 287.505C231.175 286.261 225.242 287.266 225.099 287.888Z" fill="#C858F0"/>
<path d="M267.682 301.333C262.036 295.592 250.458 289.994 248.783 286.501C248.209 285.305 247.778 284.013 247.443 282.721C247.108 281.429 246.582 280.233 245.769 279.181C242.659 275.161 236.774 267.65 235.338 266.262L225.482 267.41C226.152 270.616 226.63 273.774 226.343 277.027C225.769 282.912 223.185 289.898 227.491 293.869C229.023 295.305 231.176 295.879 233.042 296.788C237.874 299.085 239.405 301.477 243.998 304.252C248.831 307.123 256.917 309.371 263.472 309.946C268.209 310.328 274.476 308.175 267.682 301.333Z" fill="#121414"/>
<path d="M152.038 322.146C152.038 322.146 151.081 320.997 150.938 321.667C151.033 323.342 150.842 329.993 151.847 331.524C157.78 340.328 167.923 349.657 175.387 351.715C183.76 354.011 190.124 352.193 191.511 349.131C192.037 347.935 191.894 346.26 191.272 344.251C190.315 340.997 185.291 334.777 182.038 333.916C179.789 333.294 177.301 332.385 175.1 330.328C170.842 326.356 164.765 324.682 159.741 321.859C157.54 320.567 151.225 317.409 152.038 322.146Z" fill="#C858F0"/>
<path d="M153.807 329.084C149.31 325.4 151.51 318.366 151.75 312.577C151.941 307.027 155.53 302.29 160.888 301.381L169.883 299.802C170.123 301.859 170.41 303.869 170.649 305.926C171.223 310.998 171.845 316.165 174.285 320.663C176.295 324.395 187.395 332.481 191.366 344.203C192.61 347.84 185.96 348.222 182.993 348.174C179.261 348.079 170.84 345.351 166.247 341.859C159.309 336.596 154.764 329.849 153.807 329.084Z" fill="#121414"/>
<path d="M149.837 245.448C147.875 260.855 147.923 273.295 149.024 288.606C150.124 304.06 150.698 317.792 150.698 317.792C151.081 324.873 173.856 324.347 173.617 318.127C173.617 318.127 177.779 277.793 182.085 239.611C182.372 237.075 182.707 233.583 182.707 233.583C181.894 217.841 151.32 226.262 149.837 245.448Z" fill="#2C1B2D"/>
<path d="M227.157 222.339C226.057 218.129 224.239 212.866 221.894 210.665C209.263 198.751 166.584 180.617 166.584 180.617C166.584 180.617 167.062 178.464 163.426 174.636C157.349 168.225 146.871 171.814 138.45 169.995C127.158 167.603 104.192 179.995 103.235 191.478C102.757 197.411 102.231 210.138 106.393 219.086C110.364 227.65 139.216 243.679 150.316 251.143C150.316 251.143 174.813 237.698 180.029 230.999C180.842 229.947 180.698 228.32 179.694 227.411C175.387 223.775 165.292 217.076 165.292 217.076C165.292 217.076 197.78 230.664 198.402 230.425C210.507 225.641 223.234 223.775 227.157 222.339Z" fill="#2C1B2D"/>
<path d="M224.478 214.492C224.287 213.966 224 213.44 223.665 213.009C213.33 199.947 189.311 211.478 196.01 228.99C202.086 246.358 213.426 257.554 225.34 288.223C228.067 295.257 250.746 290.376 248.976 284.874C247.157 279.037 237.157 249.851 224.478 214.492Z" fill="#2C1B2D"/>
<path d="M160.842 175.928C161.895 171.669 149.359 126.837 150.364 111.862C150.508 104.158 150.46 96.6465 150.173 89.9958C149.646 78.6563 150.508 79.1347 146.919 68.1301C144.814 61.6708 142.422 55.8336 132.565 58.6087C130.125 59.2786 127.876 60.5703 125.723 61.9579C124.384 62.8191 122.996 63.2977 121.513 64.0154C119.599 64.8766 118.068 66.3119 116.345 67.5081C110.843 71.2401 116.728 85.4505 120.987 95.259C121.8 98.4168 103.714 183.631 104.815 188.129C107.59 189.229 117.877 195.592 142.039 189.085C157.541 184.875 160.89 178.511 160.842 175.928Z" fill="#E8ECED"/>
<path d="M128.689 113.489C125.962 105.881 125.053 97.508 121.704 90.0919C119.216 85.4986 116.919 80.5227 116.489 75.5467C116.154 71.4319 117.254 67.8912 119.072 64.6376C108.546 70.8576 96.9196 79.6136 93.2354 82.6758C90.4603 89.757 101.513 110.905 102.374 149.326C102.183 166.359 102.518 169.565 99.1683 198.99C100.03 201.813 117.828 209.995 136.01 205.688C136.01 180.091 134.575 165.785 135.005 153.632C135.292 139.995 131.943 126.455 128.689 113.489Z" fill="#2D085C"/>
<path d="M169.742 180.282C169.024 169.612 164.479 157.986 163.378 139.374C162.565 125.977 161.56 110.044 162.852 93.4411C163.187 82.1972 163.665 68.9916 160.938 59.6138C159.79 55.6425 156.536 52.389 152.422 52.0062C151.847 51.9584 151.273 51.9584 150.747 52.0062C146.297 52.2933 140.029 54.1593 132.326 57.652C139.072 59.1831 145.819 61.2884 148.498 68.1783C151.225 75.3552 151.178 77.9868 150.603 97.0774C150.89 106.886 150.89 116.503 150.173 126.216C149.838 130.57 149.934 134.972 150.603 139.278C153.522 157.938 163.426 190.33 163.713 191.239C167.445 187.937 169.838 181.478 169.742 180.282Z" fill="#2D085C"/>
<path d="M143.234 83.489C144.143 81.3838 145.052 78.5131 144.813 76.2165C144.622 74.2548 144.813 72.0538 142.804 72.7715C140.794 73.4892 137.445 74.9725 136.01 76.2644C134.096 77.9868 134.431 79.6136 134.765 81.7667C135.292 85.4987 141.56 87.4124 143.234 83.489Z" fill="#C858F0"/>
<path d="M148.833 153.106L142.134 79.1353L138.307 81.4318L140.795 157.507C140.795 157.507 144.814 163.967 146.393 165.546C146.441 165.546 147.924 159.852 148.833 153.106Z" fill="#C858F0"/>
<path d="M150.46 62.628C147.445 59.1352 143.57 56.6951 139.455 58.896C139.455 58.896 149.646 71.2403 149.646 74.5417C149.359 101.958 145.723 109.565 151.273 143.775C152.996 110.857 153.713 95.9768 154.574 80.1397C154.909 73.824 154.67 67.4126 150.46 62.628Z" fill="#462F49"/>
<path d="M117.446 77.6514C113.714 71.9577 115.914 66.5512 116.776 65.9771C107.876 70.1397 108.068 79.9003 110.029 84.3021C114.24 93.7757 121.752 107.46 126.201 116.838C131.752 128.464 133.761 137.986 134.814 155.402C137.685 139.134 127.206 91.0484 117.446 77.6514Z" fill="#462F49"/>
<path d="M142.995 65.1636C142.947 64.9244 142.852 64.6851 142.804 64.4937C142.517 63.6803 140.555 60.5703 140.603 59.7091C140.699 58.8478 143.282 59.3264 145.531 62.4842C147.014 64.6373 152.469 77.9864 152.469 77.9864C152.469 77.9864 139.598 73.776 139.503 73.4411C139.311 72.5798 143.091 69.4219 143.235 68.4171C143.378 67.3645 143.282 66.2162 142.995 65.1636Z" fill="#F2F2F2"/>
<path d="M117.255 51.0491C118.451 49.0874 121.992 49.853 124.192 49.8052C127.59 49.7573 130.987 49.7094 134.336 49.9008C135.149 49.9487 139.36 49.8051 139.599 51.0491C140.077 53.2022 142.9 57.6997 143.092 59.9007C144.479 67.0776 143.809 71.6708 139.455 73.489L136.393 75.4028C126.537 82.2448 119.264 72.0536 117.637 70.9531C118.307 62.9628 116.346 55.116 116.824 52.1017C116.968 51.6232 117.063 51.2883 117.255 51.0491Z" fill="#EFB289"/>
<path d="M139.551 73.4891L129.455 87.7474C122.23 84.9723 119.79 82.0058 116.632 78.7044C113.714 75.6422 112.231 70.8098 113.331 68.7524C115.628 64.5419 117.781 63.585 117.733 63.2501C117.876 74.5418 132.9 76.0728 139.551 73.4891Z" fill="#F2F2F2"/>
<path d="M146.68 60.6182C145.866 64.0632 144.67 68.3215 141.369 69.0392C135.245 70.3311 122.135 67.0297 120.508 62.4843C117.733 54.8289 115.101 46.9343 118.546 37.078C119.934 33.1067 122.374 29.0876 125.867 26.2168C128.355 24.1594 131.225 22.7719 134.001 21.5279C142.23 17.9395 149.359 18.37 149.79 26.8388C150.029 31.0971 150.412 35.1641 150.125 39.4224C149.264 53.0107 147.876 55.5944 146.68 60.6182Z" fill="#F3BC97"/>
<path d="M150.22 26.8392C145.866 29.3272 134.527 25.8344 128.737 32.6764C124.335 37.8438 126.201 41.7672 125.292 44.9729C125.149 45.5471 124.335 45.6428 124 45.1165C122.9 43.394 120.699 41.6716 118.45 43.8247C116.106 46.0734 118.355 59.1354 118.355 59.1354C114.048 57.5564 110.269 49.9968 108.403 43.0112C106.584 36.1692 102.757 20.1885 109.742 19.0402C109.647 19.0402 109.12 7.89214 126.058 4.20798C130.603 3.20321 135.388 3.10746 139.838 4.44716C142.039 5.117 144.048 6.02616 145.962 7.36585C155.962 14.3514 154.861 24.2076 150.22 26.8392Z" fill="#121414"/>
<path d="M190.363 171.957L133.474 205.019L169.981 226.071L226.87 193.058L190.363 171.957Z" fill="url(#paint1_linear_2527_40359)"/>
<path d="M170.509 224.588L227.398 191.526C227.637 191.383 228.02 191.382 228.403 191.622L171.513 224.683C171.131 224.444 170.748 224.396 170.509 224.588Z" fill="#8B3DCE"/>
<g opacity="0.4">
<path opacity="0.3" d="M185.627 190.569L170.556 199.277L160.747 193.631L175.819 184.923L185.627 190.569Z" fill="#CB89F0"/>
</g>
<path d="M170.46 222.435L168.164 221.143C167.972 221.047 167.877 220.904 167.877 220.712C167.877 220.521 167.972 220.377 168.164 220.282L170.843 218.751L173.14 220.042C173.331 220.138 173.427 220.282 173.427 220.473C173.427 220.664 173.331 220.808 173.14 220.904L170.46 222.435ZM166.728 220.329L164.432 219.038C164.24 218.942 164.145 218.798 164.145 218.607C164.145 218.416 164.24 218.272 164.432 218.176L167.111 216.645L169.408 217.937C169.599 218.033 169.695 218.176 169.695 218.368C169.695 218.559 169.599 218.703 169.408 218.798L166.728 220.329ZM174.432 220.138L172.135 218.846C171.944 218.751 171.848 218.607 171.848 218.416C171.848 218.224 171.944 218.081 172.135 217.985L174.814 216.454L177.111 217.746C177.302 217.841 177.398 217.985 177.398 218.176C177.398 218.368 177.302 218.511 177.111 218.607L174.432 220.138ZM162.614 218.081L160.461 216.837C160.317 216.741 160.221 216.597 160.221 216.454C160.221 216.31 160.317 216.119 160.461 216.071L163.905 214.062L161.082 212.483C160.891 212.387 160.748 212.196 160.748 212.004C160.748 211.813 160.843 211.621 161.082 211.478L167.398 207.794H167.829L173.475 211C173.666 211.095 173.81 211.286 173.81 211.478C173.81 211.669 173.714 211.861 173.475 212.004L163.044 218.033H162.614V218.081ZM170.7 218.033L168.403 216.741C168.212 216.645 168.116 216.502 168.116 216.31C168.116 216.119 168.212 215.975 168.403 215.88L171.082 214.349L173.379 215.641C173.57 215.736 173.666 215.88 173.666 216.071C173.666 216.263 173.57 216.406 173.379 216.502L170.7 218.033ZM178.403 217.841L176.106 216.55C175.915 216.454 175.819 216.31 175.819 216.119C175.819 215.928 175.915 215.784 176.106 215.688L178.786 214.157L181.082 215.449C181.274 215.545 181.369 215.688 181.369 215.88C181.369 216.071 181.274 216.215 181.082 216.31L178.403 217.841ZM159.264 216.071L156.968 214.779C156.776 214.684 156.681 214.54 156.681 214.349C156.681 214.157 156.776 214.014 156.968 213.918L159.647 212.387L161.944 213.679C162.135 213.775 162.231 213.918 162.231 214.109C162.231 214.301 162.135 214.444 161.944 214.54L159.264 216.071ZM174.671 215.736L172.374 214.444C172.183 214.349 172.087 214.205 172.087 214.014C172.087 213.822 172.183 213.679 172.374 213.583L175.054 212.052L177.35 213.344C177.542 213.44 177.637 213.583 177.637 213.775C177.637 213.966 177.542 214.109 177.35 214.205L174.671 215.736ZM184.479 214.205L182.183 212.913C181.991 212.818 181.896 212.674 181.896 212.483C181.896 212.291 181.991 212.148 182.183 212.052L186.154 209.803L188.451 211.095C188.642 211.191 188.738 211.334 188.738 211.526C188.738 211.717 188.642 211.861 188.451 211.956L184.479 214.205ZM155.532 213.966L153.236 212.674C153.044 212.578 152.949 212.435 152.949 212.243C152.949 212.052 153.044 211.908 153.236 211.813L155.915 210.282L158.212 211.574C158.403 211.669 158.499 211.813 158.499 212.004C158.499 212.196 158.403 212.339 158.212 212.435L155.532 213.966ZM180.747 212.148L178.451 210.856C178.259 210.76 178.164 210.617 178.164 210.425C178.164 210.234 178.259 210.09 178.451 209.995L181.13 208.464L183.427 209.755C183.618 209.851 183.714 209.995 183.714 210.186C183.714 210.377 183.618 210.521 183.427 210.617L180.747 212.148ZM159.504 211.669L157.207 210.377C157.016 210.282 156.92 210.138 156.92 209.947C156.92 209.755 157.016 209.612 157.207 209.516L159.886 207.985L162.183 209.277C162.374 209.373 162.47 209.516 162.47 209.708C162.47 209.899 162.374 210.042 162.183 210.138L159.504 211.669ZM189.742 211.191L187.446 209.899C187.254 209.803 187.159 209.66 187.159 209.468C187.159 209.277 187.254 209.133 187.446 209.038L206.106 198.272L208.402 199.564C208.594 199.66 208.69 199.803 208.69 199.995C208.69 200.186 208.594 200.33 208.402 200.425L189.742 211.191ZM177.063 209.995L174.766 208.703C174.575 208.607 174.479 208.464 174.479 208.272C174.479 208.081 174.575 207.937 174.766 207.842L178.738 205.593L181.034 206.885C181.226 206.98 181.321 207.124 181.321 207.315C181.321 207.507 181.226 207.65 181.034 207.746L177.063 209.995ZM184.766 209.851L182.47 208.559C182.278 208.464 182.183 208.32 182.183 208.129C182.183 207.937 182.278 207.794 182.47 207.698L185.149 206.167L187.446 207.459C187.637 207.554 187.733 207.698 187.733 207.889C187.733 208.081 187.637 208.224 187.446 208.32L184.766 209.851ZM163.475 209.373L161.178 208.081C160.987 207.985 160.891 207.842 160.891 207.65C160.891 207.459 160.987 207.315 161.178 207.22L163.858 205.688L166.154 206.98C166.346 207.076 166.441 207.22 166.441 207.411C166.441 207.602 166.346 207.746 166.154 207.842L163.475 209.373ZM173.331 207.937L171.034 206.645C170.843 206.55 170.747 206.406 170.747 206.215C170.747 206.023 170.843 205.88 171.034 205.784L173.714 204.253L176.011 205.545C176.202 205.641 176.298 205.784 176.298 205.976C176.298 206.167 176.202 206.31 176.011 206.406L173.331 207.937ZM188.738 207.555L186.441 206.263C186.25 206.167 186.154 206.023 186.154 205.832C186.154 205.641 186.25 205.497 186.441 205.401L189.12 203.87L191.417 205.162C191.608 205.258 191.704 205.401 191.704 205.593C191.704 205.784 191.608 205.928 191.417 206.023L188.738 207.555ZM182.326 206.933L180.03 205.641C179.838 205.545 179.743 205.401 179.743 205.21C179.743 205.019 179.838 204.875 180.03 204.779L182.709 203.248L185.006 204.54C185.197 204.636 185.293 204.779 185.293 204.971C185.293 205.162 185.197 205.306 185.006 205.401L182.326 206.933ZM169.647 205.784L167.35 204.492C167.159 204.397 167.063 204.253 167.063 204.062C167.063 203.87 167.159 203.727 167.35 203.631L171.322 201.382L173.618 202.674C173.81 202.77 173.905 202.913 173.905 203.105C173.905 203.296 173.81 203.44 173.618 203.535L169.647 205.784ZM177.302 205.641L175.006 204.349C174.814 204.253 174.719 204.11 174.719 203.918C174.719 203.727 174.814 203.583 175.006 203.488L177.685 201.956L179.982 203.248C180.173 203.344 180.269 203.488 180.269 203.679C180.269 203.87 180.173 204.014 179.982 204.11L177.302 205.641ZM192.709 205.21L190.412 203.918C190.221 203.823 190.125 203.679 190.125 203.488C190.125 203.296 190.221 203.153 190.412 203.057L193.092 201.526L195.388 202.818C195.58 202.913 195.675 203.057 195.675 203.248C195.675 203.44 195.58 203.583 195.388 203.679L192.709 205.21ZM186.297 204.636L184.001 203.344C183.809 203.248 183.714 203.105 183.714 202.913C183.714 202.722 183.809 202.579 184.001 202.483L186.68 200.952L188.977 202.244C189.168 202.339 189.264 202.483 189.264 202.674C189.264 202.866 189.168 203.009 188.977 203.105L186.297 204.636ZM181.321 203.344L179.025 202.052C178.833 201.956 178.738 201.813 178.738 201.622C178.738 201.43 178.833 201.287 179.025 201.191L181.704 199.66L184.001 200.952C184.192 201.047 184.288 201.191 184.288 201.382C184.288 201.574 184.192 201.717 184.001 201.813L181.321 203.344ZM196.68 202.913L194.383 201.622C194.192 201.526 194.096 201.382 194.096 201.191C194.096 201 194.192 200.856 194.383 200.76L197.063 199.229L199.359 200.521C199.551 200.617 199.647 200.76 199.647 200.952C199.647 201.143 199.551 201.287 199.359 201.382L196.68 202.913ZM174.91 202.722L172.613 201.43C172.422 201.335 172.326 201.191 172.326 201C172.326 200.808 172.422 200.665 172.613 200.569L175.293 199.038L177.589 200.33C177.781 200.425 177.877 200.569 177.877 200.76C177.877 200.952 177.781 201.095 177.589 201.191L174.91 202.722ZM190.317 202.339L188.02 201.047C187.829 200.952 187.733 200.808 187.733 200.617C187.733 200.425 187.829 200.282 188.02 200.186L190.699 198.655L192.996 199.947C193.187 200.043 193.283 200.186 193.283 200.378C193.283 200.569 193.187 200.713 192.996 200.808L190.317 202.339ZM185.293 201L182.996 199.708C182.805 199.612 182.709 199.468 182.709 199.277C182.709 199.086 182.805 198.942 182.996 198.847L185.675 197.315L187.972 198.607C188.163 198.703 188.259 198.847 188.259 199.038C188.259 199.229 188.163 199.373 187.972 199.469L185.293 201ZM200.699 200.617L198.403 199.325C198.211 199.229 198.115 199.086 198.115 198.894C198.115 198.703 198.211 198.559 198.403 198.464L201.082 196.933L203.379 198.224C203.57 198.32 203.666 198.464 203.666 198.655C203.666 198.846 203.57 198.99 203.379 199.086L200.699 200.617ZM178.881 200.425L176.585 199.134C176.393 199.038 176.298 198.894 176.298 198.703C176.298 198.512 176.393 198.368 176.585 198.272L179.264 196.741L181.561 198.033C181.752 198.129 181.848 198.272 181.848 198.464C181.848 198.655 181.752 198.799 181.561 198.894L178.881 200.425ZM194.288 199.995L191.991 198.703C191.8 198.607 191.704 198.464 191.704 198.272C191.704 198.081 191.8 197.937 191.991 197.842L194.671 196.311L196.967 197.602C197.159 197.698 197.254 197.842 197.254 198.033C197.254 198.224 197.159 198.368 196.967 198.464L194.288 199.995ZM209.646 199.612L207.35 198.32C207.158 198.224 207.063 198.081 207.063 197.89C207.063 197.698 207.158 197.555 207.35 197.459L210.029 195.928L212.326 197.22C212.517 197.315 212.613 197.459 212.613 197.65C212.613 197.842 212.517 197.985 212.326 198.081L209.646 199.612ZM189.264 198.703L186.967 197.411C186.776 197.315 186.68 197.172 186.68 196.98C186.68 196.789 186.776 196.646 186.967 196.55L189.647 195.019L191.943 196.311C192.135 196.406 192.23 196.55 192.23 196.741C192.23 196.933 192.135 197.076 191.943 197.172L189.264 198.703ZM204.67 198.32L202.374 197.028C202.182 196.933 202.087 196.789 202.087 196.598C202.087 196.406 202.182 196.263 202.374 196.167L205.053 194.636L207.35 195.928C207.541 196.024 207.637 196.167 207.637 196.359C207.637 196.55 207.541 196.693 207.35 196.789L204.67 198.32ZM182.853 198.129L180.556 196.837C180.365 196.741 180.269 196.598 180.269 196.406C180.269 196.215 180.365 196.071 180.556 195.976L183.235 194.445L185.532 195.737C185.723 195.832 185.819 195.976 185.819 196.167C185.819 196.359 185.723 196.502 185.532 196.598L182.853 198.129ZM198.259 197.698L195.962 196.406C195.771 196.311 195.675 196.167 195.675 195.976C195.675 195.784 195.771 195.641 195.962 195.545L198.642 194.014L200.938 195.306C201.13 195.402 201.225 195.545 201.225 195.737C201.225 195.928 201.13 196.071 200.938 196.167L198.259 197.698ZM213.666 197.315L211.369 196.024C211.178 195.928 211.082 195.784 211.082 195.593C211.082 195.402 211.178 195.258 211.369 195.162L214.048 193.631L216.345 194.923C216.536 195.019 216.632 195.162 216.632 195.354C216.632 195.545 216.536 195.689 216.345 195.784L213.666 197.315ZM193.235 196.406L190.939 195.115C190.747 195.019 190.651 194.875 190.651 194.684C190.651 194.493 190.747 194.349 190.939 194.253L193.618 192.722L195.915 194.014C196.106 194.11 196.202 194.253 196.202 194.445C196.202 194.636 196.106 194.78 195.915 194.875L193.235 196.406ZM208.642 196.024L206.345 194.732C206.154 194.636 206.058 194.492 206.058 194.301C206.058 194.11 206.154 193.966 206.345 193.87L209.024 192.339L211.321 193.631C211.512 193.727 211.608 193.871 211.608 194.062C211.608 194.253 211.512 194.397 211.321 194.492L208.642 196.024ZM186.872 195.784L184.575 194.492C184.384 194.397 184.288 194.253 184.288 194.062C184.288 193.871 184.384 193.727 184.575 193.631L187.254 192.1L189.551 193.392C189.742 193.488 189.838 193.631 189.838 193.823C189.838 194.014 189.742 194.158 189.551 194.253L186.872 195.784ZM202.23 195.402L199.934 194.11C199.742 194.014 199.647 193.87 199.647 193.679C199.647 193.488 199.742 193.344 199.934 193.248L202.613 191.717L204.91 193.009C205.101 193.105 205.197 193.248 205.197 193.44C205.197 193.631 205.101 193.775 204.91 193.87L202.23 195.402ZM217.637 195.019L215.34 193.727C215.149 193.631 215.053 193.488 215.053 193.296C215.053 193.105 215.149 192.961 215.34 192.866L218.02 191.335L220.316 192.626C220.508 192.722 220.603 192.866 220.603 193.057C220.603 193.249 220.508 193.392 220.316 193.488L217.637 195.019ZM197.254 194.11L194.958 192.818C194.766 192.722 194.671 192.579 194.671 192.387C194.671 192.196 194.766 192.052 194.958 191.957L197.637 190.426L199.934 191.717C200.125 191.813 200.221 191.957 200.221 192.148C200.221 192.339 200.125 192.483 199.934 192.579L197.254 194.11ZM212.613 193.679L210.316 192.387C210.125 192.292 210.029 192.148 210.029 191.957C210.029 191.765 210.125 191.622 210.316 191.526L212.996 189.995L215.292 191.287C215.484 191.382 215.579 191.526 215.579 191.717C215.579 191.909 215.484 192.052 215.292 192.148L212.613 193.679ZM190.843 193.488L188.546 192.196C188.355 192.1 188.259 191.957 188.259 191.765C188.259 191.574 188.355 191.43 188.546 191.335L191.226 189.804L193.522 191.095C193.714 191.191 193.809 191.335 193.809 191.526C193.809 191.717 193.714 191.861 193.522 191.957L190.843 193.488ZM206.249 193.105L203.953 191.813C203.761 191.717 203.666 191.574 203.666 191.383C203.666 191.191 203.761 191.048 203.953 190.952L206.632 189.421L208.929 190.713C209.12 190.808 209.216 190.952 209.216 191.143C209.216 191.335 209.12 191.478 208.929 191.574L206.249 193.105ZM221.608 192.674L219.311 191.383C219.12 191.287 219.024 191.143 219.024 190.952C219.024 190.761 219.12 190.617 219.311 190.521L221.991 188.99L224.287 190.282C224.479 190.378 224.574 190.521 224.574 190.713C224.574 190.904 224.479 191.048 224.287 191.143L221.608 192.674ZM201.225 191.765L198.929 190.473C198.737 190.378 198.642 190.234 198.642 190.043C198.642 189.851 198.737 189.708 198.929 189.612L201.608 188.081L203.905 189.373C204.096 189.469 204.192 189.612 204.192 189.804C204.192 189.995 204.096 190.138 203.905 190.234L201.225 191.765ZM216.632 191.383L214.335 190.091C214.144 189.995 214.048 189.851 214.048 189.66C214.048 189.469 214.144 189.325 214.335 189.229L218.307 186.981L220.603 188.273C220.795 188.368 220.89 188.512 220.89 188.703C220.89 188.895 220.795 189.038 220.603 189.134L216.632 191.383ZM194.814 191.191L192.517 189.899C192.326 189.804 192.23 189.66 192.23 189.469C192.23 189.277 192.326 189.134 192.517 189.038L195.197 187.507L197.493 188.799C197.685 188.894 197.781 189.038 197.781 189.229C197.781 189.421 197.685 189.564 197.493 189.66L194.814 191.191ZM210.221 190.808L207.924 189.516C207.733 189.421 207.637 189.277 207.637 189.086C207.637 188.894 207.733 188.751 207.924 188.655L210.603 187.124L212.9 188.416C213.091 188.512 213.187 188.655 213.187 188.847C213.187 189.038 213.091 189.182 212.9 189.277L210.221 190.808ZM205.197 189.469L202.9 188.177C202.709 188.081 202.613 187.938 202.613 187.746C202.613 187.555 202.709 187.411 202.9 187.316L205.579 185.784L207.876 187.076C208.067 187.172 208.163 187.316 208.163 187.507C208.163 187.698 208.067 187.842 207.876 187.938L205.197 189.469ZM198.785 188.894L196.489 187.603C196.297 187.507 196.202 187.363 196.202 187.172C196.202 186.981 196.297 186.837 196.489 186.741L199.168 185.21L201.465 186.502C201.656 186.598 201.752 186.741 201.752 186.933C201.752 187.124 201.656 187.268 201.465 187.363L198.785 188.894ZM214.192 188.464L211.895 187.172C211.704 187.076 211.608 186.933 211.608 186.741C211.608 186.55 211.704 186.407 211.895 186.311L214.575 184.78L216.871 186.072C217.063 186.167 217.158 186.311 217.158 186.502C217.158 186.693 217.063 186.837 216.871 186.933L214.192 188.464ZM209.168 187.172L206.871 185.88C206.68 185.785 206.584 185.641 206.584 185.449C206.584 185.258 206.68 185.115 206.871 185.019L210.843 182.77L213.139 184.062C213.331 184.158 213.426 184.301 213.426 184.493C213.426 184.684 213.331 184.828 213.139 184.923L209.168 187.172ZM202.804 186.598L200.508 185.306C200.316 185.21 200.221 185.067 200.221 184.875C200.221 184.684 200.316 184.54 200.508 184.445L203.187 182.914L205.484 184.206C205.675 184.301 205.771 184.445 205.771 184.636C205.771 184.828 205.675 184.971 205.484 185.067L202.804 186.598ZM206.776 184.253L204.479 182.962C204.288 182.866 204.192 182.722 204.192 182.531C204.192 182.34 204.288 182.196 204.479 182.1L207.158 180.569L209.455 181.861C209.646 181.957 209.742 182.1 209.742 182.292C209.742 182.483 209.646 182.627 209.455 182.722L206.776 184.253Z" fill="#CB89F0"/>
<path d="M224.143 190.569L221.607 192.004L219.454 190.808C219.454 190.473 221.99 189.038 221.99 189.038L224.143 190.234C224.286 190.473 224.238 190.521 224.143 190.569ZM220.459 188.512L216.631 190.665L214.478 189.469C214.478 189.134 218.306 186.933 218.306 186.933L220.459 188.129C220.554 188.416 220.506 188.464 220.459 188.512ZM220.172 192.866L217.636 194.301L215.483 193.105C215.483 192.77 218.018 191.335 218.018 191.335L220.172 192.531C220.267 192.77 220.267 192.818 220.172 192.866ZM216.727 186.359L214.191 187.794L212.038 186.598C212.038 186.263 214.574 184.828 214.574 184.828L216.727 186.024C216.87 186.263 216.822 186.311 216.727 186.359ZM216.2 195.162L213.664 196.598L211.511 195.402C211.511 195.067 214.047 193.631 214.047 193.631L216.2 194.827C216.296 195.067 216.248 195.162 216.2 195.162ZM215.148 191.574L212.612 193.009L210.459 191.813C210.459 191.478 212.995 190.043 212.995 190.043L215.148 191.239C215.291 191.478 215.243 191.526 215.148 191.574ZM212.995 184.301L209.167 186.454L207.014 185.258C207.014 184.923 210.842 182.722 210.842 182.722L212.995 183.918C213.138 184.206 213.09 184.253 212.995 184.301ZM212.755 188.655L210.22 190.091L208.066 188.894C208.066 188.559 210.602 187.124 210.602 187.124L212.755 188.32C212.851 188.559 212.851 188.607 212.755 188.655ZM212.181 197.507L209.645 198.942L207.492 197.746C207.492 197.411 210.028 195.976 210.028 195.976L212.181 197.172C212.325 197.363 212.277 197.459 212.181 197.507ZM211.176 193.87L208.641 195.306L206.488 194.11C206.488 193.775 209.023 192.339 209.023 192.339L211.176 193.535C211.32 193.775 211.272 193.823 211.176 193.87ZM209.31 182.148L206.775 183.584L204.622 182.387C204.622 182.052 207.157 180.617 207.157 180.617L209.31 181.813C209.406 182.052 209.406 182.1 209.31 182.148ZM208.784 191L206.248 192.435L204.095 191.239C204.095 190.904 206.631 189.469 206.631 189.469L208.784 190.665C208.88 190.856 208.832 190.952 208.784 191ZM208.258 199.803L189.741 210.473L187.588 209.277C187.588 208.942 206.105 198.224 206.105 198.224L208.258 199.421C208.401 199.708 208.354 199.755 208.258 199.803ZM207.732 187.363L205.196 188.799L203.043 187.603C203.043 187.268 205.578 185.832 205.578 185.832L207.732 187.028C207.875 187.268 207.827 187.316 207.732 187.363ZM207.205 196.215L204.669 197.65L202.516 196.454C202.516 196.119 205.052 194.684 205.052 194.684L207.205 195.88C207.301 196.071 207.253 196.167 207.205 196.215ZM205.339 184.445L202.803 185.88L200.65 184.684C200.65 184.349 203.186 182.914 203.186 182.914L205.339 184.11C205.435 184.349 205.387 184.397 205.339 184.445ZM204.765 193.296L202.229 194.732L200.076 193.535C200.076 193.201 202.612 191.765 202.612 191.765L204.765 192.961C204.909 193.201 204.861 193.248 204.765 193.296ZM203.76 189.66L201.224 191.095L199.071 189.899C199.071 189.564 201.607 188.129 201.607 188.129L203.76 189.325C203.856 189.564 203.808 189.612 203.76 189.66ZM203.234 198.512L200.698 199.947L198.545 198.751C198.545 198.416 201.081 196.98 201.081 196.98L203.234 198.177C203.33 198.368 203.282 198.464 203.234 198.512ZM201.32 186.789L198.784 188.225L196.631 187.028C196.631 186.694 199.167 185.258 199.167 185.258L201.32 186.454C201.464 186.646 201.416 186.741 201.32 186.789ZM200.794 195.593L198.258 197.028L196.105 195.832C196.105 195.497 198.641 194.062 198.641 194.062L200.794 195.258C200.937 195.497 200.89 195.545 200.794 195.593ZM199.789 191.957L197.253 193.392L195.1 192.196C195.1 191.861 197.636 190.425 197.636 190.425L199.789 191.622C199.885 191.861 199.837 191.957 199.789 191.957ZM199.215 200.808L196.679 202.244L194.526 201.047C194.526 200.712 197.062 199.277 197.062 199.277L199.215 200.473C199.358 200.712 199.311 200.76 199.215 200.808ZM197.349 189.086L194.813 190.521L192.66 189.325C192.66 188.99 195.196 187.555 195.196 187.555L197.349 188.751C197.492 188.942 197.445 189.038 197.349 189.086ZM196.823 197.889L194.287 199.325L192.134 198.129C192.134 197.794 194.67 196.359 194.67 196.359L196.823 197.555C196.918 197.794 196.918 197.842 196.823 197.889ZM195.77 194.301L193.234 195.736L191.081 194.54C191.081 194.205 193.617 192.77 193.617 192.77L195.77 193.966C195.913 194.158 195.866 194.253 195.77 194.301ZM195.244 203.105L192.708 204.54L190.555 203.344C190.555 203.009 193.091 201.574 193.091 201.574L195.244 202.77C195.387 203.009 195.339 203.057 195.244 203.105ZM193.378 191.382L190.842 192.818L188.689 191.622C188.689 191.287 191.225 189.851 191.225 189.851L193.378 191.048C193.473 191.287 193.473 191.335 193.378 191.382ZM192.851 200.186L190.315 201.621L188.162 200.425C188.162 200.09 190.698 198.655 190.698 198.655L192.851 199.851C192.947 200.09 192.899 200.186 192.851 200.186ZM191.799 196.598L189.263 198.033L187.11 196.837C187.11 196.502 189.646 195.067 189.646 195.067L191.799 196.263C191.942 196.502 191.894 196.55 191.799 196.598ZM191.272 205.401L188.737 206.837L186.583 205.641C186.583 205.306 189.119 203.87 189.119 203.87L191.272 205.066C191.368 205.306 191.368 205.354 191.272 205.401ZM189.406 193.679L186.871 195.114L184.717 193.918C184.717 193.583 187.253 192.148 187.253 192.148L189.406 193.344C189.502 193.583 189.454 193.631 189.406 193.679ZM188.832 202.531L186.296 203.966L184.143 202.77C184.143 202.435 186.679 200.999 186.679 200.999L188.832 202.196C188.976 202.387 188.928 202.483 188.832 202.531ZM188.306 211.334L184.478 213.487L182.325 212.291C182.325 211.956 186.153 209.755 186.153 209.755L188.306 210.952C188.449 211.191 188.402 211.286 188.306 211.334ZM187.828 198.894L185.292 200.33L183.139 199.134C183.139 198.799 185.674 197.363 185.674 197.363L187.828 198.559C187.923 198.799 187.923 198.847 187.828 198.894ZM187.301 207.746L184.765 209.181L182.612 207.985C182.612 207.65 185.148 206.215 185.148 206.215L187.301 207.411C187.397 207.602 187.349 207.698 187.301 207.746ZM185.387 195.976L182.851 197.411L180.698 196.215C180.698 195.88 183.234 194.445 183.234 194.445L185.387 195.641C185.531 195.88 185.483 195.928 185.387 195.976ZM184.861 204.827L182.325 206.263L180.172 205.066C180.172 204.732 182.708 203.296 182.708 203.296L184.861 204.492C185.005 204.732 184.957 204.779 184.861 204.827ZM183.856 201.191L181.32 202.626L179.167 201.43C179.167 201.095 181.703 199.66 181.703 199.66L183.856 200.856C183.952 201.095 183.904 201.143 183.856 201.191ZM183.282 210.042L180.746 211.478L178.593 210.282C178.593 209.947 181.129 208.511 181.129 208.511L183.282 209.708C183.426 209.947 183.378 209.995 183.282 210.042ZM181.416 198.32L178.88 199.756L176.727 198.559C176.727 198.224 179.263 196.789 179.263 196.789L181.416 197.985C181.56 198.177 181.512 198.272 181.416 198.32ZM180.89 207.124L177.062 209.277L174.909 208.081C174.909 207.746 178.737 205.545 178.737 205.545L180.89 206.741C180.985 207.028 180.985 207.076 180.89 207.124ZM180.938 215.736L178.402 217.172L176.249 215.975C176.249 215.64 178.785 214.205 178.785 214.205L180.938 215.401C181.081 215.593 181.033 215.688 180.938 215.736ZM179.837 203.535L177.301 204.971L175.148 203.775C175.148 203.44 177.684 202.004 177.684 202.004L179.837 203.2C179.981 203.392 179.933 203.488 179.837 203.535ZM177.445 200.617L174.909 202.052L172.756 200.856C172.756 200.521 175.292 199.086 175.292 199.086L177.445 200.282C177.541 200.521 177.541 200.569 177.445 200.617ZM177.206 213.583L174.67 215.019L172.517 213.822C172.517 213.487 175.053 212.052 175.053 212.052L177.206 213.248C177.349 213.487 177.301 213.535 177.206 213.583ZM176.966 218.033L174.431 219.468L172.277 218.272C172.277 217.937 174.813 216.502 174.813 216.502L176.966 217.698C177.062 217.937 177.062 217.985 176.966 218.033ZM175.866 205.832L173.33 207.267L171.177 206.071C171.177 205.736 173.713 204.301 173.713 204.301L175.866 205.497C176.01 205.688 175.962 205.784 175.866 205.832ZM173.474 202.913L169.646 205.066L167.493 203.87C167.493 203.535 171.321 201.334 171.321 201.334L173.474 202.531C173.569 202.818 173.521 202.866 173.474 202.913ZM173.33 211.478L162.947 217.506H162.66L160.555 216.31C160.555 216.071 164 214.014 164 214.014C164.096 213.966 164.191 213.87 164.191 213.774C164.191 213.679 164.144 213.583 164 213.535L161.177 211.956C161.081 211.908 160.986 211.813 160.986 211.717C160.986 211.621 161.034 211.526 161.129 211.478L167.397 207.842H167.684L173.282 210.999C173.378 211.047 173.474 211.143 173.474 211.239C173.521 211.286 173.426 211.382 173.33 211.478ZM173.234 215.928L170.699 217.363L168.545 216.167C168.545 215.832 171.081 214.396 171.081 214.396L173.234 215.593C173.33 215.784 173.282 215.88 173.234 215.928ZM172.995 220.329L170.459 221.765L168.306 220.569C168.306 220.234 170.842 218.798 170.842 218.798L172.995 219.994C173.091 220.234 173.043 220.282 172.995 220.329ZM169.263 218.224L166.727 219.66L164.574 218.416C164.574 218.081 167.11 216.645 167.11 216.645L169.263 217.841C169.359 218.081 169.311 218.176 169.263 218.224ZM166.01 207.267L163.474 208.703L161.321 207.507C161.321 207.172 163.857 205.736 163.857 205.736L166.01 206.932C166.153 207.124 166.105 207.22 166.01 207.267ZM162.038 209.564L159.502 210.999L157.349 209.803C157.349 209.468 159.885 208.033 159.885 208.033L162.038 209.229C162.134 209.468 162.086 209.516 162.038 209.564ZM161.799 213.966L159.263 215.401L157.11 214.205C157.11 213.87 159.646 212.435 159.646 212.435L161.799 213.631C161.895 213.87 161.847 213.918 161.799 213.966ZM158.067 211.861L155.531 213.296L153.378 212.1C153.378 211.765 155.914 210.33 155.914 210.33L158.067 211.526C158.163 211.765 158.115 211.813 158.067 211.861Z" fill="#FFDEFF"/>
<path d="M239.023 156.981L182.133 190.043L172.708 226.119C172.899 226.597 173.043 227.124 173.043 227.602C173.043 228.224 172.851 228.655 172.516 228.846L229.406 195.784C229.74 195.593 229.932 195.162 229.932 194.54C229.932 194.062 229.788 193.536 229.597 193.057L239.023 156.981Z" fill="#CB89F0"/>
<path d="M181.513 189.373L238.354 156.311L239.024 156.981L182.135 190.043L181.513 189.373Z" fill="url(#paint2_linear_2527_40359)"/>
<path d="M181.511 189.373L182.133 189.995L172.708 226.071C172.899 226.549 173.043 227.076 173.043 227.554C173.043 228.655 172.373 229.181 171.559 228.703L133.474 206.693V204.971L169.981 226.071V225.784C169.981 224.683 170.65 224.157 171.512 224.636L181.511 189.373Z" fill="#8B3DCE"/>
<path d="M207.156 189.325C204.859 190.474 202.754 192.914 202.371 194.78C201.989 196.646 203.52 197.22 205.721 196.071C207.969 194.923 210.123 192.483 210.553 190.617C210.936 188.799 209.453 188.177 207.156 189.325ZM209.74 191.048C209.405 192.531 207.682 194.493 205.864 195.45C204.046 196.359 202.85 195.88 203.185 194.397C203.472 192.914 205.194 190.952 207.013 189.995C208.831 189.086 210.027 189.564 209.74 191.048Z" fill="#C858F0"/>
<path d="M182.755 151.287C177.923 148.177 168.258 157.364 170.124 159.565L171.272 161C174.095 164.493 185.435 155.306 183.665 152.483C183.521 152.292 183.09 151.527 182.755 151.287Z" fill="#F2F2F2"/>
<path d="M191.894 179.995C193.234 179.277 192.947 177.889 193.09 176.645C193.282 175.067 193.76 173.87 193.425 172.244C192.708 168.894 191.416 166.359 189.502 162.961C188.593 161.383 184.143 154.636 182.899 153.488C178.976 151.096 170.555 157.89 171.99 160.33C172.469 161.191 176.201 167.124 178.354 172.052C178.928 173.344 181.655 179.995 182.612 181.047C183.425 181.956 184.861 182.1 186.009 182.004C186.87 181.956 187.779 181.909 188.641 181.861C188.976 181.861 189.358 181.813 189.645 181.669C190.22 181.382 190.459 180.712 190.985 180.33C191.272 180.234 191.607 180.186 191.894 179.995Z" fill="#F3BC97"/>
<path d="M86.3453 97.2213C86.8716 101.91 90.9386 133.202 92.5654 145.546C92.996 148.799 94.527 151.766 96.8715 153.967L128.019 183.105C131.847 186.933 144.909 174.924 140.268 170.378L112.756 139.326C111.417 129.374 111.512 101.48 109.79 87.9869C109.024 83.5851 103.474 79.3268 97.35 79.7096C97.3021 79.6618 84.7186 83.2981 86.3453 97.2213Z" fill="#2D085C"/>
<path d="M140.507 172.435C135.866 169.851 127.349 181.047 129.885 183.105L130.938 184.014C134.335 186.932 143.856 175.88 141.655 173.44C141.416 173.248 140.794 172.579 140.507 172.435Z" fill="#F2F2F2"/>
<path d="M155.579 197.316C155.914 195.497 156.584 194.11 156.297 192.148C156.01 190.186 155.388 186.215 154.24 184.732C153.57 183.871 141.13 174.206 141.13 174.206C137.541 171.861 129.551 180.809 132.087 183.344C133.044 184.301 141.56 191.813 142.661 193.775C142.852 194.11 144.431 200.378 145.245 201.622C146.106 202.961 148.45 203.153 149.838 203.153C150.268 203.153 150.699 203.153 151.082 203.009C151.752 202.722 152.134 201.909 152.756 201.526C153.091 201.335 153.522 201.239 153.905 201.095C155.531 200.426 155.34 198.751 155.579 197.316Z" fill="#F3BC97"/>
<path d="M284.328 1.44949C282.449 0.353118 279.845 0.509733 276.967 2.17387L218.272 36.0636C212.555 39.3527 207.934 47.3602 207.954 53.9189L208.052 85.0676C208.052 88.3176 209.207 90.6082 211.067 91.685L217.88 95.6398L291.141 5.40428L284.328 1.44949Z" fill="url(#paint3_linear_2527_40359)"/>
<path d="M294.235 43.1704L294.137 12.0217C294.117 5.46299 289.477 2.81997 283.76 6.10909L249.538 25.8634L225.065 39.9988C219.349 43.2879 214.728 51.2954 214.748 57.854L214.846 89.0028C214.865 95.5615 219.505 98.2046 225.222 94.9154L268.959 69.6596C273.051 72.1069 281.94 76.2966 292.179 74.2213C291.925 73.9473 287.245 68.7786 285.738 59.7727C290.593 55.9745 294.254 49.0047 294.235 43.1704Z" fill="url(#paint4_linear_2527_40359)"/>
<path opacity="0.6" d="M222.402 65.5874L214.786 69.9729L214.845 89.0028C214.864 95.5615 219.504 98.2046 225.221 94.9154L239.102 86.8884C240.355 83.286 241.06 79.6445 241.04 76.1987C241.04 64.4127 232.68 59.6552 222.402 65.5874Z" fill="#CD9AD6"/>
<path d="M196.01 125.007C196.186 134.424 191.037 146.132 190.763 146.758L197.577 150.713C197.851 150.106 203 138.379 202.823 128.962L196.01 125.007Z" fill="url(#paint5_linear_2527_40359)"/>
<path d="M245.386 64.7846C241.999 62.8268 237.32 63.1008 232.152 66.0767L207.562 80.2708C197.283 86.203 189.001 100.573 189.021 112.359C189.041 118.213 191.116 122.344 194.444 124.282L201.257 128.237L252.2 68.7198L245.386 64.7846Z" fill="url(#paint6_linear_2527_40359)"/>
<path d="M238.945 70.0316L226.709 77.0993L214.355 84.2257C204.077 90.1579 195.795 104.528 195.815 116.314C195.834 123.049 198.556 127.474 202.804 128.942C202.98 138.359 197.831 150.067 197.557 150.693C205.525 143.097 212.397 131.879 215.549 126.319L239.063 112.751C249.341 106.819 257.623 92.4486 257.603 80.643C257.564 68.8569 249.224 64.0994 238.945 70.0316Z" fill="url(#paint7_linear_2527_40359)"/>
<path d="M220.856 102.531C220.856 104.117 219.583 106.134 217.997 107.054C216.411 107.974 215.139 107.426 215.139 105.84C215.139 104.254 216.411 102.238 217.997 101.318C219.564 100.397 220.856 100.946 220.856 102.531Z" fill="#BD70E5"/>
<path d="M230.332 97.0498C230.332 98.6356 229.06 100.652 227.474 101.572C225.888 102.492 224.615 101.944 224.615 100.358C224.615 98.7726 225.888 96.7561 227.474 95.8359C229.06 94.9158 230.332 95.4639 230.332 97.0498Z" fill="#BD70E5"/>
<path d="M239.827 91.5677C239.827 93.1536 238.554 95.1701 236.968 96.0903C235.383 97.0104 234.11 96.4623 234.11 94.8764C234.11 93.2906 235.383 91.2741 236.968 90.3539C238.535 89.4533 239.827 90.0015 239.827 91.5677Z" fill="#BD70E5"/>
<path d="M247.951 54.8001C247.951 56.6404 246.463 59.0094 244.603 60.0666C242.763 61.1238 241.255 60.4973 241.255 58.657C241.255 56.8166 242.743 54.4477 244.603 53.3904C246.444 52.3332 247.951 52.9597 247.951 54.8001Z" fill="#BD70E5"/>
<path d="M259.033 48.4175C259.033 50.2578 257.545 52.6268 255.685 53.684C253.845 54.7412 252.337 54.1147 252.337 52.2744C252.337 50.434 253.825 48.0651 255.685 47.0079C257.525 45.9311 259.033 46.5576 259.033 48.4175Z" fill="#BD70E5"/>
<path d="M270.114 42.0156C270.114 43.8559 268.626 46.2249 266.766 47.2821C264.926 48.3393 263.418 47.7128 263.418 45.8725C263.418 44.0321 264.906 41.6632 266.766 40.606C268.626 39.5292 270.114 40.1557 270.114 42.0156Z" fill="#BD70E5"/>
<path d="M283.779 6.10931C259.698 20.7342 244.583 29.3094 225.084 39.999C244.094 28.4479 259.11 19.6182 283.779 6.10931Z" fill="url(#paint8_radial_2527_40359)"/>
<path d="M238.945 70.0318C228.647 76.2772 219.112 81.9548 214.355 84.2259C218.662 81.2696 231.329 73.6929 238.945 70.0318Z" fill="url(#paint9_radial_2527_40359)"/>
</g>
<defs>
<linearGradient id="paint0_linear_2527_40359" x1="135.56" y1="67.1685" x2="75.8539" y2="319.132" gradientUnits="userSpaceOnUse">
<stop stop-color="#3F2A97"/>
<stop offset="1" stop-color="#46118B"/>
</linearGradient>
<linearGradient id="paint1_linear_2527_40359" x1="133.477" y1="199.024" x2="226.864" y2="199.024" gradientUnits="userSpaceOnUse">
<stop stop-color="#F5ABFF"/>
<stop offset="0.4557" stop-color="#FFC5FF"/>
<stop offset="1" stop-color="#FFDEFF"/>
</linearGradient>
<linearGradient id="paint2_linear_2527_40359" x1="181.498" y1="173.178" x2="239.018" y2="173.178" gradientUnits="userSpaceOnUse">
<stop stop-color="#F5ABFF"/>
<stop offset="0.4557" stop-color="#FFC5FF"/>
<stop offset="1" stop-color="#FFDEFF"/>
</linearGradient>
<linearGradient id="paint3_linear_2527_40359" x1="269.389" y1="-7.18485" x2="211.991" y2="92.2309" gradientUnits="userSpaceOnUse">
<stop offset="0.5419" stop-color="#7D3ADF"/>
<stop offset="0.8254" stop-color="#6D18B4"/>
<stop offset="1" stop-color="#6014A3"/>
</linearGradient>
<linearGradient id="paint4_linear_2527_40359" x1="214.765" y1="50.5097" x2="294.241" y2="50.5097" gradientUnits="userSpaceOnUse">
<stop stop-color="#FFC5FF"/>
<stop offset="0.5656" stop-color="#FFD1FF"/>
<stop offset="1" stop-color="#FFDEFF"/>
</linearGradient>
<linearGradient id="paint5_linear_2527_40359" x1="202.151" y1="128.555" x2="191.41" y2="147.159" gradientUnits="userSpaceOnUse">
<stop stop-color="#8343E3"/>
<stop offset="0.1746" stop-color="#6D18B4"/>
<stop offset="0.4581" stop-color="#8821D8"/>
</linearGradient>
<linearGradient id="paint6_linear_2527_40359" x1="236.027" y1="59.3798" x2="197.513" y2="126.089" gradientUnits="userSpaceOnUse">
<stop offset="0.5419" stop-color="#8821D8"/>
<stop offset="0.8254" stop-color="#6D18B4"/>
<stop offset="1" stop-color="#6014A3"/>
</linearGradient>
<linearGradient id="paint7_linear_2527_40359" x1="195.815" y1="109.094" x2="257.603" y2="109.094" gradientUnits="userSpaceOnUse">
<stop stop-color="#FFC5FF"/>
<stop offset="0.5656" stop-color="#FFD1FF"/>
<stop offset="1" stop-color="#FFDEFF"/>
</linearGradient>
<radialGradient id="paint8_radial_2527_40359" cx="0" cy="0" r="1" gradientUnits="userSpaceOnUse" gradientTransform="translate(253.72 23.3032) scale(78.1633 78.1633)">
<stop stop-color="#FFEC3D"/>
<stop offset="0.2167" stop-color="#E53DFF"/>
<stop offset="0.2615" stop-color="#C735DE"/>
<stop offset="0.3398" stop-color="#9929AB"/>
<stop offset="0.4216" stop-color="#701E7D"/>
<stop offset="0.5054" stop-color="#4E1556"/>
<stop offset="0.5917" stop-color="#310D37"/>
<stop offset="0.6811" stop-color="#1C071F"/>
<stop offset="0.7752" stop-color="#0C030D"/>
<stop offset="0.8768" stop-color="#030103"/>
<stop offset="1"/>
</radialGradient>
<radialGradient id="paint9_radial_2527_40359" cx="0" cy="0" r="1" gradientUnits="userSpaceOnUse" gradientTransform="translate(226.648 77.1314) scale(32.2988 32.2988)">
<stop stop-color="#FFEC3D"/>
<stop offset="0.2167" stop-color="#E53DFF"/>
<stop offset="0.2615" stop-color="#C735DE"/>
<stop offset="0.3398" stop-color="#9929AB"/>
<stop offset="0.4216" stop-color="#701E7D"/>
<stop offset="0.5054" stop-color="#4E1556"/>
<stop offset="0.5917" stop-color="#310D37"/>
<stop offset="0.6811" stop-color="#1C071F"/>
<stop offset="0.7752" stop-color="#0C030D"/>
<stop offset="0.8768" stop-color="#030103"/>
<stop offset="1"/>
</radialGradient>
<clipPath id="clip0_2527_40359">
<rect width="352" height="352" fill="white" transform="translate(0 0.75)"/>
</clipPath>
</defs>
</svg>
