<svg width="320" height="352" viewBox="0 0 320 352" fill="none" xmlns="http://www.w3.org/2000/svg">
<path opacity="0.7" d="M144.639 343.724C224.521 343.724 289.278 314.891 289.278 279.323C289.278 243.755 224.521 214.922 144.639 214.922C64.7571 214.922 -0.00012207 243.755 -0.00012207 279.323C-0.00012207 314.891 64.7571 343.724 144.639 343.724Z" fill="#8922D9"/>
<path d="M51.9685 183.982C51.0116 190.872 50.9637 201.207 51.6814 212.546C55.6048 274.459 108.571 322.497 170.436 318.286C170.866 318.239 171.297 318.239 171.728 318.191C216.942 314.794 243.306 301.732 265.267 273.933C277.42 258.574 266.655 209.819 223.067 179.341C211.584 171.303 202.493 160.442 197.278 147.428C188.665 125.801 183.163 102.5 176.321 86.5671C160.101 71.3041 142.111 59.199 114.791 71.4477C71.8247 90.6819 58.1407 138.145 51.9685 183.982Z" fill="url(#paint0_linear_2527_40940)"/>
<path opacity="0.3" d="M112.925 118.672C117.326 137.427 120.389 151.351 119.814 166.183C119.288 179.628 115.795 203.455 122.063 218.718C133.738 247.091 168.761 249.244 173.546 249.148C195.507 248.67 229.909 228.287 233.832 219.579C236.081 214.603 232.157 209.915 227.325 208.718C187.086 198.766 182.11 187.666 184.168 153.552C184.359 150.537 180.292 120.538 178.905 114.557C175.603 100.538 166.991 84.6531 162.206 82.4044C160.053 81.3996 157.565 81.6865 155.221 81.8301C148.474 82.2129 130.197 69.6773 115.221 84.9402C106.417 93.9353 110.915 110.012 112.925 118.672Z" fill="#7B21CB"/>
<path d="M158.427 64.7971C157.9 70.6343 164.025 117.141 164.025 117.141L194.216 159.58C197.326 164.03 212.301 154.509 208.522 149.246L190.053 111.734C190.053 111.734 188.522 78.9118 188.474 65.3234C186.704 57.381 184.311 54.1275 180.962 52.5007C177.996 51.0653 174.551 51.161 171.393 52.0222C166.369 53.4097 159.096 56.8067 158.427 64.7971Z" fill="#2D085C"/>
<path d="M250.099 287.138C250.194 288.861 250.147 295.272 251.534 296.564C254.836 299.578 257.85 299.387 262.012 302.258C264.835 304.219 272.778 309.77 276.175 310.583C292.443 314.506 295.361 311.253 295.84 306.181C296.127 303.167 291.534 300.152 291.247 299.913C288.854 298.143 279.189 297.377 274.165 294.842C268.902 292.162 263.544 289.626 258.472 286.755C256.175 285.511 250.242 286.516 250.099 287.138Z" fill="#C858F0"/>
<path d="M292.682 300.583C287.036 294.842 275.458 289.244 273.783 285.751C273.209 284.555 272.778 283.263 272.443 281.971C272.108 280.679 271.582 279.483 270.769 278.431C267.659 274.411 261.774 266.9 260.338 265.512L250.482 266.66C251.152 269.866 251.63 273.024 251.343 276.277C250.769 282.162 248.185 289.148 252.491 293.119C254.023 294.555 256.176 295.129 258.042 296.038C262.874 298.335 264.405 300.727 268.998 303.502C273.831 306.373 281.917 308.621 288.472 309.196C293.209 309.578 299.476 307.425 292.682 300.583Z" fill="#121414"/>
<path d="M177.038 321.396C177.038 321.396 176.081 320.247 175.938 320.917C176.033 322.592 175.842 329.243 176.847 330.774C182.78 339.578 192.923 348.907 200.387 350.965C208.76 353.261 215.124 351.443 216.511 348.381C217.037 347.185 216.894 345.51 216.272 343.501C215.315 340.247 210.291 334.027 207.038 333.166C204.789 332.544 202.301 331.635 200.1 329.578C195.842 325.606 189.765 323.932 184.741 321.109C182.54 319.817 176.225 316.659 177.038 321.396Z" fill="#C858F0"/>
<path d="M178.807 328.334C174.31 324.65 176.51 317.616 176.75 311.827C176.941 306.277 180.53 301.54 185.888 300.631L194.883 299.052C195.123 301.109 195.41 303.119 195.649 305.176C196.223 310.248 196.845 315.415 199.285 319.913C201.295 323.645 212.395 331.731 216.366 343.453C217.61 347.09 210.96 347.472 207.993 347.424C204.261 347.329 195.84 344.601 191.247 341.109C184.309 335.846 179.764 329.099 178.807 328.334Z" fill="#121414"/>
<path d="M174.837 244.698C172.875 260.105 172.923 272.545 174.024 287.856C175.124 303.31 175.698 317.042 175.698 317.042C176.081 324.123 198.856 323.597 198.617 317.377C198.617 317.377 202.779 277.043 207.085 238.861C207.372 236.325 207.707 232.833 207.707 232.833C206.894 217.091 176.32 225.512 174.837 244.698Z" fill="#2C1B2D"/>
<path d="M252.157 221.589C251.057 217.379 249.239 212.116 246.894 209.915C234.263 198.001 191.584 179.867 191.584 179.867C191.584 179.867 192.062 177.714 188.426 173.886C182.349 167.475 171.871 171.064 163.45 169.245C152.158 166.853 129.192 179.245 128.235 190.728C127.757 196.661 127.231 209.388 131.393 218.336C135.364 226.9 164.216 242.929 175.316 250.393C175.316 250.393 199.813 236.948 205.029 230.249C205.842 229.197 205.698 227.57 204.694 226.661C200.387 223.025 190.292 216.326 190.292 216.326C190.292 216.326 222.78 229.914 223.402 229.675C235.507 224.891 248.234 223.025 252.157 221.589Z" fill="#2C1B2D"/>
<path d="M249.478 213.742C249.287 213.216 249 212.69 248.665 212.259C238.33 199.197 214.311 210.728 221.01 228.24C227.086 245.608 238.426 256.804 250.34 287.473C253.067 294.507 275.746 289.626 273.976 284.124C272.157 278.287 262.157 249.101 249.478 213.742Z" fill="#2C1B2D"/>
<path d="M185.842 175.178C186.895 170.919 174.359 126.087 175.364 111.112C175.508 103.408 175.46 95.8965 175.173 89.2458C174.646 77.9063 175.508 78.3847 171.919 67.3801C169.814 60.9208 167.422 55.0836 157.565 57.8587C155.125 58.5286 152.876 59.8203 150.723 61.2079C149.384 62.0691 147.996 62.5477 146.513 63.2654C144.599 64.1266 143.068 65.5619 141.345 66.7581C135.843 70.4901 141.728 84.7005 145.987 94.509C146.8 97.6668 128.714 182.881 129.815 187.379C132.59 188.479 142.877 194.842 167.039 188.335C182.541 184.125 185.89 177.761 185.842 175.178Z" fill="#E8ECED"/>
<path d="M153.689 112.739C150.962 105.131 150.053 96.758 146.704 89.3419C144.216 84.7486 141.919 79.7727 141.489 74.7967C141.154 70.6819 142.254 67.1412 144.072 63.8876C133.546 70.1076 121.92 78.8636 118.235 81.9258C115.46 89.007 126.513 110.155 127.374 148.576C127.183 165.609 127.518 168.815 124.168 198.24C125.03 201.063 142.828 209.245 161.01 204.938C161.01 179.341 159.575 165.035 160.005 152.882C160.292 139.245 156.943 125.705 153.689 112.739Z" fill="#2D085C"/>
<path d="M194.742 179.532C194.024 168.862 189.479 157.236 188.378 138.624C187.565 125.227 186.56 109.294 187.852 92.6911C188.187 81.4472 188.665 68.2416 185.938 58.8638C184.79 54.8925 181.536 51.639 177.422 51.2562C176.847 51.2084 176.273 51.2084 175.747 51.2562C171.297 51.5433 165.029 53.4093 157.326 56.902C164.072 58.4331 170.819 60.5384 173.498 67.4283C176.225 74.6052 176.178 77.2368 175.603 96.3274C175.89 106.136 175.89 115.753 175.173 125.466C174.838 129.82 174.934 134.222 175.603 138.528C178.522 157.188 188.426 189.58 188.713 190.489C192.445 187.187 194.838 180.728 194.742 179.532Z" fill="#2D085C"/>
<path d="M168.234 82.739C169.143 80.6338 170.052 77.7631 169.813 75.4665C169.622 73.5048 169.813 71.3038 167.804 72.0215C165.794 72.7392 162.445 74.2225 161.01 75.5144C159.096 77.2368 159.431 78.8636 159.765 81.0167C160.292 84.7487 166.56 86.6624 168.234 82.739Z" fill="#C858F0"/>
<path d="M173.833 152.356L167.134 78.3853L163.307 80.6818L165.795 156.757C165.795 156.757 169.814 163.217 171.393 164.796C171.441 164.796 172.924 159.102 173.833 152.356Z" fill="#C858F0"/>
<path d="M175.46 61.878C172.445 58.3852 168.57 55.9451 164.455 58.146C164.455 58.146 174.646 70.4903 174.646 73.7917C174.359 101.208 170.723 108.815 176.273 143.025C177.996 110.107 178.713 95.2268 179.574 79.3897C179.909 73.074 179.67 66.6626 175.46 61.878Z" fill="#462F49"/>
<path d="M142.446 76.9014C138.714 71.2077 140.914 65.8012 141.776 65.2271C132.876 69.3897 133.068 79.1503 135.029 83.5521C139.24 93.0257 146.752 106.71 151.201 116.088C156.752 127.714 158.761 137.236 159.814 154.652C162.685 138.384 152.206 90.2984 142.446 76.9014Z" fill="#462F49"/>
<path d="M167.995 64.4136C167.947 64.1744 167.852 63.9351 167.804 63.7437C167.517 62.9303 165.555 59.8203 165.603 58.9591C165.699 58.0978 168.282 58.5764 170.531 61.7342C172.014 63.8873 177.469 77.2364 177.469 77.2364C177.469 77.2364 164.598 73.026 164.503 72.6911C164.311 71.8298 168.091 68.6719 168.235 67.6671C168.378 66.6145 168.282 65.4662 167.995 64.4136Z" fill="#F2F2F2"/>
<path d="M142.255 50.2991C143.451 48.3374 146.992 49.103 149.192 49.0552C152.59 49.0073 155.987 48.9594 159.336 49.1508C160.149 49.1987 164.36 49.0551 164.599 50.2991C165.077 52.4522 167.9 56.9497 168.092 59.1507C169.479 66.3276 168.809 70.9208 164.455 72.739L161.393 74.6528C151.537 81.4948 144.264 71.3036 142.637 70.2031C143.307 62.2128 141.346 54.366 141.824 51.3517C141.968 50.8732 142.063 50.5383 142.255 50.2991Z" fill="#EFB289"/>
<path d="M164.551 72.7391L154.455 86.9974C147.23 84.2223 144.79 81.2558 141.632 77.9544C138.714 74.8922 137.231 70.0598 138.331 68.0024C140.628 63.7919 142.781 62.835 142.733 62.5001C142.876 73.7918 157.9 75.3228 164.551 72.7391Z" fill="#F2F2F2"/>
<path d="M171.68 59.8682C170.866 63.3132 169.67 67.5715 166.369 68.2892C160.245 69.5811 147.135 66.2797 145.508 61.7343C142.733 54.0789 140.101 46.1843 143.546 36.328C144.934 32.3567 147.374 28.3376 150.867 25.4668C153.355 23.4094 156.225 22.0219 159.001 20.7779C167.23 17.1895 174.359 17.62 174.79 26.0888C175.029 30.3471 175.412 34.4141 175.125 38.6724C174.264 52.2607 172.876 54.8444 171.68 59.8682Z" fill="#F3BC97"/>
<path d="M175.22 26.0892C170.866 28.5772 159.527 25.0844 153.737 31.9264C149.335 37.0938 151.201 41.0172 150.292 44.2229C150.149 44.7971 149.335 44.8928 149 44.3665C147.9 42.644 145.699 40.9216 143.45 43.0747C141.106 45.3234 143.355 58.3854 143.355 58.3854C139.048 56.8064 135.269 49.2468 133.403 42.2612C131.584 35.4192 127.757 19.4385 134.742 18.2902C134.647 18.2902 134.12 7.14214 151.058 3.45798C155.603 2.45321 160.388 2.35746 164.838 3.69716C167.039 4.367 169.048 5.27616 170.962 6.61585C180.962 13.6014 179.861 23.4576 175.22 26.0892Z" fill="#121414"/>
<path d="M215.363 171.207L158.474 204.269L194.981 225.321L251.87 192.308L215.363 171.207Z" fill="url(#paint1_linear_2527_40940)"/>
<path d="M195.509 223.838L252.398 190.776C252.637 190.633 253.02 190.632 253.403 190.872L196.513 223.933C196.131 223.694 195.748 223.646 195.509 223.838Z" fill="#8B3DCE"/>
<g opacity="0.4">
<path opacity="0.3" d="M210.627 189.819L195.556 198.527L185.747 192.881L200.819 184.173L210.627 189.819Z" fill="#CB89F0"/>
</g>
<path d="M195.46 221.685L193.164 220.393C192.972 220.297 192.877 220.154 192.877 219.962C192.877 219.771 192.972 219.627 193.164 219.532L195.843 218.001L198.14 219.292C198.331 219.388 198.427 219.532 198.427 219.723C198.427 219.914 198.331 220.058 198.14 220.154L195.46 221.685ZM191.728 219.579L189.432 218.288C189.24 218.192 189.145 218.048 189.145 217.857C189.145 217.666 189.24 217.522 189.432 217.426L192.111 215.895L194.408 217.187C194.599 217.283 194.695 217.426 194.695 217.618C194.695 217.809 194.599 217.953 194.408 218.048L191.728 219.579ZM199.432 219.388L197.135 218.096C196.944 218.001 196.848 217.857 196.848 217.666C196.848 217.474 196.944 217.331 197.135 217.235L199.814 215.704L202.111 216.996C202.302 217.091 202.398 217.235 202.398 217.426C202.398 217.618 202.302 217.761 202.111 217.857L199.432 219.388ZM187.614 217.331L185.461 216.087C185.317 215.991 185.221 215.847 185.221 215.704C185.221 215.56 185.317 215.369 185.461 215.321L188.905 213.312L186.082 211.733C185.891 211.637 185.748 211.446 185.748 211.254C185.748 211.063 185.843 210.871 186.082 210.728L192.398 207.044H192.829L198.475 210.25C198.666 210.345 198.81 210.536 198.81 210.728C198.81 210.919 198.714 211.111 198.475 211.254L188.044 217.283H187.614V217.331ZM195.7 217.283L193.403 215.991C193.212 215.895 193.116 215.752 193.116 215.56C193.116 215.369 193.212 215.225 193.403 215.13L196.082 213.599L198.379 214.891C198.57 214.986 198.666 215.13 198.666 215.321C198.666 215.513 198.57 215.656 198.379 215.752L195.7 217.283ZM203.403 217.091L201.106 215.8C200.915 215.704 200.819 215.56 200.819 215.369C200.819 215.178 200.915 215.034 201.106 214.938L203.786 213.407L206.082 214.699C206.274 214.795 206.369 214.938 206.369 215.13C206.369 215.321 206.274 215.465 206.082 215.56L203.403 217.091ZM184.264 215.321L181.968 214.029C181.776 213.934 181.681 213.79 181.681 213.599C181.681 213.407 181.776 213.264 181.968 213.168L184.647 211.637L186.944 212.929C187.135 213.025 187.231 213.168 187.231 213.359C187.231 213.551 187.135 213.694 186.944 213.79L184.264 215.321ZM199.671 214.986L197.374 213.694C197.183 213.599 197.087 213.455 197.087 213.264C197.087 213.072 197.183 212.929 197.374 212.833L200.054 211.302L202.35 212.594C202.542 212.69 202.637 212.833 202.637 213.025C202.637 213.216 202.542 213.359 202.35 213.455L199.671 214.986ZM209.479 213.455L207.183 212.163C206.991 212.068 206.896 211.924 206.896 211.733C206.896 211.541 206.991 211.398 207.183 211.302L211.154 209.053L213.451 210.345C213.642 210.441 213.738 210.584 213.738 210.776C213.738 210.967 213.642 211.111 213.451 211.206L209.479 213.455ZM180.532 213.216L178.236 211.924C178.044 211.828 177.949 211.685 177.949 211.493C177.949 211.302 178.044 211.158 178.236 211.063L180.915 209.532L183.212 210.824C183.403 210.919 183.499 211.063 183.499 211.254C183.499 211.446 183.403 211.589 183.212 211.685L180.532 213.216ZM205.747 211.398L203.451 210.106C203.259 210.01 203.164 209.867 203.164 209.675C203.164 209.484 203.259 209.34 203.451 209.245L206.13 207.714L208.427 209.005C208.618 209.101 208.714 209.245 208.714 209.436C208.714 209.627 208.618 209.771 208.427 209.867L205.747 211.398ZM184.504 210.919L182.207 209.627C182.016 209.532 181.92 209.388 181.92 209.197C181.92 209.005 182.016 208.862 182.207 208.766L184.886 207.235L187.183 208.527C187.374 208.623 187.47 208.766 187.47 208.958C187.47 209.149 187.374 209.292 187.183 209.388L184.504 210.919ZM214.742 210.441L212.446 209.149C212.254 209.053 212.159 208.91 212.159 208.718C212.159 208.527 212.254 208.383 212.446 208.288L231.106 197.522L233.402 198.814C233.594 198.91 233.69 199.053 233.69 199.245C233.69 199.436 233.594 199.58 233.402 199.675L214.742 210.441ZM202.063 209.245L199.766 207.953C199.575 207.857 199.479 207.714 199.479 207.522C199.479 207.331 199.575 207.187 199.766 207.092L203.738 204.843L206.034 206.135C206.226 206.23 206.321 206.374 206.321 206.565C206.321 206.757 206.226 206.9 206.034 206.996L202.063 209.245ZM209.766 209.101L207.47 207.809C207.278 207.714 207.183 207.57 207.183 207.379C207.183 207.187 207.278 207.044 207.47 206.948L210.149 205.417L212.446 206.709C212.637 206.804 212.733 206.948 212.733 207.139C212.733 207.331 212.637 207.474 212.446 207.57L209.766 209.101ZM188.475 208.623L186.178 207.331C185.987 207.235 185.891 207.092 185.891 206.9C185.891 206.709 185.987 206.565 186.178 206.47L188.858 204.938L191.154 206.23C191.346 206.326 191.441 206.47 191.441 206.661C191.441 206.852 191.346 206.996 191.154 207.092L188.475 208.623ZM198.331 207.187L196.034 205.895C195.843 205.8 195.747 205.656 195.747 205.465C195.747 205.273 195.843 205.13 196.034 205.034L198.714 203.503L201.011 204.795C201.202 204.891 201.298 205.034 201.298 205.226C201.298 205.417 201.202 205.56 201.011 205.656L198.331 207.187ZM213.738 206.805L211.441 205.513C211.25 205.417 211.154 205.273 211.154 205.082C211.154 204.891 211.25 204.747 211.441 204.651L214.12 203.12L216.417 204.412C216.608 204.508 216.704 204.651 216.704 204.843C216.704 205.034 216.608 205.178 216.417 205.273L213.738 206.805ZM207.326 206.183L205.03 204.891C204.838 204.795 204.743 204.651 204.743 204.46C204.743 204.269 204.838 204.125 205.03 204.029L207.709 202.498L210.006 203.79C210.197 203.886 210.293 204.029 210.293 204.221C210.293 204.412 210.197 204.556 210.006 204.651L207.326 206.183ZM194.647 205.034L192.35 203.742C192.159 203.647 192.063 203.503 192.063 203.312C192.063 203.12 192.159 202.977 192.35 202.881L196.322 200.632L198.618 201.924C198.81 202.02 198.905 202.163 198.905 202.355C198.905 202.546 198.81 202.69 198.618 202.785L194.647 205.034ZM202.302 204.891L200.006 203.599C199.814 203.503 199.719 203.36 199.719 203.168C199.719 202.977 199.814 202.833 200.006 202.738L202.685 201.206L204.982 202.498C205.173 202.594 205.269 202.738 205.269 202.929C205.269 203.12 205.173 203.264 204.982 203.36L202.302 204.891ZM217.709 204.46L215.412 203.168C215.221 203.073 215.125 202.929 215.125 202.738C215.125 202.546 215.221 202.403 215.412 202.307L218.092 200.776L220.388 202.068C220.58 202.163 220.675 202.307 220.675 202.498C220.675 202.69 220.58 202.833 220.388 202.929L217.709 204.46ZM211.297 203.886L209.001 202.594C208.809 202.498 208.714 202.355 208.714 202.163C208.714 201.972 208.809 201.829 209.001 201.733L211.68 200.202L213.977 201.494C214.168 201.589 214.264 201.733 214.264 201.924C214.264 202.116 214.168 202.259 213.977 202.355L211.297 203.886ZM206.321 202.594L204.025 201.302C203.833 201.206 203.738 201.063 203.738 200.872C203.738 200.68 203.833 200.537 204.025 200.441L206.704 198.91L209.001 200.202C209.192 200.297 209.288 200.441 209.288 200.632C209.288 200.824 209.192 200.967 209.001 201.063L206.321 202.594ZM221.68 202.163L219.383 200.872C219.192 200.776 219.096 200.632 219.096 200.441C219.096 200.25 219.192 200.106 219.383 200.01L222.063 198.479L224.359 199.771C224.551 199.867 224.647 200.01 224.647 200.202C224.647 200.393 224.551 200.537 224.359 200.632L221.68 202.163ZM199.91 201.972L197.613 200.68C197.422 200.585 197.326 200.441 197.326 200.25C197.326 200.058 197.422 199.915 197.613 199.819L200.293 198.288L202.589 199.58C202.781 199.675 202.877 199.819 202.877 200.01C202.877 200.202 202.781 200.345 202.589 200.441L199.91 201.972ZM215.317 201.589L213.02 200.297C212.829 200.202 212.733 200.058 212.733 199.867C212.733 199.675 212.829 199.532 213.02 199.436L215.699 197.905L217.996 199.197C218.187 199.293 218.283 199.436 218.283 199.628C218.283 199.819 218.187 199.963 217.996 200.058L215.317 201.589ZM210.293 200.25L207.996 198.958C207.805 198.862 207.709 198.718 207.709 198.527C207.709 198.336 207.805 198.192 207.996 198.097L210.675 196.565L212.972 197.857C213.163 197.953 213.259 198.097 213.259 198.288C213.259 198.479 213.163 198.623 212.972 198.719L210.293 200.25ZM225.699 199.867L223.403 198.575C223.211 198.479 223.115 198.336 223.115 198.144C223.115 197.953 223.211 197.809 223.403 197.714L226.082 196.183L228.379 197.474C228.57 197.57 228.666 197.714 228.666 197.905C228.666 198.096 228.57 198.24 228.379 198.336L225.699 199.867ZM203.881 199.675L201.585 198.384C201.393 198.288 201.298 198.144 201.298 197.953C201.298 197.762 201.393 197.618 201.585 197.522L204.264 195.991L206.561 197.283C206.752 197.379 206.848 197.522 206.848 197.714C206.848 197.905 206.752 198.049 206.561 198.144L203.881 199.675ZM219.288 199.245L216.991 197.953C216.8 197.857 216.704 197.714 216.704 197.522C216.704 197.331 216.8 197.187 216.991 197.092L219.671 195.561L221.967 196.852C222.159 196.948 222.254 197.092 222.254 197.283C222.254 197.474 222.159 197.618 221.967 197.714L219.288 199.245ZM234.646 198.862L232.35 197.57C232.158 197.474 232.063 197.331 232.063 197.14C232.063 196.948 232.158 196.805 232.35 196.709L235.029 195.178L237.326 196.47C237.517 196.565 237.613 196.709 237.613 196.9C237.613 197.092 237.517 197.235 237.326 197.331L234.646 198.862ZM214.264 197.953L211.967 196.661C211.776 196.565 211.68 196.422 211.68 196.23C211.68 196.039 211.776 195.896 211.967 195.8L214.647 194.269L216.943 195.561C217.135 195.656 217.23 195.8 217.23 195.991C217.23 196.183 217.135 196.326 216.943 196.422L214.264 197.953ZM229.67 197.57L227.374 196.278C227.182 196.183 227.087 196.039 227.087 195.848C227.087 195.656 227.182 195.513 227.374 195.417L230.053 193.886L232.35 195.178C232.541 195.274 232.637 195.417 232.637 195.609C232.637 195.8 232.541 195.943 232.35 196.039L229.67 197.57ZM207.853 197.379L205.556 196.087C205.365 195.991 205.269 195.848 205.269 195.656C205.269 195.465 205.365 195.321 205.556 195.226L208.235 193.695L210.532 194.987C210.723 195.082 210.819 195.226 210.819 195.417C210.819 195.609 210.723 195.752 210.532 195.848L207.853 197.379ZM223.259 196.948L220.962 195.656C220.771 195.561 220.675 195.417 220.675 195.226C220.675 195.034 220.771 194.891 220.962 194.795L223.642 193.264L225.938 194.556C226.13 194.652 226.225 194.795 226.225 194.987C226.225 195.178 226.13 195.321 225.938 195.417L223.259 196.948ZM238.666 196.565L236.369 195.274C236.178 195.178 236.082 195.034 236.082 194.843C236.082 194.652 236.178 194.508 236.369 194.412L239.048 192.881L241.345 194.173C241.536 194.269 241.632 194.412 241.632 194.604C241.632 194.795 241.536 194.939 241.345 195.034L238.666 196.565ZM218.235 195.656L215.939 194.365C215.747 194.269 215.651 194.125 215.651 193.934C215.651 193.743 215.747 193.599 215.939 193.503L218.618 191.972L220.915 193.264C221.106 193.36 221.202 193.503 221.202 193.695C221.202 193.886 221.106 194.03 220.915 194.125L218.235 195.656ZM233.642 195.274L231.345 193.982C231.154 193.886 231.058 193.742 231.058 193.551C231.058 193.36 231.154 193.216 231.345 193.12L234.024 191.589L236.321 192.881C236.512 192.977 236.608 193.121 236.608 193.312C236.608 193.503 236.512 193.647 236.321 193.742L233.642 195.274ZM211.872 195.034L209.575 193.742C209.384 193.647 209.288 193.503 209.288 193.312C209.288 193.121 209.384 192.977 209.575 192.881L212.254 191.35L214.551 192.642C214.742 192.738 214.838 192.881 214.838 193.073C214.838 193.264 214.742 193.408 214.551 193.503L211.872 195.034ZM227.23 194.652L224.934 193.36C224.742 193.264 224.647 193.12 224.647 192.929C224.647 192.738 224.742 192.594 224.934 192.498L227.613 190.967L229.91 192.259C230.101 192.355 230.197 192.498 230.197 192.69C230.197 192.881 230.101 193.025 229.91 193.12L227.23 194.652ZM242.637 194.269L240.34 192.977C240.149 192.881 240.053 192.738 240.053 192.546C240.053 192.355 240.149 192.211 240.34 192.116L243.02 190.585L245.316 191.876C245.508 191.972 245.603 192.116 245.603 192.307C245.603 192.499 245.508 192.642 245.316 192.738L242.637 194.269ZM222.254 193.36L219.958 192.068C219.766 191.972 219.671 191.829 219.671 191.637C219.671 191.446 219.766 191.302 219.958 191.207L222.637 189.676L224.934 190.967C225.125 191.063 225.221 191.207 225.221 191.398C225.221 191.589 225.125 191.733 224.934 191.829L222.254 193.36ZM237.613 192.929L235.316 191.637C235.125 191.542 235.029 191.398 235.029 191.207C235.029 191.015 235.125 190.872 235.316 190.776L237.996 189.245L240.292 190.537C240.484 190.632 240.579 190.776 240.579 190.967C240.579 191.159 240.484 191.302 240.292 191.398L237.613 192.929ZM215.843 192.738L213.546 191.446C213.355 191.35 213.259 191.207 213.259 191.015C213.259 190.824 213.355 190.68 213.546 190.585L216.226 189.054L218.522 190.345C218.714 190.441 218.809 190.585 218.809 190.776C218.809 190.967 218.714 191.111 218.522 191.207L215.843 192.738ZM231.249 192.355L228.953 191.063C228.761 190.967 228.666 190.824 228.666 190.633C228.666 190.441 228.761 190.298 228.953 190.202L231.632 188.671L233.929 189.963C234.12 190.058 234.216 190.202 234.216 190.393C234.216 190.585 234.12 190.728 233.929 190.824L231.249 192.355ZM246.608 191.924L244.311 190.633C244.12 190.537 244.024 190.393 244.024 190.202C244.024 190.011 244.12 189.867 244.311 189.771L246.991 188.24L249.287 189.532C249.479 189.628 249.574 189.771 249.574 189.963C249.574 190.154 249.479 190.298 249.287 190.393L246.608 191.924ZM226.225 191.015L223.929 189.723C223.737 189.628 223.642 189.484 223.642 189.293C223.642 189.101 223.737 188.958 223.929 188.862L226.608 187.331L228.905 188.623C229.096 188.719 229.192 188.862 229.192 189.054C229.192 189.245 229.096 189.388 228.905 189.484L226.225 191.015ZM241.632 190.633L239.335 189.341C239.144 189.245 239.048 189.101 239.048 188.91C239.048 188.719 239.144 188.575 239.335 188.479L243.307 186.231L245.603 187.523C245.795 187.618 245.89 187.762 245.89 187.953C245.89 188.145 245.795 188.288 245.603 188.384L241.632 190.633ZM219.814 190.441L217.517 189.149C217.326 189.054 217.23 188.91 217.23 188.719C217.23 188.527 217.326 188.384 217.517 188.288L220.197 186.757L222.493 188.049C222.685 188.144 222.781 188.288 222.781 188.479C222.781 188.671 222.685 188.814 222.493 188.91L219.814 190.441ZM235.221 190.058L232.924 188.766C232.733 188.671 232.637 188.527 232.637 188.336C232.637 188.144 232.733 188.001 232.924 187.905L235.603 186.374L237.9 187.666C238.091 187.762 238.187 187.905 238.187 188.097C238.187 188.288 238.091 188.432 237.9 188.527L235.221 190.058ZM230.197 188.719L227.9 187.427C227.709 187.331 227.613 187.188 227.613 186.996C227.613 186.805 227.709 186.661 227.9 186.566L230.579 185.034L232.876 186.326C233.067 186.422 233.163 186.566 233.163 186.757C233.163 186.948 233.067 187.092 232.876 187.188L230.197 188.719ZM223.785 188.144L221.489 186.853C221.297 186.757 221.202 186.613 221.202 186.422C221.202 186.231 221.297 186.087 221.489 185.991L224.168 184.46L226.465 185.752C226.656 185.848 226.752 185.991 226.752 186.183C226.752 186.374 226.656 186.518 226.465 186.613L223.785 188.144ZM239.192 187.714L236.895 186.422C236.704 186.326 236.608 186.183 236.608 185.991C236.608 185.8 236.704 185.657 236.895 185.561L239.575 184.03L241.871 185.322C242.063 185.417 242.158 185.561 242.158 185.752C242.158 185.943 242.063 186.087 241.871 186.183L239.192 187.714ZM234.168 186.422L231.871 185.13C231.68 185.035 231.584 184.891 231.584 184.699C231.584 184.508 231.68 184.365 231.871 184.269L235.843 182.02L238.139 183.312C238.331 183.408 238.426 183.551 238.426 183.743C238.426 183.934 238.331 184.078 238.139 184.173L234.168 186.422ZM227.804 185.848L225.508 184.556C225.316 184.46 225.221 184.317 225.221 184.125C225.221 183.934 225.316 183.79 225.508 183.695L228.187 182.164L230.484 183.456C230.675 183.551 230.771 183.695 230.771 183.886C230.771 184.078 230.675 184.221 230.484 184.317L227.804 185.848ZM231.776 183.503L229.479 182.212C229.288 182.116 229.192 181.972 229.192 181.781C229.192 181.59 229.288 181.446 229.479 181.35L232.158 179.819L234.455 181.111C234.646 181.207 234.742 181.35 234.742 181.542C234.742 181.733 234.646 181.877 234.455 181.972L231.776 183.503Z" fill="#CB89F0"/>
<path d="M249.143 189.819L246.607 191.254L244.454 190.058C244.454 189.723 246.99 188.288 246.99 188.288L249.143 189.484C249.286 189.723 249.238 189.771 249.143 189.819ZM245.459 187.762L241.631 189.915L239.478 188.719C239.478 188.384 243.306 186.183 243.306 186.183L245.459 187.379C245.554 187.666 245.506 187.714 245.459 187.762ZM245.172 192.116L242.636 193.551L240.483 192.355C240.483 192.02 243.018 190.585 243.018 190.585L245.172 191.781C245.267 192.02 245.267 192.068 245.172 192.116ZM241.727 185.609L239.191 187.044L237.038 185.848C237.038 185.513 239.574 184.078 239.574 184.078L241.727 185.274C241.87 185.513 241.822 185.561 241.727 185.609ZM241.2 194.412L238.664 195.848L236.511 194.652C236.511 194.317 239.047 192.881 239.047 192.881L241.2 194.077C241.296 194.317 241.248 194.412 241.2 194.412ZM240.148 190.824L237.612 192.259L235.459 191.063C235.459 190.728 237.995 189.293 237.995 189.293L240.148 190.489C240.291 190.728 240.243 190.776 240.148 190.824ZM237.995 183.551L234.167 185.704L232.014 184.508C232.014 184.173 235.842 181.972 235.842 181.972L237.995 183.168C238.138 183.456 238.09 183.503 237.995 183.551ZM237.755 187.905L235.22 189.341L233.066 188.144C233.066 187.809 235.602 186.374 235.602 186.374L237.755 187.57C237.851 187.809 237.851 187.857 237.755 187.905ZM237.181 196.757L234.645 198.192L232.492 196.996C232.492 196.661 235.028 195.226 235.028 195.226L237.181 196.422C237.325 196.613 237.277 196.709 237.181 196.757ZM236.176 193.12L233.641 194.556L231.488 193.36C231.488 193.025 234.023 191.589 234.023 191.589L236.176 192.785C236.32 193.025 236.272 193.073 236.176 193.12ZM234.31 181.398L231.775 182.834L229.622 181.637C229.622 181.302 232.157 179.867 232.157 179.867L234.31 181.063C234.406 181.302 234.406 181.35 234.31 181.398ZM233.784 190.25L231.248 191.685L229.095 190.489C229.095 190.154 231.631 188.719 231.631 188.719L233.784 189.915C233.88 190.106 233.832 190.202 233.784 190.25ZM233.258 199.053L214.741 209.723L212.588 208.527C212.588 208.192 231.105 197.474 231.105 197.474L233.258 198.671C233.401 198.958 233.354 199.005 233.258 199.053ZM232.732 186.613L230.196 188.049L228.043 186.853C228.043 186.518 230.578 185.082 230.578 185.082L232.732 186.278C232.875 186.518 232.827 186.566 232.732 186.613ZM232.205 195.465L229.669 196.9L227.516 195.704C227.516 195.369 230.052 193.934 230.052 193.934L232.205 195.13C232.301 195.321 232.253 195.417 232.205 195.465ZM230.339 183.695L227.803 185.13L225.65 183.934C225.65 183.599 228.186 182.164 228.186 182.164L230.339 183.36C230.435 183.599 230.387 183.647 230.339 183.695ZM229.765 192.546L227.229 193.982L225.076 192.785C225.076 192.451 227.612 191.015 227.612 191.015L229.765 192.211C229.909 192.451 229.861 192.498 229.765 192.546ZM228.76 188.91L226.224 190.345L224.071 189.149C224.071 188.814 226.607 187.379 226.607 187.379L228.76 188.575C228.856 188.814 228.808 188.862 228.76 188.91ZM228.234 197.762L225.698 199.197L223.545 198.001C223.545 197.666 226.081 196.23 226.081 196.23L228.234 197.427C228.33 197.618 228.282 197.714 228.234 197.762ZM226.32 186.039L223.784 187.475L221.631 186.278C221.631 185.944 224.167 184.508 224.167 184.508L226.32 185.704C226.464 185.896 226.416 185.991 226.32 186.039ZM225.794 194.843L223.258 196.278L221.105 195.082C221.105 194.747 223.641 193.312 223.641 193.312L225.794 194.508C225.937 194.747 225.89 194.795 225.794 194.843ZM224.789 191.207L222.253 192.642L220.1 191.446C220.1 191.111 222.636 189.675 222.636 189.675L224.789 190.872C224.885 191.111 224.837 191.207 224.789 191.207ZM224.215 200.058L221.679 201.494L219.526 200.297C219.526 199.962 222.062 198.527 222.062 198.527L224.215 199.723C224.358 199.962 224.311 200.01 224.215 200.058ZM222.349 188.336L219.813 189.771L217.66 188.575C217.66 188.24 220.196 186.805 220.196 186.805L222.349 188.001C222.492 188.192 222.445 188.288 222.349 188.336ZM221.823 197.139L219.287 198.575L217.134 197.379C217.134 197.044 219.67 195.609 219.67 195.609L221.823 196.805C221.918 197.044 221.918 197.092 221.823 197.139ZM220.77 193.551L218.234 194.986L216.081 193.79C216.081 193.455 218.617 192.02 218.617 192.02L220.77 193.216C220.913 193.408 220.866 193.503 220.77 193.551ZM220.244 202.355L217.708 203.79L215.555 202.594C215.555 202.259 218.091 200.824 218.091 200.824L220.244 202.02C220.387 202.259 220.339 202.307 220.244 202.355ZM218.378 190.632L215.842 192.068L213.689 190.872C213.689 190.537 216.225 189.101 216.225 189.101L218.378 190.298C218.473 190.537 218.473 190.585 218.378 190.632ZM217.851 199.436L215.315 200.871L213.162 199.675C213.162 199.34 215.698 197.905 215.698 197.905L217.851 199.101C217.947 199.34 217.899 199.436 217.851 199.436ZM216.799 195.848L214.263 197.283L212.11 196.087C212.11 195.752 214.646 194.317 214.646 194.317L216.799 195.513C216.942 195.752 216.894 195.8 216.799 195.848ZM216.272 204.651L213.737 206.087L211.583 204.891C211.583 204.556 214.119 203.12 214.119 203.12L216.272 204.316C216.368 204.556 216.368 204.604 216.272 204.651ZM214.406 192.929L211.871 194.364L209.717 193.168C209.717 192.833 212.253 191.398 212.253 191.398L214.406 192.594C214.502 192.833 214.454 192.881 214.406 192.929ZM213.832 201.781L211.296 203.216L209.143 202.02C209.143 201.685 211.679 200.249 211.679 200.249L213.832 201.446C213.976 201.637 213.928 201.733 213.832 201.781ZM213.306 210.584L209.478 212.737L207.325 211.541C207.325 211.206 211.153 209.005 211.153 209.005L213.306 210.202C213.449 210.441 213.402 210.536 213.306 210.584ZM212.828 198.144L210.292 199.58L208.139 198.384C208.139 198.049 210.674 196.613 210.674 196.613L212.828 197.809C212.923 198.049 212.923 198.097 212.828 198.144ZM212.301 206.996L209.765 208.431L207.612 207.235C207.612 206.9 210.148 205.465 210.148 205.465L212.301 206.661C212.397 206.852 212.349 206.948 212.301 206.996ZM210.387 195.226L207.851 196.661L205.698 195.465C205.698 195.13 208.234 193.695 208.234 193.695L210.387 194.891C210.531 195.13 210.483 195.178 210.387 195.226ZM209.861 204.077L207.325 205.513L205.172 204.316C205.172 203.982 207.708 202.546 207.708 202.546L209.861 203.742C210.005 203.982 209.957 204.029 209.861 204.077ZM208.856 200.441L206.32 201.876L204.167 200.68C204.167 200.345 206.703 198.91 206.703 198.91L208.856 200.106C208.952 200.345 208.904 200.393 208.856 200.441ZM208.282 209.292L205.746 210.728L203.593 209.532C203.593 209.197 206.129 207.761 206.129 207.761L208.282 208.958C208.426 209.197 208.378 209.245 208.282 209.292ZM206.416 197.57L203.88 199.006L201.727 197.809C201.727 197.474 204.263 196.039 204.263 196.039L206.416 197.235C206.56 197.427 206.512 197.522 206.416 197.57ZM205.89 206.374L202.062 208.527L199.909 207.331C199.909 206.996 203.737 204.795 203.737 204.795L205.89 205.991C205.985 206.278 205.985 206.326 205.89 206.374ZM205.938 214.986L203.402 216.422L201.249 215.225C201.249 214.89 203.785 213.455 203.785 213.455L205.938 214.651C206.081 214.843 206.033 214.938 205.938 214.986ZM204.837 202.785L202.301 204.221L200.148 203.025C200.148 202.69 202.684 201.254 202.684 201.254L204.837 202.45C204.981 202.642 204.933 202.738 204.837 202.785ZM202.445 199.867L199.909 201.302L197.756 200.106C197.756 199.771 200.292 198.336 200.292 198.336L202.445 199.532C202.541 199.771 202.541 199.819 202.445 199.867ZM202.206 212.833L199.67 214.269L197.517 213.072C197.517 212.737 200.053 211.302 200.053 211.302L202.206 212.498C202.349 212.737 202.301 212.785 202.206 212.833ZM201.966 217.283L199.431 218.718L197.277 217.522C197.277 217.187 199.813 215.752 199.813 215.752L201.966 216.948C202.062 217.187 202.062 217.235 201.966 217.283ZM200.866 205.082L198.33 206.517L196.177 205.321C196.177 204.986 198.713 203.551 198.713 203.551L200.866 204.747C201.01 204.938 200.962 205.034 200.866 205.082ZM198.474 202.163L194.646 204.316L192.493 203.12C192.493 202.785 196.321 200.584 196.321 200.584L198.474 201.781C198.569 202.068 198.521 202.116 198.474 202.163ZM198.33 210.728L187.947 216.756H187.66L185.555 215.56C185.555 215.321 189 213.264 189 213.264C189.096 213.216 189.191 213.12 189.191 213.024C189.191 212.929 189.144 212.833 189 212.785L186.177 211.206C186.081 211.158 185.986 211.063 185.986 210.967C185.986 210.871 186.034 210.776 186.129 210.728L192.397 207.092H192.684L198.282 210.249C198.378 210.297 198.474 210.393 198.474 210.489C198.521 210.536 198.426 210.632 198.33 210.728ZM198.234 215.178L195.699 216.613L193.545 215.417C193.545 215.082 196.081 213.646 196.081 213.646L198.234 214.843C198.33 215.034 198.282 215.13 198.234 215.178ZM197.995 219.579L195.459 221.015L193.306 219.819C193.306 219.484 195.842 218.048 195.842 218.048L197.995 219.244C198.091 219.484 198.043 219.532 197.995 219.579ZM194.263 217.474L191.727 218.91L189.574 217.666C189.574 217.331 192.11 215.895 192.11 215.895L194.263 217.091C194.359 217.331 194.311 217.426 194.263 217.474ZM191.01 206.517L188.474 207.953L186.321 206.757C186.321 206.422 188.857 204.986 188.857 204.986L191.01 206.182C191.153 206.374 191.105 206.47 191.01 206.517ZM187.038 208.814L184.502 210.249L182.349 209.053C182.349 208.718 184.885 207.283 184.885 207.283L187.038 208.479C187.134 208.718 187.086 208.766 187.038 208.814ZM186.799 213.216L184.263 214.651L182.11 213.455C182.11 213.12 184.646 211.685 184.646 211.685L186.799 212.881C186.895 213.12 186.847 213.168 186.799 213.216ZM183.067 211.111L180.531 212.546L178.378 211.35C178.378 211.015 180.914 209.58 180.914 209.58L183.067 210.776C183.163 211.015 183.115 211.063 183.067 211.111Z" fill="#FFDEFF"/>
<path d="M264.023 156.231L207.133 189.293L197.708 225.369C197.899 225.847 198.043 226.374 198.043 226.852C198.043 227.474 197.851 227.905 197.516 228.096L254.406 195.034C254.74 194.843 254.932 194.412 254.932 193.79C254.932 193.312 254.788 192.786 254.597 192.307L264.023 156.231Z" fill="#CB89F0"/>
<path d="M206.513 188.623L263.354 155.561L264.024 156.231L207.135 189.293L206.513 188.623Z" fill="url(#paint2_linear_2527_40940)"/>
<path d="M206.511 188.623L207.133 189.245L197.708 225.321C197.899 225.799 198.043 226.326 198.043 226.804C198.043 227.905 197.373 228.431 196.559 227.953L158.474 205.943V204.221L194.981 225.321V225.034C194.981 223.933 195.65 223.407 196.512 223.886L206.511 188.623Z" fill="#8B3DCE"/>
<path d="M232.156 188.575C229.859 189.724 227.754 192.164 227.371 194.03C226.989 195.896 228.52 196.47 230.721 195.321C232.969 194.173 235.123 191.733 235.553 189.867C235.936 188.049 234.453 187.427 232.156 188.575ZM234.74 190.298C234.405 191.781 232.682 193.743 230.864 194.7C229.046 195.609 227.85 195.13 228.185 193.647C228.472 192.164 230.194 190.202 232.013 189.245C233.831 188.336 235.027 188.814 234.74 190.298Z" fill="#C858F0"/>
<path d="M207.755 150.537C202.923 147.427 193.258 156.614 195.124 158.815L196.272 160.25C199.095 163.743 210.435 154.556 208.665 151.733C208.521 151.542 208.09 150.777 207.755 150.537Z" fill="#F2F2F2"/>
<path d="M216.894 179.245C218.234 178.527 217.947 177.139 218.09 175.895C218.282 174.317 218.76 173.12 218.425 171.494C217.708 168.144 216.416 165.609 214.502 162.211C213.593 160.633 209.143 153.886 207.899 152.738C203.976 150.346 195.555 157.14 196.99 159.58C197.469 160.441 201.201 166.374 203.354 171.302C203.928 172.594 206.655 179.245 207.612 180.297C208.425 181.206 209.861 181.35 211.009 181.254C211.87 181.206 212.779 181.159 213.641 181.111C213.976 181.111 214.358 181.063 214.645 180.919C215.22 180.632 215.459 179.962 215.985 179.58C216.272 179.484 216.607 179.436 216.894 179.245Z" fill="#F3BC97"/>
<path d="M111.345 96.4713C111.872 101.16 115.939 132.452 117.565 144.796C117.996 148.049 119.527 151.016 121.871 153.217L153.019 182.355C156.847 186.183 169.909 174.174 165.268 169.628L137.756 138.576C136.417 128.624 136.512 100.73 134.79 87.2369C134.024 82.8351 128.474 78.5768 122.35 78.9596C122.302 78.9118 109.719 82.5481 111.345 96.4713Z" fill="#2D085C"/>
<path d="M165.507 171.685C160.866 169.101 152.349 180.297 154.885 182.355L155.938 183.264C159.335 186.182 168.856 175.13 166.655 172.69C166.416 172.498 165.794 171.829 165.507 171.685Z" fill="#F2F2F2"/>
<path d="M180.579 196.566C180.914 194.747 181.584 193.36 181.297 191.398C181.01 189.436 180.388 185.465 179.24 183.982C178.57 183.121 166.13 173.456 166.13 173.456C162.541 171.111 154.551 180.059 157.087 182.594C158.044 183.551 166.56 191.063 167.661 193.025C167.852 193.36 169.431 199.628 170.245 200.872C171.106 202.211 173.45 202.403 174.838 202.403C175.268 202.403 175.699 202.403 176.082 202.259C176.752 201.972 177.134 201.159 177.756 200.776C178.091 200.585 178.522 200.489 178.905 200.345C180.531 199.676 180.34 198.001 180.579 196.566Z" fill="#F3BC97"/>
<path d="M309.328 0.699492C307.449 -0.396882 304.845 -0.240267 301.967 1.42387L243.272 35.3136C237.555 38.6027 232.935 46.6102 232.954 53.1689L233.052 84.3176C233.052 87.5676 234.207 89.8582 236.067 90.935L242.88 94.8898L316.142 4.65428L309.328 0.699492Z" fill="url(#paint3_linear_2527_40940)"/>
<path d="M319.235 42.4204L319.137 11.2717C319.117 4.71299 314.477 2.06997 308.761 5.35909L274.538 25.1134L250.065 39.2488C244.349 42.5379 239.728 50.5454 239.748 57.104L239.846 88.2528C239.865 94.8115 244.505 97.4546 250.222 94.1654L293.96 68.9096C298.051 71.3569 306.94 75.5466 317.179 73.4713C316.925 73.1973 312.246 68.0286 310.738 59.0227C315.593 55.2245 319.254 48.2547 319.235 42.4204Z" fill="url(#paint4_linear_2527_40940)"/>
<path opacity="0.6" d="M247.402 64.8374L239.786 69.2229L239.845 88.2528C239.864 94.8115 244.504 97.4546 250.221 94.1654L264.102 86.1384C265.355 82.536 266.06 78.8945 266.04 75.4487C266.04 63.6627 257.681 58.9052 247.402 64.8374Z" fill="#CD9AD6"/>
<path d="M221.01 124.257C221.187 133.674 216.038 145.382 215.763 146.008L222.577 149.963C222.851 149.356 228 137.629 227.824 128.212L221.01 124.257Z" fill="url(#paint5_linear_2527_40940)"/>
<path d="M270.387 64.0346C267 62.0768 262.32 62.3508 257.152 65.3267L232.562 79.5208C222.283 85.453 214.002 99.8233 214.021 111.609C214.041 117.463 216.116 121.594 219.444 123.532L226.257 127.487L277.2 67.9698L270.387 64.0346Z" fill="url(#paint6_linear_2527_40940)"/>
<path d="M263.945 69.2816L251.709 76.3493L239.355 83.4757C229.077 89.4079 220.795 103.778 220.815 115.564C220.834 122.299 223.556 126.724 227.804 128.192C227.98 137.609 222.831 149.317 222.557 149.943C230.525 142.347 237.397 131.129 240.549 125.569L264.063 112.001C274.341 106.069 282.623 91.6986 282.603 79.893C282.564 68.1069 274.224 63.3494 263.945 69.2816Z" fill="url(#paint7_linear_2527_40940)"/>
<path d="M245.856 101.781C245.856 103.367 244.583 105.384 242.997 106.304C241.412 107.224 240.139 106.676 240.139 105.09C240.139 103.504 241.412 101.488 242.997 100.568C244.564 99.6473 245.856 100.196 245.856 101.781Z" fill="#BD70E5"/>
<path d="M255.332 96.2998C255.332 97.8856 254.06 99.9021 252.474 100.822C250.888 101.742 249.615 101.194 249.615 99.6085C249.615 98.0226 250.888 96.0061 252.474 95.0859C254.06 94.1658 255.332 94.7139 255.332 96.2998Z" fill="#BD70E5"/>
<path d="M264.827 90.8177C264.827 92.4036 263.554 94.4201 261.969 95.3403C260.383 96.2604 259.11 95.7123 259.11 94.1264C259.11 92.5406 260.383 90.5241 261.969 89.6039C263.535 88.7033 264.827 89.2515 264.827 90.8177Z" fill="#BD70E5"/>
<path d="M272.951 54.0501C272.951 55.8904 271.463 58.2594 269.603 59.3166C267.763 60.3738 266.255 59.7473 266.255 57.907C266.255 56.0666 267.743 53.6977 269.603 52.6404C271.444 51.5832 272.951 52.2097 272.951 54.0501Z" fill="#BD70E5"/>
<path d="M284.033 47.6675C284.033 49.5078 282.545 51.8768 280.685 52.934C278.845 53.9912 277.337 53.3647 277.337 51.5244C277.337 49.684 278.825 47.3151 280.685 46.2579C282.526 45.1811 284.033 45.8076 284.033 47.6675Z" fill="#BD70E5"/>
<path d="M295.114 41.2656C295.114 43.1059 293.626 45.4749 291.766 46.5321C289.926 47.5893 288.418 46.9628 288.418 45.1225C288.418 43.2821 289.906 40.9132 291.766 39.856C293.626 38.7792 295.114 39.4057 295.114 41.2656Z" fill="#BD70E5"/>
<path d="M308.779 5.35931C284.698 19.9842 269.584 28.5594 250.084 39.249C269.094 27.6979 284.111 18.8682 308.779 5.35931Z" fill="url(#paint8_radial_2527_40940)"/>
<path d="M263.945 69.2818C253.647 75.5272 244.112 81.2048 239.355 83.4759C243.662 80.5196 256.329 72.9429 263.945 69.2818Z" fill="url(#paint9_radial_2527_40940)"/>
<defs>
<linearGradient id="paint0_linear_2527_40940" x1="160.56" y1="66.4185" x2="100.854" y2="318.382" gradientUnits="userSpaceOnUse">
<stop stop-color="#3F2A97"/>
<stop offset="1" stop-color="#46118B"/>
</linearGradient>
<linearGradient id="paint1_linear_2527_40940" x1="158.477" y1="198.274" x2="251.864" y2="198.274" gradientUnits="userSpaceOnUse">
<stop stop-color="#F5ABFF"/>
<stop offset="0.4557" stop-color="#FFC5FF"/>
<stop offset="1" stop-color="#FFDEFF"/>
</linearGradient>
<linearGradient id="paint2_linear_2527_40940" x1="206.498" y1="172.428" x2="264.018" y2="172.428" gradientUnits="userSpaceOnUse">
<stop stop-color="#F5ABFF"/>
<stop offset="0.4557" stop-color="#FFC5FF"/>
<stop offset="1" stop-color="#FFDEFF"/>
</linearGradient>
<linearGradient id="paint3_linear_2527_40940" x1="294.389" y1="-7.93485" x2="236.991" y2="91.4809" gradientUnits="userSpaceOnUse">
<stop offset="0.5419" stop-color="#7D3ADF"/>
<stop offset="0.8254" stop-color="#6D18B4"/>
<stop offset="1" stop-color="#6014A3"/>
</linearGradient>
<linearGradient id="paint4_linear_2527_40940" x1="239.765" y1="49.7597" x2="319.241" y2="49.7597" gradientUnits="userSpaceOnUse">
<stop stop-color="#FFC5FF"/>
<stop offset="0.5656" stop-color="#FFD1FF"/>
<stop offset="1" stop-color="#FFDEFF"/>
</linearGradient>
<linearGradient id="paint5_linear_2527_40940" x1="227.151" y1="127.805" x2="216.41" y2="146.409" gradientUnits="userSpaceOnUse">
<stop stop-color="#8343E3"/>
<stop offset="0.1746" stop-color="#6D18B4"/>
<stop offset="0.4581" stop-color="#8821D8"/>
</linearGradient>
<linearGradient id="paint6_linear_2527_40940" x1="261.027" y1="58.6298" x2="222.513" y2="125.339" gradientUnits="userSpaceOnUse">
<stop offset="0.5419" stop-color="#8821D8"/>
<stop offset="0.8254" stop-color="#6D18B4"/>
<stop offset="1" stop-color="#6014A3"/>
</linearGradient>
<linearGradient id="paint7_linear_2527_40940" x1="220.815" y1="108.344" x2="282.603" y2="108.344" gradientUnits="userSpaceOnUse">
<stop stop-color="#FFC5FF"/>
<stop offset="0.5656" stop-color="#FFD1FF"/>
<stop offset="1" stop-color="#FFDEFF"/>
</linearGradient>
<radialGradient id="paint8_radial_2527_40940" cx="0" cy="0" r="1" gradientUnits="userSpaceOnUse" gradientTransform="translate(278.72 22.5532) scale(78.1633 78.1633)">
<stop stop-color="#FFEC3D"/>
<stop offset="0.2167" stop-color="#E53DFF"/>
<stop offset="0.2615" stop-color="#C735DE"/>
<stop offset="0.3398" stop-color="#9929AB"/>
<stop offset="0.4216" stop-color="#701E7D"/>
<stop offset="0.5054" stop-color="#4E1556"/>
<stop offset="0.5917" stop-color="#310D37"/>
<stop offset="0.6811" stop-color="#1C071F"/>
<stop offset="0.7752" stop-color="#0C030D"/>
<stop offset="0.8768" stop-color="#030103"/>
<stop offset="1"/>
</radialGradient>
<radialGradient id="paint9_radial_2527_40940" cx="0" cy="0" r="1" gradientUnits="userSpaceOnUse" gradientTransform="translate(251.648 76.3814) scale(32.2988 32.2988)">
<stop stop-color="#FFEC3D"/>
<stop offset="0.2167" stop-color="#E53DFF"/>
<stop offset="0.2615" stop-color="#C735DE"/>
<stop offset="0.3398" stop-color="#9929AB"/>
<stop offset="0.4216" stop-color="#701E7D"/>
<stop offset="0.5054" stop-color="#4E1556"/>
<stop offset="0.5917" stop-color="#310D37"/>
<stop offset="0.6811" stop-color="#1C071F"/>
<stop offset="0.7752" stop-color="#0C030D"/>
<stop offset="0.8768" stop-color="#030103"/>
<stop offset="1"/>
</radialGradient>
</defs>
</svg>
