<svg width="140" height="33" viewBox="0 0 140 33" fill="none" xmlns="http://www.w3.org/2000/svg">
<path d="M0 5.91129C0 3.06081 2.3924 0.75 5.34351 0.75H134.656C137.608 0.75 140 3.06081 140 5.91129V27.5887C140 30.4392 137.608 32.75 134.656 32.75H5.34351C2.3924 32.75 0 30.4392 0 27.5887V5.91129Z" fill="white"/>
<path d="M14.4 11.2759H16.6084V23.0012H14.4V11.2759Z" fill="#1F2272"/>
<path d="M25.2835 10.978H27.4568V22.9838H25.2835V22.0724C24.8629 22.4755 24.4247 22.7735 24.0041 22.9487C23.5834 23.124 23.1102 23.2117 22.6195 23.2117C21.4978 23.2117 20.5338 22.7735 19.71 21.9147C18.8862 21.0559 18.4832 19.9692 18.4832 18.6722C18.4832 17.3402 18.8862 16.2361 19.675 15.3772C20.4637 14.5184 21.4276 14.0978 22.5493 14.0978C23.0752 14.0978 23.5659 14.2029 24.0216 14.3957C24.4773 14.5885 24.8979 14.8865 25.2835 15.2721V10.978ZM22.9875 16.1133C22.3215 16.1133 21.7606 16.3587 21.305 16.8319C20.8493 17.3052 20.6389 17.9186 20.6389 18.6547C20.6389 19.4084 20.8668 20.0218 21.3225 20.495C21.7782 20.9858 22.339 21.2136 22.9875 21.2136C23.671 21.2136 24.2319 20.9682 24.6876 20.495C25.1433 20.0218 25.3712 19.3908 25.3712 18.6197C25.3712 17.866 25.1433 17.2526 24.6876 16.7794C24.2494 16.3412 23.671 16.1133 22.9875 16.1133Z" fill="#1F2272"/>
<path d="M38.3242 19.2856H31.331C31.4362 19.899 31.6991 20.3898 32.1372 20.7578C32.5754 21.1259 33.1363 21.3012 33.8198 21.3012C34.626 21.3012 35.3271 21.0208 35.923 20.4424L37.7633 21.3012C37.3076 21.9497 36.7643 22.4229 36.1158 22.7383C35.4849 23.0538 34.7136 23.2116 33.8373 23.2116C32.4702 23.2116 31.3661 22.7909 30.5073 21.9321C29.6484 21.0733 29.2278 20.0042 29.2278 18.7072C29.2278 17.3927 29.6484 16.2885 30.5073 15.4122C31.3661 14.5358 32.4352 14.0977 33.7147 14.0977C35.0817 14.0977 36.1859 14.5358 37.0447 15.4122C37.9035 16.2885 38.3242 17.4453 38.3242 18.8825V19.2856ZM36.1509 17.5679C36.0107 17.0772 35.7302 16.6916 35.3096 16.3937C34.889 16.0957 34.3982 15.938 33.8373 15.938C33.2239 15.938 32.6981 16.1132 32.2424 16.4462C31.962 16.6566 31.6815 17.0246 31.4362 17.5679H36.1509Z" fill="#1F2272"/>
<path d="M46.4912 14.3256H48.6646V23.0013H46.4912V22.0899C46.0704 22.493 45.6323 22.791 45.2117 22.9662C44.7911 23.1415 44.3178 23.2291 43.8271 23.2291C42.7054 23.2291 41.7414 22.791 40.9176 21.9321C40.0939 21.0733 39.6908 19.9867 39.6908 18.6897C39.6908 17.3577 40.0939 16.2535 40.8826 15.3947C41.6713 14.5359 42.6353 14.1152 43.757 14.1152C44.2828 14.1152 44.7735 14.2204 45.2292 14.4132C45.6849 14.606 46.1056 14.9039 46.4912 15.2895V14.3256ZM44.1952 16.1133C43.5291 16.1133 42.9683 16.3586 42.5126 16.8319C42.0569 17.3051 41.8466 17.9185 41.8466 18.6546C41.8466 19.4083 42.0744 20.0217 42.5301 20.495C42.9858 20.9857 43.5466 21.2135 44.1952 21.2135C44.8787 21.2135 45.4395 20.9682 45.8955 20.495C46.351 20.0217 46.5787 19.3908 46.5787 18.6196C46.5787 17.866 46.351 17.2525 45.8955 16.7793C45.4571 16.3411 44.8962 16.1133 44.1952 16.1133Z" fill="#1F2272"/>
<path d="M50.6283 10.978H52.8016V22.9838H50.6283V10.978Z" fill="#1F2272"/>
<path d="M63.457 19.2856H56.4639C56.569 19.899 56.8319 20.3898 57.2698 20.7578C57.7082 21.1259 58.2687 21.3012 58.9525 21.3012C59.7589 21.3012 60.4597 21.0208 61.0559 20.4424L62.8959 21.3012C62.4405 21.9497 61.897 22.4229 61.2485 22.7383C60.6175 23.0538 59.8463 23.2116 58.9701 23.2116C57.6031 23.2116 56.4986 22.7909 55.6399 21.9321C54.7813 21.0733 54.3605 20.0042 54.3605 18.7072C54.3605 17.3927 54.7813 16.2885 55.6399 15.4122C56.4986 14.5358 57.5679 14.0977 58.8474 14.0977C60.2143 14.0977 61.3183 14.5358 62.1775 15.4122C63.0362 16.2885 63.457 17.4453 63.457 18.8825V19.2856ZM61.2837 17.5679C61.1434 17.0772 60.8629 16.6916 60.4421 16.3937C60.0218 16.0957 59.5306 15.938 58.9701 15.938C58.3567 15.938 57.8309 16.1132 57.3749 16.4462C57.0949 16.6566 56.8143 17.0246 56.569 17.5679H61.2837Z" fill="#1F2272"/>
<path d="M76.4624 13.4493L75.5333 14.1503C75.0251 13.4843 74.4117 12.9761 73.6928 12.643C72.9744 12.2925 72.1856 12.1348 71.3445 12.1348C70.4155 12.1348 69.5392 12.3626 68.7504 12.8008C67.9616 13.2565 67.3307 13.8524 66.8928 14.606C66.4544 15.3597 66.2267 16.2185 66.2267 17.165C66.2267 18.6021 66.7173 19.794 67.6987 20.7404C68.6805 21.7044 69.9072 22.1776 71.4144 22.1776C73.0619 22.1776 74.4293 21.5291 75.5333 20.2497L76.4624 20.9507C75.8837 21.6868 75.1477 22.2652 74.2715 22.6683C73.3952 23.0715 72.4133 23.2818 71.3445 23.2818C69.2939 23.2818 67.6811 22.5982 66.4896 21.2311C65.4907 20.0744 65 18.6898 65 17.0598C65 15.3422 65.5957 13.905 66.8048 12.7307C68.0144 11.5564 69.5216 10.978 71.3269 10.978C72.4133 10.978 73.4128 11.1883 74.2891 11.6265C75.1653 12.0647 75.9013 12.6606 76.4624 13.4493Z" fill="#1F2272"/>
<path d="M87.2592 14.3256V23.0013H86.1547V21.5115C85.6816 22.0724 85.1557 22.5105 84.5776 22.791C83.9989 23.0714 83.368 23.2291 82.6672 23.2291C81.44 23.2291 80.3883 22.791 79.5296 21.8971C78.6533 21.0032 78.2325 19.9341 78.2325 18.6546C78.2325 17.4103 78.6709 16.3411 79.5472 15.4473C80.4235 14.5534 81.4752 14.1152 82.7019 14.1152C83.4208 14.1152 84.0517 14.273 84.6299 14.5709C85.2085 14.8689 85.7168 15.3246 86.1547 15.938V14.3256H87.2592ZM82.8069 15.1844C82.1936 15.1844 81.6155 15.3421 81.0896 15.64C80.5637 15.938 80.1429 16.3762 79.8277 16.9195C79.512 17.4629 79.3541 18.0588 79.3541 18.6722C79.3541 19.2856 79.512 19.864 79.8277 20.4248C80.1429 20.9857 80.5637 21.4239 81.0896 21.7218C81.6155 22.0373 82.176 22.1951 82.7899 22.1951C83.4032 22.1951 83.9813 22.0373 84.5248 21.7393C85.0683 21.4414 85.4885 21.0208 85.7867 20.495C86.0848 19.9692 86.2251 19.3733 86.2251 18.7248C86.2251 17.7257 85.8917 16.8845 85.2256 16.2184C84.56 15.5524 83.7712 15.1844 82.8069 15.1844Z" fill="#1F2272"/>
<path d="M94.1285 15.2718L93.4101 16.0079C92.8138 15.4295 92.2357 15.1316 91.657 15.1316C91.289 15.1316 90.9914 15.2543 90.7285 15.4821C90.4656 15.7275 90.3429 16.0079 90.3429 16.3234C90.3429 16.6038 90.448 16.8668 90.6581 17.1296C90.8688 17.3926 91.3242 17.6905 92.008 18.0411C92.8314 18.4792 93.4101 18.8823 93.7077 19.2854C94.0058 19.6886 94.1461 20.1443 94.1461 20.6525C94.1461 21.3711 93.9008 21.967 93.3925 22.4578C92.8842 22.9485 92.2709 23.1939 91.5173 23.1939C91.009 23.1939 90.5354 23.0887 90.08 22.8609C89.624 22.6331 89.256 22.3351 88.9584 21.967L89.6592 21.1783C90.2202 21.8268 90.8336 22.1423 91.4645 22.1423C91.92 22.1423 92.2885 22.0021 92.6037 21.7042C92.9194 21.4237 93.0768 21.0732 93.0768 20.6876C93.0768 20.3721 92.9717 20.0917 92.7616 19.8288C92.5509 19.5834 92.0778 19.2679 91.3594 18.8998C90.5706 18.4967 90.0448 18.0936 89.7642 17.708C89.4842 17.3224 89.344 16.8668 89.344 16.3585C89.344 15.6925 89.5717 15.1491 90.0096 14.711C90.4656 14.2728 91.0261 14.0625 91.7098 14.0625C92.5162 14.0975 93.3221 14.5006 94.1285 15.2718Z" fill="#1F2272"/>
<path d="M96.495 10.75C96.7403 10.75 96.968 10.8376 97.1435 11.0129C97.3184 11.1882 97.4059 11.416 97.4059 11.6614C97.4059 11.9068 97.3184 12.1346 97.1435 12.3099C96.968 12.4851 96.7403 12.5728 96.495 12.5728C96.2496 12.5728 96.039 12.4851 95.8464 12.3099C95.671 12.1346 95.5835 11.9068 95.5835 11.6614C95.5835 11.3985 95.671 11.1882 95.8464 11.0129C96.0214 10.8552 96.2496 10.75 96.495 10.75ZM95.9339 14.3255H97.0555V23.0012H95.9339V14.3255Z" fill="#1F2272"/>
<path d="M99.3696 14.3256H100.491V15.8854C100.929 15.2895 101.437 14.8513 101.981 14.5534C102.524 14.2554 103.12 14.1152 103.751 14.1152C104.4 14.1152 104.978 14.273 105.469 14.606C105.977 14.939 106.345 15.3772 106.573 15.938C106.818 16.4989 106.923 17.3577 106.923 18.5495V23.0188H105.802V18.865C105.802 17.866 105.766 17.1999 105.679 16.8669C105.556 16.2886 105.293 15.8679 104.943 15.57C104.593 15.272 104.102 15.1318 103.506 15.1318C102.839 15.1318 102.226 15.3596 101.7 15.7978C101.174 16.236 100.806 16.7968 100.649 17.4629C100.543 17.901 100.491 18.6722 100.491 19.8289V23.0013H99.3696V14.3256Z" fill="#1F2272"/>
<path d="M113.426 14.0977C114.758 14.0977 115.862 14.5884 116.738 15.5524C117.544 16.4287 117.93 17.4803 117.93 18.6897C117.93 19.899 117.509 20.9506 116.668 21.862C115.827 22.7734 114.74 23.2291 113.408 23.2291C112.076 23.2291 110.989 22.7734 110.148 21.862C109.307 20.9506 108.886 19.899 108.886 18.6897C108.886 17.4979 109.289 16.4462 110.078 15.5699C110.972 14.5884 112.093 14.0977 113.426 14.0977ZM113.426 15.2019C112.496 15.2019 111.708 15.5524 111.042 16.2359C110.376 16.9195 110.043 17.7433 110.043 18.7247C110.043 19.3557 110.2 19.9341 110.499 20.4774C110.797 21.0207 111.217 21.4414 111.725 21.7393C112.234 22.0373 112.812 22.1775 113.426 22.1775C114.039 22.1775 114.618 22.0373 115.126 21.7393C115.634 21.4414 116.054 21.0207 116.352 20.4774C116.651 19.9341 116.808 19.3557 116.808 18.7247C116.808 17.7607 116.475 16.9195 115.809 16.2359C115.143 15.5349 114.337 15.2019 113.426 15.2019Z" fill="#1F2272"/>
<path d="M118.964 16.7793L118.596 16.569C118.719 16.3236 118.806 16.1308 118.842 15.9906C118.876 15.8504 118.912 15.6751 118.929 15.4473H118.508V14.1152H119.385V14.939C119.385 15.3596 119.35 15.6751 119.297 15.9205C119.227 16.1834 119.122 16.4463 118.964 16.7793Z" fill="#1F2272"/>
<path d="M125.011 15.2718L124.292 16.0079C123.696 15.4295 123.118 15.1316 122.54 15.1316C122.172 15.1316 121.874 15.2543 121.611 15.4821C121.348 15.7275 121.226 16.0079 121.226 16.3234C121.226 16.6038 121.331 16.8668 121.541 17.1296C121.751 17.3926 122.207 17.6905 122.89 18.0411C123.714 18.4792 124.293 18.8823 124.59 19.2854C124.888 19.6886 125.029 20.1443 125.029 20.6525C125.029 21.3711 124.783 21.967 124.275 22.4578C123.767 22.9485 123.153 23.1939 122.399 23.1939C121.891 23.1939 121.418 23.0887 120.963 22.8609C120.507 22.6331 120.139 22.3351 119.84 21.967L120.542 21.1783C121.103 21.8268 121.716 22.1423 122.347 22.1423C122.803 22.1423 123.171 22.0021 123.486 21.7042C123.802 21.4237 123.959 21.0732 123.959 20.6876C123.959 20.3721 123.854 20.0917 123.644 19.8288C123.434 19.5834 122.96 19.2679 122.242 18.8998C121.453 18.4967 120.927 18.0936 120.647 17.708C120.366 17.3224 120.226 16.8668 120.226 16.3585C120.226 15.6925 120.454 15.1491 120.892 14.711C121.348 14.2728 121.909 14.0625 122.592 14.0625C123.399 14.0975 124.205 14.5006 125.011 15.2718Z" fill="#1F2272"/>
</svg>
