<svg width="132" height="32" viewBox="0 0 132 32" fill="none" xmlns="http://www.w3.org/2000/svg">
<path d="M9.96312 10C10.3381 10 10.6584 10.1354 10.9241 10.4062C11.1949 10.6771 11.3303 11.0052 11.3303 11.3906C11.3303 11.7708 11.1975 12.0964 10.9319 12.3672C10.6662 12.6328 10.3485 12.7656 9.97875 12.7656C9.59854 12.7656 9.27302 12.6302 9.00219 12.3594C8.73656 12.0833 8.60375 11.75 8.60375 11.3594C8.60375 10.9844 8.73656 10.6641 9.00219 10.3984C9.26781 10.1328 9.58812 10 9.96312 10ZM8.89281 13.5H11.0334V22H8.89281V13.5ZM13.5331 10.5078H16.1269C17.7987 10.5078 19.0409 10.7161 19.8534 11.1328C20.6659 11.5443 21.3352 12.2161 21.8612 13.1484C22.3873 14.0807 22.6503 15.1693 22.6503 16.4141C22.6503 17.2995 22.5019 18.1146 22.205 18.8594C21.9133 19.599 21.5071 20.2135 20.9862 20.7031C20.4706 21.1927 19.9107 21.5312 19.3066 21.7188C18.7024 21.9062 17.6555 22 16.1659 22H13.5331V10.5078ZM15.7128 12.6172V19.8594H16.7284C17.7284 19.8594 18.4524 19.7448 18.9003 19.5156C19.3534 19.2865 19.7232 18.901 20.0097 18.3594C20.2961 17.8177 20.4394 17.151 20.4394 16.3594C20.4394 15.1406 20.0982 14.1953 19.4159 13.5234C18.8014 12.9193 17.8144 12.6172 16.455 12.6172H15.7128ZM33.3297 18.3672H26.4781C26.5771 18.9714 26.8401 19.4531 27.2672 19.8125C27.6995 20.1667 28.249 20.3438 28.9156 20.3438C29.7125 20.3438 30.3974 20.0651 30.9703 19.5078L32.7672 20.3516C32.3193 20.987 31.7828 21.4583 31.1578 21.7656C30.5328 22.0677 29.7906 22.2188 28.9312 22.2188C27.5979 22.2188 26.512 21.7995 25.6734 20.9609C24.8349 20.1172 24.4156 19.0625 24.4156 17.7969C24.4156 16.5 24.8323 15.4245 25.6656 14.5703C26.5042 13.7109 27.5536 13.2812 28.8141 13.2812C30.1526 13.2812 31.2411 13.7109 32.0797 14.5703C32.9182 15.4245 33.3375 16.5547 33.3375 17.9609L33.3297 18.3672ZM31.1891 16.6875C31.0484 16.2135 30.7698 15.8281 30.3531 15.5312C29.9417 15.2344 29.4625 15.0859 28.9156 15.0859C28.3219 15.0859 27.801 15.2526 27.3531 15.5859C27.0719 15.7943 26.8115 16.1615 26.5719 16.6875H31.1891ZM41.6653 13.5H43.7903V22H41.6653V21.1016C41.2486 21.4974 40.8294 21.7839 40.4075 21.9609C39.9908 22.1328 39.5377 22.2188 39.0481 22.2188C37.9492 22.2188 36.9986 21.7943 36.1966 20.9453C35.3945 20.0911 34.9934 19.0312 34.9934 17.7656C34.9934 16.4531 35.3815 15.3776 36.1575 14.5391C36.9335 13.7005 37.8762 13.2812 38.9856 13.2812C39.496 13.2812 39.9752 13.3776 40.4231 13.5703C40.871 13.763 41.2851 14.0521 41.6653 14.4375V13.5ZM39.4231 15.25C38.7617 15.25 38.2122 15.4844 37.7747 15.9531C37.3372 16.4167 37.1184 17.013 37.1184 17.7422C37.1184 18.4766 37.3398 19.0807 37.7825 19.5547C38.2304 20.0286 38.7799 20.2656 39.4309 20.2656C40.1028 20.2656 40.6601 20.0339 41.1028 19.5703C41.5455 19.1016 41.7669 18.4896 41.7669 17.7344C41.7669 16.9948 41.5455 16.3958 41.1028 15.9375C40.6601 15.4792 40.1002 15.25 39.4231 15.25ZM46.04 10.2188H48.1728V22H46.04V10.2188ZM58.9459 18.3672H52.0944C52.1933 18.9714 52.4564 19.4531 52.8834 19.8125C53.3157 20.1667 53.8652 20.3438 54.5319 20.3438C55.3287 20.3438 56.0136 20.0651 56.5866 19.5078L58.3834 20.3516C57.9355 20.987 57.3991 21.4583 56.7741 21.7656C56.1491 22.0677 55.4069 22.2188 54.5475 22.2188C53.2142 22.2188 52.1282 21.7995 51.2897 20.9609C50.4511 20.1172 50.0319 19.0625 50.0319 17.7969C50.0319 16.5 50.4485 15.4245 51.2819 14.5703C52.1204 13.7109 53.1699 13.2812 54.4303 13.2812C55.7689 13.2812 56.8574 13.7109 57.6959 14.5703C58.5345 15.4245 58.9537 16.5547 58.9537 17.9609L58.9459 18.3672ZM56.8053 16.6875C56.6647 16.2135 56.386 15.8281 55.9694 15.5312C55.5579 15.2344 55.0787 15.0859 54.5319 15.0859C53.9381 15.0859 53.4173 15.2526 52.9694 15.5859C52.6881 15.7943 52.4277 16.1615 52.1881 16.6875H56.8053ZM72.0237 12.6406L71.1175 13.3359C70.6175 12.6849 70.0159 12.1927 69.3128 11.8594C68.6149 11.5208 67.8467 11.3516 67.0081 11.3516C66.0915 11.3516 65.2425 11.5729 64.4612 12.0156C63.68 12.4531 63.0732 13.0443 62.6409 13.7891C62.2139 14.5286 62.0003 15.362 62.0003 16.2891C62.0003 17.6901 62.4795 18.8594 63.4378 19.7969C64.4014 20.7344 65.6149 21.2031 67.0784 21.2031C68.6878 21.2031 70.0342 20.5729 71.1175 19.3125L72.0237 20C71.4508 20.7292 70.7347 21.2943 69.8753 21.6953C69.0211 22.0911 68.0654 22.2891 67.0081 22.2891C64.9977 22.2891 63.4118 21.6198 62.2503 20.2812C61.2764 19.151 60.7894 17.7865 60.7894 16.1875C60.7894 14.5052 61.3779 13.0911 62.555 11.9453C63.7373 10.7943 65.2165 10.2188 66.9925 10.2188C68.0654 10.2188 69.0342 10.4323 69.8987 10.8594C70.7633 11.2812 71.4717 11.875 72.0237 12.6406ZM82.9453 13.5V22H81.8672V20.5391C81.4089 21.0964 80.8932 21.5156 80.3203 21.7969C79.7526 22.0781 79.1302 22.2188 78.4531 22.2188C77.25 22.2188 76.2214 21.7839 75.3672 20.9141C74.5182 20.0391 74.0938 18.9766 74.0938 17.7266C74.0938 16.5026 74.5234 15.4557 75.3828 14.5859C76.2422 13.7161 77.276 13.2812 78.4844 13.2812C79.1823 13.2812 79.8125 13.4297 80.375 13.7266C80.9427 14.0234 81.4401 14.4688 81.8672 15.0625V13.5H82.9453ZM78.5703 14.3359C77.9609 14.3359 77.3984 14.487 76.8828 14.7891C76.3672 15.0859 75.9557 15.5052 75.6484 16.0469C75.3464 16.5885 75.1953 17.1615 75.1953 17.7656C75.1953 18.3646 75.349 18.9375 75.6562 19.4844C75.9635 20.0312 76.375 20.4583 76.8906 20.7656C77.4115 21.0677 77.9688 21.2188 78.5625 21.2188C79.1615 21.2188 79.7292 21.0677 80.2656 20.7656C80.8021 20.4635 81.2135 20.0547 81.5 19.5391C81.7917 19.0234 81.9375 18.4427 81.9375 17.7969C81.9375 16.8125 81.612 15.9896 80.9609 15.3281C80.3151 14.6667 79.5182 14.3359 78.5703 14.3359ZM90.0075 14.4297L89.3044 15.1562C88.721 14.5885 88.1507 14.3047 87.5934 14.3047C87.2393 14.3047 86.9346 14.4219 86.6794 14.6562C86.4294 14.8906 86.3044 15.1641 86.3044 15.4766C86.3044 15.7526 86.4085 16.0156 86.6169 16.2656C86.8252 16.5208 87.2627 16.8203 87.9294 17.1641C88.7419 17.5859 89.294 17.9922 89.5856 18.3828C89.8721 18.7786 90.0153 19.224 90.0153 19.7188C90.0153 20.4167 89.7705 21.0078 89.2809 21.4922C88.7913 21.9766 88.1794 22.2188 87.445 22.2188C86.9554 22.2188 86.4867 22.112 86.0387 21.8984C85.596 21.6849 85.2288 21.3906 84.9372 21.0156L85.6247 20.2344C86.182 20.8646 86.7731 21.1797 87.3981 21.1797C87.8356 21.1797 88.208 21.0391 88.5153 20.7578C88.8226 20.4766 88.9762 20.1458 88.9762 19.7656C88.9762 19.4531 88.8747 19.1745 88.6716 18.9297C88.4684 18.6901 88.0101 18.388 87.2966 18.0234C86.5309 17.6276 86.0101 17.237 85.7341 16.8516C85.458 16.4661 85.32 16.026 85.32 15.5312C85.32 14.8854 85.5387 14.349 85.9762 13.9219C86.419 13.4948 86.9762 13.2812 87.6481 13.2812C88.4294 13.2812 89.2158 13.6641 90.0075 14.4297ZM92.6556 10C92.9056 10 93.1192 10.0885 93.2962 10.2656C93.4733 10.4427 93.5619 10.6562 93.5619 10.9062C93.5619 11.151 93.4733 11.362 93.2962 11.5391C93.1192 11.7161 92.9056 11.8047 92.6556 11.8047C92.4108 11.8047 92.1999 11.7161 92.0228 11.5391C91.8457 11.362 91.7572 11.151 91.7572 10.9062C91.7572 10.6562 91.8457 10.4427 92.0228 10.2656C92.1999 10.0885 92.4108 10 92.6556 10ZM92.1087 13.5H93.2103V22H92.1087V13.5ZM95.7959 13.5H96.8897V15.0234C97.3272 14.4401 97.8116 14.0052 98.3428 13.7188C98.8741 13.4271 99.4522 13.2812 100.077 13.2812C100.713 13.2812 101.275 13.4427 101.765 13.7656C102.259 14.0885 102.624 14.5234 102.858 15.0703C103.093 15.6172 103.21 16.4688 103.21 17.625V22H102.124V17.9453C102.124 16.9661 102.082 16.3125 101.999 15.9844C101.869 15.4219 101.624 15 101.265 14.7188C100.905 14.4323 100.437 14.2891 99.8584 14.2891C99.197 14.2891 98.6032 14.5078 98.0772 14.9453C97.5563 15.3828 97.2126 15.9245 97.0459 16.5703C96.9418 16.9922 96.8897 17.763 96.8897 18.8828V22H95.7959V13.5ZM109.905 13.2812C111.212 13.2812 112.296 13.7552 113.155 14.7031C113.936 15.5677 114.327 16.5911 114.327 17.7734C114.327 18.9609 113.913 20 113.085 20.8906C112.262 21.776 111.202 22.2188 109.905 22.2188C108.603 22.2188 107.538 21.776 106.71 20.8906C105.887 20 105.475 18.9609 105.475 17.7734C105.475 16.5964 105.866 15.5755 106.647 14.7109C107.507 13.7578 108.592 13.2812 109.905 13.2812ZM109.905 14.3516C108.999 14.3516 108.22 14.6875 107.569 15.3594C106.918 16.0312 106.592 16.8438 106.592 17.7969C106.592 18.4115 106.741 18.9844 107.038 19.5156C107.335 20.0469 107.736 20.4583 108.241 20.75C108.746 21.0365 109.301 21.1797 109.905 21.1797C110.509 21.1797 111.064 21.0365 111.569 20.75C112.074 20.4583 112.475 20.0469 112.772 19.5156C113.069 18.9844 113.217 18.4115 113.217 17.7969C113.217 16.8438 112.889 16.0312 112.233 15.3594C111.582 14.6875 110.806 14.3516 109.905 14.3516ZM116.338 14.5078L115.737 14.1641C115.934 13.7682 116.067 13.4583 116.135 13.2344C116.203 13.0104 116.252 12.7214 116.283 12.3672H115.596V10.2188H117.01V11.5625C117.01 12.2344 116.963 12.763 116.869 13.1484C116.781 13.5286 116.604 13.9818 116.338 14.5078ZM123.224 14.4297L122.521 15.1562C121.938 14.5885 121.368 14.3047 120.81 14.3047C120.456 14.3047 120.151 14.4219 119.896 14.6562C119.646 14.8906 119.521 15.1641 119.521 15.4766C119.521 15.7526 119.625 16.0156 119.834 16.2656C120.042 16.5208 120.48 16.8203 121.146 17.1641C121.959 17.5859 122.511 17.9922 122.803 18.3828C123.089 18.7786 123.232 19.224 123.232 19.7188C123.232 20.4167 122.987 21.0078 122.498 21.4922C122.008 21.9766 121.396 22.2188 120.662 22.2188C120.172 22.2188 119.704 22.112 119.256 21.8984C118.813 21.6849 118.446 21.3906 118.154 21.0156L118.842 20.2344C119.399 20.8646 119.99 21.1797 120.615 21.1797C121.053 21.1797 121.425 21.0391 121.732 20.7578C122.039 20.4766 122.193 20.1458 122.193 19.7656C122.193 19.4531 122.092 19.1745 121.888 18.9297C121.685 18.6901 121.227 18.388 120.513 18.0234C119.748 17.6276 119.227 17.237 118.951 16.8516C118.675 16.4661 118.537 16.026 118.537 15.5312C118.537 14.8854 118.756 14.349 119.193 13.9219C119.636 13.4948 120.193 13.2812 120.865 13.2812C121.646 13.2812 122.433 13.6641 123.224 14.4297Z" fill="#4B50C8"/>
<rect x="0.5" y="0.5" width="131" height="31" rx="3.5" stroke="#4B50C8"/>
</svg>
