<svg width="36" height="24" viewBox="0 0 36 24" fill="none" xmlns="http://www.w3.org/2000/svg">
<rect width="36" height="24" rx="3" fill="#262626"/>
<path d="M21.8575 4.80005C20.971 4.80005 20.0933 4.98628 19.2743 5.34812C18.4554 5.70996 17.7113 6.24031 17.0845 6.90889C16.4577 7.57748 15.9605 8.37121 15.6212 9.24476C15.282 10.1183 15.1074 11.0546 15.1074 12.0001C15.1074 12.9456 15.282 13.8819 15.6212 14.7554C15.9605 15.629 16.4577 16.4227 17.0845 17.0913C17.7113 17.7599 18.4554 18.2902 19.2743 18.6521C20.0933 19.0139 20.971 19.2001 21.8575 19.2001C22.7439 19.2001 23.6216 19.0139 24.4406 18.6521C25.2596 18.2902 26.0037 17.7599 26.6305 17.0913C27.2573 16.4227 27.7545 15.629 28.0937 14.7554C28.4329 13.8819 28.6075 12.9456 28.6075 12.0001C28.6075 11.0546 28.4329 10.1183 28.0937 9.24476C27.7545 8.37121 27.2573 7.57748 26.6305 6.90889C26.0037 6.24031 25.2596 5.70996 24.4406 5.34812C23.6216 4.98628 22.7439 4.80005 21.8575 4.80005Z" fill="#FF9800"/>
<path d="M14.1432 4.80005C13.2567 4.80005 12.379 4.98628 11.56 5.34812C10.7411 5.70996 9.99697 6.24031 9.37017 6.90889C8.74337 7.57748 8.24617 8.37121 7.90694 9.24476C7.56772 10.1183 7.39313 11.0546 7.39313 12.0001C7.39313 12.9456 7.56772 13.8819 7.90694 14.7554C8.24617 15.629 8.74337 16.4227 9.37017 17.0913C9.99697 17.7599 10.7411 18.2902 11.56 18.6521C12.379 19.0139 13.2567 19.2001 14.1432 19.2001C15.0296 19.2001 15.9074 19.0139 16.7263 18.6521C17.5453 18.2902 18.2894 17.7599 18.9162 17.0913C19.543 16.4227 20.0402 15.629 20.3794 14.7554C20.7186 13.8819 20.8932 12.9456 20.8932 12.0001C20.8932 11.0546 20.7186 10.1183 20.3794 9.24476C20.0402 8.37121 19.543 7.57748 18.9162 6.90889C18.2894 6.24031 17.5453 5.70996 16.7263 5.34812C15.9074 4.98628 15.0296 4.80005 14.1432 4.80005Z" fill="#D50000"/>
<path d="M15.1074 12C15.1074 14.4454 16.253 16.6029 18.0003 17.904C19.7476 16.6029 20.8932 14.4454 20.8932 12C20.8932 9.55454 19.7476 7.3971 18.0003 6.09595C16.253 7.3971 15.1074 9.55454 15.1074 12Z" fill="#FF3D00"/>
</svg>
