<svg width="36" height="24" viewBox="0 0 36 24" fill="none" xmlns="http://www.w3.org/2000/svg">
<rect width="36" height="24" rx="4" fill="#00579F"/>
<path d="M16.2726 15.7371H14.2927L15.5184 7.40845H17.4983L16.2726 15.7371Z" fill="white"/>
<path d="M23.4392 7.56227C23.0621 7.40804 22.4493 7.20239 21.6479 7.20239C19.7151 7.20239 18.3009 8.33345 18.3009 9.97862C18.3009 11.1611 19.2908 11.8294 20.0451 12.2407C20.7993 12.652 21.0822 12.9091 21.0822 13.269C21.0822 13.8345 20.4693 14.0915 19.9036 14.0915C19.1022 14.0915 18.678 13.9373 18.0651 13.6288L17.7823 13.4746L17.4995 15.3254C17.9709 15.5311 18.8194 15.7367 19.7151 15.7881C21.7893 15.7881 23.1564 14.6571 23.1564 12.9605C23.1564 12.0351 22.6378 11.2639 21.5064 10.6984C20.7993 10.3385 20.3751 10.0814 20.3751 9.67015C20.3751 9.31027 20.7522 8.95039 21.5064 8.95039C22.1664 8.95039 22.6378 9.10462 22.9678 9.25886L23.1564 9.36168L23.4392 7.56227Z" fill="white"/>
<path d="M26.0773 12.7552C26.2187 12.2925 26.8787 10.4417 26.8787 10.4417C26.8787 10.4417 27.0201 9.92761 27.1615 9.61915L27.303 10.3389C27.303 10.3389 27.6801 12.344 27.7744 12.7552C27.3972 12.7552 26.4544 12.7552 26.0773 12.7552ZM28.4815 7.40845H26.973C26.5016 7.40845 26.1244 7.56268 25.9359 8.0768L23.0131 15.7371H25.0873C25.0873 15.7371 25.4173 14.7089 25.5116 14.5032C25.7473 14.5032 27.7744 14.5032 28.0572 14.5032C28.1044 14.8117 28.2929 15.7371 28.2929 15.7371H30.1314L28.4815 7.40845Z" fill="white"/>
<path d="M12.5958 7.40845L10.663 13.1151L10.4744 11.9841C10.0973 10.596 8.96591 9.15644 7.74023 8.43668L9.5316 15.7371H11.6058L14.7171 7.40845H12.5958Z" fill="white"/>
<path d="M8.87188 7.40845H5.66628L5.61914 7.56268C8.11762 8.23103 9.76757 9.92761 10.4275 11.9327L9.72043 8.0768C9.67328 7.56268 9.29616 7.40845 8.87188 7.40845Z" fill="#FAA61A"/>
</svg>
