<svg width="30" height="30" viewBox="0 0 30 30" fill="none" xmlns="http://www.w3.org/2000/svg">
<path d="M15 0.279785C6.88291 0.279785 0.280029 6.88267 0.280029 14.9998C0.280029 23.1169 6.88291 29.7198 15 29.7198C23.1171 29.7198 29.72 24.8231 29.72 14.9998C29.72 6.88267 23.1171 0.279785 15 0.279785ZM14.89 9.87978C17.7924 9.87978 17.9563 11.9607 17.9563 12.4535C17.9563 13.7131 16.9709 14.3697 16.5875 14.5335C17.1898 14.698 18.395 15.3 18.395 17.0523C18.395 19.6257 16.0406 20.1185 15.055 20.1185C12.4816 20.1185 11.605 18.4756 11.605 17.0523C11.605 15.355 12.8097 14.7524 13.3575 14.5335C12.9198 14.3691 11.9338 13.7131 11.9338 12.4535C11.9338 11.523 12.5899 9.87978 14.89 9.87978ZM8.92003 10.0398H9.88003V19.9598H8.60003V12.9198L6.04003 12.9135V11.9273C7.57539 11.8722 8.64611 11.5745 8.92003 10.0398ZM14.945 10.9748C13.3021 10.9748 13.1938 12.289 13.1938 12.5085C13.1931 12.7825 13.3027 14.151 15 14.151C16.369 14.151 16.6425 13.0564 16.6425 12.5085C16.6425 12.0157 16.4234 10.9748 14.945 10.9748ZM22.04 12.4398H23.32V14.3598H25.24V15.6398H23.32V17.5598H22.04V15.6398H20.12V14.3598H22.04V12.4398ZM15 15.191C13.4122 15.191 12.8638 16.2868 12.8638 17.1085C12.8638 18.5325 13.9594 19.0785 15 19.0785C16.369 19.0785 17.0813 18.0391 17.0813 17.1085C17.0813 16.6708 16.6429 15.191 15 15.191Z" fill="white"/>
</svg>
