<svg width="32" height="22" viewBox="0 0 32 22" fill="none" xmlns="http://www.w3.org/2000/svg">
<rect y="0.75" width="32" height="21" rx="3" fill="#FF9800"/>
<path d="M13.3438 4.94995V6.4323H12V16.0676H13.3438V17.55H14.6877V16.0676H16.0315V17.55H17.3753V15.9981C17.5538 15.9721 17.748 15.9605 17.9213 15.9286C18.3255 15.781 18.6562 15.6188 18.9921 15.3959C19.2598 15.173 19.5249 14.8863 19.727 14.5158C19.9291 14.1452 20 13.7601 20 13.2419C20 12.6483 19.7848 12.1359 19.5171 11.69C19.1811 11.2442 18.7769 10.9575 18.1732 10.8099C18.643 10.5869 18.979 10.2945 19.1811 9.99922C19.3832 9.7039 19.5171 9.31305 19.5171 8.7948C19.5171 8.34894 19.4619 7.97835 19.3281 7.68304C19.1942 7.38773 18.9869 7.08952 18.7192 6.94186C18.4514 6.79421 18.1785 6.64655 17.7743 6.57127C17.643 6.54811 17.5092 6.52495 17.3753 6.50179V4.94995H16.0315V6.4323H14.6877V4.94995H13.3438ZM14.0157 7.91466H15.9685C16.1706 7.91466 16.3596 7.90887 16.4934 7.98414C16.6955 7.98414 16.8425 8.071 16.9764 8.14627C17.1102 8.22155 17.2441 8.27656 17.3123 8.42422C17.3806 8.57187 17.4383 8.734 17.4383 8.95694C17.4383 9.4028 17.3701 9.68943 17.1024 9.83708C16.8346 10.06 16.5617 10.1382 16.1575 10.1382H14.0157V7.91466ZM14.0157 11.6205H16.3675C16.8373 11.6205 17.2493 11.7682 17.5853 11.9911C17.9213 12.2141 18.0472 12.6541 18.0472 13.1724C18.0472 13.3953 17.9895 13.6964 17.9213 13.8441C17.7874 14.067 17.6352 14.2089 17.5013 14.2841C17.3675 14.3594 17.1785 14.4405 16.9764 14.5158C16.7743 14.591 16.5066 14.5852 16.3045 14.5852H14.0157V11.6205Z" fill="#262626"/>
</svg>
