<svg width="24" height="24" viewBox="0 0 24 24" fill="none" xmlns="http://www.w3.org/2000/svg">
<g clip-path="url(#clip0_3337_34902)">
<g clip-path="url(#clip1_3337_34902)">
<rect x="0.5" y="0.5" width="23" height="23" rx="11.5" fill="#58C27D" stroke="#58C27D"/>
</g>
<path d="M9.49141 16.4279L9.49143 16.4279C9.62597 16.5692 9.81003 16.65 10.0036 16.65C10.1972 16.65 10.3812 16.5692 10.5158 16.4279L10.5158 16.4279L17.935 8.6338C18.0382 8.52815 18.1078 8.39319 18.136 8.24693C18.1642 8.10032 18.1497 7.94809 18.094 7.8099C18.0383 7.67165 17.9437 7.55306 17.8213 7.47058C17.6988 7.38802 17.5546 7.34578 17.4077 7.35033L17.4077 7.35033C17.2184 7.35626 17.0404 7.4392 16.9106 7.57911L10.0036 14.8351L7.09222 11.7766C7.02642 11.7049 6.94732 11.6472 6.8593 11.6073C6.77076 11.5671 6.67519 11.5457 6.57823 11.5447C6.48127 11.5436 6.38527 11.5629 6.29594 11.6013C6.20662 11.6396 6.12598 11.696 6.05854 11.7668C5.99112 11.8377 5.9382 11.9215 5.90253 12.0133C5.86687 12.1051 5.84908 12.2031 5.85004 12.3018C5.85099 12.4006 5.87068 12.4983 5.90813 12.5893C5.94537 12.6798 5.99954 12.7621 6.06783 12.8313L9.49141 16.4279Z" fill="white" stroke="#58C27D" stroke-width="0.3"/>
</g>
<defs>
<clipPath id="clip0_3337_34902">
<rect width="24" height="24" fill="white"/>
</clipPath>
<clipPath id="clip1_3337_34902">
<rect width="24" height="24" fill="white"/>
</clipPath>
</defs>
</svg>
