<svg width="12" height="13" viewBox="0 0 12 13" fill="none" xmlns="http://www.w3.org/2000/svg">
<g clip-path="url(#clip0_3387_29066)">
<g clip-path="url(#clip1_3387_29066)">
<rect y="0.75" width="12" height="12" rx="6" fill="#FFD1DF"/>
</g>
<path d="M8.70153 4.3502L8.70148 4.3502C8.5864 4.35381 8.47876 4.40418 8.40065 4.48818L5.0018 8.05876L3.60087 6.58705C3.56138 6.54417 3.5138 6.50947 3.46066 6.48534C3.40698 6.46097 3.34891 6.44797 3.28992 6.44734C3.23092 6.44671 3.17259 6.45846 3.1184 6.4817C3.06424 6.50493 3.01554 6.53907 2.97495 6.58171C2.93437 6.62434 2.90267 6.67464 2.88136 6.72948C2.86005 6.78431 2.84945 6.84282 2.85002 6.90165C2.85059 6.96047 2.86232 7.01877 2.8847 7.07317C2.90688 7.12706 2.93916 7.17629 2.98003 7.21783L4.69138 9.01565L4.6914 9.01567C4.77242 9.10074 4.8839 9.15 5.0018 9.15C5.1197 9.15 5.23118 9.10074 5.3122 9.01567L5.31222 9.01565L9.02152 5.11893C9.0834 5.0554 9.12487 4.97468 9.14163 4.88765C9.15846 4.80026 9.14982 4.70948 9.11657 4.62692C9.08329 4.54431 9.02653 4.47296 8.95256 4.4231C8.87849 4.37317 8.79096 4.34743 8.70153 4.3502Z" fill="#FF1A5E" stroke="#FF1A5E" stroke-width="0.3"/>
</g>
<defs>
<clipPath id="clip0_3387_29066">
<rect width="12" height="12" fill="white" transform="translate(0 0.75)"/>
</clipPath>
<clipPath id="clip1_3387_29066">
<rect width="12" height="12" fill="white" transform="translate(0 0.75)"/>
</clipPath>
</defs>
</svg>
