<svg width="14" height="15" viewBox="0 0 14 15" fill="none" xmlns="http://www.w3.org/2000/svg">
<path d="M6.99992 0.680908C3.31792 0.680908 0.333252 3.66557 0.333252 7.34757C0.333252 11.0296 3.31792 14.0142 6.99992 14.0142C10.6819 14.0142 13.6666 11.0296 13.6666 7.34757C13.6666 3.66557 10.6819 0.680908 6.99992 0.680908ZM8.99992 8.01424H7.66658V9.34757C7.66658 9.71557 7.36792 10.0142 6.99992 10.0142C6.63192 10.0142 6.33325 9.71557 6.33325 9.34757V8.01424H4.99992C4.63192 8.01424 4.33325 7.71557 4.33325 7.34757C4.33325 6.97957 4.63192 6.68091 4.99992 6.68091H6.33325V5.34757C6.33325 4.97957 6.63192 4.68091 6.99992 4.68091C7.36792 4.68091 7.66658 4.97957 7.66658 5.34757V6.68091H8.99992C9.36792 6.68091 9.66658 6.97957 9.66658 7.34757C9.66658 7.71557 9.36792 8.01424 8.99992 8.01424Z" fill="#1AB379"/>
</svg>
