<svg width="18" height="18" viewBox="0 0 18 18" fill="none" xmlns="http://www.w3.org/2000/svg">
<path d="M6.60642 0.808594C6.35467 0.808594 6.11324 0.9086 5.93522 1.08661C5.75721 1.26463 5.6572 1.50606 5.6572 1.75781C5.6572 2.00956 5.75721 2.251 5.93522 2.42901C6.11324 2.60702 6.35467 2.70703 6.60642 2.70703H11.2953C11.1569 1.65234 10.2417 0.808594 9.13671 0.808594H6.60642ZM5.1175 1.50822C4.70874 1.81791 4.37693 2.21773 4.14788 2.67657C3.91883 3.1354 3.79871 3.6409 3.79688 4.15372V4.18009C4.25391 4.17858 5.18481 4.05529 6.0293 3.15308C5.71333 3.02291 5.45099 2.78922 5.28531 2.49034C5.11964 2.19146 5.06046 1.84515 5.1175 1.50822ZM6.67172 3.26953C5.64052 4.57031 4.39453 4.73906 3.79688 4.7417V6.60986C3.7966 7.50116 4.14629 8.35694 4.77068 8.993C5.40103 9.64036 6.23581 9.99687 7.11605 9.99687C7.99629 9.99687 8.83111 9.64036 9.46149 8.993C10.0876 8.35755 10.4394 7.50189 10.4414 6.60986V3.26953H6.67172ZM8.03389 5.62775C8.10848 5.62775 8.18002 5.65738 8.23276 5.71012C8.28551 5.76287 8.31514 5.8344 8.31514 5.909C8.3165 5.99635 8.35216 6.07966 8.41442 6.14095C8.47667 6.20223 8.56053 6.23659 8.64789 6.23659C8.73525 6.23659 8.81911 6.20223 8.88136 6.14095C8.94361 6.07966 8.97927 5.99635 8.98064 5.909C8.98064 5.8344 9.01027 5.76287 9.06301 5.71012C9.11576 5.65738 9.18729 5.62775 9.26189 5.62775C9.33648 5.62775 9.40802 5.65738 9.46076 5.71012C9.5135 5.76287 9.54314 5.8344 9.54314 5.909C9.54089 6.14495 9.44558 6.37048 9.27793 6.53654C9.11028 6.7026 8.88386 6.79576 8.64789 6.79576C8.41192 6.79576 8.18549 6.7026 8.01785 6.53654C7.8502 6.37048 7.75489 6.14495 7.75264 5.909C7.75264 5.8344 7.78227 5.76287 7.83502 5.71012C7.88776 5.65738 7.9593 5.62775 8.03389 5.62775ZM4.97193 5.62788C5.04507 5.63001 5.11451 5.66056 5.1655 5.71304C5.21648 5.76553 5.24501 5.83582 5.24501 5.909C5.24638 5.99634 5.28204 6.07965 5.34429 6.14094C5.40654 6.20223 5.4904 6.23658 5.57776 6.23658C5.66512 6.23658 5.74897 6.20223 5.81123 6.14094C5.87348 6.07965 5.90914 5.99634 5.91051 5.909C5.91051 5.8344 5.94014 5.76287 5.99288 5.71012C6.04563 5.65738 6.11717 5.62775 6.19176 5.62775C6.26635 5.62775 6.33789 5.65738 6.39063 5.71012C6.44338 5.76287 6.47301 5.8344 6.47301 5.909C6.47268 6.14633 6.37825 6.37385 6.21043 6.54167C6.04261 6.70949 5.81509 6.80392 5.57776 6.80424C5.34041 6.80397 5.11286 6.70957 4.94502 6.54173C4.77719 6.3739 4.68278 6.14635 4.68251 5.909C4.68251 5.87138 4.69006 5.83414 4.70471 5.79949C4.71936 5.76484 4.74082 5.73348 4.7678 5.70727C4.79479 5.68106 4.82676 5.66052 4.86182 5.64689C4.89689 5.63325 4.93433 5.62679 4.97193 5.62788ZM3.23438 5.71729C3.09375 5.80243 3.02694 5.94581 3.02694 6.10819C3.02568 6.18333 3.04418 6.25749 3.08058 6.32324C3.11699 6.38898 3.17002 6.44402 3.23438 6.48283V5.71729ZM11.0039 5.73438V6.48207C11.0613 6.43811 11.1078 6.38152 11.1398 6.31669C11.1718 6.25186 11.1885 6.18053 11.1885 6.10823C11.1885 6.03592 11.1718 5.96459 11.1398 5.89976C11.1078 5.83493 11.0613 5.77834 11.0039 5.73438ZM11.089 9.70312C10.8223 9.70312 10.6172 9.9371 10.6172 10.2038V16.7062C10.6159 16.7692 10.6271 16.8317 10.6502 16.8903C10.6733 16.9489 10.7078 17.0023 10.7517 17.0474C10.7956 17.0926 10.848 17.1285 10.9059 17.1532C10.9638 17.178 11.026 17.1909 11.089 17.1914H11.2164C11.1416 17.0409 11.1048 16.8743 11.1094 16.7062V10.2038C11.1085 10.0312 11.145 9.86034 11.2164 9.70312H11.089ZM12.1437 9.70312C11.8769 9.70312 11.6719 9.9371 11.6719 10.2038V16.7062C11.6706 16.7692 11.6818 16.8317 11.7049 16.8903C11.728 16.9489 11.7625 17.0023 11.8064 17.0474C11.8503 17.0926 11.9027 17.1285 11.9606 17.1532C12.0185 17.178 12.0807 17.1909 12.1437 17.1914H16.198C16.4648 17.1914 16.6992 16.9729 16.6992 16.7062V10.2038C16.6958 10.072 16.6419 9.94658 16.5486 9.8534C16.4553 9.76022 16.3298 9.70643 16.198 9.70312H12.1437ZM15.5338 9.94592C15.7986 9.94625 16.0523 10.0515 16.2395 10.2387C16.4267 10.4259 16.532 10.6797 16.5323 10.9444C16.5323 11.019 16.5027 11.0905 16.4499 11.1432C16.3972 11.196 16.3256 11.2256 16.251 11.2256C16.1765 11.2256 16.1049 11.196 16.0522 11.1432C15.9994 11.0905 15.9698 11.019 15.9698 10.9444C15.9696 10.8288 15.9236 10.718 15.8419 10.6363C15.7602 10.5546 15.6494 10.5086 15.5338 10.5084C15.4593 10.5084 15.3877 10.4788 15.335 10.426C15.2822 10.3733 15.2526 10.3018 15.2526 10.2272C15.2526 10.1526 15.2822 10.081 15.335 10.0283C15.3877 9.97555 15.4593 9.94592 15.5338 9.94592ZM8.82422 10.1466C8.32023 10.4054 7.76396 10.5462 7.19752 10.5584C6.63107 10.5705 6.06929 10.4536 5.55469 10.2165V10.7876L7.14674 11.8343L8.82422 10.7836V10.1466ZM3.49454 11.2148C2.29449 11.2148 1.30078 12.1973 1.30078 13.3973V15.293H6.85547V12.3201L5.1747 11.2148H3.49454ZM9.19157 11.2148L7.41797 12.3241V15.293H10.0547V11.2148H9.19157ZM13.506 11.8892C13.7425 11.8937 13.9733 11.9628 14.1733 12.0889C14.3722 11.9683 14.5993 11.9019 14.8319 11.8964C15.3452 11.8964 15.7481 12.2501 15.8585 12.7976L15.8589 12.7996C15.9993 13.5226 15.5755 14.4812 14.3123 14.993C14.307 14.9952 14.3015 14.9972 14.296 14.999C14.2151 15.028 14.1266 15.028 14.0457 14.999C14.0408 14.9974 14.0359 14.9955 14.0311 14.9937C12.7669 14.4921 12.3424 13.5306 12.4825 12.8002C12.5874 12.247 12.9892 11.8892 13.506 11.8892ZM13.506 12.4518C13.265 12.4518 13.0889 12.6214 13.0349 12.9056C12.9407 13.3969 13.2573 14.0552 14.17 14.4428C15.083 14.0477 15.4004 13.3924 15.3068 12.9078C15.2499 12.6267 15.0724 12.459 14.8319 12.459C14.6847 12.459 14.5085 12.528 14.336 12.6532C14.2874 12.6884 14.2289 12.7072 14.1689 12.7068C14.1089 12.7064 14.0506 12.6869 14.0026 12.651C13.8278 12.5206 13.6561 12.4518 13.506 12.4518ZM12.099 15.6846C12.1721 15.6868 12.2415 15.7173 12.2925 15.7698C12.3435 15.8223 12.372 15.8926 12.372 15.9657C12.3721 16.0813 12.4181 16.1921 12.4998 16.2738C12.5816 16.3556 12.6924 16.4015 12.8079 16.4017C12.8825 16.4017 12.9541 16.4313 13.0068 16.4841C13.0595 16.5368 13.0892 16.6084 13.0892 16.6829C13.0892 16.7575 13.0595 16.8291 13.0068 16.8818C12.9541 16.9346 12.8825 16.9642 12.8079 16.9642C12.5432 16.9639 12.2895 16.8586 12.1023 16.6714C11.9151 16.4842 11.8098 16.2305 11.8095 15.9657C11.8095 15.9281 11.817 15.8909 11.8317 15.8562C11.8463 15.8216 11.8678 15.7902 11.8948 15.764C11.9218 15.7378 11.9538 15.7172 11.9888 15.7036C12.0239 15.69 12.0614 15.6835 12.099 15.6846Z" fill="white"/>
</svg>
