<svg width="92" height="28" viewBox="0 0 92 28" fill="none" xmlns="http://www.w3.org/2000/svg">
<path d="M1.16663 5.8335H26.8333V22.1668H1.16663V5.8335Z" fill="#283593"/>
<path d="M7.58329 16.3335L7.92921 17.4372L8.98621 17.0265L8.36088 17.9925L9.33329 18.5846L8.20688 18.6849L8.36204 19.8335L7.58329 18.9929L6.80454 19.8335L6.95971 18.6849L5.83329 18.5846L6.80571 17.9931L6.18038 17.0271L7.23738 17.4377L7.58329 16.3335ZM20.125 18.0835L20.2982 18.6353L20.8267 18.43L20.514 18.913L21 19.2087L20.437 19.2589L20.5146 19.8335L20.125 19.4135L19.7353 19.8335L19.8129 19.2589L19.25 19.2087L19.7359 18.913L19.4232 18.43L19.9517 18.6353L20.125 18.0835ZM17.1879 12.8247L17.3611 13.3766L17.8896 13.1712L17.577 13.6542L18.0629 13.95L17.5 14.0002L17.5775 14.5747L17.1879 14.1547L16.7982 14.5747L16.8764 14.0002L16.3135 13.95L16.7994 13.6542L16.4867 13.1712L17.0152 13.3766L17.1879 12.8247ZM20.125 9.3335L20.2982 9.88533L20.8267 9.68L20.514 10.163L21 10.4587L20.437 10.5089L20.5146 11.0835L20.125 10.6635L19.7353 11.0835L19.8129 10.5089L19.25 10.4587L19.7359 10.163L19.4232 9.68L19.9517 9.88533L20.125 9.3335ZM23.625 12.2502L23.7982 12.802L24.3267 12.5967L24.014 13.0797L24.5 13.3754L23.937 13.4256L24.0146 14.0002L23.625 13.5802L23.2353 14.0002L23.3129 13.4256L22.75 13.3754L23.2359 13.0797L22.9232 12.5967L23.4517 12.802L23.625 12.2502ZM21.5833 14.5835L21.7437 14.9965L22.1666 15.0292L21.8423 15.3167L21.9438 15.7502L21.5833 15.5151L21.2228 15.7502L21.3243 15.3167L21 15.0292L21.4229 14.9965L21.5833 14.5835ZM1.16663 6.97508L6.68438 10.4208L7.51446 9.03308L2.38813 5.8335H1.16663V6.97508ZM14 5.8335H13.0427L7.91813 9.0325L8.74763 10.4202L14 7.14016V5.8335ZM8.74763 9.19875L7.91813 10.5842L13.388 14.0002H14V12.4782L8.74763 9.19875ZM1.16663 12.6445V14.0002H2.04454L7.51446 10.5847L6.68438 9.19933L1.16663 12.6445ZM14 8.75016H1.16663V11.0835H14V8.75016ZM6.41663 5.8335V14.0002H8.74996V5.8335H6.41663Z" fill="white"/>
<path d="M5.19046 11.0835H6.20779L1.53529 14.0002H1.16663V13.5947L5.19046 11.0835ZM5.53463 8.75016L1.16663 6.0225V6.65833L4.51846 8.75016H5.53463ZM10.2421 11.0835L14 13.4291V12.7944L11.2583 11.0835H10.2421ZM13.552 5.8335L8.88063 8.75016H9.89796L14 6.18875V5.8335H13.552ZM8.16604 5.8335H6.99938V9.3335H1.16663V10.5002H6.99938V14.0002H8.16604V10.5002H14V9.3335H8.16604V5.8335Z" fill="#E53935"/>
<path d="M33.1666 5.25H58.8333V22.75H33.1666V5.25Z" fill="#ECEFF1"/>
<path d="M53 5.25H58.8333V22.75H53V5.25ZM33.1666 5.25H39V22.75H33.1666V5.25ZM45.4166 17.5H46.5833V19.25H45.4166V17.5Z" fill="#FF3D00"/>
<path d="M51.25 15.75L50.0833 15.1667L51.25 13.4167H49.5L49.4761 12.2582L48.128 12.9342L48.3333 9.91667L47.1667 10.5L46.0041 8.75L44.8333 10.5L43.6667 9.91667L43.872 12.9173L42.5233 12.2593C42.5233 12.2593 42.4971 13.4108 42.5 13.4167H40.75L41.9167 15.1667L40.75 15.75L43.0833 16.9167V18.0833C43.0833 18.0833 45.8378 17.9322 46 17.9322C46.1622 17.9322 48.9167 18.0833 48.9167 18.0833V16.9167L51.25 15.75Z" fill="#FF3D00"/>
<path d="M65.1666 5.25H90.8333V22.75H65.1666V5.25Z" fill="#FF3D00"/>
<path d="M65.1666 12.25H90.8333V15.75H65.1666V12.25Z" fill="#ECEFF1"/>
<path d="M73.3334 5.25H76.8334V22.75H73.3334V5.25Z" fill="#ECEFF1"/>
</svg>
