<svg width="48" height="49" viewBox="0 0 48 49" fill="none" xmlns="http://www.w3.org/2000/svg">
<path d="M21.0633 7.5251C20.5416 6.46828 19.6327 5.67546 18.5132 5.2966C16.2045 4.51415 13.6922 5.76437 12.9099 8.07323C12.4244 9.49849 12.8864 13.1177 13.2612 15.468C11.2066 14.2526 8.03174 12.5241 6.53708 12.4523C4.09757 12.335 2.02107 14.2211 1.90384 16.6606C1.78693 19.0933 3.67301 21.1694 6.11252 21.2866C8.19244 21.3866 13.8098 18.611 14.9176 18.0562C15.0628 17.9783 15.1809 17.8712 15.2647 17.7479C15.2721 17.7413 15.2724 17.7341 15.2798 17.7275C16.5505 16.5798 20.6636 12.7495 21.2898 10.8997C21.6687 9.78022 21.592 8.58226 21.0633 7.5251ZM6.19723 19.524C4.73064 19.4535 3.59603 18.2119 3.66651 16.7453C3.73699 15.2787 4.98578 14.1445 6.45237 14.215C7.48175 14.2644 10.4102 15.8255 12.6844 17.1787C10.2909 18.3073 7.22661 19.5734 6.19723 19.524ZM19.6206 10.3391C19.2912 11.3126 16.9854 13.7035 15.0605 15.5262C14.6348 12.9122 14.2492 9.61448 14.5786 8.641C14.9662 7.4864 16.0746 6.77638 17.231 6.83195C17.4706 6.84347 17.7087 6.89045 17.9523 6.96565C19.3431 7.43519 20.0903 8.94832 19.6206 10.3391Z" fill="white"/>
<path d="M28.8468 14.0123L5.60199 29.4445C5.11195 29.7699 4.45103 29.637 4.12474 29.1476L2.52093 26.7421C1.72041 25.5279 2.04426 23.8913 3.25843 23.082L23.8977 9.38498C25.1119 8.58491 26.7485 8.91776 27.549 10.1227L29.1462 12.535C29.4711 13.0257 29.3371 13.6868 28.8468 14.0123Z" fill="#C175FF"/>
<path d="M28.8468 14.0123L5.60199 29.4445C5.11195 29.7699 4.45103 29.637 4.12474 29.1476L2.52093 26.7421C1.72041 25.5279 2.04426 23.8913 3.25843 23.082L23.8977 9.38498C25.1119 8.58491 26.7485 8.91776 27.549 10.1227L29.1462 12.535C29.4711 13.0257 29.3371 13.6868 28.8468 14.0123Z" fill="#FF1A5E"/>
<path d="M28.8462 14.0144L26.6157 15.4896C27.1027 15.1649 27.2367 14.5087 26.9121 14.0144L25.3168 11.6003C24.5121 10.4002 22.8815 10.0686 21.6672 10.8662L23.8979 9.38377C25.112 8.58621 26.7497 8.91813 27.5473 10.1252L29.1497 12.532C29.4743 13.0262 29.3403 13.6897 28.8462 14.0144Z" fill="#FF1A5E"/>
<path d="M32.6337 27.4084C33.2227 27.4084 33.7002 27.8859 33.7002 28.4749V42.974C33.7002 44.8597 32.1716 46.3883 30.286 46.3883H10.3598C8.47418 46.3883 6.94556 44.8597 6.94556 42.974V28.4749C6.94556 27.8859 7.42304 27.4084 8.01205 27.4084H32.6337Z" fill="#FF1A5E"/>
<path d="M33.7027 28.478V42.9768C33.7027 44.8615 32.171 46.386 30.2863 46.386H27.4062C29.2909 46.386 30.8157 44.8615 30.8157 42.9768V28.478C30.8157 27.8848 30.3427 27.405 29.7498 27.405H32.6368C33.2227 27.405 33.7027 27.8848 33.7027 28.478Z" fill="#FF1A5E"/>
<path d="M16.5732 14.2439L10.8145 18.0691L14.4631 23.5621L20.2219 19.7368L16.5732 14.2439Z" fill="white"/>
<path d="M33.6812 33.0869H6.92822V40.0046H33.6812V33.0869Z" fill="white"/>
<path d="M25.189 26.3114C25.0604 26.3114 24.9302 26.2762 24.8137 26.2026C24.4835 25.9948 24.3846 25.5589 24.5924 25.2291C27.4514 20.6893 33.6058 22.0173 33.8671 22.0761C34.2469 22.1619 34.4851 22.539 34.3999 22.919C34.3152 23.2986 33.9391 23.5388 33.5572 23.4535C33.5038 23.4415 28.1118 22.2908 25.787 25.9815C25.6529 26.1945 25.4234 26.3114 25.189 26.3114Z" fill="#E5E8EF"/>
<path d="M27.0026 21.476C26.9113 21.476 26.8182 21.4581 26.729 21.4205C26.3695 21.2691 26.2009 20.8551 26.3526 20.4958C27.4793 17.8224 29.1803 16.0341 31.4079 15.1805C35.1772 13.7358 39.0475 15.5219 39.2105 15.5984C39.5627 15.7644 39.7134 16.184 39.5483 16.5366C39.3828 16.889 38.964 17.041 38.6097 16.8761C38.5753 16.8599 35.1031 15.2704 31.9032 16.5026C30.053 17.2147 28.6233 18.7428 27.6534 21.0442C27.5396 21.3139 27.278 21.476 27.0026 21.476Z" fill="#E5E8EF"/>
<path d="M34.2353 13.4109C33.3875 13.4109 32.4717 13.2925 31.4907 13.0552C31.1119 12.9635 30.879 12.5821 30.9706 12.2032C31.0627 11.824 31.4452 11.5924 31.823 11.6831C34.1078 12.2359 35.9311 12.0622 37.2419 11.1669C38.9401 10.0069 39.2348 7.9696 39.2375 7.94927C39.2899 7.56393 39.6491 7.29353 40.0292 7.34299C40.4149 7.39383 40.6869 7.74539 40.6372 8.13108C40.6234 8.23913 40.2733 10.7935 38.0563 12.3204C37.0013 13.0467 35.7226 13.4109 34.2353 13.4109Z" fill="#E5E8EF"/>
<path d="M40.2248 23.1841C40.352 23.3109 40.2814 23.5298 40.1049 23.558L38.7848 23.7555C38.7143 23.77 38.6578 23.8121 38.6225 23.8758L38.0438 25.0756C37.9661 25.238 37.7332 25.238 37.6484 25.0756L37.0554 23.89C37.0201 23.8262 36.9567 23.7769 36.886 23.77L35.5661 23.5863C35.3897 23.558 35.319 23.3392 35.446 23.2123L36.3919 22.2803C36.4485 22.2311 36.4697 22.1535 36.4555 22.0829L36.2225 20.7769C36.1872 20.5935 36.3778 20.4591 36.5331 20.5439L37.7191 21.1581C37.7825 21.1864 37.8602 21.1864 37.9238 21.1509L39.0955 20.5229C39.2579 20.4381 39.4414 20.5791 39.4131 20.7555L39.2013 22.0687C39.1872 22.139 39.2084 22.2097 39.2649 22.2593L40.2248 23.1841Z" fill="#FFD80C"/>
<path d="M41.6791 6.68021L40.5286 6.00259C40.465 5.96743 40.3945 5.96019 40.3239 5.99569L39.1169 6.55337C38.9545 6.63092 38.778 6.4896 38.8132 6.31313L39.1027 5.01442C39.1169 4.94376 39.0957 4.86621 39.0462 4.81692L38.1426 3.84254C38.0156 3.70847 38.1004 3.49684 38.2769 3.47582L39.6039 3.34863C39.6745 3.3414 39.738 3.29935 39.7733 3.23558L40.4226 2.07095C40.5074 1.9155 40.7402 1.92274 40.8109 2.09197L41.3403 3.31313C41.3686 3.3769 41.432 3.42618 41.5027 3.44032L42.8086 3.69434C42.9851 3.7226 43.0485 3.9487 42.9074 4.06865L41.9121 4.951C41.8627 5.00029 41.8344 5.07095 41.8415 5.1416L42.0038 6.46134C42.025 6.64505 41.8344 6.77223 41.6791 6.68021Z" fill="#FFD80C"/>
<path d="M46.0134 15.1228L44.9545 15.9272C44.898 15.9768 44.8698 16.0403 44.8698 16.1178L44.9333 17.4448C44.9404 17.6285 44.7427 17.7343 44.5944 17.6354L43.4933 16.873C43.4368 16.8309 43.3591 16.8237 43.2956 16.852L42.0533 17.3248C41.8839 17.3886 41.7145 17.2259 41.7639 17.0567L42.1451 15.779C42.1662 15.7084 42.152 15.6377 42.1098 15.5815L41.2769 14.5437C41.1639 14.4024 41.2628 14.1908 41.4393 14.1839L42.7733 14.1556C42.8438 14.1556 42.9074 14.1201 42.9498 14.0567L43.6839 12.9486C43.7827 12.7931 44.0086 12.8214 44.0722 12.9906L44.5097 14.2542C44.5309 14.318 44.5875 14.3672 44.658 14.3886L45.9427 14.7416C46.1121 14.7908 46.1616 15.0166 46.0134 15.1228Z" fill="#FFD80C"/>
<path d="M25.1902 33.0869H15.4561V40.0046H25.1902V33.0869Z" fill="white"/>
<path d="M23.7799 27.4082H16.8665V46.388H23.7799V27.4082Z" fill="white"/>
<path d="M33.6818 33.0869H30.8159V40.0046H33.6818V33.0869Z" fill="white"/>
</svg>
