<svg width="18" height="15" viewBox="0 0 18 15" fill="none" xmlns="http://www.w3.org/2000/svg">
<path fill-rule="evenodd" clip-rule="evenodd" d="M9.56651 3.20487C9.24993 3.50867 8.75007 3.50867 8.43349 3.20487L7.86698 2.66122C7.2039 2.0249 6.30813 1.63636 5.31818 1.63636C3.28477 1.63636 1.63636 3.28477 1.63636 5.31818C1.63636 7.2676 2.69164 8.87732 4.21507 10.1999C5.73981 11.5236 7.56278 12.4015 8.65198 12.8496C8.87973 12.9433 9.12027 12.9433 9.34802 12.8496C10.4372 12.4015 12.2602 11.5236 13.7849 10.1999C15.3084 8.87731 16.3636 7.2676 16.3636 5.31818C16.3636 3.28477 14.7152 1.63636 12.6818 1.63636C11.6919 1.63636 10.7961 2.0249 10.133 2.66122L9.56651 3.20487ZM9 1.48056C8.04445 0.563567 6.74713 0 5.31818 0C2.38103 0 0 2.38103 0 5.31818C0 10.5286 5.70301 13.4059 8.02947 14.3629C8.65601 14.6207 9.34399 14.6207 9.97053 14.3629C12.297 13.4059 18 10.5286 18 5.31818C18 2.38103 15.619 0 12.6818 0C11.2529 0 9.95555 0.563567 9 1.48056Z" fill="white"/>
</svg>
