<svg width="24" height="25" viewBox="0 0 24 25" fill="none" xmlns="http://www.w3.org/2000/svg">
<g clip-path="url(#clip0_2527_37991)">
<path d="M22.9971 6.29533V19.091C22.9971 19.9578 22.298 20.6568 21.4311 20.6568H1.56637C0.70523 20.6568 0.000427246 19.9578 0.000427246 19.091V6.29533C0.000427246 5.43405 0.705231 4.72925 1.56637 4.72925H21.4311C22.298 4.72925 22.9971 5.43405 22.9971 6.29533Z" fill="url(#paint0_linear_2527_37991)"/>
<path d="M23.0004 12.2554H0.000427246V17.2554H23.0004V12.2554Z" fill="white"/>
<path d="M12.3328 18.8936C12.5243 19.0442 12.7493 19.1413 12.9744 19.1733C14.1698 19.4197 15.8047 18.4379 16.9642 16.6052C18.1236 14.7724 18.4048 12.7094 17.7831 11.5331C17.6612 11.3308 17.5516 11.1557 17.3565 10.9974L18.7098 12.0784C19.9049 13.0137 19.7089 15.542 18.3297 17.7133C16.9505 19.8846 14.8643 20.8964 13.6691 19.9611L12.3328 18.8936ZM12.3328 18.8936L12.3158 18.8801C12.3214 18.8846 12.3271 18.8892 12.3328 18.8936Z" fill="#F7D319"/>
<path d="M12.3328 18.8936C12.5243 19.0442 12.7493 19.1413 12.9744 19.1733C14.1698 19.4197 15.8047 18.4379 16.9642 16.6052C18.1236 14.7724 18.4048 12.7094 17.7831 11.5331C17.6612 11.3308 17.5516 11.1557 17.3565 10.9974L18.7098 12.0784C19.9049 13.0137 19.7089 15.542 18.3297 17.7133C16.9505 19.8846 14.8643 20.8964 13.6691 19.9611L12.3328 18.8936ZM12.3328 18.8936L12.3158 18.8801C12.3214 18.8846 12.3271 18.8892 12.3328 18.8936Z" stroke="#0C42CC"/>
<path d="M17.5881 11.1682C17.7833 11.3265 17.9418 11.5413 18.0637 11.7436C18.6854 12.9199 18.3675 14.9704 17.208 16.8031C16.0486 18.6359 14.4136 19.6177 13.2183 19.3713C12.9743 19.3112 12.7548 19.2364 12.5597 19.0781C11.389 18.1281 11.5606 15.6144 12.9398 13.4431C14.3312 11.2301 16.393 10.2329 17.5881 11.1682Z" fill="#F7D319"/>
<path d="M17.5881 11.1682C17.7833 11.3265 17.9418 11.5413 18.0637 11.7436C18.6854 12.9199 18.3675 14.9704 17.208 16.8031C16.0486 18.6359 14.4136 19.6177 13.2183 19.3713C12.9743 19.3112 12.7548 19.2364 12.5597 19.0781C11.389 18.1281 11.5606 15.6144 12.9398 13.4431C14.3312 11.2301 16.393 10.2329 17.5881 11.1682Z" stroke="#0C42CC"/>
<path d="M16.8982 11.5628C17.8758 12.0653 17.8012 13.9736 16.7022 15.8232C16.3027 16.5384 15.791 17.1204 15.2755 17.5798C14.4308 18.2925 13.5623 18.6158 12.9395 18.3107C11.9619 17.8082 12.0365 15.8999 13.1228 14.0287C13.6832 13.0642 14.4174 12.2797 15.1265 11.8594C15.776 11.4538 16.422 11.3332 16.8982 11.5628Z" fill="#E4FFF7"/>
<path d="M16.8982 11.5628C17.8758 12.0653 17.8012 13.9736 16.7022 15.8232C16.3027 16.5384 15.791 17.1204 15.2755 17.5798C14.4308 18.2925 13.5623 18.6158 12.9395 18.3107C11.9619 17.8082 12.0365 15.8999 13.1228 14.0287C13.6832 13.0642 14.4174 12.2797 15.1265 11.8594C15.776 11.4538 16.422 11.3332 16.8982 11.5628Z" stroke="#0C42CC"/>
<path d="M7.39674 9.79539L8.67198 10.4514L8.38365 9.05731L9.35031 8.06243L7.947 7.85777L7.27295 6.58973L6.69723 7.86457L5.31149 8.06812L6.36159 9.05652L6.18037 10.4537L7.39674 9.79539Z" fill="#F7D319"/>
<path d="M7.39674 9.79539L8.67198 10.4514L8.38365 9.05731L9.35031 8.06243L7.947 7.85777L7.27295 6.58973L6.69723 7.86457L5.31149 8.06812L6.36159 9.05652L6.18037 10.4537L7.39674 9.79539Z" stroke="#0C42CC"/>
<path d="M16.0693 9.79725L17.3412 10.4607L17.0595 9.06478L18.0306 8.07534L16.6285 7.86252L15.9606 6.59038L15.379 7.86208L13.9926 8.05763L15.0379 9.05226L14.8502 10.4487L16.0693 9.79725Z" fill="#F7D319"/>
<path d="M16.0693 9.79725L17.3412 10.4607L17.0595 9.06478L18.0306 8.07534L16.6285 7.86252L15.9606 6.59038L15.379 7.86208L13.9926 8.05763L15.0379 9.05226L14.8502 10.4487L16.0693 9.79725Z" stroke="#0C42CC"/>
<path d="M11.7176 9.80088L12.9837 10.4769L12.7131 9.07787L13.6916 8.09763L12.2918 7.87111L11.6341 6.59215L11.0428 7.85851L9.65542 8.04062L10.6924 9.04567L10.4938 10.4406L11.7176 9.80088Z" fill="#F7D319"/>
<path d="M11.7176 9.80088L12.9837 10.4769L12.7131 9.07787L13.6916 8.09763L12.2918 7.87111L11.6341 6.59215L11.0428 7.85851L9.65542 8.04062L10.6924 9.04567L10.4938 10.4406L11.7176 9.80088Z" stroke="#0C42CC"/>
<path d="M1.93643 16.2554L1.04043 13.4554H2.01243L2.73643 15.8194H2.24843L3.01643 13.4554H3.88443L4.60043 15.8194H4.13243L4.88843 13.4554H5.78443L4.88843 16.2554H3.87643L3.29243 14.3194H3.56443L2.94843 16.2554H1.93643ZM5.99405 16.2554V13.4554H6.93805V16.2554H5.99405ZM7.39249 16.2554V13.4554H8.16849L9.59249 15.1594H9.23249V13.4554H10.1525V16.2554H9.37649L7.95249 14.5514H8.31249V16.2554H7.39249Z" fill="#C00992"/>
</g>
<defs>
<linearGradient id="paint0_linear_2527_37991" x1="11.4987" y1="4.72925" x2="11.4987" y2="20.6568" gradientUnits="userSpaceOnUse">
<stop stop-color="#FF4EA3"/>
<stop offset="1" stop-color="#B8008F"/>
</linearGradient>
<clipPath id="clip0_2527_37991">
<rect width="24" height="24" fill="white" transform="translate(0.000427246 0.75)"/>
</clipPath>
</defs>
</svg>
