<svg width="24" height="25" viewBox="0 0 24 25" fill="none" xmlns="http://www.w3.org/2000/svg">
<path d="M12 24.75C18.6274 24.75 24 19.3774 24 12.75C24 6.12258 18.6274 0.75 12 0.75C5.37258 0.75 -1.24733e-07 6.12258 -2.78598e-07 12.75C-4.32463e-07 19.3774 5.37258 24.75 12 24.75Z" fill="#FF1A5E"/>
<path d="M11.9999 21.3709C16.7618 21.3709 20.6221 17.5106 20.6221 12.7486C20.6221 7.98667 16.7618 4.12634 11.9999 4.12634C7.23789 4.12634 3.37756 7.98667 3.37756 12.7486C3.37756 17.5106 7.23789 21.3709 11.9999 21.3709Z" fill="#E5E8EF"/>
<path d="M18.8394 7.4979C17.3844 6.38043 15.5619 5.71303 13.5858 5.71303C8.8234 5.71303 4.96474 9.57536 4.96474 14.3378C4.96474 16.314 5.62848 18.1364 6.74594 19.5913C4.69851 18.0126 3.37854 15.5377 3.37854 12.7516C3.37854 7.98916 7.2372 4.12683 11.9995 4.12683C14.7857 4.12683 17.2607 5.4468 18.8394 7.4979Z" fill="#CDD4DF"/>
<path d="M16.5004 13.1963L13.0279 18.3186C12.8104 18.6337 12.3454 18.6337 12.128 18.3186L8.65551 13.1963C8.53182 13.0125 8.53182 12.7725 8.65551 12.5888L12.128 7.46638C12.3454 7.1476 12.8104 7.1476 13.0279 7.46638L16.5004 12.5888C16.624 12.7725 16.624 13.0125 16.5004 13.1963Z" fill="#CDD4DF"/>
<path d="M15.9233 13.0544L12.4509 18.1766C12.2334 18.4917 11.7684 18.4917 11.551 18.1766L8.07848 13.0544C7.9548 12.8705 7.9548 12.6305 8.07848 12.4468L11.551 7.32441C11.7684 7.00563 12.2334 7.00563 12.4509 7.32441L15.9233 12.4468C16.047 12.6305 16.047 12.8705 15.9233 13.0544Z" fill="url(#paint0_linear_2527_37904)"/>
<path d="M12.0026 21.6166C16.8986 21.6166 20.8676 17.6477 20.8676 12.7517C20.8676 7.8557 16.8986 3.88672 12.0026 3.88672C7.10666 3.88672 3.1377 7.8557 3.1377 12.7517C3.1377 17.6477 7.10666 21.6166 12.0026 21.6166Z" fill="white"/>
<path d="M12.0069 21.75C8.16146 21.75 4.59252 19.2623 3.40258 15.3992C2.69585 13.1024 2.92466 10.6677 4.04923 8.5431C5.17292 6.41851 7.05722 4.8593 9.35406 4.15258C11.6509 3.44585 14.0856 3.67466 16.2101 4.79923C18.3347 5.9238 19.8939 7.80722 20.6006 10.1041C22.0609 14.8453 19.3904 19.8904 14.6492 21.3507C13.7702 21.621 12.8815 21.75 12.0069 21.75ZM12.0122 4.01477C11.1482 4.01477 10.2807 4.14463 9.43179 4.40523C4.83015 5.82221 2.23914 10.7189 3.65524 15.3206C4.80984 19.0697 8.27365 21.4841 12.006 21.4841C12.855 21.4841 13.7172 21.3595 14.5705 21.0963C19.1722 19.6793 21.7632 14.7826 20.3471 10.1809C19.6607 7.9521 18.1474 6.12345 16.0856 5.03245C14.8099 4.35753 13.4168 4.01477 12.0122 4.01477Z" fill="white"/>
<path d="M12.0254 12.886L13.5307 21.4842C13.5307 21.4842 15.1888 21.4479 16.6871 20.2774L12.0254 12.886Z" fill="#EA3790"/>
<path d="M12.1592 12.8267L19.3306 17.8029C19.3306 17.8029 20.4711 16.5988 20.6928 14.711L12.1592 12.8267Z" fill="#EA3790"/>
<path d="M12.0625 12.7517L20.6606 11.2464C20.6606 11.2464 20.6244 9.58822 19.4539 8.08997L12.0625 12.7517Z" fill="#EA3790"/>
<path d="M12.0177 12.705L4.88605 7.67224C4.88605 7.67224 3.73587 8.86749 3.5 10.7536L12.0177 12.705Z" fill="#EA3790"/>
<path d="M11.921 12.8878L3.30078 14.2597C3.30078 14.2597 3.3105 15.9179 4.45803 17.4338L11.921 12.8878Z" fill="#EA3790"/>
<path d="M12.0463 12.8718L6.88281 19.9099C6.88281 19.9099 8.05598 21.0822 9.93762 21.3525L12.0463 12.8718Z" fill="#EA3790"/>
<path d="M11.9922 12.7075L17.0647 5.60319C17.0647 5.60319 15.8765 4.44682 13.9913 4.19946L11.9922 12.7075Z" fill="#EA3790"/>
<path d="M12.0016 12.6934L10.4962 4.09521C10.4962 4.09521 8.83809 4.13143 7.33984 5.30194L12.0016 12.6934Z" fill="#EA3790"/>
<path d="M11.9961 15.8207C11.5023 15.8207 11.0138 15.7006 10.565 15.4629C9.8406 15.0795 9.30879 14.4373 9.06762 13.6537C8.57026 12.0371 9.48017 10.3171 11.0968 9.81886C11.8804 9.57769 12.7099 9.65632 13.4343 10.0397C14.1587 10.4231 14.6905 11.0653 14.9316 11.8489C15.1728 12.6325 15.0942 13.462 14.7108 14.1864C14.3274 14.9108 13.6852 15.4426 12.9016 15.6838C12.6039 15.7757 12.2991 15.8207 11.9961 15.8207ZM12.0032 9.94784C11.7258 9.94784 11.4475 9.98936 11.1745 10.0733C9.69748 10.5282 8.8662 12.0998 9.32027 13.5769C9.54024 14.2924 10.0261 14.879 10.6878 15.2297C11.3495 15.5795 12.1083 15.6511 12.823 15.4311C13.5385 15.2112 14.1251 14.7253 14.4758 14.0636C14.8256 13.402 14.8972 12.6431 14.6772 11.9275C14.4572 11.212 13.9714 10.6254 13.3097 10.2747C12.9007 10.0574 12.4537 9.94784 12.0032 9.94784Z" fill="white"/>
<path d="M13.5338 21.5725C13.4914 21.5725 13.4543 21.5425 13.4472 21.4992L10.3889 4.03519C10.381 3.98749 10.4128 3.94155 10.4605 3.93272C10.5091 3.92388 10.5541 3.95657 10.5629 4.00427L13.6213 21.4683C13.6292 21.516 13.5974 21.5619 13.5497 21.5708C13.5435 21.5717 13.5391 21.5725 13.5338 21.5725Z" fill="white"/>
<path d="M3.27529 14.3692C3.23289 14.3692 3.19578 14.3392 3.18872 14.2959C3.18077 14.2482 3.21257 14.2023 3.26028 14.1934L20.7242 11.136C20.7728 11.1271 20.8179 11.1598 20.8267 11.2075C20.8347 11.2552 20.8029 11.3012 20.7552 11.31L3.29119 14.3675C3.28501 14.3683 3.27971 14.3692 3.27529 14.3692Z" fill="white"/>
<path d="M19.2626 17.9338C19.2449 17.9338 19.2272 17.9285 19.2122 17.9179L4.70148 7.73137C4.66172 7.70311 4.65201 7.64833 4.68028 7.60858C4.70855 7.56883 4.76332 7.55911 4.80307 7.58738L19.3138 17.7739C19.3536 17.8022 19.3633 17.857 19.335 17.8967C19.3182 17.9206 19.2909 17.9338 19.2626 17.9338Z" fill="white"/>
<path d="M6.91198 20.0955C6.89431 20.0955 6.87665 20.0902 6.86163 20.0796C6.82188 20.0513 6.81216 19.9966 6.84043 19.9568L17.0269 5.44513C17.0552 5.40538 17.11 5.39566 17.1497 5.42393C17.1895 5.4522 17.1992 5.50697 17.1709 5.54672L6.98442 20.0584C6.96763 20.0831 6.94025 20.0955 6.91198 20.0955Z" fill="white"/>
<path d="M9.99597 21.4746C9.9889 21.4746 9.98272 21.4737 9.97565 21.4719C9.92795 21.4613 9.8988 21.4136 9.9094 21.3659L13.9271 4.09712C13.9377 4.04941 13.9854 4.02026 14.0331 4.03086C14.0808 4.04234 14.11 4.08916 14.0994 4.13687L10.0817 21.4057C10.0728 21.4472 10.0366 21.4746 9.99597 21.4746Z" fill="white"/>
<path d="M20.6377 14.8489C20.6307 14.8489 20.6245 14.848 20.6174 14.8462L3.3487 10.8285C3.301 10.817 3.27185 10.7702 3.28245 10.7225C3.29305 10.6748 3.34075 10.6456 3.38845 10.6562L20.6572 14.6739C20.7049 14.6854 20.734 14.7323 20.7234 14.78C20.7146 14.8215 20.6784 14.8489 20.6377 14.8489Z" fill="white"/>
<path d="M16.6881 20.3658C16.659 20.3658 16.6298 20.3507 16.613 20.3242L7.24281 5.2728C7.21719 5.23128 7.22956 5.17651 7.27108 5.15089C7.3126 5.12527 7.36648 5.13764 7.39299 5.17916L16.7632 20.2306C16.7888 20.2721 16.7765 20.326 16.735 20.3525C16.7199 20.3613 16.704 20.3658 16.6881 20.3658Z" fill="white"/>
<path d="M4.47708 17.5258C4.44792 17.5258 4.41877 17.5108 4.40199 17.4843C4.37637 17.4427 4.38874 17.388 4.43026 17.3624L19.4816 7.99208C19.5232 7.96646 19.5771 7.97883 19.6036 8.02035C19.6292 8.06187 19.6168 8.11664 19.5753 8.14226L4.5239 17.5125C4.50976 17.5214 4.49298 17.5258 4.47708 17.5258Z" fill="white"/>
<defs>
<linearGradient id="paint0_linear_2527_37904" x1="12.0009" y1="7.08533" x2="12.0009" y2="18.4129" gradientUnits="userSpaceOnUse">
<stop stop-color="#FF4EA3"/>
<stop offset="1" stop-color="#B8008F"/>
</linearGradient>
</defs>
</svg>
