<svg width="24" height="24" viewBox="0 0 24 24" fill="none" xmlns="http://www.w3.org/2000/svg">
<path d="M19.3327 5.00299V15.3677C19.3327 16.0698 18.7664 16.6361 18.0642 16.6361H1.9734C1.27586 16.6361 0.704956 16.0698 0.704956 15.3677V5.00299C0.704956 4.30534 1.27586 3.73444 1.9734 3.73444H18.0642C18.7664 3.73444 19.3327 4.30534 19.3327 5.00299Z" fill="url(#paint0_linear_1627_8180)"/>
<path d="M19.3323 5.00478V15.3672C19.3323 16.0688 18.7647 16.6363 18.0661 16.6363H16.0286C16.7271 16.6363 17.2948 16.0688 17.2948 15.3672V5.00478C17.2948 4.30324 16.7271 3.73572 16.0286 3.73572H18.0661C18.7647 3.73572 19.3323 4.30324 19.3323 5.00478Z" fill="url(#paint1_linear_1627_8180)"/>
<path d="M19.3351 6.64658H0.706177V9.46411H19.3351V6.64658Z" fill="white"/>
<path d="M4.51654 12.7195C4.51654 12.8213 4.47516 12.9133 4.40874 12.9803C4.34177 13.0468 4.24975 13.0881 4.14793 13.0881H2.93979C2.73613 13.0881 2.57117 12.9232 2.57117 12.7195C2.57117 12.6177 2.61255 12.5257 2.67897 12.4587C2.74595 12.3923 2.83796 12.3509 2.93979 12.3509H4.14793C4.35156 12.3509 4.51654 12.5159 4.51654 12.7195Z" fill="#E5E8EF"/>
<path d="M12.3003 12.7195C12.3003 12.8213 12.2589 12.9133 12.1925 12.9803C12.1255 13.0468 12.0335 13.0881 11.9316 13.0881H5.61972C5.41607 13.0881 5.2511 12.9232 5.2511 12.7195C5.2511 12.6177 5.29248 12.5257 5.35891 12.4587C5.42588 12.3923 5.51789 12.3509 5.61972 12.3509H11.9316C12.1353 12.3509 12.3003 12.5159 12.3003 12.7195Z" fill="#E5E8EF"/>
<path d="M9.10603 14.6407C9.10603 14.7425 9.06465 14.8345 8.99822 14.9015C8.93125 14.9679 8.83923 15.0093 8.73741 15.0093H2.96737C2.76372 15.0093 2.59875 14.8443 2.59875 14.6407C2.59875 14.5389 2.64014 14.4468 2.70656 14.3799C2.77353 14.3135 2.86555 14.2721 2.96737 14.2721H8.73741C8.94105 14.2721 9.10603 14.4371 9.10603 14.6407Z" fill="#E5E8EF"/>
<path d="M17.7854 20.2655C20.8282 20.2655 23.2948 17.7989 23.2948 14.7561C23.2948 11.7134 20.8282 9.2467 17.7854 9.2467C14.7426 9.2467 12.276 11.7134 12.276 14.7561C12.276 17.7989 14.7426 20.2655 17.7854 20.2655Z" fill="#4CC66E"/>
<path d="M17.7854 18.7147C19.9716 18.7147 21.744 16.9424 21.744 14.7561C21.744 12.5698 19.9716 10.7975 17.7854 10.7975C15.5991 10.7975 13.8268 12.5698 13.8268 14.7561C13.8268 16.9424 15.5991 18.7147 17.7854 18.7147Z" fill="#E5E8EF"/>
<path d="M20.9256 12.3446C20.2576 11.8315 19.4208 11.5251 18.5136 11.5251C16.3271 11.5251 14.5555 13.2984 14.5555 15.4849C14.5555 16.3922 14.8603 17.2289 15.3733 17.8969C14.4333 17.172 13.8273 16.0357 13.8273 14.7566C13.8273 12.5701 15.5988 10.7968 17.7853 10.7968C19.0645 10.7968 20.2008 11.4029 20.9256 12.3446Z" fill="#CDD4DF"/>
<path d="M20.2801 15.4455C20.2801 16.0586 19.7835 16.5552 19.1704 16.5552C18.8591 16.5552 18.5764 16.4268 18.3768 16.2201C18.5051 16.5813 18.6738 16.895 18.8948 17.1444C18.9637 17.2253 18.8901 17.3393 18.7878 17.3156C18.3197 17.2015 17.854 17.1991 17.3859 17.3131C17.2837 17.3369 17.2101 17.2229 17.279 17.1421C17.5 16.8902 17.6687 16.5789 17.797 16.2178C17.5974 16.4268 17.3146 16.5552 17.001 16.5552C16.3903 16.5552 15.8937 16.0586 15.8937 15.4455C15.8937 14.8324 16.3903 14.3358 17.001 14.3358C17.0937 14.3358 17.1815 14.3477 17.2671 14.369C17.0865 14.1742 16.9772 13.9105 16.9772 13.623C16.9772 13.0122 17.4739 12.5157 18.0869 12.5157C18.6976 12.5157 19.1942 13.0122 19.1942 13.623C19.1942 13.9105 19.0849 14.1742 18.9043 14.369C18.9898 14.3477 19.0778 14.3358 19.1704 14.3358C19.7835 14.3358 20.2801 14.8324 20.2801 15.4455Z" fill="#CDD4DF"/>
<path d="M19.9787 15.2841C19.9787 15.8972 19.4821 16.3938 18.869 16.3938C18.5578 16.3938 18.275 16.2654 18.0754 16.0587C18.2037 16.4199 18.3724 16.7336 18.5934 16.983C18.6623 17.0639 18.5887 17.1778 18.4865 17.1542C18.0184 17.0401 17.5526 17.0377 17.0845 17.1517C16.9823 17.1755 16.9087 17.0615 16.9776 16.9807C17.1986 16.7288 17.3673 16.4175 17.4956 16.0564C17.296 16.2654 17.0132 16.3938 16.6996 16.3938C16.0889 16.3938 15.5923 15.8972 15.5923 15.2841C15.5923 14.671 16.0889 14.1744 16.6996 14.1744C16.7923 14.1744 16.8802 14.1863 16.9657 14.2076C16.7851 14.0128 16.6758 13.7491 16.6758 13.4616C16.6758 12.8508 17.1725 12.3542 17.7855 12.3542C18.3962 12.3542 18.8928 12.8508 18.8928 13.4616C18.8928 13.7491 18.7835 14.0128 18.6029 14.2076C18.6885 14.1863 18.7764 14.1744 18.869 14.1744C19.4821 14.1744 19.9787 14.671 19.9787 15.2841Z" fill="#4CC66E"/>
<defs>
<linearGradient id="paint0_linear_1627_8180" x1="10.0188" y1="3.73444" x2="10.0188" y2="16.6361" gradientUnits="userSpaceOnUse">
<stop stop-color="#FF4EA3"/>
<stop offset="1" stop-color="#B8008F"/>
</linearGradient>
<linearGradient id="paint1_linear_1627_8180" x1="17.6805" y1="3.73572" x2="17.6805" y2="16.6363" gradientUnits="userSpaceOnUse">
<stop stop-color="#FF4EA3"/>
<stop offset="1" stop-color="#B8008F"/>
</linearGradient>
</defs>
</svg>
