<svg width="20" height="20" viewBox="0 0 20 20" fill="none" xmlns="http://www.w3.org/2000/svg">
<path d="M5.99846 0.149902C2.91126 0.149902 0.400024 2.66347 0.400024 5.75146V13.7515C0.400024 16.8387 2.91359 19.3499 6.00159 19.3499H14.0016C17.0888 19.3499 19.6 16.8363 19.6 13.7483V5.74834C19.6 2.66114 17.0865 0.149902 13.9985 0.149902H5.99846ZM15.6 3.3499C16.0416 3.3499 16.4 3.7083 16.4 4.1499C16.4 4.5915 16.0416 4.9499 15.6 4.9499C15.1584 4.9499 14.8 4.5915 14.8 4.1499C14.8 3.7083 15.1584 3.3499 15.6 3.3499ZM10 4.9499C12.6472 4.9499 14.8 7.1027 14.8 9.7499C14.8 12.3971 12.6472 14.5499 10 14.5499C7.35282 14.5499 5.20002 12.3971 5.20002 9.7499C5.20002 7.1027 7.35282 4.9499 10 4.9499ZM10 6.5499C9.15133 6.5499 8.3374 6.88704 7.73728 7.48716C7.13717 8.08728 6.80002 8.90121 6.80002 9.7499C6.80002 10.5986 7.13717 11.4125 7.73728 12.0126C8.3374 12.6128 9.15133 12.9499 10 12.9499C10.8487 12.9499 11.6626 12.6128 12.2628 12.0126C12.8629 11.4125 13.2 10.5986 13.2 9.7499C13.2 8.90121 12.8629 8.08728 12.2628 7.48716C11.6626 6.88704 10.8487 6.5499 10 6.5499Z" fill="white"/>
</svg>
