<svg width="24" height="25" viewBox="0 0 24 25" fill="none" xmlns="http://www.w3.org/2000/svg">
<path d="M17.2801 21.9476H8.16009C5.77884 21.9476 3.84009 20.0107 3.84009 17.6276V13.1163C3.84009 12.1845 4.11196 11.3332 4.65009 10.5813L10.0276 3.18445C10.3632 2.62383 10.9295 2.26758 11.5201 2.26758C12.317 2.26758 13.4401 2.95195 13.4401 4.47633C13.4401 4.91133 13.322 5.20383 13.2057 5.48695C13.1776 5.55445 13.1495 5.62383 13.1213 5.69883C12.9413 6.2032 11.9907 8.35195 11.492 9.46758C12.9695 9.46945 16.2432 9.47883 17.4863 9.51633C18.8551 9.51633 19.6801 10.4426 19.6801 11.3388C19.6801 11.6463 19.6295 12.0663 19.5863 12.3626C20.0082 12.6138 20.6401 13.1538 20.6401 14.1232C20.6401 14.7982 20.3157 15.297 20.0045 15.6232C20.3213 15.9157 20.6401 16.3751 20.6401 17.052C20.6401 18.0157 19.9763 18.5988 19.502 18.8951C19.5957 19.1463 19.6801 19.4838 19.6801 19.8832C19.6801 20.7457 18.767 21.9476 17.2801 21.9476Z" fill="#777E90"/>
</svg>
