<svg width="22" height="16" viewBox="0 0 22 16" fill="none" xmlns="http://www.w3.org/2000/svg">
<path d="M2.00001 0.5001C1.86749 0.498226 1.73593 0.522707 1.61296 0.572121C1.48999 0.621535 1.37807 0.694895 1.2837 0.78794C1.18933 0.880984 1.1144 0.991857 1.06325 1.11411C1.0121 1.23637 0.985764 1.36757 0.985764 1.5001C0.985764 1.63263 1.0121 1.76383 1.06325 1.88609C1.1144 2.00834 1.18933 2.11922 1.2837 2.21226C1.37807 2.3053 1.48999 2.37867 1.61296 2.42808C1.73593 2.47749 1.86749 2.50197 2.00001 2.5001H20C20.1325 2.50197 20.2641 2.47749 20.387 2.42808C20.51 2.37867 20.6219 2.3053 20.7163 2.21226C20.8107 2.11922 20.8856 2.00834 20.9368 1.88609C20.9879 1.76383 21.0142 1.63263 21.0142 1.5001C21.0142 1.36757 20.9879 1.23637 20.9368 1.11411C20.8856 0.991857 20.8107 0.880984 20.7163 0.78794C20.6219 0.694895 20.51 0.621535 20.387 0.572121C20.2641 0.522707 20.1325 0.498226 20 0.5001H2.00001ZM2.00001 7.0001C1.86749 6.99823 1.73593 7.02271 1.61296 7.07212C1.48999 7.12153 1.37807 7.1949 1.2837 7.28794C1.18933 7.38098 1.1144 7.49186 1.06325 7.61411C1.0121 7.73637 0.985764 7.86758 0.985764 8.0001C0.985764 8.13263 1.0121 8.26383 1.06325 8.38609C1.1144 8.50834 1.18933 8.61922 1.2837 8.71226C1.37807 8.8053 1.48999 8.87867 1.61296 8.92808C1.73593 8.97749 1.86749 9.00197 2.00001 9.0001H20C20.1325 9.00197 20.2641 8.97749 20.387 8.92808C20.51 8.87867 20.6219 8.8053 20.7163 8.71226C20.8107 8.61922 20.8856 8.50834 20.9368 8.38609C20.9879 8.26383 21.0142 8.13263 21.0142 8.0001C21.0142 7.86758 20.9879 7.73637 20.9368 7.61411C20.8856 7.49186 20.8107 7.38098 20.7163 7.28794C20.6219 7.1949 20.51 7.12153 20.387 7.07212C20.2641 7.02271 20.1325 6.99823 20 7.0001H2.00001ZM2.00001 13.5001C1.86749 13.4982 1.73593 13.5227 1.61296 13.5721C1.48999 13.6215 1.37807 13.6949 1.2837 13.7879C1.18933 13.881 1.1144 13.9919 1.06325 14.1141C1.0121 14.2364 0.985764 14.3676 0.985764 14.5001C0.985764 14.6326 1.0121 14.7638 1.06325 14.8861C1.1144 15.0083 1.18933 15.1192 1.2837 15.2123C1.37807 15.3053 1.48999 15.3787 1.61296 15.4281C1.73593 15.4775 1.86749 15.502 2.00001 15.5001H20C20.1325 15.502 20.2641 15.4775 20.387 15.4281C20.51 15.3787 20.6219 15.3053 20.7163 15.2123C20.8107 15.1192 20.8856 15.0083 20.9368 14.8861C20.9879 14.7638 21.0142 14.6326 21.0142 14.5001C21.0142 14.3676 20.9879 14.2364 20.9368 14.1141C20.8856 13.9919 20.8107 13.881 20.7163 13.7879C20.6219 13.6949 20.51 13.6215 20.387 13.5721C20.2641 13.5227 20.1325 13.4982 20 13.5001H2.00001Z" fill="white"/>
</svg>
