<svg width="32" height="22" viewBox="0 0 32 22" fill="none" xmlns="http://www.w3.org/2000/svg">
<rect y="0.75" width="32" height="21" rx="3" fill="#ECF2F9"/>
<path d="M9.3942 5.9375C9.02684 5.95598 8.57393 6.2016 8.31435 6.54653C8.07677 6.84449 7.87347 7.32764 7.9248 7.78113C8.33983 7.81885 8.75584 7.55441 9.01468 7.21872C9.26986 6.87302 9.43747 6.41024 9.3942 5.9375ZM12.9216 6.86082V13.7902H13.9657V11.4804H15.3964C16.709 11.4804 17.6506 10.5218 17.6506 9.17062C17.6506 7.81938 16.7257 6.86082 15.4308 6.86082H12.9216ZM13.9657 7.78414H15.1759C16.0763 7.78414 16.6052 8.2952 16.6052 9.17062C16.6052 10.046 16.0807 10.5556 15.1759 10.5556H13.9657V7.78414ZM9.34694 8.01572C8.742 8.01572 8.30879 8.36158 8.02648 8.36158C7.73978 8.36158 7.31126 8.01872 6.8163 8.01872C6.21136 8.01872 5.61917 8.41789 5.3068 8.99919C4.66519 10.161 5.14045 11.8815 5.7608 12.8278C6.0651 13.2959 6.43162 13.7902 6.92658 13.7902C7.38047 13.7725 7.53315 13.5015 8.08091 13.5015C8.63233 13.5015 8.79613 13.7902 9.29109 13.7902C9.78604 13.7902 10.086 13.314 10.3896 12.8458C10.7364 12.3146 10.8777 11.7961 10.8865 11.7691C10.8785 11.7607 9.92718 11.3774 9.91838 10.2248C9.91031 9.26081 10.6673 8.8013 10.7018 8.77512C10.2743 8.10836 9.56635 8.01572 9.40136 8.01572H9.34694ZM20.0481 8.70896C18.9533 8.70896 18.1447 9.35361 18.1147 10.2398H19.0427C19.119 9.81865 19.4996 9.54205 20.0194 9.54205C20.6501 9.54205 21.0062 9.84478 21.0062 10.4022V10.7872L19.7173 10.8594C18.5198 10.934 17.8726 11.4373 17.8726 12.315C17.8726 13.2012 18.5412 13.7902 19.4996 13.7902C20.147 13.7902 20.7485 13.4516 21.0205 12.9165H21.042V13.7376H21.9958V10.333C21.9951 9.34444 21.2279 8.70896 20.0481 8.70896ZM22.3797 8.70896L24.1441 13.7662L24.0496 14.0744C23.8904 14.5957 23.6314 14.7962 23.1716 14.7962C23.0932 14.7962 22.9448 14.7882 22.8766 14.7797V15.6128C22.9455 15.629 23.1871 15.6384 23.2619 15.6384C24.2767 15.6384 24.7544 15.2368 25.1724 14.0203L26.9998 8.70896H25.9415L24.7155 12.8128H24.694L23.4681 8.70896H22.3797ZM21.0062 11.4804L21.0019 11.8819C21.0019 12.5225 20.474 12.9782 19.776 12.9782C19.2268 12.9782 18.8766 12.7067 18.8766 12.2894C18.8766 11.8591 19.2138 11.6092 19.8576 11.5691L21.0062 11.4804Z" fill="#3A3F50"/>
</svg>
