<svg width="116" height="24" viewBox="0 0 116 24" fill="none" xmlns="http://www.w3.org/2000/svg">
<rect width="36" height="24" rx="4" fill="#00579F"/>
<path d="M16.2744 15.7359H14.2944L15.5201 7.40723H17.5L16.2744 15.7359Z" fill="white"/>
<path d="M23.4405 7.56105C23.0634 7.40682 22.4506 7.20117 21.6492 7.20117C19.7164 7.20117 18.3021 8.33223 18.3021 9.9774C18.3021 11.1599 19.2921 11.8282 20.0464 12.2395C20.8006 12.6508 21.0835 12.9079 21.0835 13.2677C21.0835 13.8333 20.4706 14.0903 19.9049 14.0903C19.1035 14.0903 18.6793 13.9361 18.0664 13.6276L17.7836 13.4734L17.5007 15.3242C17.9721 15.5298 18.8207 15.7355 19.7164 15.7869C21.7906 15.7869 23.1577 14.6559 23.1577 12.9593C23.1577 12.0339 22.6391 11.2627 21.5077 10.6972C20.8006 10.3373 20.3763 10.0802 20.3763 9.66893C20.3763 9.30905 20.7535 8.94916 21.5077 8.94916C22.1677 8.94916 22.6391 9.1034 22.9691 9.25764L23.1577 9.36046L23.4405 7.56105Z" fill="white"/>
<path d="M26.0787 12.754C26.2201 12.2913 26.8801 10.4405 26.8801 10.4405C26.8801 10.4405 27.0215 9.92639 27.1629 9.61792L27.3044 10.3377C27.3044 10.3377 27.6815 12.3427 27.7758 12.754C27.3987 12.754 26.4558 12.754 26.0787 12.754ZM28.4829 7.40723H26.9744C26.503 7.40723 26.1258 7.56146 25.9373 8.07558L23.0145 15.7359H25.0887C25.0887 15.7359 25.4187 14.7077 25.513 14.502C25.7487 14.502 27.7758 14.502 28.0586 14.502C28.1058 14.8105 28.2943 15.7359 28.2943 15.7359H30.1328L28.4829 7.40723Z" fill="white"/>
<path d="M12.5971 7.40723L10.6643 13.1139L10.4758 11.9829C10.0986 10.5947 8.96725 9.15522 7.74158 8.43546L9.53294 15.7359H11.6072L14.7185 7.40723H12.5971Z" fill="white"/>
<path d="M8.87347 7.40723H5.66787L5.62073 7.56146C8.11921 8.22981 9.76915 9.92639 10.4291 11.9314L9.72201 8.07558C9.67487 7.56146 9.29774 7.40723 8.87347 7.40723Z" fill="#FAA61A"/>
<rect x="40" width="36" height="24" rx="3" fill="#ECF2F9"/>
<path d="M50.5685 5.92822C50.1553 5.94934 49.6457 6.23005 49.3537 6.62426C49.0864 6.96479 48.8577 7.51695 48.9155 8.03523C49.3824 8.07834 49.8504 7.77612 50.1416 7.39247C50.4286 6.99738 50.6172 6.4685 50.5685 5.92822ZM54.5369 6.98344V14.9028H55.7114V12.263H57.321C58.7976 12.263 59.857 11.1675 59.857 9.62321C59.857 8.07895 58.8165 6.98344 57.3597 6.98344H54.5369ZM55.7114 8.03866H57.0729C58.0859 8.03866 58.6809 8.62274 58.6809 9.62321C58.6809 10.6237 58.0909 11.206 57.0729 11.206H55.7114V8.03866ZM50.5154 8.30333C49.8348 8.30333 49.3475 8.69861 49.0299 8.69861C48.7073 8.69861 48.2252 8.30676 47.6684 8.30676C46.9878 8.30676 46.3216 8.76295 45.9702 9.42729C45.2484 10.7551 45.7831 12.7214 46.481 13.8028C46.8233 14.3378 47.2356 14.9028 47.7925 14.9028C48.3031 14.8825 48.4749 14.5728 49.0911 14.5728C49.7114 14.5728 49.8957 14.9028 50.4525 14.9028C51.0094 14.9028 51.3468 14.3585 51.6883 13.8235C52.0785 13.2163 52.2375 12.6237 52.2474 12.593C52.2383 12.5833 51.1681 12.1452 51.1582 10.828C51.1492 9.72629 52.0008 9.20114 52.0396 9.17122C51.5586 8.40921 50.7622 8.30333 50.5766 8.30333H50.5154ZM62.5542 9.0956C61.3225 9.0956 60.4129 9.83234 60.3791 10.8451H61.4231C61.5089 10.3638 61.9371 10.0477 62.5219 10.0477C63.2314 10.0477 63.632 10.3937 63.632 11.0307V11.4707L62.182 11.5532C60.8349 11.6386 60.1068 12.2137 60.1068 13.2168C60.1068 14.2296 60.8589 14.9028 61.9371 14.9028C62.6655 14.9028 63.3421 14.5158 63.6482 13.9042H63.6723V14.8426H64.7454V10.9517C64.7446 9.82187 63.8815 9.0956 62.5542 9.0956ZM65.1772 9.0956L67.1622 14.8753L67.0558 15.2276C66.8768 15.8233 66.5854 16.0525 66.0682 16.0525C65.9799 16.0525 65.813 16.0433 65.7363 16.0336V16.9857C65.8138 17.0042 66.0855 17.0149 66.1697 17.0149C67.3114 17.0149 67.8488 16.556 68.319 15.1657L70.3749 9.0956H69.1842L67.805 13.7857H67.7809L66.4017 9.0956H65.1772ZM63.632 12.263L63.6272 12.7218C63.6272 13.4539 63.0334 13.9747 62.248 13.9747C61.6302 13.9747 61.2362 13.6645 61.2362 13.1876C61.2362 12.6957 61.6156 12.4101 62.3399 12.3644L63.632 12.263Z" fill="#3A3F50"/>
<rect x="80" width="36" height="24" rx="3" fill="#262626"/>
<path d="M101.857 4.80029C100.97 4.80029 100.093 4.98653 99.2736 5.34836C98.4547 5.7102 97.7105 6.24055 97.0837 6.90914C96.4569 7.57772 95.9597 8.37145 95.6205 9.245C95.2813 10.1186 95.1067 11.0548 95.1067 12.0003C95.1067 12.9459 95.2813 13.8821 95.6205 14.7557C95.9597 15.6292 96.4569 16.423 97.0837 17.0915C97.7105 17.7601 98.4547 18.2905 99.2736 18.6523C100.093 19.0142 100.97 19.2004 101.857 19.2004C102.743 19.2004 103.621 19.0142 104.44 18.6523C105.259 18.2905 106.003 17.7601 106.63 17.0915C107.257 16.423 107.754 15.6292 108.093 14.7557C108.432 13.8821 108.607 12.9459 108.607 12.0003C108.607 11.0548 108.432 10.1186 108.093 9.245C107.754 8.37145 107.257 7.57772 106.63 6.90914C106.003 6.24055 105.259 5.7102 104.44 5.34836C103.621 4.98653 102.743 4.80029 101.857 4.80029Z" fill="#FF9800"/>
<path d="M94.1427 4.80029C93.2563 4.80029 92.3786 4.98653 91.5596 5.34836C90.7407 5.7102 89.9965 6.24055 89.3697 6.90914C88.7429 7.57772 88.2457 8.37145 87.9065 9.245C87.5673 10.1186 87.3927 11.0548 87.3927 12.0003C87.3927 12.9459 87.5673 13.8821 87.9065 14.7557C88.2457 15.6292 88.7429 16.423 89.3697 17.0915C89.9965 17.7601 90.7407 18.2905 91.5596 18.6523C92.3786 19.0142 93.2563 19.2004 94.1427 19.2004C95.0292 19.2004 95.9069 19.0142 96.7259 18.6523C97.5448 18.2905 98.2889 17.7601 98.9157 17.0915C99.5425 16.423 100.04 15.6292 100.379 14.7557C100.718 13.8821 100.893 12.9459 100.893 12.0003C100.893 11.0548 100.718 10.1186 100.379 9.245C100.04 8.37145 99.5425 7.57772 98.9157 6.90914C98.2889 6.24055 97.5448 5.7102 96.7259 5.34836C95.9069 4.98653 95.0292 4.80029 94.1427 4.80029Z" fill="#D50000"/>
<path d="M95.1067 12.0002C95.1067 14.4457 96.2523 16.6031 97.9996 17.9043C99.7469 16.6031 100.892 14.4457 100.892 12.0002C100.892 9.55479 99.7469 7.39734 97.9996 6.09619C96.2523 7.39734 95.1067 9.55479 95.1067 12.0002Z" fill="#FF3D00"/>
</svg>
