<svg width="42" height="34" viewBox="0 0 42 34" fill="none" xmlns="http://www.w3.org/2000/svg">
<path d="M23.8296 33.75H39.1901V17.5962H32.1451C32.53 15.2885 33.531 13.2885 35.1479 11.5961C36.7648 9.90384 38.8822 8.74999 41.5 8.13461V0.75C35.6484 1.98077 31.2211 4.59615 28.2183 8.59615C25.2925 12.5962 23.8296 17.6731 23.8296 23.8269V33.75ZM0.5 33.75H15.7451V17.5962H8.7C9.08498 15.2885 10.0859 13.2885 11.7028 11.5961C13.3197 9.90384 15.4371 8.74999 18.0549 8.13461V0.75C12.2803 1.98077 7.89155 4.59615 4.88873 8.59615C1.96291 12.5962 0.5 17.6731 0.5 23.8269V33.75Z" fill="white"/>
</svg>
