<svg width="13" height="12" viewBox="0 0 13 12" fill="none" xmlns="http://www.w3.org/2000/svg">
<path d="M6.40503 0.000727765C6.08299 0.00571431 5.75457 0.0352572 5.42299 0.0933093C3.00558 0.517525 1.05178 2.44796 0.605379 4.86185C-0.098426 8.66839 2.81893 12 6.49995 12C9.58098 12 12.1271 9.66537 12.4625 6.67246C12.5027 6.31485 12.2225 5.99978 11.8625 5.99978C11.5625 5.99978 11.3043 6.22073 11.2719 6.51894C11.0121 8.92203 8.97077 10.8 6.49995 10.8C3.53533 10.8 1.19001 8.09857 1.79601 5.02826C2.16082 3.17959 3.63949 1.68609 5.4851 1.30507C7.20274 0.950544 8.80044 1.5266 9.8867 2.61411L9.02888 3.47195C8.76008 3.74076 8.95025 4.19971 9.33005 4.19971H11.9C12.2312 4.19971 12.5 3.9309 12.5 3.59969V1.02967C12.5 0.649258 12.0405 0.458507 11.7723 0.727317L10.734 1.76564C9.62799 0.657248 8.09679 -0.0254676 6.40503 0.000727765Z" fill="#777E91"/>
</svg>
