<svg width="48" height="49" viewBox="0 0 48 49" fill="none" xmlns="http://www.w3.org/2000/svg">
<path d="M35.983 32.948L32.447 36.484L40.317 44.354C40.512 44.549 40.829 44.549 41.024 44.354L43.852 41.526C44.047 41.331 44.047 41.014 43.852 40.819L35.983 32.948Z" fill="#199BE2"/>
<path d="M31.601 28.5649L28.065 32.1009L32.448 36.4829L35.983 32.9479L31.601 28.5649Z" fill="url(#paint0_radial_2333_20189)"/>
<path d="M20 36.5C28.8366 36.5 36 29.3366 36 20.5C36 11.6634 28.8366 4.5 20 4.5C11.1634 4.5 4 11.6634 4 20.5C4 29.3366 11.1634 36.5 20 36.5Z" fill="url(#paint1_linear_2333_20189)"/>
<path d="M13.5 19.5C14.8807 19.5 16 18.3807 16 17C16 15.6193 14.8807 14.5 13.5 14.5C12.1193 14.5 11 15.6193 11 17C11 18.3807 12.1193 19.5 13.5 19.5Z" fill="#1B9DE2"/>
<path d="M26.5 19.5C27.8807 19.5 29 18.3807 29 17C29 15.6193 27.8807 14.5 26.5 14.5C25.1193 14.5 24 15.6193 24 17C24 18.3807 25.1193 19.5 26.5 19.5Z" fill="#1B9DE2"/>
<path d="M25 27.5H15C14.448 27.5 14 27.052 14 26.5C14 25.948 14.448 25.5 15 25.5H25C25.552 25.5 26 25.948 26 26.5C26 27.052 25.552 27.5 25 27.5Z" fill="#1B9DE2"/>
<defs>
<radialGradient id="paint0_radial_2333_20189" cx="0" cy="0" r="1" gradientUnits="userSpaceOnUse" gradientTransform="translate(20.024 20.5959) scale(19.604)">
<stop offset="0.693" stop-color="#006185"/>
<stop offset="0.921" stop-color="#35C1F1"/>
</radialGradient>
<linearGradient id="paint1_linear_2333_20189" x1="8.911" y1="9.411" x2="31.339" y2="31.839" gradientUnits="userSpaceOnUse">
<stop stop-color="#A3FFFF"/>
<stop offset="0.223" stop-color="#9DFBFF"/>
<stop offset="0.53" stop-color="#8BF1FF"/>
<stop offset="0.885" stop-color="#6EE0FF"/>
<stop offset="1" stop-color="#63DAFF"/>
</linearGradient>
</defs>
</svg>
