<svg width="13" height="16" viewBox="0 0 13 16" fill="none" xmlns="http://www.w3.org/2000/svg">
<path d="M6.51636 0.485C6.38743 0.480977 6.26194 0.526929 6.1661 0.613255C6.1661 0.613255 3.66347 2.81833 0.666748 2.81833C0.534144 2.81835 0.406975 2.87103 0.313209 2.96479C0.219444 3.05856 0.166761 3.18573 0.166748 3.31833V7.40492C0.166748 9.63094 1.19655 13.2938 6.30607 15.4459C6.36749 15.4718 6.43345 15.4851 6.50008 15.4851C6.56671 15.4851 6.63268 15.4718 6.69409 15.4459C11.8036 13.2938 12.8334 9.63094 12.8334 7.40492V3.31833C12.8334 3.18573 12.7807 3.05856 12.687 2.96479C12.5932 2.87103 12.466 2.81835 12.3334 2.81833C9.33669 2.81833 6.83407 0.613255 6.83407 0.613255C6.74657 0.534425 6.63406 0.489005 6.51636 0.485ZM8.99943 5.81833C9.12735 5.81833 9.25528 5.86715 9.35295 5.96482C9.54828 6.15982 9.54828 6.47685 9.35295 6.67185L6.01961 10.0052C5.92261 10.1028 5.79475 10.1517 5.66675 10.1517C5.53875 10.1517 5.4109 10.1028 5.31323 10.0052L3.64657 8.33852C3.45123 8.14352 3.45123 7.82648 3.64657 7.63148C3.8419 7.43615 4.15826 7.43615 4.3536 7.63148L5.6661 8.94464L8.64591 5.96482C8.74358 5.86715 8.87151 5.81833 8.99943 5.81833Z" fill="#58C27D"/>
</svg>
