<svg width="32" height="22" viewBox="0 0 32 22" fill="none" xmlns="http://www.w3.org/2000/svg">
<rect y="0.75" width="32" height="21" rx="3" fill="#691B5F"/>
<path fill-rule="evenodd" clip-rule="evenodd" d="M20.7976 9.1575C21.2953 9.1575 21.7008 8.72216 21.7008 8.18788C21.7008 7.6536 21.2953 7.21826 20.7976 7.21826C20.2999 7.21826 19.8944 7.6536 19.8944 8.18788C19.8944 8.72216 20.2999 9.1575 20.7976 9.1575ZM13.8762 9.67199C13.8393 9.78082 13.5444 10.6713 12.8348 11.5914V7.6536L10.9454 8.05926V15.2028H12.8348V12.9964C13.3785 13.877 13.655 15.2028 13.655 15.2028H15.9222C15.701 14.2035 14.7149 12.3632 14.7149 12.3632C15.5904 11.166 15.9775 9.88966 16.042 9.68188H13.8762V9.67199ZM18.853 9.60273C17.1572 9.66209 16.3001 10.4734 16.3001 12.096V15.2028H18.1433V12.6699C18.1433 11.7003 18.2631 11.2847 19.3322 11.2451V9.63241C19.1571 9.59283 18.853 9.60273 18.853 9.60273ZM7.77506 10.4635C7.54465 10.4437 7.01011 10.414 7.01011 9.88966C7.01011 9.26633 7.78428 9.26633 8.06998 9.26633C8.57687 9.26633 9.24044 9.42463 9.71047 9.58294C9.71047 9.58294 9.96852 9.68188 10.1989 9.78082L10.2174 9.79071V8.07904L10.1897 8.06915C9.63674 7.86137 8.9916 7.66349 7.79349 7.66349C5.72906 7.66349 5.00098 8.95961 5.00098 10.0579C5.00098 10.6911 5.25903 12.195 7.61838 12.3731C7.82114 12.383 8.34647 12.4225 8.34647 12.9568C8.34647 13.402 7.9133 13.6593 7.17601 13.6593C6.37419 13.6593 5.59081 13.4416 5.12079 13.2338V14.9851C5.83044 15.183 6.62303 15.2819 7.56309 15.2819C9.58144 15.2819 10.4846 14.055 10.4846 12.848C10.4846 11.4826 9.47085 10.5822 7.77506 10.4635ZM19.8852 15.2028H21.7192V9.68188H19.8852V15.2028ZM25.1661 8.00979V15.2028H27.0001V7.6536L25.1661 8.00979ZM22.4934 8.00979L24.3274 7.6536V15.2028H22.4934V8.00979Z" fill="white"/>
</svg>
