<svg width="20" height="20" viewBox="0 0 20 20" fill="none" xmlns="http://www.w3.org/2000/svg">
<path d="M10.0047 0.847671C9.8645 0.846796 9.72689 0.885216 9.60744 0.958575C9.488 1.03193 9.3915 1.1373 9.32889 1.26271L6.75272 6.41505L0.635532 7.35646C0.498607 7.37762 0.370218 7.43629 0.264603 7.52596C0.158987 7.61563 0.0802726 7.73281 0.0371882 7.86449C-0.00589614 7.99617 -0.0116666 8.13721 0.0205166 8.27197C0.0526998 8.40673 0.121579 8.52994 0.219516 8.62794L4.45096 12.8594L3.50858 18.9834C3.4875 19.1204 3.5048 19.2606 3.55856 19.3884C3.61232 19.5161 3.70043 19.6265 3.81313 19.7073C3.92582 19.788 4.05868 19.8359 4.19696 19.8457C4.33524 19.8555 4.47353 19.8268 4.59647 19.7627L9.99979 16.9434L15.4031 19.7627C15.5261 19.8268 15.6643 19.8555 15.8026 19.8457C15.9409 19.8359 16.0738 19.788 16.1865 19.7073C16.2991 19.6265 16.3873 19.5161 16.441 19.3884C16.4948 19.2606 16.5121 19.1204 16.491 18.9834L15.5486 12.8594L19.7801 8.62794C19.878 8.52994 19.9469 8.40673 19.9791 8.27197C20.0112 8.13721 20.0055 7.99617 19.9624 7.86449C19.9193 7.73281 19.8406 7.61563 19.735 7.52596C19.6294 7.43629 19.501 7.37762 19.364 7.35646L13.2469 6.41505L10.6707 1.26271C10.6088 1.13878 10.5138 1.0344 10.3963 0.961143C10.2787 0.887885 10.1432 0.84861 10.0047 0.847671Z" fill="#E4E5ED"/>
</svg>
