<svg width="37" height="37" viewBox="0 0 37 37" fill="none" xmlns="http://www.w3.org/2000/svg">
<path opacity="0.7" d="M36.7498 18.6511C36.6962 28.5921 28.594 36.6951 18.653 36.7497C8.71202 36.8043 0.696711 28.7898 0.750296 18.8489C0.803881 8.90788 8.90607 0.804855 18.847 0.75025C28.788 0.695646 36.8033 8.71014 36.7498 18.6511ZM4.35024 18.8291C4.30737 26.7819 10.7196 33.1935 18.6724 33.1498C26.6252 33.1061 33.1069 26.6237 33.1498 18.6709C33.1927 10.7181 26.7804 4.30651 18.8276 4.3502C10.8749 4.39388 4.39311 10.8763 4.35024 18.8291Z" fill="#4B50C8" fill-opacity="0.2"/>
<path d="M18.8373 2.55022C18.8427 1.55613 19.6551 0.736479 20.6437 0.830277C24.3735 1.18417 27.9039 2.69825 30.7262 5.1828C33.9984 8.06334 36.0941 12.0504 36.62 16.3959C37.1459 20.7415 36.0659 25.1468 33.5827 28.7856C31.4409 31.9241 28.3821 34.3062 24.8536 35.6162C23.9183 35.9634 22.9362 35.3802 22.6942 34.4187C22.4521 33.4572 23.0435 32.4834 23.97 32.113C26.6504 31.0414 28.9713 29.1887 30.6162 26.7784C32.6028 23.8675 33.4667 20.3432 33.046 16.8667C32.6253 13.3903 30.9488 10.2007 28.331 7.89624C26.1635 5.98816 23.474 4.79554 20.6224 4.45266C19.6367 4.33415 18.832 3.54432 18.8373 2.55022Z" fill="#4B50C8"/>
<path d="M13.4866 12.6514C12.8483 12.6514 12.3199 13.1797 12.3199 13.818V19.4847C12.3199 20.123 12.8483 20.6514 13.4866 20.6514H23.8199C24.4582 20.6514 24.9866 20.123 24.9866 19.4847V13.818C24.9866 13.1797 24.4582 12.6514 23.8199 12.6514H13.4866ZM14.3199 13.6514H22.9866C22.9866 14.2047 23.4332 14.6514 23.9866 14.6514V18.6514C23.4332 18.6514 22.9866 19.098 22.9866 19.6514H14.3199C14.3199 19.098 13.8732 18.6514 13.3199 18.6514V14.6514C13.8732 14.6514 14.3199 14.2047 14.3199 13.6514ZM18.6532 14.318C17.5502 14.318 16.6532 15.3647 16.6532 16.6514C16.6532 17.938 17.5502 18.9847 18.6532 18.9847C19.7562 18.9847 20.6532 17.938 20.6532 16.6514C20.6532 15.3647 19.7562 14.318 18.6532 14.318ZM14.6532 15.9847C14.4764 15.9847 14.3069 16.0549 14.1818 16.18C14.0568 16.305 13.9866 16.4746 13.9866 16.6514C13.9866 16.8282 14.0568 16.9977 14.1818 17.1228C14.3069 17.2478 14.4764 17.318 14.6532 17.318C14.8301 17.318 14.9996 17.2478 15.1247 17.1228C15.2497 16.9977 15.3199 16.8282 15.3199 16.6514C15.3199 16.4746 15.2497 16.305 15.1247 16.18C14.9996 16.0549 14.8301 15.9847 14.6532 15.9847ZM22.6532 15.9847C22.4764 15.9847 22.3069 16.0549 22.1818 16.18C22.0568 16.305 21.9866 16.4746 21.9866 16.6514C21.9866 16.8282 22.0568 16.9977 22.1818 17.1228C22.3069 17.2478 22.4764 17.318 22.6532 17.318C22.8301 17.318 22.9996 17.2478 23.1247 17.1228C23.2497 16.9977 23.3199 16.8282 23.3199 16.6514C23.3199 16.4746 23.2497 16.305 23.1247 16.18C22.9996 16.0549 22.8301 15.9847 22.6532 15.9847ZM13.3349 21.3174C13.4086 21.8691 13.8644 22.2974 14.4391 22.3174C18.0641 22.4427 20.7474 23.6505 22.1891 24.2992C22.4457 24.4148 22.6665 24.5135 22.8492 24.5882C22.9502 24.6295 23.056 24.6501 23.1617 24.6501C23.323 24.6501 23.4827 24.6024 23.6207 24.5101C23.8497 24.3564 23.9866 24.0993 23.9866 23.8226V21.318H22.9866V22.6514C22.6081 22.6514 22.2834 22.8625 22.1135 23.1715C20.5303 22.4726 17.9231 21.4372 14.4736 21.318C14.4729 21.318 14.4723 21.3174 14.4723 21.3174H13.3349Z" fill="#4B50C8"/>
</svg>
