<svg width="37" height="37" viewBox="0 0 37 37" fill="none" xmlns="http://www.w3.org/2000/svg">
<path d="M23.7179 15.8817C23.4779 15.4844 23.1796 14.9894 23.1276 14.8334C22.3763 12.5794 20.5856 11.2157 18.3199 11.1514V15.4167C18.9013 15.6234 19.3199 16.1727 19.3199 16.8247C19.3199 17.4767 18.9013 18.0264 18.3199 18.2327V18.4914C18.3199 19.0427 18.7686 19.4914 19.3199 19.4914H20.1569C20.3089 19.29 20.5479 19.158 20.8199 19.158C21.2803 19.158 21.6533 19.531 21.6533 19.9914C21.6533 20.4517 21.2803 20.8247 20.8199 20.8247C20.5483 20.8247 20.3093 20.6927 20.1569 20.4914H19.3199C18.2169 20.4914 17.3199 19.5944 17.3199 18.4914V18.2327C16.7386 18.026 16.3199 17.4767 16.3199 16.8247C16.3199 16.1727 16.7386 15.623 17.3199 15.4167V11.1984C14.5353 11.5227 12.6533 13.468 12.6533 16.158C12.6533 17.7837 13.1133 18.5837 13.5583 19.3574C14.0966 20.2937 14.6533 21.262 14.6533 23.9914C14.6533 24.2677 14.8769 24.4914 15.1533 24.4914H20.4866C20.7629 24.4914 20.9866 24.2677 20.9866 23.9914V22.645C20.9866 22.553 21.0613 22.4784 21.1533 22.4784C22.3479 22.4784 23.3199 21.5064 23.3199 20.3117V18.8624C24.6533 18.4267 24.6533 18.0254 24.6533 17.8247C24.6533 17.4687 24.3683 16.9594 23.7179 15.8817Z" fill="#4B50C8"/>
<path opacity="0.7" d="M36.7498 18.1511C36.6962 28.0921 28.594 36.1951 18.653 36.2497C8.71202 36.3043 0.696711 28.2898 0.750296 18.3489C0.803881 8.40788 8.90607 0.304855 18.847 0.25025C28.788 0.195646 36.8033 8.21014 36.7498 18.1511ZM4.35024 18.3291C4.30737 26.2819 10.7196 32.6935 18.6724 32.6498C26.6252 32.6061 33.1069 26.1237 33.1498 18.1709C33.1927 10.2181 26.7804 3.80651 18.8276 3.8502C10.8749 3.89388 4.39311 10.3763 4.35024 18.3291Z" fill="#4B50C8" fill-opacity="0.2"/>
<path d="M18.8373 2.05022C18.8427 1.05613 19.6551 0.236479 20.6437 0.330277C24.3735 0.684167 27.9039 2.19825 30.7262 4.6828C33.9984 7.56334 36.0941 11.5504 36.62 15.8959C37.1459 20.2415 36.0659 24.6468 33.5827 28.2856C31.4409 31.4241 28.3821 33.8062 24.8536 35.1162C23.9183 35.4634 22.9362 34.8802 22.6942 33.9187C22.4521 32.9572 23.0435 31.9834 23.97 31.613C26.6504 30.5414 28.9713 28.6887 30.6162 26.2784C32.6028 23.3675 33.4667 19.8432 33.046 16.3667C32.6253 12.8903 30.9488 9.70067 28.331 7.39624C26.1635 5.48816 23.474 4.29554 20.6224 3.95266C19.6367 3.83415 18.832 3.04432 18.8373 2.05022Z" fill="#4B50C8"/>
</svg>
