<svg width="22" height="18" viewBox="0 0 22 18" fill="none" xmlns="http://www.w3.org/2000/svg">
<path d="M21.4 2.29963C20.6344 2.63963 19.812 2.86843 18.9488 2.97163C19.8304 2.44363 20.5064 1.60763 20.8248 0.610828C20.0008 1.09963 19.0872 1.45483 18.1144 1.64683C17.336 0.817228 16.2272 0.298828 15 0.298828C12.6432 0.298828 10.7328 2.21003 10.7328 4.56603C10.7328 4.90043 10.7712 5.22683 10.8432 5.53803C7.29684 5.36043 4.15284 3.66123 2.04724 1.07883C1.68084 1.70923 1.47044 2.44203 1.47044 3.22523C1.47044 4.70523 2.22324 6.01163 3.36804 6.77643C2.66884 6.75403 2.01044 6.56203 1.43524 6.24283C1.43524 6.26123 1.43524 6.27803 1.43524 6.29643C1.43524 8.36443 2.90564 10.0892 4.85844 10.4804C4.50084 10.578 4.12324 10.63 3.73364 10.63C3.45924 10.63 3.19124 10.6028 2.93124 10.554C3.47444 12.2492 5.05044 13.4836 6.91764 13.518C5.45764 14.6628 3.61764 15.3452 1.61764 15.3452C1.27364 15.3452 0.933643 15.3252 0.599243 15.2852C2.48804 16.4956 4.73044 17.202 7.14084 17.202C14.9904 17.202 19.2816 10.6996 19.2816 5.06043C19.2816 4.87563 19.2776 4.69163 19.2696 4.50843C20.104 3.90603 20.828 3.15483 21.4 2.29963Z" fill="white"/>
</svg>
