<svg width="22" height="18" viewBox="0 0 22 18" fill="none" xmlns="http://www.w3.org/2000/svg">
<path d="M21.4 2.54963C20.6344 2.88963 19.812 3.11843 18.9488 3.22163C19.8304 2.69363 20.5064 1.85763 20.8248 0.860828C20.0008 1.34963 19.0872 1.70483 18.1144 1.89683C17.336 1.06723 16.2272 0.548828 15 0.548828C12.6432 0.548828 10.7328 2.46003 10.7328 4.81603C10.7328 5.15043 10.7712 5.47683 10.8432 5.78803C7.29678 5.61043 4.15278 3.91123 2.04718 1.32883C1.68078 1.95923 1.47038 2.69203 1.47038 3.47523C1.47038 4.95523 2.22318 6.26163 3.36798 7.02643C2.66878 7.00403 2.01038 6.81203 1.43518 6.49283C1.43518 6.51123 1.43518 6.52803 1.43518 6.54643C1.43518 8.61443 2.90558 10.3392 4.85838 10.7304C4.50078 10.828 4.12318 10.88 3.73358 10.88C3.45918 10.88 3.19118 10.8528 2.93118 10.804C3.47438 12.4992 5.05038 13.7336 6.91758 13.768C5.45758 14.9128 3.61758 15.5952 1.61758 15.5952C1.27358 15.5952 0.933582 15.5752 0.599182 15.5352C2.48798 16.7456 4.73038 17.452 7.14078 17.452C14.9904 17.452 19.2816 10.9496 19.2816 5.31043C19.2816 5.12563 19.2776 4.94163 19.2696 4.75843C20.104 4.15603 20.828 3.40483 21.4 2.54963Z" fill="white"/>
</svg>
